<?xml version="1.0" encoding="UTF-8" standalone="no"?>
<svg
   xmlns:dc="http://purl.org/dc/elements/1.1/"
   xmlns:cc="http://creativecommons.org/ns#"
   xmlns:rdf="http://www.w3.org/1999/02/22-rdf-syntax-ns#"
   xmlns:svg="http://www.w3.org/2000/svg"
   xmlns="http://www.w3.org/2000/svg"
   xmlns:xlink="http://www.w3.org/1999/xlink"
   xmlns:sodipodi="http://sodipodi.sourceforge.net/DTD/sodipodi-0.dtd"
   xmlns:inkscape="http://www.inkscape.org/namespaces/inkscape"
   width="1000"
   height="104"
   viewBox="0 0 1000 104"
   version="1.1"
   inkscape:version="0.92.5 (2060ec1f9f, 2020-04-08)"
   id="svg13"
   sodipodi:docname="auroracms.svg">
  <metadata
     id="metadata15">
    <rdf:RDF>
      <cc:Work
         rdf:about="">
        <dc:format>image/svg+xml</dc:format>
        <dc:type
           rdf:resource="http://purl.org/dc/dcmitype/StillImage" />
        <dc:title></dc:title>
      </cc:Work>
    </rdf:RDF>
  </metadata>
  <defs
     id="defs10">
    <linearGradient
       inkscape:collect="always"
       id="linearGradient4156">
      <stop
         style="stop-color:#ff0000;stop-opacity:1;"
         offset="0"
         id="stop4158" />
      <stop
         style="stop-color:#6dfc0e;stop-opacity:1"
         offset="1"
         id="stop4160" />
    </linearGradient>
    <linearGradient
       inkscape:collect="always"
       xlink:href="#linearGradient4156"
       id="linearGradient4162"
       x1="0.447541"
       y1="1051.8695"
       x2="2.8509145"
       y2="1050.3662"
       gradientUnits="userSpaceOnUse"
       gradientTransform="matrix(41.614466,0,0,41.614466,105.42153,-42735.901)" />
  </defs>
  <sodipodi:namedview
     pagecolor="#ffffff"
     bordercolor="#666666"
     borderopacity="1"
     objecttolerance="10"
     gridtolerance="10"
     guidetolerance="10"
     inkscape:pageopacity="0"
     inkscape:pageshadow="2"
     inkscape:window-width="1366"
     inkscape:window-height="717"
     id="namedview8"
     showgrid="false"
     inkscape:zoom="1.9256033"
     inkscape:cx="326.96715"
     inkscape:cy="89.864661"
     inkscape:window-x="0"
     inkscape:window-y="0"
     inkscape:window-maximized="1"
     inkscape:current-layer="layer1" />
  <g
     inkscape:label="Layer 1"
     inkscape:groupmode="layer"
     id="layer1"
     transform="translate(0,-948.3622)">
    <g
       id="g43"
       transform="matrix(1.1165452,0,0,1.1165452,-116.57489,-122.71379)">
      <path
         inkscape:connector-curvature="0"
         id="path8"
         style="fill:url(#linearGradient4162);fill-opacity:1;fill-rule:nonzero;stroke-width:41.61446762"
         d="m 171.55385,1050.3914 c -3.15854,-3.9533 -4.05326,-9.3133 -1.54807,-9.3133 2.83811,0 5.44568,2.9962 6.19141,7.0787 0.66999,3.662 -2.33041,5.1227 -4.64168,2.2471 z m 11.32329,0.6659 c -2.50519,-1.5398 -5.53722,-9.6421 -3.97418,-10.6076 1.78526,-1.0819 4.33331,0.9155 6.61337,5.2435 2.13066,4.0366 0.52018,7.3158 -2.63836,5.3641 z m -32.39437,-3.2043 c -3.81604,-3.8286 -4.39656,-6.0134 -1.98084,-7.5073 1.91426,-1.1652 7.05406,6.3837 6.16018,9.0636 -0.43695,1.2901 -1.83103,0.7907 -4.17726,-1.5397 z m 9.06363,-1.1236 c -1.01123,-2.2056 -1.36079,-4.5069 -0.78235,-5.0895 1.41906,-1.4149 7.51766,4.2239 7.51766,6.9538 0,3.7037 -4.80481,2.372 -6.73739,-1.8727 z m 30.1784,0.4577 c -3.10028,-4.4278 -3.22096,-7.6945 -0.2913,-7.6945 2.68413,0 5.05449,2.7882 6.55012,7.6487 1.49395,4.8773 -2.85476,4.9064 -6.26173,0 z m 8.82227,-1.1652 c -2.01414,-3.7869 -2.1806,-8.1606 -0.2913,-8.1606 2.24718,0 6.69077,5.697 6.69077,8.5809 0,3.7037 -4.33914,3.4124 -6.38449,-0.4161 z m -59.31643,-0.4161 c -1.06117,-1.082 -1.91011,-3.4124 -1.87681,-5.2351 0.0416,-3.1627 0.16645,-3.1211 3.22096,0.4993 4.66747,5.6055 3.53306,9.6088 -1.33999,4.7358 z m 68.20778,-1.6646 c -2.81314,-3.995 -3.28339,-7.6945 -0.98627,-7.6945 1.92675,0 6.53222,6.496 6.53222,9.2176 0,3.2043 -2.77568,2.4136 -5.54471,-1.5397 z m -79.41497,-1.2484 c -3.1086,-4.973 -2.397,-7.3242 1.22346,-4.0367 3.17518,2.8714 4.38076,7.2452 1.9975,7.2452 -0.67416,0 -2.12234,-1.4565 -3.22096,-3.2044 z m 87.19437,-0.8739 c -1.46899,-2.2472 -2.1473,-4.5984 -1.5106,-5.2351 1.21098,-1.2068 7.32623,5.3724 7.32623,7.8776 0,2.8298 -3.19183,1.3733 -5.81729,-2.6218 z m 7.81479,-0.7491 c -3.10861,-4.9729 -2.397,-7.3241 1.22346,-4.0366 3.17518,2.8714 4.38075,7.245 1.99749,7.245 -0.67415,0 -2.12234,-1.4565 -3.22095,-3.2043 z m -105.69118,-0.9572 c -1.76029,-4.5859 -0.92384,-6.3753 1.4898,-3.1626 1.29837,1.7061 2.3637,3.7036 2.3637,4.4278 0,2.2887 -2.84227,1.3732 -3.8535,-1.2485 z m 112.67866,-0.9987 c -1.35663,-1.9559 -2.17227,-3.8285 -1.81023,-4.1864 1.07365,-1.082 3.95337,1.2068 5.75445,4.5817 2.33873,4.3696 -0.82813,4.0367 -3.94505,-0.4161 z m 7.83101,-0.4161 c -1.71868,-1.2485 -2.55929,-2.8298 -1.87265,-3.5373 0.68663,-0.6658 2.8381,0.4162 4.78358,2.2888 3.94089,3.9534 1.93924,4.7982 -2.90885,1.2485 z m -130.55416,-1.9143 c -0.59924,-1.6646 -1.38576,-3.5788 -1.74364,-4.253 -0.37454,-0.6658 0.0832,-1.2068 0.94465,-1.2068 1.85184,0 4.15728,6.2463 2.80481,7.5988 -0.50353,0.4993 -1.40657,-0.4578 -2.00582,-2.1224 z m 60.91942,-5.7844 c -2.35537,-2.372 -2.57177,-9.3383 -0.2913,-9.3383 2.55929,0 5.62877,7.861 3.78692,9.7045 -1.01539,0.9987 -2.24718,0.8739 -3.49978,-0.4161 z m -29.78222,-1.9975 c -2.98376,-2.9962 -3.69121,-7.3449 -1.19434,-7.3449 1.98917,0 5.27672,6.0756 4.51767,8.3561 -0.33292,1.0404 -1.6729,0.6243 -3.325,-0.9987 z m 8.50807,-0.9571 c -2.23885,-4.1906 -0.54514,-7.2701 2.57594,-4.6817 2.56761,2.1224 3.09196,7.9317 0.71993,7.9317 -0.8531,0 -2.33873,-1.4565 -3.29587,-3.2459 z m 10.75318,2.1639 c -0.59092,-0.5826 -1.07365,-2.8714 -1.07365,-5.0769 0,-3.9118 0.0832,-3.9534 3.22096,-1.082 1.77278,1.5813 3.22096,3.8701 3.22096,5.0811 0,2.2472 -3.49562,2.9547 -5.36785,1.082 z m 18.57254,-0.8739 c -2.57593,-2.5801 -2.46774,-7.7278 0.16646,-7.7278 2.98792,0 5.95836,3.3708 5.95836,6.7624 0,3.3291 -3.25842,3.8285 -6.11941,0.9571 z m 8.36118,-2.2056 c -1.27756,-5.0894 1.90178,-9.2092 4.24176,-5.5056 0.83645,1.3317 1.53141,4.0367 1.5439,6.0258 0.0345,5.0354 -4.4927,4.6275 -5.78483,-0.541 z m 9.23092,0 c -1.36912,-2.9962 -1.45235,-4.823 -0.2913,-6.0008 2.20973,-2.2055 4.67622,0.4162 5.26423,5.256 0.6367,5.3973 -2.64668,5.8884 -4.98666,0.749 z m -65.92855,0.6659 c -2.27215,-2.2888 -2.526,-6.0924 -0.41615,-6.0924 1.58135,0 4.09071,6.213 2.96711,7.3408 -0.37453,0.4161 -1.51476,0 -2.56345,-1.2484 z m 74.75706,-0.5826 c -0.53683,-1.4149 -0.97794,-4.0366 -0.97794,-5.8302 0,-2.7466 0.41614,-2.9546 2.41364,-1.2901 2.59674,2.164 3.35412,9.6629 0.97794,9.6629 -0.79068,0 -1.87681,-1.1652 -2.41364,-2.5385 z m 8.96334,0.4577 c -1.17353,-1.4149 -1.88513,-4.2488 -1.57303,-6.2921 l 0.5618,-3.7037 2.08072,3.7037 c 1.1444,2.0391 1.85185,4.8689 1.57302,6.2921 -0.46191,2.372 -0.68247,2.372 -2.64251,0 z m -94.99501,-3.5788 c -2.15563,-4.7316 0.37453,-5.5389 2.8714,-0.9155 2.02246,3.7869 2.09321,4.9396 0.33291,4.9396 -0.74489,0 -2.17643,-1.831 -3.18766,-4.0366 z m 101.36827,1.8726 c -1.14856,-1.3732 -1.8144,-3.8285 -1.48148,-5.4098 0.53266,-2.5385 0.85726,-2.4553 2.65084,0.8322 2.55929,4.6401 1.68955,8.0441 -1.17353,4.5943 z m 6.25631,-0.9987 c -1.01539,-1.8726 -1.52309,-4.3113 -1.12775,-5.3683 0.37453,-1.0403 1.54806,0 2.56345,2.705 2.21806,5.5805 1.16937,7.5114 -1.4357,2.6217 z m 6.46023,0.8323 c -1.07781,-1.2901 -1.68122,-3.2043 -1.34414,-4.2072 0.33291,-0.9988 1.47731,0 2.53432,2.372 2.1473,4.7191 1.73116,5.3683 -1.19018,1.831 z m -123.74353,-3.2875 c -1.01123,-2.2056 -1.17769,-4.0367 -0.37453,-4.0367 1.58551,0 4.03661,6.238 2.89637,7.3741 -0.37453,0.4162 -1.51893,-1.1235 -2.526,-3.3292 z m 20.84885,-9.4174 c -1.14856,-1.3733 -1.81439,-3.8285 -1.48147,-5.4099 0.53266,-2.5385 0.85725,-2.4552 2.65084,0.8323 2.55929,4.64 1.68954,8.0399 -1.17353,4.5901 z m 9.8335,0.4161 c -2.4178,-2.4136 -2.62171,-6.1797 -0.33292,-6.1797 1.9434,0 3.72866,3.9534 2.90053,6.4502 -0.37453,1.1652 -1.23595,1.0404 -2.56761,-0.4161 z m 9.6017,0 c -2.3096,-2.3304 -2.57593,-7.7319 -0.37453,-7.7319 0.8531,0 2.37203,1.5397 3.37078,3.4123 2.1473,3.995 -0.0832,7.241 -2.99208,4.3363 z m 9.66205,0 c -2.67165,-2.6633 -2.42612,-7.7319 0.37453,-7.7319 2.77985,0 5.04201,6.1797 3.00457,8.2147 -0.85726,0.8739 -2.2347,0.6658 -3.3791,-0.4994 z m -40.44468,-3.2875 c -0.75322,-1.9975 -1.03204,-3.995 -0.62006,-4.4236 0.84894,-0.9156 5.31667,4.7565 5.31667,6.7457 0,2.7881 -3.39574,1.1236 -4.69536,-2.3304 z m 49.24739,2.5385 c -1.70203,-1.7062 -1.24843,-6.6792 0.71577,-7.8943 2.07656,-1.29 4.59049,2.0807 4.62628,6.1506 0.0241,2.7882 -3.24593,3.8286 -5.3433,1.7478 z m 9.66205,0 c -0.59093,-0.5826 -1.07366,-2.7466 -1.07366,-4.8315 0,-4.6233 4.20847,-5.0353 5.63169,-0.541 1.51477,4.7732 -1.54806,8.3895 -4.55803,5.3808 z m 8.63791,-1.2901 c -2.58842,-3.1211 -1.47731,-7.9483 1.98085,-8.6142 2.15979,-0.4161 2.80065,0.5826 2.80065,4.3154 0,5.7054 -2.06823,7.5656 -4.7815,4.2988 z m -77.27099,-2.3304 c -0.99042,-1.831 -1.12775,-3.3708 -0.2913,-3.3708 1.65626,0 3.94089,4.8773 2.81314,6.005 -0.37453,0.4162 -1.52309,-0.7907 -2.50935,-2.6633 z m 85.89143,0.7491 c -1.25259,-3.2876 -0.16646,-7.7611 2.06407,-8.5019 1.03204,-0.4161 2.31793,0.7491 2.85476,2.4553 1.86433,5.8676 -2.79233,11.5896 -4.91758,6.0466 z m 8.11773,-1.623 c -1.04452,-4.1614 0.0832,-7.3408 2.63004,-7.3408 0.83228,0 1.51476,2.5385 1.51476,5.6388 0,6.4544 -2.6758,7.5572 -4.1448,1.7062 z m 22.23378,-0.9155 c 0,-3.0795 0.33291,-4.3695 0.73658,-2.8298 0.41614,1.5397 0.41614,4.0782 0,5.6346 -0.41615,1.5397 -0.73658,0.4161 -0.73658,-2.8298 z m 4.7711,0.7907 c 0.0329,-2.6634 0.37453,-3.5373 0.80316,-1.9975 0.41614,1.5813 0.37453,3.7453 -0.0416,4.8314 -0.44111,1.082 -0.77403,0 -0.74074,-2.8298 z m -18.56422,1.3316 c -1.59799,-1.5813 -1.29837,-8.5892 0.37453,-8.5892 1.60632,0 3.39158,3.8701 3.39158,7.3782 0,2.4137 -1.93923,3.0379 -3.75778,1.2069 z m 6.55845,-1.9559 c -0.43696,-1.6645 -0.24969,-3.9117 0.37452,-4.9687 1.05701,-1.7062 3.15022,2.7049 3.22513,6.8039 0.0416,2.5385 -2.85892,1.0404 -3.62046,-1.831 z M 106.99815,996.87522 c -1.01123,-2.20556 -1.17769,-4.0366 -0.37453,-4.0366 1.58551,0 4.03661,6.23801 2.89637,7.37828 -0.37453,0.4161 -1.51893,-1.12362 -2.526,-3.32919 z m 10.43941,2.95463 c -0.59093,-0.5826 -1.04869,-2.58009 -1.02372,-4.42778 0.0416,-3.28754 0.0832,-3.28754 2.41364,-0.41614 1.29837,1.70619 2.3637,3.70369 2.3637,4.42778 0,1.58139 -2.27215,1.70619 -3.75778,0.41614 z m 9.66204,0 c -0.59092,-0.5826 -1.07365,-2.49686 -1.07365,-4.22387 0,-2.62171 0.41615,-2.82978 2.41364,-1.1652 1.3275,1.12359 2.41364,2.99624 2.41364,4.22387 0,2.33045 -1.96004,2.95465 -3.75779,1.1652 z m 9.35494,-2.24718 c -0.58261,-1.83104 -0.57428,-3.82853 0.0229,-4.42362 1.40657,-1.41489 5.81437,4.59008 4.69994,6.39199 -1.47731,2.37206 -3.62462,1.49816 -4.72283,-1.95588 z m 10.43732,-0.0125 c -1.37328,-2.5801 -1.37744,-3.91176 -0.0142,-5.26423 1.93507,-1.95589 4.8381,0.95713 4.88845,4.89386 0.0416,3.5789 -3.02537,3.8286 -4.87472,0.41614 z m 9.89925,-1.16521 c -1.80607,-3.37077 0.24969,-7.69035 2.8714,-6.06323 2.19308,1.37328 2.39283,8.96792 0.24969,8.96792 -0.8531,0 -2.25551,-1.29005 -3.1086,-2.91301 z m 10.56633,0.41615 c -2.05159,-2.03911 -1.10278,-8.58923 1.24844,-8.58923 3.1835,0 4.52848,2.62171 3.31251,6.4544 -1.04036,3.28755 -2.65501,4.03661 -4.55804,2.12234 z m 63.47746,-1.33167 c -0.0416,-1.78942 0.61173,-4.30709 1.47315,-5.6346 1.38576,-2.16395 1.55222,-2.16395 1.47315,0 -0.0416,1.33167 -0.71161,3.87015 -1.47315,5.6346 -1.38576,3.20432 -1.38576,3.20432 -1.47315,0 z m -54.20118,-1.33166 c -1.47731,-3.87015 -0.12484,-8.32706 2.55513,-8.32706 3.28754,0 3.91592,6.25466 0.88222,8.7765 -2.03494,1.70619 -2.64668,1.62296 -3.43319,-0.45776 z m 8.34703,-1.99749 c -1.26092,-3.28755 1.67707,-8.73904 4.70951,-8.73904 2.86723,0 3.17102,6.59589 0.42447,9.33828 -2.59258,2.5801 -3.97002,2.41365 -5.13606,-0.5826 z m 40.90993,-0.99875 c -0.0137,-2.37203 0.69913,-4.7815 1.58552,-5.32666 2.05575,-1.29004 2.05575,4.07822 0,7.24509 -1.21931,1.87264 -1.56471,1.4565 -1.58552,-1.91427 z m -31.24788,-0.62422 c -1.10695,-2.8714 1.54389,-8.73904 3.95337,-8.73904 2.63004,0 3.49145,4.34039 1.56887,7.92756 -2.13482,3.99499 -4.19141,4.29045 -5.52516,0.79067 z m 24.80638,-0.99874 c 0.0137,-2.03911 0.72825,-4.80648 1.58551,-6.13398 1.18601,-1.83103 1.5647,-1.1652 1.58551,2.70494 0.0134,2.82979 -0.69912,5.58882 -1.58551,6.13397 -0.89887,0.54099 -1.598,-0.66583 -1.58551,-2.70493 z m -16.12768,-1.91427 c 0,-4.92715 4.34788,-8.96792 5.74112,-5.33498 1.07366,2.78817 -1.83103,9.16351 -4.18766,9.16351 -0.85309,0 -1.55222,-1.70619 -1.55222,-3.82853 z m 8.78564,1.78942 c -0.54099,-1.41489 -0.0254,-4.24467 1.1444,-6.30459 l 2.1265,-3.7453 0.54099,4.62337 c 0.62838,5.36826 -2.25551,9.47977 -3.80773,5.43068 z m -94.66958,-2.28881 c -0.59093,-0.58261 -1.04869,-2.5801 -1.02372,-4.42778 0.0416,-3.28755 0.0832,-3.28755 2.41364,-0.41615 1.29837,1.7062 2.3637,3.70369 2.3637,4.42778 0,1.58135 -2.27215,1.7062 -3.75778,0.41615 z m 10.58089,-0.79068 c -2.4178,-2.41364 -2.62171,-6.17975 -0.33291,-6.17975 1.94339,0 3.72865,3.95338 2.90052,6.45025 -0.37453,1.1652 -1.23595,1.04036 -2.56761,-0.41615 z m -21.24252,-2.82978 c -1.24427,-2.33041 -1.26924,-3.37077 -0.0832,-3.37077 1.95172,0 4.07822,4.51517 2.75072,5.84267 -0.47857,0.49937 -1.68123,-0.62422 -2.67165,-2.49687 z m 31.59579,1.9975 c -0.59093,-0.58261 -1.07366,-2.45526 -1.07366,-4.16145 0,-4.17394 3.89095,-2.70494 4.54056,1.74781 0.49937,3.37076 -1.26924,4.6192 -3.46649,2.41364 z m 9.37032,-3.82854 c -1.34414,-4.23635 1.56887,-7.87762 4.20015,-5.24758 2.13899,2.12234 1.36912,7.23259 -1.22346,8.09817 -1.03204,0.41615 -2.37203,-0.95713 -2.9796,-2.8714 z m 91.00627,0.41615 c 0,-0.70745 1.02787,-2.70494 2.28463,-4.42362 2.99624,-4.11983 5.00206,-2.03911 2.27215,2.33041 -2.11818,3.41239 -4.55553,4.50685 -4.55553,2.08072 z m -80.23394,-4.59424 c 0.66583,-5.80105 5.35411,-6.29627 5.35411,-0.5826 0,2.58009 -1.03204,4.20306 -2.93798,4.56927 -2.37618,0.45775 -2.83811,-0.41615 -2.41364,-3.99499 z m 11.09233,0.41614 c -1.43986,-1.74781 -1.48147,-3.20431 -0.16646,-5.6554 2.44694,-4.57759 6.49644,-4.26132 6.49644,0.49937 0,5.23094 -3.7453,8.27712 -6.33913,5.15187 z m 64.36427,-1.1652 c -0.0295,-1.45651 1.37327,-4.34871 3.11276,-6.44192 2.48438,-2.99624 3.17935,-3.24593 3.22095,-1.16521 0.0295,1.45651 -1.37327,4.35288 -3.11275,6.44192 -2.48439,2.99625 -3.17935,3.24593 -3.22096,1.16521 z m -54.17372,-2.08072 c -1.18601,-3.07948 2.13483,-8.98457 5.06198,-8.98457 2.75072,0 3.06699,3.70369 0.69081,8.1606 -1.96421,3.66207 -4.521,4.0366 -5.75404,0.83229 z m 10.92339,-5.05616 c 0.53682,-4.53598 5.09028,-8.75152 7.18723,-6.65415 1.95172,1.95588 -1.68123,9.90008 -4.80481,10.50349 -2.32208,0.45775 -2.80065,-0.41615 -2.3845,-3.87015 z m 36.75556,1.87265 c 0,-1.24844 1.42321,-3.95337 3.16685,-6.03826 2.75072,-3.28754 3.17519,-3.41239 3.22096,-0.87391 0.0832,3.7037 -2.80481,9.15103 -4.83393,9.15103 -0.85309,0 -1.55222,-0.99875 -1.55222,-2.24719 z m -27.37566,-2.24718 c 0,-3.37078 4.34163,-10.0166 6.53263,-10.0166 2.02247,0 1.93507,5.8718 -0.16645,9.76691 -2.08905,3.91176 -6.38491,4.07822 -6.38491,0.41615 z m 20.21256,1.37328 c -1.10279,-1.78943 1.50228,-9.09693 3.73281,-10.47436 2.98376,-1.83104 3.57469,2.16394 1.04037,7.07029 -2.7091,5.2351 -3.35413,5.69702 -4.77194,3.41239 z m -8.94004,-3.82854 c 0,-4.07821 4.08654,-8.85971 5.97459,-6.97042 1.51477,1.49812 -1.55222,9.46313 -3.9617,10.26213 -1.24427,0.41615 -2.01413,-0.83229 -2.01413,-3.28755 z" />
      <text
         id="text19"
         y="1050.5669"
         x="255.05986"
         style="font-style:normal;font-weight:normal;font-size:40px;line-height:1.25;font-family:sans-serif;letter-spacing:0px;word-spacing:0px;fill:#000000;fill-opacity:1;stroke:none"
         xml:space="preserve"><tspan
           style="font-style:normal;font-variant:normal;font-weight:bold;font-stretch:normal;font-size:120px;font-family:sans-serif;-inkscape-font-specification:'sans-serif Bold'"
           y="1050.5669"
           x="255.05986"
           id="tspan17"
           sodipodi:role="line">AuroraCMS</tspan></text>
    </g>
  </g>
</svg>
