<svg role="img" focusable="false" aria-hidden="true" xmlns="http://www.w3.org/2000/svg" viewBox="0 0 200 50"><path d="m 133.6341,39.759954 h 0.55703 v -2.641927 c 0.25058,-0.203338 0.54999,-0.315212 0.87031,-0.315212 0.53609,0 0.82855,0.308409 0.82855,0.854966 v 2.102325 h 0.55698 v -2.214425 c 0,-0.140221 -0.0151,-0.266457 -0.0487,-0.385436 0.25776,-0.231307 0.57789,-0.357544 0.91903,-0.357544 0.53612,0 0.82855,0.30841 0.82855,0.854967 v 2.102324 h 0.55702 v -2.214425 c 0,-0.749858 -0.48737,-1.233411 -1.23239,-1.233411 -0.4456,0 -0.88426,0.182174 -1.22543,0.504567 -0.20901,-0.322393 -0.56395,-0.504567 -1.02346,-0.504567 -0.38294,0 -0.75893,0.13304 -1.07225,0.364347 l -0.12548,-0.294425 h -0.3899 z m -2.16537,0.0703 c 0.38298,0 0.80073,-0.09109 1.10011,-0.252473 l -0.12548,-0.40645 c -0.25776,0.126236 -0.58484,0.203338 -0.87727,0.203338 -0.71021,0 -1.15581,-0.427464 -1.23934,-1.149278 h 2.33941 c 0.0151,-0.105071 0.0265,-0.350362 0.0265,-0.483553 0,-0.847937 -0.55703,-1.429568 -1.38558,-1.429568 -0.93297,0 -1.56657,0.735798 -1.56657,1.772976 0,1.079206 0.66145,1.744932 1.72671,1.744932 z m -0.20182,-3.041386 c 0.57093,0 0.90515,0.371528 0.90515,1.016126 h -1.85204 c 0.0488,-0.658696 0.38294,-1.016126 0.94689,-1.016126 z m -2.71537,3.006349 c 0.2298,0 0.45952,-0.05594 0.61966,-0.126236 l -0.12548,-0.406488 c -0.10432,0.04913 -0.25777,0.0771 -0.37607,0.0771 -0.34809,0 -0.57789,-0.224126 -0.57789,-0.560617 v -1.927143 h 0.91907 V 36.38234 h -0.91907 v -0.988119 h -0.55699 v 0.988119 h -0.45256 v 0.469493 h 0.45256 v 2.004246 c 0,0.560617 0.40381,0.939023 1.01655,0.939023 z m -3.31419,0.03402 c 0.82855,0 1.33682,-0.392428 1.33682,-1.016126 0,-1.240365 -2.00523,-0.777864 -2.00523,-1.541707 0,-0.294425 0.31332,-0.483552 0.81464,-0.483552 0.28536,0 0.61965,0.06312 0.90512,0.161008 l 0.13229,-0.455509 c -0.28536,-0.119055 -0.62665,-0.182173 -0.98174,-0.182173 -0.87031,0 -1.4273,0.385398 -1.4273,1.023156 0,1.212321 1.99824,0.707754 1.99824,1.534677 0,0.308409 -0.27137,0.483552 -0.73104,0.483552 -0.35527,0 -0.82858,-0.09827 -1.18367,-0.252472 l -0.13228,0.455508 c 0.38294,0.17537 0.84945,0.27326 1.27415,0.27326 z m -4.1427,1.45062 h 0.5918 l 0.55702,-1.520692 1.30893,-3.377764 h -0.55699 l -1.00955,2.831169 -0.98868,-2.831169 h -0.6197 l 1.32291,3.377764 z m -2.93821,-1.45062 c 1.07921,0 1.78243,-0.553625 1.78243,-1.408554 0,-1.723956 -2.70845,-1.037178 -2.70845,-2.291565 0,-0.511559 0.4108,-0.791886 1.14883,-0.791886 0.41079,0 0.8564,0.0839 1.2045,0.231307 l 0.17423,-0.455509 c -0.4108,-0.182173 -0.87726,-0.280441 -1.33682,-0.280441 -1.0792,0 -1.78242,0.539565 -1.78242,1.38754 0,1.66783 2.70149,1.044132 2.70149,2.284535 0,0.490545 -0.41775,0.805871 -1.14882,0.805871 -0.43866,0 -0.98174,-0.119055 -1.4552,-0.315213 l -0.17386,0.455509 c 0.53613,0.245291 1.07921,0.378406 1.59444,0.378406 z m -4.31674,-0.03402 c 0.22979,0 0.45951,-0.05594 0.61965,-0.126236 l -0.12548,-0.406488 c -0.10432,0.04913 -0.25776,0.0771 -0.37606,0.0771 -0.3481,0 -0.57789,-0.224126 -0.57789,-0.560617 v -1.927143 h 0.91906 V 36.38234 h -0.91906 v -0.988119 h -0.55699 v 0.988119 h -0.4526 v 0.469493 h 0.4526 v 2.004246 c 0,0.560617 0.4038,0.939023 1.01654,0.939023 z m -5.0479,-0.03402 h 0.55702 v -2.641928 c 0.25777,-0.203338 0.56399,-0.315212 0.89122,-0.315212 0.54308,0 0.84245,0.308409 0.84245,0.854967 v 2.102324 h 0.55699 v -2.214463 c 0,-0.74982 -0.49432,-1.233373 -1.2463,-1.233373 -0.3829,0 -0.76584,0.133039 -1.08616,0.371528 l -0.12548,-0.301229 h -0.38989 z m -2.16533,0.0703 c 0.38294,0 0.80069,-0.09109 1.10007,-0.252473 l -0.12548,-0.40645 c -0.25777,0.126236 -0.58485,0.203339 -0.87727,0.203339 -0.71017,0 -1.15578,-0.427503 -1.23934,-1.149279 h 2.33941 c 0.0151,-0.105071 0.0265,-0.350362 0.0265,-0.483553 0,-0.847936 -0.55699,-1.429606 -1.38554,-1.429606 -0.93298,0 -1.56658,0.735836 -1.56658,1.772976 0,1.079207 0.66146,1.74497 1.72672,1.74497 z m -0.20183,-3.041386 c 0.5709,0 0.90512,0.371528 0.90512,1.016126 h -1.85204 c 0.0488,-0.658733 0.38294,-1.016126 0.94692,-1.016126 z m -7.470837,2.971276 h 0.55699 v -2.641928 c 0.25058,-0.203338 0.550037,-0.315212 0.870347,-0.315212 0.53609,0 0.82851,0.308409 0.82851,0.854929 V 39.7615 h 0.55703 v -2.214421 c 0,-0.14022 -0.0151,-0.266457 -0.0488,-0.385436 0.25777,-0.231307 0.57789,-0.357543 0.91907,-0.357543 0.53612,0 0.82855,0.308409 0.82855,0.854929 v 2.102324 h 0.55702 v -2.214425 c 0,-0.749858 -0.4874,-1.233411 -1.23239,-1.233411 -0.4456,0 -0.88425,0.182173 -1.22543,0.504567 -0.20901,-0.322394 -0.56395,-0.504567 -1.0235,-0.504567 -0.3829,0 -0.758887,0.133039 -1.072207,0.364347 l -0.12548,-0.294426 h -0.38986 z m -2.16536,0.0703 c 0.38294,0 0.80069,-0.09109 1.1001,-0.252473 l -0.12548,-0.40645 c -0.25776,0.126236 -0.58488,0.203339 -0.8773,0.203339 -0.71017,0 -1.15578,-0.427465 -1.23931,-1.149279 h 2.33942 c 0.0151,-0.105071 0.0264,-0.350362 0.0264,-0.483553 0,-0.847936 -0.55702,-1.429568 -1.38553,-1.429568 -0.93302,0 -1.56658,0.735798 -1.56658,1.772976 0,1.079206 0.66142,1.744932 1.72668,1.744932 z m -0.20183,-3.041386 c 0.57093,0 0.90512,0.371528 0.90512,1.016126 h -1.85204 c 0.0487,-0.658733 0.38294,-1.016126 0.94692,-1.016126 z m -3.98956,3.041386 c 0.3899,0 0.72412,-0.13304 0.97478,-0.371528 v 0.287244 c 0,0.749821 -0.33411,1.121235 -1.00263,1.121235 -0.29934,0 -0.66142,-0.0771 -0.97474,-0.210142 l -0.1183,0.427465 c 0.34809,0.174992 0.70322,0.266456 1.05135,0.266456 0.96779,0 1.60139,-0.672755 1.60139,-1.688881 v -3.279647 h -0.3899 l -0.10432,0.287244 c -0.24377,-0.231307 -0.57792,-0.357543 -0.96782,-0.357543 -0.93298,0 -1.56657,0.707792 -1.56657,1.779968 0,1.04417 0.59879,1.73794 1.49695,1.73794 z m -0.93993,-1.79399 c 0,-0.742829 0.3899,-1.233373 1.03741,-1.233373 0.37606,0 0.67536,0.154204 0.8773,0.420472 v 1.73091 c -0.18784,0.245291 -0.47346,0.385436 -0.81464,0.385436 -0.66841,0 -1.10007,-0.525581 -1.10007,-1.303445 z m -3.02177,1.79399 c 0.42475,0 0.78679,-0.140221 1.05831,-0.385436 l 0.13228,0.315212 h 0.3899 v -2.193448 c 0,-0.805909 -0.47346,-1.254387 -1.35073,-1.254387 -0.43865,0 -0.91211,0.119055 -1.27415,0.322393 l 0.13908,0.413443 c 0.3481,-0.154205 0.69627,-0.231307 1.0235,-0.231307 0.59879,0 0.90512,0.252094 0.90512,0.74982 v 0.224126 c -1.50391,0.01512 -2.15837,0.329575 -2.15837,1.051162 0,0.602683 0.4456,0.988119 1.13487,0.988119 z m -0.57789,-1.051162 c 0,-0.420473 0.47346,-0.595691 1.60139,-0.602684 v 0.826923 c -0.20901,0.210142 -0.51523,0.336378 -0.86336,0.336378 -0.4456,0 -0.73803,-0.224126 -0.73803,-0.560617 z m -4.25412,0.981089 h 0.55699 v -2.641965 c 0.25776,-0.203338 0.56398,-0.315212 0.89125,-0.315212 0.54304,0 0.84246,0.308409 0.84246,0.854929 v 2.102362 h 0.55699 v -2.214463 c 0,-0.74982 -0.49433,-1.233373 -1.2463,-1.233373 -0.38294,0 -0.76589,0.133039 -1.08616,0.371528 l -0.12548,-0.301229 h -0.3899 z m -2.68059,0.06992 c 0.42474,0 0.78678,-0.140221 1.05834,-0.385437 l 0.13229,0.315213 h 0.38993 v -2.193448 c 0,-0.805871 -0.47346,-1.254388 -1.35073,-1.254388 -0.43865,0 -0.91211,0.119055 -1.27415,0.322394 l 0.13909,0.41348 c 0.34809,-0.154204 0.69626,-0.231307 1.02349,-0.231307 0.59879,0 0.90512,0.252095 0.90512,0.749821 v 0.224125 c -1.50391,0.01512 -2.15837,0.329197 -2.15837,1.051163 0,0.602645 0.4456,0.988081 1.13488,0.988081 z m -0.57789,-1.051162 c 0,-0.420473 0.47346,-0.595654 1.60139,-0.602684 v 0.826923 c -0.20901,0.210142 -0.51523,0.336378 -0.86336,0.336378 -0.44561,0 -0.73803,-0.224126 -0.73803,-0.560617 z m -6.30807,0.981089 h 0.55004 v -3.81925 l 1.56657,3.0624 h 0.45256 l 1.58053,-3.12548 v 3.88233 h 0.55003 v -4.86342 h -0.57094 l -1.76847,3.48291 -1.76852,-3.48291 h -0.5918 z m -3.09139,0.03402 c 0.2298,0 0.45956,-0.05594 0.61969,-0.126236 l -0.12548,-0.406451 c -0.10431,0.04913 -0.25776,0.0771 -0.37606,0.0771 -0.34809,0 -0.57789,-0.224126 -0.57789,-0.560617 v -1.927143 h 0.91907 v -0.469531 h -0.91907 v -0.988082 h -0.55699 v 0.988082 h -0.45256 v 0.469531 h 0.45256 v 2.004245 c 0,0.560617 0.40381,0.939023 1.01651,0.939023 z m -5.04782,-0.03402 h 0.55699 v -2.641922 c 0.25776,-0.203338 0.56398,-0.315212 0.89121,-0.315212 0.54308,0 0.8425,0.308409 0.8425,0.854966 v 2.102324 h 0.55698 v -2.214462 c 0,-0.749821 -0.49436,-1.233373 -1.24629,-1.233373 -0.38295,0 -0.76589,0.133039 -1.08616,0.371527 l -0.12549,-0.301228 h -0.38989 z m -2.16537,0.06992 c 0.38295,0 0.8007,-0.09109 1.10007,-0.252094 l -0.12548,-0.406375 c -0.25776,0.126236 -0.58488,0.203339 -0.8773,0.203339 -0.71017,0 -1.15578,-0.427465 -1.23935,-1.149279 h 2.33946 c 0.0151,-0.105071 0.0265,-0.350362 0.0265,-0.483552 0,-0.847937 -0.55699,-1.429569 -1.38553,-1.429569 -0.93298,0 -1.56658,0.735799 -1.56658,1.772976 0,1.079207 0.66145,1.744932 1.72671,1.744932 z m -0.20182,-3.041385 c 0.57093,0 0.90512,0.371528 0.90512,1.016126 h -1.85205 c 0.0488,-0.658734 0.38295,-1.016126 0.94693,-1.016126 z m -2.7154,3.006311 c 0.22979,0 0.45955,-0.05594 0.61965,-0.126236 l -0.1251,-0.40645 c -0.10432,0.04913 -0.25777,0.0771 -0.37607,0.0771 -0.34809,0 -0.57789,-0.224126 -0.57789,-0.560617 v -1.927135 h 0.91907 v -0.469531 h -0.91907 v -0.988006 h -0.55702 v 0.98812 h -0.45256 v 0.46953 h 0.45256 v 2.004208 c 0,0.560617 0.40384,0.939061 1.01654,0.939061 z m -5.04787,-0.03402 h 0.55703 V 37.12036 c 0.25777,-0.203339 0.56394,-0.315213 0.89121,-0.315213 0.54308,0 0.84246,0.308409 0.84246,0.854967 V 39.7624 h 0.55699 v -2.214463 c 0,-0.749782 -0.49432,-1.233335 -1.2463,-1.233335 -0.38294,0 -0.76585,0.13304 -1.08616,0.371528 l -0.12548,-0.301229 h -0.38993 z m -2.59007,0.0703 c 0.98869,0 1.6571,-0.721776 1.6571,-1.80102 0,-1.044132 -0.61965,-1.716888 -1.57353,-1.716888 -0.98869,0 -1.65014,0.714822 -1.65014,1.79399 0,1.04417 0.61273,1.723918 1.56657,1.723918 z m 0.0767,-0.490545 c -0.64751,0 -1.08616,-0.525581 -1.08616,-1.303445 0,-0.749821 0.39688,-1.233373 1.01654,-1.233373 0.64751,0 1.09311,0.532611 1.09311,1.303445 0,0.742828 -0.4038,1.233373 -1.02349,1.233373 z m -3.73894,0.490545 c 0.46651,0 0.95388,-0.105071 1.41343,-0.308409 l -0.13228,-0.427465 c -0.3481,0.14022 -0.77983,0.224126 -1.14883,0.224126 -1.15581,0 -1.9217,-0.826923 -1.9217,-2.067288 0,-1.184353 0.70326,-1.906129 1.86599,-1.906129 0.3899,0 0.82855,0.08391 1.19755,0.224126 l 0.16705,-0.434494 c -0.35527,-0.189355 -0.8564,-0.301229 -1.32986,-0.301229 -1.49696,0 -2.4926,1.023156 -2.4926,2.550841 0,1.464642 0.95388,2.445732 2.38118,2.445732 z m -7.70751,-0.0703 h 0.55699 V 37.12036 c 0.25776,-0.203339 0.56398,-0.315213 0.89121,-0.315213 0.54308,0 0.84246,0.308409 0.84246,0.854967 V 39.7624 h 0.55702 v -2.214463 c 0,-0.749782 -0.49436,-1.233335 -1.2463,-1.233335 -0.38294,0 -0.76588,0.13304 -1.08616,0.371528 l -0.12548,-0.301229 h -0.38989 z m -2.68059,0.0703 c 0.4247,0 0.78674,-0.140221 1.0583,-0.385436 l 0.13229,0.315212 h 0.38989 v -2.193448 c 0,-0.805909 -0.47346,-1.254387 -1.35073,-1.254387 -0.43865,0 -0.91207,0.119055 -1.27415,0.322393 l 0.13909,0.413443 c 0.34809,-0.154205 0.69626,-0.231307 1.02349,-0.231307 0.59879,0 0.90516,0.252472 0.90516,0.74982 v 0.224126 c -1.50391,0.01512 -2.15841,0.329575 -2.15841,1.051162 0,0.602683 0.44561,0.98812 1.13492,0.98812 z m -0.57789,-1.051162 c 0,-0.420473 0.47346,-0.595654 1.60138,-0.602684 v 0.826923 c -0.20901,0.210142 -0.51522,0.336378 -0.86335,0.336378 -0.44561,0 -0.73803,-0.224126 -0.73803,-0.560617 z m -1.76156,-3.18856 c 0.25058,0 0.39688,-0.147024 0.39688,-0.399421 0,-0.252094 -0.14626,-0.399458 -0.39688,-0.399458 -0.25059,0 -0.39686,0.147024 -0.39686,0.399458 0,0.252473 0.14627,0.399421 0.39686,0.399421 z m -0.28536,4.169649 h 0.55699 v -3.377763 h -0.55699 z m -1.17668,0.04195 c 0.18104,0 0.39685,-0.04195 0.52913,-0.112252 l -0.12548,-0.392466 c -0.0835,0.03402 -0.16025,0.05594 -0.24378,0.05594 -0.23659,0 -0.36207,-0.161386 -0.36207,-0.420472 v -4.351861 h -0.55699 v 4.421933 c 0,0.483515 0.29934,0.798879 0.75893,0.798879 z m -3.41862,0.02646 c 0.42471,0 0.78678,-0.140221 1.05831,-0.385398 l 0.13228,0.315212 h 0.38993 V 37.56729 c 0,-0.805871 -0.47346,-1.254388 -1.35076,-1.254388 -0.43865,0 -0.91212,0.119056 -1.27416,0.322394 l 0.13947,0.41348 c 0.34809,-0.154204 0.69623,-0.231307 1.02349,-0.231307 0.59879,0 0.90513,0.252473 0.90513,0.749821 v 0.224126 c -1.50392,0.01512 -2.15842,0.329196 -2.15842,1.051162 0,0.602683 0.44561,0.988081 1.13492,0.988081 z m -0.57789,-1.051162 c 0,-0.420472 0.47346,-0.595654 1.60139,-0.602646 v 0.826885 c -0.20901,0.210142 -0.51523,0.336378 -0.86336,0.336378 -0.44561,0 -0.73803,-0.224126 -0.73803,-0.560617 z m -2.93125,0.98109 h 0.55703 v -2.410658 c 0.21581,-0.294426 0.55699,-0.469531 0.93297,-0.469531 0.13229,0 0.25777,0.02268 0.36889,0.06312 l 0.13908,-0.518551 c -0.14627,-0.04913 -0.29253,-0.0771 -0.4456,-0.0771 -0.40385,0 -0.7798,0.196157 -1.03045,0.525581 l -0.0627,-0.490545 h -0.45956 z m -1.41339,0.03402 c 0.22979,0 0.45955,-0.05594 0.61969,-0.126236 l -0.12548,-0.40645 c -0.10431,0.04913 -0.25776,0.0771 -0.37606,0.0771 -0.3481,0 -0.57789,-0.224126 -0.57789,-0.560617 v -1.927143 h 0.91907 v -0.469493 h -0.91907 v -0.98812 h -0.556991 v 0.98812 h -0.452561 v 0.469493 h 0.452561 v 2.004245 c 0,0.560617 0.403801,0.939061 1.016501,0.939061 z m -3.314155,0.03402 c 0.828548,0 1.336819,-0.392428 1.336819,-1.016126 0,-1.240365 -2.005228,-0.777864 -2.005228,-1.541707 0,-0.294425 0.313323,-0.483552 0.814601,-0.483552 0.285355,0 0.619692,0.06312 0.905159,0.161385 l 0.132284,-0.455508 c -0.285354,-0.119055 -0.626646,-0.182173 -0.981732,-0.182173 -0.870312,0 -1.427301,0.385436 -1.427301,1.023155 0,1.212321 1.998236,0.707792 1.998236,1.534677 0,0.30841 -0.27137,0.483553 -0.731074,0.483553 -0.355275,0 -0.828548,-0.09827 -1.183634,-0.252472 l -0.132284,0.455508 c 0.382942,0.174992 0.849411,0.27326 1.274154,0.27326 z m -4.400352,-3.447836 h -0.556989 v 2.214463 c 0,0.749858 0.494325,1.233373 1.21149,1.233373 0.368882,0 0.744982,-0.133039 1.058305,-0.364346 l 0.125481,0.294425 h 0.389896 V 36.381207 H 21.14076 v 2.648958 c -0.24378,0.196157 -0.550073,0.308409 -0.849449,0.308409 -0.522179,0 -0.821594,-0.308409 -0.821594,-0.854929 z m -5.56307,3.377764 h 0.605748 l 0.515244,-1.443591 h 2.012183 l 0.480415,1.443591 h 0.647509 L 16.468735,34.8954 H 15.71676 Z m 1.295039,-1.948158 0.856403,-2.417687 0.807647,2.417687 z m -4.637048,2.01823 c 0.382937,0 0.800689,-0.09109 1.10008,-0.252472 l -0.125329,-0.406451 c -0.257613,0.126236 -0.584848,0.203339 -0.877277,0.203339 -0.7101811,0 -1.1557801,-0.427502 -1.2393411,-1.149317 h 2.3394291 c 0.01398,-0.10507 0.02797,-0.350362 0.02797,-0.483514 0,-0.847937 -0.557011,-1.429607 -1.385552,-1.429607 -0.9329801,0 -1.5665801,0.735837 -1.5665801,1.772977 0,1.079206 0.661451,1.744932 1.7267231,1.744932 z m -0.201941,-3.041385 c 0.570932,0 0.90514,0.371527 0.90514,1.016163 H 9.4156349 c 0.04872,-0.658734 0.382942,-1.016163 0.9469111,-1.016163 z M 5.1127759,39.75882 h 0.557011 v -2.613846 c 0.257613,-0.231307 0.563959,-0.343181 0.891202,-0.343181 0.543087,0 0.842479,0.30841 0.842479,0.854929 v 2.102324 h 0.557 v -2.214462 c 0,-0.749821 -0.494339,-1.233336 -1.246299,-1.233336 -0.368995,0 -0.738032,0.119056 -1.044382,0.357544 v -2.08834 h -0.557011 z m -2.938204,0 h 0.577893 v -4.358853 h 1.615313 V 34.8954 H 0.56621694 v 0.504567 H 2.1745719 Z M 170.05552,49.69444 c -1.56881,-0.637228 -1.69538,-1.261077 -1.69538,-8.355514 v -6.618367 h 1.26591 1.26595 v 2.389001 2.389039 h 13.29211 13.29218 V 21.341903 3.1853577 H 184.18418 170.892 v 1.274154 1.274117 h -1.26591 -1.26592 v -2.027528 c 0,-1.568843 0.14854,-2.217372 0.6559,-2.86680904 L 169.67201,1.0664303e-5 h 14.5228 14.52279 L 199.36292,0.69714366 c 0.63745,0.68866804 0.64516,0.98112804 0.63522,24.12906734 -0.0113,24.765049 0.034,24.005591 -1.47243,24.813314 -0.82896,0.444396 -27.38516,0.49542 -28.47015,0.0548 z m 15.94613,-3.884522 c 0.47822,-0.98982 0.0113,-2.652548 -0.88052,-3.132699 -1.61012,-0.867288 -3.78527,0.251717 -3.78527,1.947401 0,1.356699 0.32919,1.917846 1.38705,2.365606 1.24452,0.526677 2.70875,-3.4e-4 3.27874,-1.180308 z m -5.93171,-18.73451 v -5.733656 h 6.32961 6.32961 v 5.733656 5.733656 h -6.32961 -6.32961 z m -16.45701,-1.433386 v -4.618771 h 6.48786 6.48782 v 4.618771 4.618772 h -6.48782 -6.48786 z M 21.479511,27.872737 c -1.868674,-1.022249 -2.014034,-1.626935 -2.125379,-8.840352 l -0.102048,-6.609599 h 1.763566 1.763527 v 5.430916 c 0,5.934916 0.260031,7.067338 1.707628,7.432969 1.017789,0.257008 2.214988,-0.217323 2.849428,-1.128831 0.41707,-0.599358 0.50664,-1.700939 0.50664,-6.231571 v -5.503483 h 1.74062 1.74067 v 7.804119 7.804118 h -1.74067 -1.74062 v -1.274116 c 0,-1.338179 -0.45214,-1.712315 -0.78678,-0.651099 -0.1081,0.342803 -0.627065,0.987742 -1.15325,1.433423 -1.10007,0.931654 -3.05983,1.079434 -4.423332,0.333355 z m 27.380032,-0.0076 c -1.36218,-0.601625 -2.88469,-2.446223 -3.2998,-3.99787 -0.41748,-1.560454 -0.44065,-5.805316 -0.0389,-7.144478 0.93729,-3.125026 2.52613,-4.381795 5.77331,-4.566462 1.88991,-0.107339 2.34538,-0.0189 3.57158,0.705789 1.84153,1.086236 2.62265,2.428648 3.05858,5.256528 0.44084,2.859892 -0.0151,6.028648 -1.11417,7.714241 -1.4183,2.178557 -5.34603,3.182551 -7.9505,2.032252 z m 4.6422,-3.204396 c 0.66225,-0.70938 0.78259,-1.190476 0.87934,-3.515981 0.19616,-4.711823 -0.45452,-6.173895 -2.74703,-6.173895 -1.84339,0 -2.57208,0.971565 -2.80237,3.736289 -0.25323,3.04199 0.0926,5.087999 1.01752,6.019048 1.04036,1.04708 2.64061,1.018431 3.65254,-0.06539 z m 19.20623,3.189996 c -1.20102,-0.655899 -1.82456,-2.035502 -1.81912,-4.024705 0.008,-3.243703 1.40946,-4.43622 5.52752,-4.706758 2.36738,-0.155339 2.54521,-0.216945 2.64344,-0.915818 0.27704,-1.970002 -0.6957,-3.232591 -2.49052,-3.232591 -0.91491,0 -1.50777,0.243401 -2.30177,0.945108 l -1.06949,0.945109 -0.88154,-0.92606 c -1.0746,-1.128945 -0.93162,-1.611779 0.82352,-2.780787 1.18719,-0.79079 1.62467,-0.89091 3.89246,-0.89091 2.18971,0 2.70712,0.109228 3.61935,0.764031 1.66613,1.19607 1.94215,2.263181 1.94215,7.507653 v 4.629013 h 0.7912 c 0.72673,0 0.79121,0.116788 0.79121,1.433424 v 1.433385 h -1.53974 c -1.72751,0 -3.20746,-0.892497 -3.20746,-1.934324 0,-0.859767 -0.46314,-0.764711 -0.89219,0.183307 -0.81544,1.801323 -3.89008,2.630022 -5.82905,1.571112 z m 4.93077,-2.403326 c 0.93468,-0.428598 1.47394,-1.528403 1.47394,-3.005933 V 21.3416 h -1.79482 c -2.2255,0 -2.95238,0.556686 -2.95238,2.261064 0,1.84475 1.46858,2.672428 3.27326,1.844787 z m 14.30857,2.670387 c -1.18835,-0.304252 -3.0249,-1.695155 -3.79782,-2.876144 -1.58721,-2.425134 -2.24983,-7.930015 -1.42216,-11.814461 0.53605,-2.515654 2.09428,-4.8210138 3.88169,-5.7429163 2.88907,-1.490041 6.50185,-1.214248 8.6205,0.658016 0.945367,0.8354644 2.036787,2.3997723 2.036787,2.9193063 0,0.07975 -0.6581,0.533027 -1.462487,1.007471 -1.17906,0.695471 -1.51544,0.778507 -1.73579,0.428447 -0.15042,-0.238866 -0.27553,-0.588397 -0.27817,-0.776844 -0.003,-0.188598 -0.36435,-0.682658 -0.80391,-1.098179 -0.6362,-0.601588 -1.15695,-0.758929 -2.55556,-0.772233 -1.62535,-0.01512 -1.83549,0.06992 -2.81341,1.14342 -1.26655,1.390261 -1.57009,3.130696 -1.36735,7.840591 0.19767,4.594582 1.29634,6.12975 4.38652,6.12975 1.06968,0 1.49824,-0.193511 2.31019,-1.042922 0.5483,-0.573581 1.14569,-1.311496 1.32753,-1.639824 0.31823,-0.574639 0.38022,-0.568441 1.65909,0.167055 1.489477,0.856441 1.515027,0.919673 0.874777,2.165783 -0.66649,1.297285 -2.507527,2.812837 -3.884377,3.197706 -1.21088,0.338268 -3.84899,0.394697 -4.97605,0.106205 z m 37.291237,-0.283463 c -0.71622,-0.255496 -1.90099,-0.980674 -2.63286,-1.611175 l -1.33062,-1.146368 1.19694,-1.233713 1.19694,-1.233751 0.76917,0.834935 c 1.90273,2.065322 5.51592,2.312504 6.91888,0.47331 0.61107,-0.801071 0.49969,-3.118336 -0.18293,-3.805379 -0.32391,-0.325795 -1.63212,-0.829606 -2.90748,-1.119496 -4.41294,-1.003048 -6.29178,-2.877203 -6.30784,-6.292232 -0.0151,-2.9752058 1.55391,-4.9607043 4.50769,-5.7079923 2.94985,-0.74623 6.86381,0.238488 8.20516,2.0643772 0.51897,0.7064314 0.50223,0.76097 -0.54689,1.7844281 -1.01311,0.988346 -1.11878,1.022438 -1.65457,0.534387 -0.85799,-0.781493 -2.76502,-1.5012278 -3.97765,-1.5012278 -1.68752,0 -2.74295,1.0316978 -2.74295,2.6812718 0,1.796636 0.60937,2.311068 3.67336,3.101102 3.00147,0.773896 3.92523,1.236359 4.97299,2.489612 1.67603,2.004775 1.40647,6.357769 -0.50941,8.226783 -1.91595,1.869052 -5.70954,2.51006 -8.64793,1.461166 z M 2.7935249e-5,27.791666 C 0.00452794,27.660139 1.3396999,22.965853 2.9680449,17.359605 l 2.960621,-10.1931203 2.412151,-0.09298 c 1.326682,-0.0514 2.4121511,-0.0378 2.4121511,0.03024 0,0.114898 5.484679,19.1165453 5.876011,20.3575153 0.159118,0.504113 -0.03817,0.570028 -1.705224,0.570028 h -1.88499 l -0.20315,-1.089864 C 12.723893,26.341991 12.417694,25.123585 12.155176,24.233846 L 11.677875,22.616171 H 8.2484069 4.8189479 l -0.191925,0.965933 c -0.105562,0.531251 -0.418303,1.749657 -0.694968,2.70754 l -0.503055,1.741644 h -1.71818 c -0.94500696,0 -1.71485896,-0.107339 -1.710787964751,-0.238866 z M 10.679376,19.031932 c -0.21445,-0.604271 -1.7782181,-6.647546 -1.9781891,-7.644849 -0.264,-1.316599 -0.69795,-1.055395 -0.939432,0.565417 -0.11811,0.792756 -0.558538,2.620346 -0.978727,4.061328 -0.4202,1.440983 -0.766972,2.799118 -0.77063,3.018104 -0.0042,0.28422 0.682299,0.398173 2.400819,0.398173 1.7903591,0 2.3712381,-0.102047 2.2661591,-0.398173 z m 24.759027,1.194519 v -7.804118 h 1.74066 1.74062 v 1.592655 c 0,1.699766 0.43041,2.129877 0.7697,0.769209 0.31295,-1.254387 1.68015,-2.361864 2.91606,-2.361864 h 1.06144 v 1.715225 1.715263 l -1.73503,0.218078 c -2.82584,0.355276 -3.01217,0.782514 -3.01217,6.905952 v 5.053606 h -1.74062 -1.74066 z m 25.6349,0 v -7.804118 h 1.89891 1.89888 v 1.611477 c 0,0.993184 0.12132,1.535924 0.31634,1.414601 0.17424,-0.108094 0.31635,-0.462349 0.31635,-0.786822 0,-0.853606 1.77755,-2.239256 2.87259,-2.239256 0.90807,0 0.92515,0.03024 0.92515,1.715754 v 1.715792 l -1.50327,0.220346 c -2.95415,0.432832 -2.92743,0.37304 -2.92743,6.548636 v 5.407785 h -1.89887 -1.89891 z M 104.43113,17.518874 V 7.0072157 h 2.06324 2.06325 l 1.53777,3.3062163 c 0.84579,1.818444 1.85107,4.253707 2.23389,5.411678 0.38287,1.157972 0.81563,2.179729 0.9617,2.270589 0.14627,0.09109 0.50967,-0.588435 0.80803,-1.509581 0.2982,-0.921146 1.3234,-3.430714 2.27788,-5.576843 l 1.73541,-3.9020593 h 2.02088 2.02083 V 17.518874 28.03057 h -1.76534 -1.76538 l 0.10394,-7.804383 c 0.0571,-4.292409 0.0151,-7.80427 -0.0907,-7.804119 -0.10696,1.51e-4 -0.44946,0.681109 -0.7612,1.513285 -0.31181,0.832176 -1.46328,3.439256 -2.55889,5.793448 l -1.992,4.280428 -1.78261,-3.80262 c -0.98037,-2.091401 -2.16253,-4.734311 -2.62692,-5.873083 l -0.84435,-2.0705 -0.0847,7.883791 -0.0847,7.883753 h -1.73515 -1.7351 z m 50.0039,7.326311 v -3.185348 h 3.32303 3.32304 v 3.185348 3.185385 h -3.32304 -3.32303 z m -9.8109,-2.70754 v -3.026078 h 3.956 3.95603 v 3.026078 3.026116 h -3.95603 -3.956 z m 8.22849,-6.529965 v -3.822424 h 4.90544 4.90545 v 3.822424 3.822425 h -4.90545 -4.90544 z m 11.92074,3.291553 c -0.11603,-0.116788 -0.2109,-2.553638 -0.2109,-5.415155 V 8.2813697 h 4.11424 4.11424 v 5.4150793 5.415118 h -3.90323 c -2.14677,0 -3.99821,-0.09562 -4.11428,-0.21241 z m 11.81529,-4.724976 V 9.2369476 h 8.07024 8.07027 v 4.9373094 4.93731 h -8.07027 -8.07024 z"/></svg>
