<svg style="object-fit:cover" id="my-svg" version="1" baseProfile="full" width="100%" height="100%" viewBox="0 0 1366 637" xmlns="http://www.w3.org/2000/svg"><rect width="1366" height="637" fill="#000000"/><defs><radialGradient id="radial-gradient" cx="0.5" cy="0.75" r="0.65"><stop offset="0%" stop-color="#de1b0d70"/><stop offset="100%" stop-color="#4a64d970"/></radialGradient></defs><path transform="scale(1,-1)" d="M 0,637 V 0,254 C 109.54761904761907,242.14285714285714 219.09523809523813,230.28571428571428 350,254 C 480.90476190476187,277.7142857142857 633.1666666666666,337 735,333 C 836.8333333333334,329 888.2380952380952,261.71428571428567 985,238 C 1081.7619047619048,214.2857142857143 1223.8809523809523,234.14285714285717 1366,254 C 1366,254 1366,637 1366,637 Z" stroke="none" stroke-width="0" fill="url(#radial-gradient)" style="transform-origin:center center;"/><defs><radialGradient id="radial-gradient" cx="0.5" cy="0.75" r="0.65"><stop offset="0%" stop-color="#de1b0d80"/><stop offset="100%" stop-color="#4a64d980"/></radialGradient></defs><path transform="scale(1, -1)" d="M 0,637 V 0,382 C 73.11904761904765,394.3928571428571 146.2380952380953,406.7857142857143 279,381 C 411.7619047619047,355.2142857142857 604.1666666666665,291.24999999999994 729,288 C 853.8333333333335,284.75000000000006 911.0952380952383,342.2142857142857 1006,368 C 1100.9047619047617,393.7857142857143 1233.4523809523807,387.8928571428571 1366,382 C 1366,382 1366,637 1366,637 Z" stroke="none" stroke-width="0" fill="url(#radial-gradient)" style="transform-origin:center center;"/><defs><radialGradient id="radial-gradient" cx="0.5" cy="0.75" r="0.65"><stop offset="0%" stop-color="#de1b0d90"/><stop offset="100%" stop-color="#4a64d990"/></radialGradient></defs><path transform="scale(1,-1)" d="M 0,637 V 0,573 C 89.79761904761907,594.7857142857142 179.59523809523813,616.5714285714286 310,598 C 440.40476190476187,579.4285714285714 611.4166666666666,520.5 724,494 C 836.5833333333334,467.5 890.7380952380952,473.42857142857144 988,492 C 1085.2619047619048,510.57142857142856 1225.6309523809523,541.7857142857142 1366,573 C 1366,573 1366,637 1366,637 Z" stroke="none" stroke-width="0" fill="url(#radial-gradient)" style="transform-origin:center center;"/><defs><radialGradient id="radial-gradient" cx="0.5" cy="0.75" r="0.65"><stop offset="0%" stop-color="#de1b0dff"/><stop offset="100%" stop-color="#4a64d9ff"/></radialGradient></defs><path transform="scale(1, -1)" d="M 0,637 V 0,859 C 117.1547619047619,871.75 234.3095238095238,884.5 348,871 C 461.6904761904762,857.5 571.9166666666667,817.75 674,832 C 776.0833333333333,846.25 870.0238095238096,914.5000000000001 984,928 C 1097.9761904761904,941.4999999999999 1231.9880952380952,900.25 1366,859 C 1366,859 1366,637 1366,637 Z" stroke="none" stroke-width="0" fill="url(#radial-gradient)" style="transform-origin:center center;"/></svg>
