<svg role="img" focusable="false" aria-hidden="true" xmlns="http://www.w3.org/2000/svg" viewBox="0 0 14 14"><path d="M 6.3544177,12.94242 C 6.3054357,12.91222 6.2093989,12.63023 6.1409525,12.31759 5.9637324,11.50799 5.8213214,11.18828 5.5828889,11.065 5.4229411,10.9822 5.1850339,10.9656 4.4185997,10.983 3.3372779,11.0095 3.169824,10.9641 2.9977252,10.59984 2.9412592,10.48078 2.8634401,10.10446 2.8248138,9.7634698 c -0.09256,-0.8172 -0.2137299,-1.09918 -0.6173524,-1.43714 -0.4332499,-0.36283 -0.4382691,-0.53386 -0.029858,-1.01253 0.5336141,-0.62512 0.5781893,-0.78315 0.5760388,-2.04194 -0.00266,-1.56025 0.1886341,-2.08665 1.0764841,-2.9624 0.5869804,-0.57898 1.2017174,-0.92174 2.0758139,-1.1575 0.7538976,-0.20334002 2.0694833,-0.20258002 2.8377921,0.002 1.4222387,0.37833 2.3540597,1.10119 2.9301697,2.2731 0.376739,0.7664 0.450133,1.12553 0.449317,2.19894 -7.67e-4,0.9457 -0.0087,1.00243 -0.225069,1.57351 -0.141277,0.37304 -0.431224,0.90424 -0.783199,1.43462 -0.307386,0.46321 -0.597446,0.9799 -0.644576,1.14824 -0.122796,0.4385702 -0.05643,1.3530602 0.163803,2.2566602 0.148382,0.60883 0.169358,0.78348 0.103671,0.86266 -0.0692,0.0835 -0.419054,0.099 -2.1884692,0.0983 -1.1583478,-6e-4 -2.1461614,-0.0265 -2.195136,-0.0575 z M 9.1454765,6.5781098 c 0.075401,-0.0831 0.1020083,-0.18104 0.073587,-0.27062 -0.037039,-0.1164 -0.015496,-0.14021 0.1243829,-0.14021 0.2268069,0 0.3935124,-0.17991 0.368273,-0.39757 -0.01663,-0.14438 -0.063382,-0.18406 -0.2499374,-0.21127 -0.2837637,-0.0419 -0.3859496,-0.25058 -0.2309265,-0.4721 0.073965,-0.10582 0.152918,-0.14022 0.2691371,-0.11792 0.1523889,0.0302 0.1629714,0.0151 0.1439606,-0.21354 l -0.020409,-0.24491 -0.666618,-0.0189 c -0.7384168,-0.0227 -0.855732,0.0227 -0.855732,0.33222 0,0.17159 -0.024189,0.19464 -0.2044323,0.19464 -0.2853889,0 -0.4171417,0.27288 -0.2310777,0.47834 0.081032,0.0896 0.1832294,0.13001 0.2813826,0.11111 0.1340962,-0.0265 0.1541274,-0.002 0.1541274,0.18444 0,0.26419 0.1049941,0.37644 0.3518322,0.37644 0.1623667,0 0.1894278,0.0265 0.1894278,0.18935 0,0.3428 0.2812315,0.4665 0.5030645,0.22148 z m -3.8584948,-0.51318 c -0.052195,-0.20787 0.06958,-0.37115 0.276885,-0.37115 0.2023158,0 0.3280215,0.16214 0.2879968,0.37152 -0.029858,0.15723 -0.013228,0.1697 0.2264667,0.1697 0.2714426,0 0.3989586,-0.12548 0.3989586,-0.39212 0,-0.10015 0.036661,-0.12321 0.1584738,-0.10015 0.1682626,0.034 0.3828089,-0.12813 0.3828089,-0.28573 0,-0.1561 -0.2145614,-0.31824 -0.3793242,-0.28649 -0.1356835,0.0265 -0.1575289,-7.9e-4 -0.1754059,-0.21392 -0.019653,-0.23508 -0.030614,-0.24453 -0.3112406,-0.26456 -0.2508444,-0.0189 -0.2851999,-0.0385 -0.2499751,-0.14967 0.1110791,-0.34998 -0.4414703,-0.59497 -0.5688729,-0.25209 -0.030992,0.0839 -0.042104,0.19049 -0.024567,0.23697 0.019653,0.0514 -0.025322,0.0847 -0.1148207,0.0847 -0.080843,0 -0.2059063,0.0302 -0.2778677,0.0699 -0.115879,0.062 -0.1308836,0.14703 -0.1308836,0.7409 0,0.72131 0.040818,0.80616 0.3903301,0.81085 0.1304678,0.002 0.1471353,-0.0227 0.1108523,-0.16781 z m 1.738442,-2.44314 c 0.099816,-0.12019 0.028724,-0.69565 -0.1021973,-0.8265 -0.1491007,-0.14891 -0.5812621,0.0151 -0.5812621,0.22299 0,0.18369 0.1889743,0.66126 0.2857291,0.72207 0.093164,0.0586 0.3026233,-0.004 0.3977152,-0.11829 z m 0.9711612,-0.30727 c 0.1131578,-0.21052 0.1189026,-0.2623 0.03976,-0.35754 -0.1562061,-0.18822 -0.364947,-0.10167 -0.460602,0.19124 -0.1577935,0.48298 0.1792232,0.61621 0.4208532,0.1663 z"/></svg>
