<svg role="img" focusable="false" aria-hidden="true" xmlns="http://www.w3.org/2000/svg" viewBox="0 0 14 14"><path d="m 9.0038448,12.430371 c -0.341647,-0.04535 -0.341443,-0.0446 -0.137964,-0.761802 0.07172,-0.25285 0.132098,-0.595653 0.13418,-0.761801 0.004,-0.319748 -0.10368,-0.715767 -0.194611,-0.715767 -0.02982,0 -0.139786,-0.07219 -0.244385,-0.159874 C 8.3570388,9.8595361 8.2757718,9.8538668 6.3730388,9.8818353 5.7985768,9.8893943 5.7120288,9.8742762 5.3551407,9.6962605 4.9481313,9.4929219 4.6915992,9.1987612 4.6228043,8.856336 4.5902247,8.6941942 4.5640855,8.6764304 4.414129,8.7149816 3.0314866,9.0698793 1.714199,8.6091548 1.2192195,7.5975264 0.90079427,6.9466917 0.93313947,5.8336963 1.290989,5.1274915 1.3764895,4.9589245 1.5658249,4.7185465 1.7117461,4.5936331 1.866616,4.4609717 1.9770538,4.3086567 1.9770538,4.2273968 c 0,-0.076347 0.062498,-0.3061417 0.1388825,-0.5101984 C 2.3719238,3.0330282 3.0156106,2.5749116 3.930188,2.4259982 4.2682139,2.3708172 4.4371852,2.3024077 4.6388726,2.1387541 5.3572357,1.5557619 6.6775648,1.3570721 7.6466898,1.6861179 c 0.277051,0.09411 0.338661,0.09411 0.646597,0.00299 0.435464,-0.1292599 0.793166,-0.128126 1.240421,0.00378 0.7630472,0.2263937 1.3552432,0.6409324 1.7090902,1.196334 0.10842,0.1700787 0.32019,0.367748 0.527665,0.4925481 0.435485,0.2615433 0.853985,0.7716662 1.041617,1.2692788 0.282667,0.7496316 0.243571,1.7817829 -0.09787,2.5837232 -0.08458,0.1988031 -0.168764,0.5312126 -0.187075,0.7389733 -0.06489,0.7365166 -0.583437,1.5001324 -1.210738,1.7829923 -0.2891,0.1303937 -0.297264,0.144 -1.056611,1.7628474 -0.4720822,1.00645 -0.4811372,1.013027 -1.2559482,0.909732 z M 7.7222078,6.6762286 c 0.947994,-1.3028033 1.44712,-2.0415876 1.387934,-2.0543246 -0.05083,-0.011339 -0.529116,0.040441 -1.062853,0.1145197 -0.533736,0.074079 -0.980717,0.1243464 -0.993292,0.111496 -0.01259,-0.011339 0.376981,-0.507326 0.865677,-1.0994268 0.488696,-0.5921387 0.866064,-1.0836663 0.838594,-1.0923592 -0.02748,-0.00756 -0.562659,0.065008 -1.189313,0.1640315 l -1.139369,0.1799056 -0.711614,1.6733481 c -0.3913873,0.9203529 -0.7061245,1.678753 -0.6994154,1.6853294 0.00669,0.00756 0.4850294,-0.074457 1.0629324,-0.1802835 0.577905,-0.1058268 1.083097,-0.184441 1.122651,-0.1749921 0.0414,0.011338 -0.126955,0.4911118 -0.396759,1.1338206 -0.633533,1.5090899 -0.714531,1.7185513 -0.63432,1.6403907 0.03783,-0.037795 0.734951,-0.9825261 1.549147,-2.1014554 z"/></svg>
