<svg role="img" focusable="false" aria-hidden="true" xmlns="http://www.w3.org/2000/svg" viewBox="0 0 14 14"><path d="m 8.6013514,6.78899 0,-0.50506 -0.587027,0 C 7.7683649,6.5301 7.4286757,6.68261 7.054,6.68261 6.6793649,6.68261 6.3396756,6.5301 6.0937162,6.28393 l -0.6950676,0 0,0.49809 L 7.019054,7.71607 8.6013514,6.78899 Z M 12.333554,4.390625 7.6603243,1.815005 c -0.2342838,-0.12912 -0.4819865,-0.1562 -0.6484865,-0.1562 -0.1665,0 -0.4133513,0.0271 -0.6475946,0.15616 l -4.6847837,2.5757 C 1.2913649,4.604355 1,5.081155 1,5.524305 l 0,5.80942 c 0,0.55885 0.4748919,1.00747 1.0337432,1.00747 l 9.9595138,0 C 12.552108,12.341195 13,11.892615 13,11.333725 l 0,-5.80942 c 0,-0.44315 -0.278311,-0.91995 -0.666446,-1.13368 z m -3.0419189,6.24085 c -0.027324,0.0371 -0.059676,0.0475 -0.1048783,0.0475 l -0.00422,0 c -0.046014,0 -0.095919,-0.011 -0.1225946,-0.0473 l -0.2761621,-0.36483 0,0.83352 c 0,0.0757 -0.066,0.13739 -0.1429054,0.13739 C 8.5663649,11.237725 8.5,11.174805 8.5,11.100335 l 0,-1.25656 c 0,-0.0745 0.08623,-0.13776 0.1607432,-0.13776 l 0.00641,0 c 0.043622,0 0.087,0.0229 0.1105541,0.0582 l 0.4069054,0.56445 0.4074324,-0.56494 c 0.027203,-0.0371 0.062959,-0.0574 0.1082027,-0.0574 0.079419,0.003 0.1376352,0.0642 0.1376352,0.13743 l 0,1.25656 c 0,0.0745 -0.067297,0.13739 -0.1428649,0.13739 -0.07577,0 -0.1409189,-0.0617 -0.1409189,-0.13739 l 0,-0.83384 -0.2624595,0.36498 z M 7.1672297,8.752185 c -0.047473,0.0278 -0.1006216,0.0417 -0.1537297,0.0417 -0.052419,0 -0.1048378,-0.0135 -0.1518243,-0.0406 L 2.0441216,5.976255 c -0.1455,-0.0839 -0.1954459,-0.26979 -0.1116081,-0.41525 0.083878,-0.14558 0.2631081,-0.19541 0.408527,-0.11161 l 2.4292298,1.4042 0,-0.45162 c 0,-0.16796 0.1495946,-0.30405 0.317554,-0.30405 l 0.6342162,0 c -0.030081,-0.11214 -0.046378,-0.22987 -0.046378,-0.35133 0,-0.10216 0.011716,-0.20157 0.033162,-0.29732 l -0.621,0 c -0.1679594,0 -0.317554,-0.1361 -0.317554,-0.30406 l 0,-0.87162 c 0,-0.16796 0.1360946,-0.30405 0.304054,-0.30405 0.1679595,0 0.3040541,0.13609 0.3040541,0.30405 l 0,0.56757 0.6442297,0 c 0.1035,-0.11546 0.2262973,-0.21324 0.363446,-0.288 L 5.762257,3.798385 c -0.1069865,-0.12945 -0.088743,-0.32113 0.040662,-0.42807 0.1294054,-0.10695 0.3210811,-0.0887 0.4281081,0.0407 l 0.7993784,0.96726 0.7994189,-0.96726 c 0.1069865,-0.12941 0.2986216,-0.14765 0.4281081,-0.0407 0.1294054,0.10698 0.1476487,0.29862 0.040662,0.42807 l -0.6217297,0.75235 c 0.1390135,0.0751 0.2634324,0.17367 0.3681081,0.29043 l 0.5361081,0 0,-0.56757 c 0,-0.16796 0.1360946,-0.30405 0.304054,-0.30405 0.1679595,0 0.3040541,0.13609 0.3040541,0.30405 l 0,0.87162 c 0,0.16796 -0.1225946,0.30406 -0.2905541,0.30406 l -0.5399189,0 c 0.021446,0.0958 0.033162,0.19516 0.033162,0.29732 0,0.12146 -0.016257,0.23919 -0.046378,0.35133 l 0.5531351,0 c 0.1679595,0 0.2905541,0.13609 0.2905541,0.30405 l 0,0.4528 2.4611347,-1.4381 c 0.144973,-0.0849 0.334541,-0.0363 0.419433,0.10861 0.08493,0.14489 0.03795,0.33118 -0.106946,0.41607 l -4.7955812,2.81084 z m 0.8936757,2.47779 c -0.012203,0.005 -0.02927,0.008 -0.047635,0.008 -0.057284,0 -0.1086081,-0.0376 -0.1275811,-0.0902 l -0.099405,-0.26578 -0.4894054,0 -0.099486,0.26607 c -0.021851,0.0534 -0.072689,0.0888 -0.1296487,0.0888 -0.016824,0 -0.031703,-0.002 -0.046905,-0.007 -0.072122,-0.0273 -0.1082837,-0.10557 -0.083027,-0.17883 l 0.4709189,-1.25481 c 0.021527,-0.0527 0.072608,-0.0877 0.1272162,-0.0877 l 0.00559,2.1e-4 0.00393,-1.2e-4 c 0.055378,0 0.1051216,0.0343 0.1266892,0.0873 l 0.4709189,1.25493 c 0.025378,0.0737 -0.010743,0.15235 -0.082176,0.17943 z m -1.2646216,-1.05559 c 0,0.26128 -0.2145,0.46407 -0.4781757,0.46407 l -0.2505405,0 0,0.46188 c 0,0.0757 -0.066041,0.13739 -0.142946,0.13739 -0.074473,0 -0.1408378,-0.0629 -0.1408378,-0.13739 l 0,-1.25656 c 0,-0.0758 0.077311,-0.13776 0.1530405,-0.13776 l 0.3812433,0 c 0.2637162,0 0.4782162,0.20469 0.4782162,0.46837 z m -1.6881892,0.53165 c -0.012851,-0.0215 -0.031257,-0.0397 -0.05777,-0.0575 -0.059716,-0.0391 -0.1633378,-0.0745 -0.2842702,-0.0971 l -5.676e-4,3.6e-4 c -0.1178919,-0.0222 -0.2093514,-0.0499 -0.2833784,-0.085 -0.092027,-0.0437 -0.1615135,-0.10208 -0.206554,-0.17364 -0.034135,-0.0547 -0.052135,-0.11874 -0.052135,-0.18539 0,-0.12409 0.065068,-0.24336 0.1786216,-0.32728 0.1041892,-0.0754 0.2392298,-0.11684 0.380473,-0.11684 0.2070406,0 0.3589054,0.0983 0.4697433,0.17003 l 0.00559,0.004 c 0.028743,0.02 0.04804,0.0493 0.054892,0.083 0.00701,0.0344 1.217e-4,0.0687 -0.019459,0.0969 -0.022824,0.0366 -0.063243,0.0589 -0.1075541,0.0589 -0.025419,0 -0.050108,-0.008 -0.071473,-0.0218 -0.1090946,-0.0727 -0.2093919,-0.13285 -0.3317027,-0.13285 -0.085257,0 -0.1677973,0.0249 -0.226419,0.0684 -0.047595,0.0353 -0.07273,0.0761 -0.07273,0.11793 0,0.0218 0.0032,0.035 0.011838,0.0488 0.00681,0.011 0.021365,0.0284 0.051851,0.0495 0.05323,0.0369 0.1473243,0.0699 0.2583243,0.0905 l 5.676e-4,-3.6e-4 c 0.1284324,0.0248 0.2233784,0.0537 0.3026351,0.0914 0.1032568,0.0503 0.1756216,0.1106 0.2215135,0.18434 0.034865,0.0559 0.054122,0.12402 0.054122,0.19176 0,0.13261 -0.069851,0.2644 -0.1915946,0.35209 -0.1098244,0.0807 -0.2540271,0.13071 -0.4058514,0.13071 -8.11e-5,0 -1.216e-4,0 -2.027e-4,0 -0.236027,0 -0.4335,-0.12491 -0.5575946,-0.22281 -0.054973,-0.045 -0.064054,-0.1301 -0.020514,-0.18657 0.025014,-0.0305 0.061743,-0.0491 0.1011892,-0.0491 0.030324,0 0.059878,0.003 0.083189,0.0225 0.089919,0.0735 0.2456757,0.15227 0.3887027,0.15227 l 0.00495,0 c 0.097014,0 0.1896892,-0.0208 0.254473,-0.0685 0.055297,-0.0405 0.083351,-0.0833 0.083351,-0.1337 0,-0.0224 -0.00438,-0.0348 -0.016257,-0.0546 z"/></svg>
