<svg role="img" focusable="false" aria-hidden="true" xmlns="http://www.w3.org/2000/svg" viewBox="0 0 14 14"><path d="m 10.999253,5.6758485 c 0,-2.4258195 -2.3748229,-4.1756892 -4.9996275,-4.1756892 -2.6403035,0 -4.99962792,1.7633687 -4.99962792,4.1756892 0,0.8549364 0.30747712,1.6948738 0.85243652,2.3473253 C 1.8759324,8.786617 1.4274658,9.8825356 1.0224959,10.678977 2.1064153,10.483491 3.6483005,10.050023 4.3462485,9.6215546 8.1949621,10.559985 10.999253,8.2006606 10.999253,5.6758485 Z M 3.7497929,6.3662971 c -0.3444743,0 -0.6249534,-0.2799792 -0.6249534,-0.6249535 0,-0.3449743 0.2804791,-0.6249535 0.6249534,-0.6249535 0.3444744,0 0.6249535,0.2799792 0.6249535,0.6249535 0,0.3449743 -0.2804791,0.6249535 -0.6249535,0.6249535 z m 2.2498326,0 c -0.3444744,0 -0.6249535,-0.2799792 -0.6249535,-0.6249535 0,-0.3449743 0.2804791,-0.6249535 0.6249535,-0.6249535 0.3444744,0 0.6249535,0.2799792 0.6249535,0.6249535 0,0.3449743 -0.2804791,0.6249535 -0.6249535,0.6249535 z m 2.2498325,0 c -0.3444743,0 -0.6249534,-0.2799792 -0.6249534,-0.6249535 0,-0.3449743 0.2804791,-0.6249535 0.6249534,-0.6249535 0.3444744,0 0.6249535,0.2799792 0.6249535,0.6249535 0,0.3449743 -0.2804791,0.6249535 -0.6249535,0.6249535 z m 3.517739,0.7204464 c -0.08049,0.2439818 -0.180487,0.4804642 -0.300478,0.7079473 0.838438,0.630953 1.128416,1.6128799 0.231983,2.6823012 -0.0105,0.372472 -0.0245,0.524461 0.069,0.93243 -0.445967,-0.153488 -0.489464,-0.195985 -0.832439,-0.40647 -1.0634207,0.259481 -2.1323411,0.347975 -3.0442733,-0.427468 -0.2809791,0.07949 -0.5724574,0.13899 -0.8699352,0.181987 0.7564437,0.93843 2.14884,1.448392 3.7882175,1.049922 0.456967,0.280479 1.466392,0.563458 2.175839,0.692448 -0.26498,-0.522461 -0.558458,-1.239408 -0.54396,-1.739371 0.877435,-1.0489214 0.771443,-2.7177976 -0.673949,-3.6737265 z"/></svg>
