<svg role="img" focusable="false" aria-hidden="true" xmlns="http://www.w3.org/2000/svg" viewBox="0 0 14 14"><path d="M 10.75,8.5 C 9.5085,8.5 8.5,9.5075 8.5,10.75 8.5,11.9925 9.5085,13 10.75,13 11.9915,13 13,11.9925 13,10.75 13,9.5075 11.9915,8.5 10.75,8.5 Z M 10.3125,12 10.624,11 H 10 l 1.1455,-1.5 -0.395,1 H 11.458 Z M 11,4 H 2 L 4,1 h 5 z m -0.25,3.5 c 0.443,0 0.865,0.0895 1.25,0.2505 V 5 H 1 v 3.5 h 7.41 c 0.592,-0.615 1.4215,-1 2.34,-1 z M 2,7.5 2.4315,6 H 3.069 L 2.6375,7.5 Z M 3.033,7.5 3.4645,6 H 4.102 L 3.6705,7.5 Z M 4.0665,7.5 4.498,6 h 0.6375 l -0.432,1.5 z m 1.033,0 L 5.531,6 H 6.168 L 5.7365,7.5 Z M 7.5,10.75 C 7.5,10.307 7.5895,9.885 7.7505,9.5 H 1 V 13 H 8.41 C 7.848,12.4155 7.5,11.6235 7.5,10.75 Z M 2,12 2.4315,10.5 H 3.069 L 2.6375,12 Z m 1.033,0 0.4315,-1.5 H 4.102 L 3.6705,12 Z M 4.0665,12 4.498,10.5 H 5.1355 L 4.7035,12 Z M 5.737,12 H 5.0995 L 5.531,10.5 h 0.637 z"/></svg>
