<svg role="img" focusable="false" aria-hidden="true" xmlns="http://www.w3.org/2000/svg" viewBox="0 0 14 14"><path d="M 7.7015,13 H 1 V 2 H 2.5 C 3.1155,2 3.5905,1.458 4,1 H 8 C 8.4105,1.458 8.886,2 9.5,2 H 11 V 6.575 C 10.7575,6.526 10.5065,6.5 10.25,6.5 L 10,6.508 V 3 H 8 L 7,4 H 5.0515 L 4,3 H 2 v 9 h 4.933 c 0.1985,0.3755 0.4595,0.7135 0.7685,1 z M 10.25,7.5 C 11.7675,7.5 13,8.732 13,10.25 13,11.768 11.7675,13 10.25,13 8.732,13 7.5,11.768 7.5,10.25 7.5,8.732 8.732,7.5 10.25,7.5 Z m 0,1 C 11.2155,8.5 12,9.284 12,10.25 12,11.216 11.2155,12 10.25,12 9.284,12 8.5,11.216 8.5,10.25 8.5,9.284 9.284,8.5 10.25,8.5 Z m 1.25,2 H 10 V 9 h 0.5 v 1 h 1 z M 3.9245,8.474 3.4,7.982 3,8.3935 3.932,9.2815 5.5,7.6855 5.0925,7.2815 Z M 7,9 H 6 V 8.5 H 7 Z M 8,8 H 6 V 7.5 H 8 Z M 3.9245,5.9875 3.4,5.496 3,5.9075 3.932,6.7955 5.5,5.1995 5.0925,4.7955 Z M 8,6.5 H 6 V 6 h 2 z m 0,-1 H 6 V 5 H 8 Z M 5.5,2.5 C 5.5,2.776 5.7245,3 6,3 6.2765,3 6.5,2.776 6.5,2.5 6.5,2.224 6.2765,2 6,2 5.7245,2 5.5,2.224 5.5,2.5 Z"/></svg>
