<svg role="img" focusable="false" aria-hidden="true" xmlns="http://www.w3.org/2000/svg" viewBox="0 0 14 14"><path d="m 1.0068724,12.9848 c 0.003,-0.01 0.11792,-0.5749 0.25467,-1.2576 0.13677,-0.6826 0.25834,-1.2603 0.27016,-1.2837 0.0269,-0.053 0.0931,-0.1245 0.13781,-0.1479 0.0188,-0.01 0.68491,-0.2544 1.48033,-0.5436 0.79541,-0.2891 1.46203,-0.5356 1.48137,-0.5477 0.0677,-0.043 1.13312,-1.1131 1.15824,-1.1639 0.0184,-0.037 0.0256,-0.085 0.0283,-0.1876 l 0.004,-0.1376 -0.23603,-0.2865 -0.23604,-0.2866 -0.0911,-0.2833 c -0.0951,-0.2958 -0.22346,-0.7242 -0.25775,-0.8606 -0.0188,-0.075 -0.0253,-0.084 -0.10752,-0.1462 l -0.0875,-0.067 -0.0768,-0.2074 c -0.32475,-0.8778 -0.339,-0.9309 -0.28147,-1.0498 0.0297,-0.061 0.12362,-0.1334 0.17426,-0.1338 0.0676,-5e-4 0.0676,-3e-4 -0.0195,-0.4077 l -0.0823,-0.3847 0.0419,-0.7205 c 0.023,-0.3963 0.0417,-0.7276 0.0414,-0.7363 -3.7e-4,-0.012 0.9029,-0.7559 0.96268,-0.7926 0.007,0 0.14566,-0.039 0.30731,-0.076 0.28892,-0.066 0.29746,-0.069 0.50108,-0.1717 L 6.5815124,1 l 0.48115,0.079 c 0.26464,0.044 0.53716,0.088 0.6056,0.099 0.0684,0.011 0.26889,0.053 0.44542,0.093 l 0.32095,0.073 0.4716,0.3818 0.47162,0.3819 0.008,0.059 c 0.005,0.032 0.0278,0.371 0.0518,0.7529 l 0.0435,0.6943 -0.0756,0.3537 c -0.0416,0.1946 -0.0787,0.3667 -0.0825,0.3826 -0.006,0.024 1.1e-4,0.031 0.0304,0.038 0.12104,0.028 0.21416,0.1406 0.21416,0.2586 0,0.064 -0.0719,0.2817 -0.27208,0.8235 l -0.11459,0.3101 -0.0949,0.075 c -0.0897,0.071 -0.0963,0.08 -0.11985,0.1615 -0.21248,0.7363 -0.32916,1.0936 -0.37923,1.1614 -0.0209,0.028 -0.12108,0.1517 -0.22253,0.2741 l -0.18447,0.2227 -1.7e-4,0.1507 c -1.4e-4,0.1186 0.005,0.1617 0.0239,0.2031 0.0163,0.036 0.20149,0.229 0.57614,0.6019 0.30365,0.3023 0.5683,0.5596 0.5881,0.5718 0.0198,0.012 0.6726796,0.2533 1.4508296,0.5358 0.77816,0.2826 1.44135,0.5252 1.47377,0.5392 0.0713,0.031 0.13748,0.092 0.17187,0.1588 0.0159,0.031 0.11843,0.5134 0.27409,1.2903 0.13673,0.6826 0.25132,1.2483 0.25462,1.2573 0.005,0.013 -1.19932,0.016 -5.9930596,0.016 -4.79373,0 -5.99787,0 -5.99306,-0.016 z"/></svg>