<svg role="img" focusable="false" aria-hidden="true" xmlns="http://www.w3.org/2000/svg" viewBox="0 0 14 14"><path d="M 7,1 C 3.6865,1 1,3.6865 1,7 c 0,3.3135 2.6865,6 6,6 3.3135,0 6,-2.6865 6,-6 C 13,3.6865 10.3135,1 7,1 Z M 5.9835,9.005 C 6.2655,8.1105 6.7995,7.039 6.894,6.768 7.0305,6.3745 6.7885,6.2 6.024,6.8725 l -0.17,-0.32 C 6.726,5.604 8.5215,5.3895 7.9105,6.859 7.529,7.7765 7.256,8.396 7.1,8.874 6.8725,9.5705 7.447,9.288 8.0095,8.7685 8.086,8.8935 8.111,8.934 8.1875,9.078 6.9385,10.267 5.552,10.372 5.9835,9.005 Z M 8.3545,4.9205 C 8.0885,5.147 7.6945,5.142 7.474,4.9095 7.2535,4.677 7.2905,4.3055 7.556,4.079 7.822,3.8525 8.216,3.858 8.4365,4.09 8.656,4.323 8.62,4.6945 8.3545,4.9205 Z"/></svg>
