<svg role="img" focusable="false" aria-hidden="true" xmlns="http://www.w3.org/2000/svg" viewBox="0 0 14 14"><path d="m 7,2 c 2.757,0 5,2.243 5,5 0,2.757 -2.243,5 -5,5 C 4.243,12 2,9.757 2,7 2,4.243 4.243,2 7,2 Z M 7,1 C 3.6865,1 1,3.6865 1,7 c 0,3.3135 2.6865,6 6,6 3.3135,0 6,-2.6865 6,-6 C 13,3.6865 10.3135,1 7,1 Z M 9.7535,7.9705 C 8.9975,8.568 8.1665,8.936 7.0005,8.936 5.8335,8.936 5.0025,8.568 4.2465,7.9705 L 4,8.217 C 4.5635,9.077 5.6,10 7.0005,10 8.4005,10 9.4365,9.077 10,8.217 Z M 5.25,5 C 4.836,5 4.5,5.3355 4.5,5.75 4.5,6.1645 4.836,6.5 5.25,6.5 5.664,6.5 6,6.1645 6,5.75 6,5.3355 5.664,5 5.25,5 Z m 3.5,0 C 8.336,5 8,5.3355 8,5.75 8,6.1645 8.336,6.5 8.75,6.5 9.164,6.5 9.5,6.1645 9.5,5.75 9.5,5.3355 9.164,5 8.75,5 Z"/></svg>
