<svg class="social-telstra" role="img" focusable="false" aria-hidden="true" xmlns="http://www.w3.org/2000/svg" viewBox="0 0 14 14"><path d="M 8.7761125,6.281088 8.3123688,9.0068354 C 8.2165458,9.4970653 7.8935674,9.630325 7.6069486,9.630325 H 5.4580405 L 6.3632679,4.637782 C 5.4591005,4.2241937 4.5361714,3.954222 3.8012836,3.954222 c -0.6995902,0 -1.2675303,0.1891873 -1.644885,0.6421321 -0.266268,0.322309 -0.3987661,0.7198095 -0.3987661,1.1929849 0,1.4193192 1.1164824,3.3888007 3.0271057,4.995305 C 6.4880284,12.204999 8.3621878,13 9.7258591,13 c 0.6806189,0 1.2292649,-0.20852 1.5893419,-0.62418 0.283547,-0.321757 0.396438,-0.73935 0.396438,-1.212111 1.05e-4,-1.378858 -1.123903,-3.3124353 -2.9355238,-4.8824829 z" style="fill:#00b4ff;stroke-width:0.10599855"/><path d="m 4.9180841,1.0004142 c -0.3409971,0 -0.6246496,0.2292342 -0.7000143,0.5882758 L 3.9157623,3.2342745 H 6.6179826 L 5.4578288,9.6301869 H 7.606631 c 0.2866188,0 0.6094939,-0.1325692 0.7054201,-0.6234896 l 0.9827122,-5.77263 H 11.23814 c 0.34227,0 0.625285,-0.2271629 0.700969,-0.586895 l 0.303259,-1.6471721 z" style="fill:#001e82;stroke-width:0.10599855"/></svg>
