<svg class="social-fraud" role="img" focusable="false" aria-hidden="true" xmlns="http://www.w3.org/2000/svg" viewBox="0 0 14 14"><path d="m 3.3085938,5.4264467 1.7763671,-2.475587 c 0.4970703,-0.686524 0.9189453,-1.253907 1.890625,-1.237305 1.0546875,0.01855 1.4628907,0.652344 1.9931641,1.401367 0.4746094,0.670898 0.9501953,1.340825 1.424805,2.011715 0.743164,1.044934 1.706054,1.727544 0.523437,2.962894 0.701172,0.48438 1.181641,1.20704 1.460938,2.1455103 L 13,12.286801 H 10.810547 V 9.9567207 c 0,-0.22754 -0.186524,-0.41406 -0.414063,-0.41406 H 3.6035156 c -0.227539,0 -0.4140625,0.18652 -0.4140625,0.41406 V 12.286801 H 1 c 0.5009766,-1.88867 1.0585937,-3.6435503 2.1142578,-4.2275403 -0.3447266,-0.24512 -0.5332031,-0.51758 -0.5927734,-0.8125 -0.1347657,-0.67871 0.4169922,-1.30371 0.7871094,-1.820314 z m 3.4853515,3.065434 h 0.4257813 l -0.087891,0.25879 c 0.4990235,-0.0342 0.9794922,-0.375 1.2353516,-1.03418 0.2705078,-0.69727 0.5634766,-0.3418 0.5371094,-1.53125 l -0.019531,-0.895514 c 0.019531,-0.50391 -0.1943359,-0.74609 -0.6386719,-0.72852 -0.8320312,0.48633 -1.665039,0.39844 -2.4970703,0 -0.3417968,-0.0869 -0.5439453,0.14551 -0.6386718,0.62403 0,0.557614 -0.085937,1.453124 0.1601562,1.943364 0.1279297,0.25488 0.2734375,0.33008 0.4287109,0.65332 0.2763672,0.57422 0.7246094,0.89648 1.1855469,0.95898 z m 0.023437,-1.27539 c -0.4033203,0.0713 -0.3134766,0.37109 -0.9169922,-0.0107 H 5.7949219 c 0.091797,0.13085 0.2109375,0.36035 0.3642578,0.41308 0.3886719,0.13281 0.6044922,0.0195 0.821289,-0.25098 0.2167969,0.27051 0.4316407,0.38379 0.8212891,0.25098 0.1533203,-0.0518 0.2724609,-0.28125 0.3642578,-0.41308 H 8.0605469 c -0.6171875,0.39062 -0.5097657,0.0683 -0.9453125,0.007 -0.098633,-0.0147 -0.1992188,-0.0137 -0.2978516,0.004 z m 0.041016,-0.86719 c -0.3486328,-0.0449 -0.6982422,-0.0361 -1.046875,0 0.3671875,-0.29297 0.8857422,-0.44922 1.046875,0 z m 0.2832032,0 c 0.3486328,-0.0605 0.6982422,-0.0508 1.046875,0 -0.3671875,-0.29297 -0.8857422,-0.44922 -1.046875,0 z M 6.578125,5.4254667 c 0.1035156,0.0908 0.1914062,0.19922 0.2705078,0.317384 -0.3056641,-0.186524 -0.6132812,-0.336914 -0.9316406,-0.350584 0.051758,-0.0684 0.109375,-0.11328 0.1728515,-0.13672 0.1816407,-0.0644 0.3574219,0.0557 0.4882813,0.16992 z m 0.84375,0 c -0.1035156,0.0908 -0.1914063,0.19922 -0.2705078,0.317384 0.305664,-0.186524 0.6132812,-0.336914 0.9316406,-0.350584 -0.051758,-0.0684 -0.109375,-0.11328 -0.1728515,-0.13672 -0.1816407,-0.0644 -0.3574219,0.0557 -0.4882813,0.16992 z"/></svg>
