<svg class="social-ahrefs" role="img" focusable="false" aria-hidden="true" xmlns="http://www.w3.org/2000/svg" viewBox="0 0 14 14"><path style="fill:#fed4a5;stroke-width:0.03037974" d="m 1.30339,9.1443931 c -0.007,-0.0211 -0.0174,-0.12049 -0.022,-0.22074 l -0.008,-0.18228 -0.13671,-0.0152 -0.13671,-0.0152 v -0.50127 -0.50126 l 0.13671,-0.0152 0.13671,-0.0152 0.0152,-0.22785 0.0152,-0.22785 0.47088,-0.0152 0.47089,-0.0152 v -0.4405 -0.44051 H 1.80505 1.36455 l -0.0152,0.22785 -0.0152,0.22785 H 1.16706 0.99997 v -0.25823 -0.25823 l 0.13671,-0.0152 0.13671,-0.0152 0.0152,-0.22785 0.0152,-0.22784 H 1.97214 2.6405 l 0.0152,0.22784 0.0152,0.22785 0.15189,0.0152 0.1519,0.0152 v 1.45823 1.45823 l -0.82861,0.008 c -0.64692,0.006 -0.83161,-3.5e-4 -0.84226,-0.0304 z m 0.94177,-0.93467 v -0.4405 H 1.97174 1.69832 l -0.009,0.40859 c -0.005,0.22473 -0.002,0.42691 0.007,0.44929 0.0118,0.0307 0.0811,0.0385 0.28193,0.0319 l 0.26632,-0.009 z m 1.00169,0.93518 c -0.008,-0.0214 -0.0113,-1.00277 -0.007,-2.18074 l 0.008,-2.14178 h 0.34937 0.34936 l 0.0152,0.4557 0.0152,0.4557 0.47089,0.0152 0.47089,0.0152 0.0152,0.22784 0.0152,0.22785 0.1367,0.0152 0.13671,0.0152 v 1.45823 1.45823 H 4.8884 4.55422 l -0.0152,-1.42785 -0.0152,-1.42785 H 4.2504 3.97698 l -0.0152,1.42785 -0.0152,1.42785 -0.34234,0.009 c -0.25695,0.006 -0.34605,-0.001 -0.35723,-0.0304 z m 2.27847,3e-5 c -0.008,-0.0214 -0.0114,-0.7909 -0.007,-1.70989 l 0.008,-1.67088 h 0.33417 0.33418 l 0.0152,0.22784 0.0152,0.22785 h 0.12152 0.12152 l 0.0152,-0.22785 0.0152,-0.22784 h 0.33417 0.33418 v 0.50126 0.50127 l -0.47088,0.0152 -0.47089,0.0152 -0.0152,1.18481 -0.0152,1.18481 -0.32714,0.009 c -0.24474,0.006 -0.3309,-10e-4 -0.34207,-0.0304 z m 2.27938,-4.6e-4 c -0.008,-0.0212 -0.0175,-0.1206 -0.0221,-0.22085 l -0.008,-0.18228 -0.1519,-0.0152 -0.15189,-0.0152 v -1.23038 -1.23038 l 0.15189,-0.0152 0.1519,-0.0152 0.0152,-0.22785 0.0152,-0.22785 h 0.65317 0.65316 l 0.0152,0.22785 0.0152,0.22785 0.1519,0.0152 0.1519,0.0152 v 0.7443 0.74431 l -0.63797,0.0152 -0.63798,0.0152 v 0.4405 0.44051 h 0.44051 0.4405 l 0.0152,-0.22785 0.0152,-0.22785 h 0.18228 0.18228 v 0.25823 0.25823 l -0.1519,0.0152 -0.1519,0.0152 -0.0152,0.21266 -0.0152,0.21266 -0.64629,0.008 c -0.50093,0.006 -0.64937,-4.6e-4 -0.65998,-0.0304 z m 0.94172,-2.393 v -0.44051 H 8.45782 8.16921 l -0.009,0.40859 c -0.005,0.22473 -10e-4,0.42689 0.007,0.44925 0.0118,0.0308 0.0838,0.0385 0.29713,0.0319 l 0.28152,-0.009 z m 1.30577,2.3934 c -0.008,-0.0214 -0.018,-0.66783 -0.0222,-1.43644 l -0.008,-1.39747 -0.13671,-0.0152 -0.13671,-0.0152 v -0.25823 -0.25823 l 0.13671,-0.0152 0.13671,-0.0152 0.0152,-0.22784 0.0152,-0.22785 0.1519,-0.0152 0.1519,-0.0152 0.0152,-0.21266 0.0152,-0.21266 h 0.50126 0.50127 v 0.24304 0.24304 l -0.3038,0.0152 -0.3038,0.0152 v 0.19747 0.19746 l 0.13671,0.0152 0.13671,0.0152 v 0.25823 0.25823 l -0.13671,0.0152 -0.13671,0.0152 -0.0152,1.42785 -0.0152,1.42785 -0.34234,0.009 c -0.25706,0.006 -0.34598,-10e-4 -0.35695,-0.0304 z m 1.64118,-2.3e-4 c -0.008,-0.0213 -0.0175,-0.12076 -0.0221,-0.22101 l -0.008,-0.18228 -0.1519,-0.0152 -0.1519,-0.0152 v -0.25823 -0.25822 h 0.18228 0.18228 l 0.0152,0.22785 0.0152,0.22784 h 0.27342 0.27342 v -0.19747 -0.19746 l -0.1519,-0.0152 -0.1519,-0.0152 -0.0152,-0.22785 -0.0152,-0.22785 -0.13671,-0.0152 -0.13671,-0.0152 -0.0152,-0.22785 -0.0152,-0.22785 -0.1519,-0.0152 -0.1519,-0.0152 v -0.50126 -0.50127 l 0.1519,-0.0152 0.1519,-0.0152 0.0152,-0.22784 0.0152,-0.22785 h 0.50127 0.50126 l 0.0152,0.22785 0.0152,0.22784 0.13671,0.0152 0.13671,0.0152 v 0.25823 0.25823 h -0.16709 -0.16709 l -0.0152,-0.22785 -0.0152,-0.22785 h -0.2886 -0.28861 v 0.19747 0.19747 l 0.1519,0.0152 0.1519,0.0152 0.0152,0.22785 0.0152,0.22785 0.1519,0.0152 0.1519,0.0152 0.0152,0.22785 0.0152,0.22785 0.13671,0.0152 0.13671,0.0152 v 0.50127 0.50126 l -0.13671,0.0152 -0.13671,0.0152 -0.0152,0.21266 -0.0152,0.21266 -0.49433,0.008 c -0.37922,0.006 -0.49754,-6.9e-4 -0.50809,-0.0304 z"/><path style="fill:#a6c5dd;stroke-width:0.03037974" d="m 3.24685,9.1449031 c -0.008,-0.0214 -0.0113,-1.00277 -0.007,-2.18074 l 0.008,-2.14178 h 0.34937 0.34936 l 0.0152,0.4557 0.0152,0.4557 0.47089,0.0152 0.47089,0.0152 0.0152,0.22784 0.0152,0.22785 0.1367,0.0152 0.13671,0.0152 v 1.45823 1.45823 H 4.8884 4.55422 l -0.0152,-1.42785 -0.0152,-1.42785 H 4.2504 3.97698 l -0.0152,1.42785 -0.0152,1.42785 -0.34234,0.009 c -0.25695,0.006 -0.34605,-0.001 -0.35723,-0.0304 z m 2.27847,3e-5 c -0.008,-0.0214 -0.0114,-0.7909 -0.007,-1.70989 l 0.008,-1.67088 h 0.33417 0.33418 l 0.0152,0.22784 0.0152,0.22785 h 0.12152 0.12152 l 0.0152,-0.22785 0.0152,-0.22784 h 0.33417 0.33418 v 0.50126 0.50127 l -0.47088,0.0152 -0.47089,0.0152 -0.0152,1.18481 -0.0152,1.18481 -0.32714,0.009 c -0.24474,0.006 -0.3309,-10e-4 -0.34207,-0.0304 z m 2.27938,-4.6e-4 c -0.008,-0.0212 -0.0175,-0.1206 -0.0221,-0.22085 l -0.008,-0.18228 -0.1519,-0.0152 -0.15189,-0.0152 v -1.23038 -1.23038 l 0.15189,-0.0152 0.1519,-0.0152 0.0152,-0.22785 0.0152,-0.22785 h 0.65317 0.65316 l 0.0152,0.22785 0.0152,0.22785 0.1519,0.0152 0.1519,0.0152 v 0.7443 0.74431 l -0.63797,0.0152 -0.63798,0.0152 v 0.4405 0.44051 h 0.44051 0.4405 l 0.0152,-0.22785 0.0152,-0.22785 h 0.18228 0.18228 v 0.25823 0.25823 l -0.1519,0.0152 -0.1519,0.0152 -0.0152,0.21266 -0.0152,0.21266 -0.64629,0.008 c -0.50093,0.006 -0.64937,-4.6e-4 -0.65998,-0.0304 z m 0.94172,-2.393 v -0.44051 H 8.45782 8.16921 l -0.009,0.40859 c -0.005,0.22473 -10e-4,0.42689 0.007,0.44925 0.0118,0.0308 0.0838,0.0385 0.29713,0.0319 l 0.28152,-0.009 z m 1.30577,2.3934 c -0.008,-0.0214 -0.018,-0.66783 -0.0222,-1.43644 l -0.008,-1.39747 -0.13671,-0.0152 -0.13671,-0.0152 v -0.25823 -0.25823 l 0.13671,-0.0152 0.13671,-0.0152 0.0152,-0.22784 0.0152,-0.22785 0.1519,-0.0152 0.1519,-0.0152 0.0152,-0.21266 0.0152,-0.21266 h 0.50126 0.50127 v 0.24304 0.24304 l -0.3038,0.0152 -0.3038,0.0152 v 0.19747 0.19746 l 0.13671,0.0152 0.13671,0.0152 v 0.25823 0.25823 l -0.13671,0.0152 -0.13671,0.0152 -0.0152,1.42785 -0.0152,1.42785 -0.34234,0.009 c -0.25706,0.006 -0.34598,-10e-4 -0.35695,-0.0304 z m 1.64118,-2.3e-4 c -0.008,-0.0213 -0.0175,-0.12076 -0.0221,-0.22101 l -0.008,-0.18228 -0.1519,-0.0152 -0.1519,-0.0152 v -0.25823 -0.25822 h 0.18228 0.18228 l 0.0152,0.22785 0.0152,0.22784 h 0.27342 0.27342 v -0.19747 -0.19746 l -0.1519,-0.0152 -0.1519,-0.0152 -0.0152,-0.22785 -0.0152,-0.22785 -0.13671,-0.0152 -0.13671,-0.0152 -0.0152,-0.22785 -0.0152,-0.22785 -0.1519,-0.0152 -0.1519,-0.0152 v -0.50126 -0.50127 l 0.1519,-0.0152 0.1519,-0.0152 0.0152,-0.22784 0.0152,-0.22785 h 0.50127 0.50126 l 0.0152,0.22785 0.0152,0.22784 0.13671,0.0152 0.13671,0.0152 v 0.25823 0.25823 h -0.16709 -0.16709 l -0.0152,-0.22785 -0.0152,-0.22785 h -0.2886 -0.28861 v 0.19747 0.19747 l 0.1519,0.0152 0.1519,0.0152 0.0152,0.22785 0.0152,0.22785 0.1519,0.0152 0.1519,0.0152 0.0152,0.22785 0.0152,0.22785 0.13671,0.0152 0.13671,0.0152 v 0.50127 0.50126 l -0.13671,0.0152 -0.13671,0.0152 -0.0152,0.21266 -0.0152,0.21266 -0.49433,0.008 c -0.37922,0.006 -0.49754,-6.9e-4 -0.50809,-0.0304 z m -10.35959,-0.0306 c -0.007,-0.0212 -0.0174,-0.12051 -0.022,-0.22076 l -0.008,-0.18228 -0.13671,-0.0152 -0.13671,-0.0152 v -0.47088 -0.47089 l 0.13671,-0.0152 0.13671,-0.0152 0.0152,-0.22785 0.0152,-0.22785 0.47088,-0.0152 0.47089,-0.0152 v -0.47088 -0.47089 l -0.47719,-0.008 -0.47719,-0.008 -0.009,0.23621 -0.009,0.23621 H 1.16686 1.03016 v -0.22785 -0.22785 l 0.14305,-0.009 0.14305,-0.009 0.009,-0.23383 0.009,-0.23383 h 0.63798 0.63797 l 0.0152,0.22785 0.0152,0.22785 0.1519,0.0152 0.1519,0.0152 v 1.42784 1.42785 l -0.79823,0.008 c -0.62259,0.006 -0.80123,-3.4e-4 -0.81188,-0.0304 z m 0.94176,-0.9043 v -0.47089 h -0.3038 -0.3038 l -0.008,0.43911 c -0.005,0.24151 -10e-4,0.45732 0.007,0.47959 0.0118,0.0307 0.0868,0.0384 0.31226,0.0318 l 0.29674,-0.009 z"/><path style="fill:#feb058;stroke-width:0.03037974" d="m 1.33378,9.1140331 c -0.007,-0.0212 -0.0174,-0.12051 -0.022,-0.22076 l -0.008,-0.18228 -0.13671,-0.0152 -0.13671,-0.0152 v -0.47089 -0.47088 l 0.13671,-0.0152 0.13671,-0.0152 0.0152,-0.22785 0.0152,-0.22785 0.47088,-0.0152 0.47089,-0.0152 v -0.47088 -0.47089 l -0.47719,-0.008 -0.47719,-0.008 -0.009,0.23621 -0.009,0.2362 H 1.16686 1.03016 v -0.22784 -0.22785 l 0.14305,-0.009 0.14305,-0.009 0.009,-0.23383 0.009,-0.23383 h 0.63798 0.63797 l 0.0152,0.22785 0.0152,0.22784 0.1519,0.0152 0.1519,0.0152 v 1.42785 1.42785 l -0.79823,0.008 c -0.62259,0.006 -0.80123,-3.4e-4 -0.81188,-0.0304 z m 0.94176,-0.90431 v -0.47088 h -0.3038 -0.3038 l -0.008,0.43911 c -0.005,0.24151 -10e-4,0.45732 0.007,0.47959 0.0118,0.0307 0.0868,0.0384 0.31226,0.0318 l 0.29674,-0.009 z m 1.00172,0.90487 c -0.008,-0.0215 -0.0114,-0.98917 -0.007,-2.15043 l 0.008,-2.1114 h 0.31899 0.31899 l 0.0152,0.4557 0.0152,0.4557 0.47088,0.0152 0.47089,0.0152 0.0152,0.22784 0.0152,0.22785 0.13671,0.0152 0.13671,0.0152 v 1.42785 1.42785 h -0.3038 -0.3038 l -0.0152,-1.42785 -0.0152,-1.42785 H 4.25044 3.94664 l -0.0152,1.42785 -0.0152,1.42785 -0.31194,0.009 c -0.23255,0.006 -0.31573,-10e-4 -0.32685,-0.0304 z m 2.27846,3e-5 c -0.008,-0.0215 -0.0114,-0.7773 -0.007,-1.67958 l 0.008,-1.6405 h 0.3038 0.30379 l 0.0152,0.22784 0.0152,0.22785 h 0.1519 0.1519 l 0.0152,-0.22785 0.0152,-0.22784 h 0.3038 0.30379 v 0.47088 0.47089 l -0.47088,0.0152 -0.47089,0.0152 -0.0152,1.18481 -0.0152,1.18481 -0.29673,0.009 c -0.22033,0.006 -0.30058,-10e-4 -0.31169,-0.0304 z m 2.27937,-4.6e-4 c -0.008,-0.0212 -0.0175,-0.12062 -0.0221,-0.22088 l -0.008,-0.18227 -0.1519,-0.0152 -0.1519,-0.0152 v -1.20001 -1.2 l 0.1519,-0.0152 0.1519,-0.0152 0.0152,-0.22785 0.0152,-0.22785 h 0.62279 0.62278 l 0.0152,0.22785 0.0152,0.22785 0.1519,0.0152 0.1519,0.0152 v 0.71393 0.71392 l -0.63798,0.0152 -0.63797,0.0152 v 0.47089 0.47089 l 0.47719,0.008 0.47719,0.008 0.009,-0.23621 0.009,-0.23621 h 0.1519 0.15189 v 0.22785 0.22785 l -0.15819,0.009 -0.15819,0.009 -0.009,0.21871 -0.009,0.21871 -0.6159,0.008 c -0.4766,0.006 -0.619,-4.6e-4 -0.6296,-0.0304 z m 0.94171,-2.36265 v -0.47089 H 8.45782 8.13883 l -0.008,0.43911 c -0.005,0.24151 -10e-4,0.45731 0.007,0.47955 0.0118,0.0309 0.0896,0.0384 0.32746,0.0318 l 0.31193,-0.009 z m 1.3058,2.3631 c -0.008,-0.0215 -0.0181,-0.66791 -0.0222,-1.43652 l -0.008,-1.39747 -0.13671,-0.0152 -0.13671,-0.0152 v -0.22785 -0.22785 l 0.13671,-0.0152 0.13671,-0.0152 0.0152,-0.22785 0.0152,-0.22785 0.1519,-0.0152 0.1519,-0.0152 0.0152,-0.21265 0.0152,-0.21266 h 0.47088 0.47089 v 0.21266 0.21265 l -0.3038,0.0152 -0.3038,0.0152 v 0.22785 0.22785 l 0.13671,0.0152 0.13671,0.0152 v 0.22785 0.22785 l -0.13671,0.0152 -0.13671,0.0152 -0.0152,1.42785 -0.0152,1.42785 -0.31193,0.009 c -0.23266,0.006 -0.31566,-0.001 -0.32657,-0.0304 z m 1.64686,0.0174 c -0.0116,-0.0116 -0.021,-0.11372 -0.021,-0.22702 v -0.20601 l -0.1595,-0.009 -0.15949,-0.009 v -0.22784 -0.22785 h 0.1519 0.1519 l 0.009,0.23649 0.009,0.23649 0.31009,-0.009 0.3101,-0.009 v -0.22785 -0.22785 l -0.1519,-0.0152 -0.1519,-0.0152 -0.0152,-0.22785 -0.0152,-0.22785 -0.13671,-0.0152 -0.13671,-0.0152 -0.0152,-0.22785 -0.0152,-0.22784 -0.1519,-0.0152 -0.15189,-0.0152 v -0.47089 -0.47089 l 0.15189,-0.0152 0.1519,-0.0152 0.0152,-0.22785 0.0152,-0.22785 h 0.47089 0.47088 l 0.009,0.23383 0.009,0.23383 0.14306,0.009 0.14305,0.009 v 0.22785 0.22785 H 12.83301 12.6963 l -0.009,-0.23646 -0.009,-0.23646 -0.32528,0.009 -0.32529,0.009 v 0.22785 0.22784 l 0.1519,0.0152 0.1519,0.0152 0.0152,0.22785 0.0152,0.22785 0.1519,0.0152 0.15189,0.0152 0.0152,0.22785 0.0152,0.22785 0.13671,0.0152 0.13671,0.0152 v 0.47088 0.47089 l -0.13671,0.0152 -0.13671,0.0152 -0.0152,0.21266 -0.0152,0.21265 -0.45746,0.008 c -0.25161,0.005 -0.46693,-10e-4 -0.47848,-0.0127 z"/><path style="fill:#5892be;stroke-width:0.03037974" d="m 3.27726,9.1145931 c -0.008,-0.0215 -0.0114,-0.98917 -0.007,-2.15043 l 0.008,-2.1114 h 0.31899 0.31899 l 0.0152,0.4557 0.0152,0.4557 0.47088,0.0152 0.47089,0.0152 0.0152,0.22784 0.0152,0.22785 0.13671,0.0152 0.13671,0.0152 v 1.42785 1.42785 h -0.3038 -0.3038 l -0.0152,-1.42785 -0.0152,-1.42785 H 4.25044 3.94664 l -0.0152,1.42785 -0.0152,1.42785 -0.31194,0.009 c -0.23255,0.006 -0.31573,-10e-4 -0.32685,-0.0304 z m 2.27846,3e-5 c -0.008,-0.0215 -0.0114,-0.7773 -0.007,-1.67958 l 0.008,-1.6405 h 0.3038 0.30379 l 0.0152,0.22784 0.0152,0.22785 h 0.1519 0.1519 l 0.0152,-0.22785 0.0152,-0.22784 h 0.3038 0.30379 v 0.47088 0.47089 l -0.47088,0.0152 -0.47089,0.0152 -0.0152,1.18481 -0.0152,1.18481 -0.29673,0.009 c -0.22033,0.006 -0.30058,-10e-4 -0.31169,-0.0304 z m 2.27937,-4.6e-4 c -0.008,-0.0212 -0.0175,-0.12062 -0.0221,-0.22088 l -0.008,-0.18227 -0.1519,-0.0152 -0.1519,-0.0152 v -1.20001 -1.2 l 0.1519,-0.0152 0.1519,-0.0152 0.0152,-0.22785 0.0152,-0.22785 h 0.62279 0.62278 l 0.0152,0.22785 0.0152,0.22785 0.1519,0.0152 0.1519,0.0152 v 0.71393 0.71392 l -0.63798,0.0152 -0.63797,0.0152 v 0.47089 0.47089 l 0.47719,0.008 0.47719,0.008 0.009,-0.23621 0.009,-0.23621 h 0.1519 0.15189 v 0.22785 0.22785 l -0.15819,0.009 -0.15819,0.009 -0.009,0.21871 -0.009,0.21871 -0.6159,0.008 c -0.4766,0.006 -0.619,-4.6e-4 -0.6296,-0.0304 z m 0.94171,-2.36265 v -0.47089 H 8.45782 8.13883 l -0.008,0.43911 c -0.005,0.24151 -10e-4,0.45731 0.007,0.47955 0.0118,0.0309 0.0896,0.0384 0.32746,0.0318 l 0.31193,-0.009 z m 1.3058,2.3631 c -0.008,-0.0215 -0.0181,-0.66791 -0.0222,-1.43652 l -0.008,-1.39747 -0.13671,-0.0152 -0.13671,-0.0152 v -0.22785 -0.22785 l 0.13671,-0.0152 0.13671,-0.0152 0.0152,-0.22785 0.0152,-0.22785 0.1519,-0.0152 0.1519,-0.0152 0.0152,-0.21265 0.0152,-0.21266 h 0.47088 0.47089 v 0.21266 0.21265 l -0.3038,0.0152 -0.3038,0.0152 v 0.22785 0.22785 l 0.13671,0.0152 0.13671,0.0152 v 0.22785 0.22785 l -0.13671,0.0152 -0.13671,0.0152 -0.0152,1.42785 -0.0152,1.42785 -0.31193,0.009 c -0.23266,0.006 -0.31566,-0.001 -0.32657,-0.0304 z m 1.64686,0.0174 c -0.0116,-0.0116 -0.021,-0.11372 -0.021,-0.22702 v -0.20601 l -0.1595,-0.009 -0.15949,-0.009 v -0.22784 -0.22785 h 0.1519 0.1519 l 0.009,0.23649 0.009,0.23649 0.31009,-0.009 0.3101,-0.009 v -0.22785 -0.22785 l -0.1519,-0.0152 -0.1519,-0.0152 -0.0152,-0.22785 -0.0152,-0.22785 -0.13671,-0.0152 -0.13671,-0.0152 -0.0152,-0.22785 -0.0152,-0.22784 -0.1519,-0.0152 -0.15189,-0.0152 v -0.47089 -0.47089 l 0.15189,-0.0152 0.1519,-0.0152 0.0152,-0.22785 0.0152,-0.22785 h 0.47089 0.47088 l 0.009,0.23383 0.009,0.23383 0.14306,0.009 0.14305,0.009 v 0.22785 0.22785 H 12.83301 12.6963 l -0.009,-0.23646 -0.009,-0.23646 -0.32528,0.009 -0.32529,0.009 v 0.22785 0.22784 l 0.1519,0.0152 0.1519,0.0152 0.0152,0.22785 0.0152,0.22785 0.1519,0.0152 0.15189,0.0152 0.0152,0.22785 0.0152,0.22785 0.13671,0.0152 0.13671,0.0152 v 0.47088 0.47089 l -0.13671,0.0152 -0.13671,0.0152 -0.0152,0.21266 -0.0152,0.21265 -0.45746,0.008 c -0.25161,0.005 -0.46693,-10e-4 -0.47848,-0.0127 z m -10.36529,-0.0483 c -0.008,-0.0212 -0.0174,-0.12052 -0.022,-0.22078 l -0.008,-0.18227 -0.13671,-0.0152 -0.13671,-0.0152 v -0.4405 -0.44051 l 0.13671,-0.0152 0.13671,-0.0152 0.0152,-0.22784 0.0152,-0.22785 0.47088,-0.0152 0.47089,-0.0152 v -0.50127 -0.50126 l -0.47089,-0.0152 -0.47088,-0.0152 v -0.19747 -0.19747 h 0.60759 0.6076 l 0.0152,0.22785 0.0152,0.22784 0.1519,0.0152 0.15189,0.0152 v 1.39747 1.39747 l -0.76784,0.008 c -0.59826,0.006 -0.77086,-3.5e-4 -0.7815,-0.0304 z m 0.94175,-0.87394 v -0.50127 H 1.97174 1.63756 l -0.008,0.46961 c -0.005,0.25829 -10e-4,0.48774 0.007,0.5099 0.0118,0.0308 0.0927,0.0382 0.3426,0.0316 l 0.32714,-0.009 z m -1.24751,-1.52826 c -0.009,-0.0239 -0.0125,-0.1171 -0.007,-0.20701 l 0.009,-0.16347 h 0.10632 0.10633 v 0.19747 0.19747 l -0.0989,0.01 c -0.0648,0.006 -0.10471,-0.005 -0.11565,-0.034 z"/><path style="fill:#fe8803;stroke-width:0.03037974" d="m 1.36417,9.0836731 c -0.008,-0.0212 -0.0174,-0.12053 -0.022,-0.22078 l -0.008,-0.18228 -0.13671,-0.0152 -0.13671,-0.0152 v -0.44051 -0.4405 l 0.13671,-0.0152 0.13671,-0.0152 0.0152,-0.22785 0.0152,-0.22785 0.47088,-0.0152 0.47089,-0.0152 v -0.50126 -0.50127 l -0.47089,-0.0152 -0.47088,-0.0152 v -0.19747 -0.19746 h 0.60759 0.6076 l 0.0152,0.22784 0.0152,0.22785 0.1519,0.0152 0.15189,0.0152 v 1.39747 1.39747 l -0.76784,0.008 c -0.59826,0.006 -0.77086,-3.4e-4 -0.7815,-0.0304 z m 0.94175,-0.87395 v -0.50126 H 1.97174 1.63756 l -0.008,0.46961 c -0.005,0.25829 -10e-4,0.48774 0.007,0.50989 0.0118,0.0308 0.0927,0.0383 0.3426,0.0317 l 0.32714,-0.009 z m 0.98734,-1.21518 v -2.12659 h 0.303 0.30301 l 0.008,0.46329 0.008,0.4633 0.47722,0.008 0.47721,0.008 0.009,0.23467 0.009,0.23468 0.14431,0.009 0.1443,0.009 v 1.41099 1.41099 H 4.88802 4.59971 l -0.008,-1.43544 -0.008,-1.43544 H 4.24954 3.91536 l -0.008,1.43544 -0.008,1.43544 h -0.3035 -0.3035 z m 2.27848,0.47088 v -1.6557 H 5.85907 6.1464 l 0.009,0.23545 0.009,0.23544 h 0.18228 0.18228 l 0.009,-0.23544 0.009,-0.23545 h 0.28733 0.28733 v 0.45493 0.45492 l -0.47849,0.008 -0.47848,0.008 -0.008,1.1924 -0.008,1.19241 H 5.86039 5.57214 Z m 2.27222,1.43544 -0.009,-0.22025 -0.1595,-0.009 -0.15949,-0.009 v -1.18165 -1.18163 l 0.15949,-0.009 0.1595,-0.009 0.009,-0.23545 0.009,-0.23544 H 8.458 9.06304 l 0.009,0.23544 0.009,0.23545 0.15949,0.009 0.15949,0.009 v 0.69654 0.69655 l -0.64556,0.008 -0.64557,0.008 v 0.50127 0.50127 l 0.47848,0.008 0.47848,0.008 v 0.1967 0.19669 H 8.45958 7.85332 Z m 0.96322,-2.14936 v -0.50127 H 8.45782 8.10845 l -0.008,0.46961 c -0.005,0.25829 -0.001,0.48773 0.007,0.50986 0.0118,0.0308 0.0954,0.0382 0.35778,0.0317 l 0.34235,-0.009 z m 1.28384,0.93417 -0.008,-1.43544 -0.1443,-0.009 -0.14431,-0.009 v -0.20933 -0.20933 l 0.14431,-0.009 0.1443,-0.009 0.009,-0.23389 0.009,-0.2339 0.15824,-0.009 0.15824,-0.009 0.009,-0.22025 0.009,-0.22025 h 0.45436 0.45437 v 0.1964 0.19641 l -0.31139,0.009 -0.31139,0.009 v 0.25822 0.25823 l 0.1443,0.009 0.1443,0.009 v 0.20933 0.20932 l -0.1443,0.009 -0.1443,0.009 -0.008,1.43544 -0.008,1.43545 h -0.30321 -0.3032 z m 1.64781,1.23904 v -0.1964 l 0.31139,-0.009 0.31139,-0.009 v -0.25823 -0.25823 l -0.15824,-0.009 -0.15824,-0.009 -0.009,-0.2339 -0.009,-0.2339 -0.14306,-0.009 -0.14305,-0.009 -0.009,-0.23383 -0.009,-0.23383 -0.15949,-0.009 -0.15949,-0.009 v -0.45252 -0.45252 l 0.15949,-0.009 0.15949,-0.009 0.009,-0.23544 0.009,-0.23544 h 0.45442 0.45442 v 0.21163 0.21163 l -0.32659,0.009 -0.32658,0.009 v 0.25823 0.25822 l 0.15824,0.009 0.15825,0.009 0.009,0.2339 0.009,0.23389 0.15824,0.009 0.15824,0.009 0.009,0.2339 0.009,0.2339 0.1443,0.009 0.14431,0.009 v 0.45237 0.45236 l -0.14431,0.009 -0.1443,0.009 -0.009,0.22025 -0.009,0.22025 h -0.45437 -0.45436 z m -2.61266,-0.47195 v -0.21265 h 0.13671 0.13671 v 0.21265 0.21266 H 9.26288 9.12617 Z m 2.27848,0 v -0.21265 h 0.13671 0.13671 v 0.21265 0.21266 h -0.13671 -0.13671 z m -10.34624,-1.7713 c -0.009,-0.0239 -0.0125,-0.11709 -0.007,-0.207 l 0.009,-0.16347 h 0.10632 0.10633 v 0.19747 0.19747 l -0.0989,0.01 c -0.0648,0.006 -0.10471,-0.006 -0.11565,-0.034 z m 11.65257,-0.173 v -0.21266 h 0.12152 0.12152 v 0.21266 0.21266 H 12.8325 12.71098 Z"/><path style="fill:#1a69a6;stroke-width:0.03037974" d="m 3.29326,6.9945431 v -2.12659 h 0.303 0.30301 l 0.008,0.46329 0.008,0.4633 0.47722,0.008 0.47721,0.008 0.009,0.23467 0.009,0.23468 0.14431,0.009 0.1443,0.009 v 1.41099 1.41099 H 4.88802 4.59971 l -0.008,-1.43544 -0.008,-1.43544 H 4.24954 3.91536 l -0.008,1.43544 -0.008,1.43544 h -0.3035 -0.3035 z m 2.27848,0.47088 v -1.6557 H 5.85907 6.1464 l 0.009,0.23545 0.009,0.23544 h 0.18228 0.18228 l 0.009,-0.23544 0.009,-0.23545 h 0.28733 0.28733 v 0.45493 0.45492 l -0.47849,0.008 -0.47848,0.008 -0.008,1.1924 -0.008,1.19241 H 5.86039 5.57214 Z m 2.27222,1.43544 -0.009,-0.22025 -0.1595,-0.009 -0.15949,-0.009 v -1.18165 -1.18163 l 0.15949,-0.009 0.1595,-0.009 0.009,-0.23545 0.009,-0.23544 H 8.458 9.06304 l 0.009,0.23544 0.009,0.23545 0.15949,0.009 0.15949,0.009 v 0.69654 0.69655 l -0.64556,0.008 -0.64557,0.008 v 0.50127 0.50127 l 0.47848,0.008 0.47848,0.008 v 0.1967 0.19669 H 8.45958 7.85332 Z m 0.96322,-2.14936 v -0.50127 H 8.45782 8.10845 l -0.008,0.46961 c -0.005,0.25829 -0.001,0.48773 0.007,0.50986 0.0118,0.0308 0.0954,0.0382 0.35778,0.0317 l 0.34235,-0.009 z m 1.28384,0.93417 -0.008,-1.43544 -0.1443,-0.009 -0.14431,-0.009 v -0.20933 -0.20933 l 0.14431,-0.009 0.1443,-0.009 0.009,-0.23389 0.009,-0.2339 0.15824,-0.009 0.15824,-0.009 0.009,-0.22025 0.009,-0.22025 h 0.45436 0.45437 v 0.1964 0.19641 l -0.31139,0.009 -0.31139,0.009 v 0.25822 0.25823 l 0.1443,0.009 0.1443,0.009 v 0.20933 0.20932 l -0.1443,0.009 -0.1443,0.009 -0.008,1.43544 -0.008,1.43545 h -0.30321 -0.3032 z m 1.64781,1.23904 v -0.1964 l 0.31139,-0.009 0.31139,-0.009 v -0.25823 -0.25823 l -0.15824,-0.009 -0.15824,-0.009 -0.009,-0.2339 -0.009,-0.2339 -0.14306,-0.009 -0.14305,-0.009 -0.009,-0.23383 -0.009,-0.23383 -0.15949,-0.009 -0.15949,-0.009 v -0.45252 -0.45252 l 0.15949,-0.009 0.15949,-0.009 0.009,-0.23544 0.009,-0.23544 h 0.45442 0.45442 v 0.21163 0.21163 l -0.32659,0.009 -0.32658,0.009 v 0.25823 0.25822 l 0.15824,0.009 0.15825,0.009 0.009,0.2339 0.009,0.23389 0.15824,0.009 0.15824,0.009 0.009,0.2339 0.009,0.2339 0.1443,0.009 0.14431,0.009 v 0.45237 0.45236 l -0.14431,0.009 -0.1443,0.009 -0.009,0.22025 -0.009,0.22025 h -0.45437 -0.45436 z m -2.61266,-0.47195 v -0.21265 h 0.13671 0.13671 v 0.21265 0.21266 H 9.26288 9.12617 Z m 2.27848,0 v -0.21265 h 0.13671 0.13671 v 0.21265 0.21266 h -0.13671 -0.13671 z m 1.30633,-1.9443 v -0.21266 h 0.12152 0.12152 v 0.21266 0.21266 H 12.8325 12.71098 Z"/><path style="fill:#00599d;stroke-width:0.03037974" d="m 3.32364,6.9945431 v -2.09621 h 0.27342 0.27341 v 0.43443 c 0,0.29739 0.0115,0.44593 0.0365,0.47089 0.0251,0.0251 0.17688,0.0365 0.48608,0.0365 h 0.44961 v 0.20659 c 0,0.23903 0.0273,0.27949 0.18836,0.27949 h 0.11544 v 1.38228 1.38228 H 4.88823 4.63001 v -1.40659 c 0,-1.0535 -0.009,-1.41573 -0.0365,-1.44303 -0.0498,-0.0498 -0.63675,-0.0498 -0.68658,0 -0.0273,0.0273 -0.0365,0.38953 -0.0365,1.44303 v 1.40659 H 3.59702 3.3236 Z m 2.27848,0.47088 v -1.62532 h 0.25823 0.25822 v 0.20659 c 0,0.12017 0.0153,0.22183 0.0365,0.24304 0.0473,0.0473 0.33548,0.0473 0.38279,0 0.0212,-0.0212 0.0365,-0.12287 0.0365,-0.24304 v -0.20659 h 0.25823 0.25823 v 0.42532 0.42532 H 6.6412 c -0.3092,0 -0.46101,0.0114 -0.48608,0.0365 -0.0271,0.0271 -0.0365,0.33553 -0.0365,1.2 v 1.16355 H 5.8604 5.60217 Z m 2.27848,1.43393 c 0,-0.10836 -0.0158,-0.20721 -0.0365,-0.22785 -0.02,-0.02 -0.0952,-0.0365 -0.16708,-0.0365 H 7.54638 v -1.15443 -1.15443 h 0.13064 c 0.0718,0 0.14703,-0.0164 0.16708,-0.0365 0.0212,-0.0212 0.0365,-0.12287 0.0365,-0.24304 v -0.20659 h 0.57722 0.57721 v 0.20659 c 0,0.12017 0.0153,0.22183 0.0365,0.24304 0.02,0.02 0.0952,0.0365 0.16708,0.0365 h 0.13064 v 0.66836 0.66835 H 8.75254 c -0.43916,0 -0.62721,0.0105 -0.65316,0.0365 -0.051,0.051 -0.051,0.96972 0,1.02075 0.0251,0.0251 0.17687,0.0365 0.48607,0.0365 h 0.44962 v 0.16709 0.16709 H 8.45786 7.88064 Z m 0.9357,-1.63747 c 0.051,-0.051 0.051,-0.96973 0,-1.02076 -0.05,-0.05 -0.66697,-0.05 -0.71696,0 -0.051,0.051 -0.051,0.96972 0,1.02076 0.0238,0.0238 0.14852,0.0365 0.35848,0.0365 0.20995,0 0.33471,-0.0127 0.35848,-0.0365 z m 1.3124,0.42227 c 0,-1.0535 -0.009,-1.41573 -0.0365,-1.44303 -0.0201,-0.02 -0.0884,-0.0365 -0.1519,-0.0365 H 9.82485 v -0.18228 -0.18228 H 9.9403 c 0.16109,0 0.18835,-0.0405 0.18835,-0.27949 v -0.20658 h 0.13063 c 0.0719,0 0.14704,-0.0164 0.16709,-0.0365 0.0206,-0.0206 0.0365,-0.11949 0.0365,-0.22785 v -0.19139 h 0.42531 0.42532 v 0.16709 0.16709 h -0.28253 c -0.17924,0 -0.29586,0.0133 -0.31899,0.0365 -0.022,0.022 -0.0365,0.12827 -0.0365,0.26734 0,0.26506 0.024,0.30379 0.18835,0.30379 h 0.11545 v 0.18228 0.18228 h -0.11545 c -0.0635,0 -0.13185,0.0164 -0.1519,0.0365 -0.0273,0.0273 -0.0365,0.38953 -0.0365,1.44303 v 1.40659 h -0.27342 -0.27342 z m 1.64051,1.2395 v -0.16709 h 0.28253 c 0.17924,0 0.29586,-0.0133 0.31899,-0.0365 0.0487,-0.0487 0.0487,-0.48597 0,-0.53468 -0.02,-0.02 -0.0952,-0.0365 -0.16709,-0.0365 h -0.13063 v -0.20659 c 0,-0.23903 -0.0273,-0.27949 -0.18836,-0.27949 h -0.11544 v -0.20658 c 0,-0.12017 -0.0153,-0.22183 -0.0365,-0.24304 -0.02,-0.02 -0.0952,-0.0365 -0.16709,-0.0365 h -0.13063 v -0.42531 -0.42532 h 0.13063 c 0.0719,0 0.14704,-0.0164 0.16709,-0.0365 0.0212,-0.0212 0.0365,-0.12287 0.0365,-0.24304 v -0.20659 h 0.42531 0.42532 v 0.18228 0.18228 h -0.29772 c -0.19106,0 -0.31078,0.0131 -0.33418,0.0365 -0.0487,0.0487 -0.0487,0.48597 0,0.53468 0.02,0.02 0.0952,0.0365 0.16709,0.0365 h 0.13063 v 0.20658 c 0,0.12017 0.0153,0.22183 0.0365,0.24304 0.02,0.02 0.0952,0.0365 0.16709,0.0365 h 0.13063 v 0.20659 c 0,0.23903 0.0273,0.27949 0.18835,0.27949 h 0.11545 v 0.42531 0.42532 h -0.11545 c -0.15877,0 -0.18835,0.0415 -0.18835,0.26431 v 0.19139 h -0.42532 -0.42531 z m -2.61266,-0.47089 v -0.18228 h 0.10633 0.10633 v 0.18228 0.18228 H 9.26288 9.15655 Z m 2.27848,0 v -0.18228 h 0.10633 0.10633 v 0.18228 0.18228 h -0.10633 -0.10633 z m 1.30633,-1.9443 v -0.18228 h 0.0911 0.0911 v 0.18228 0.18228 h -0.0911 -0.0911 z"/></svg>
