<svg role="img" focusable="false" aria-hidden="true" xmlns="http://www.w3.org/2000/svg" viewBox="0 0 14 14"><g transform="matrix(0.03449535,0,0,0.03449535,0.99999955,0.99998231)"><rect x="64.148003" y="76.603996" width="219.576" height="34.249001"/><rect x="64.148003" y="136.38901" width="150.04601" height="80.214996"/><rect x="242.927" y="136.38901" width="40.798" height="80.214996"/><path d="M 337.873,33.937 H 10 c -5.523,0 -10,4.477 -10,10 V 254.33 c 0,5.523 4.477,10 10,10 h 114.979 c -4.407,21.476 -14.601,32.572 -14.674,32.651 -2.793,2.885 -3.59,7.16 -2.023,10.857 1.566,3.697 5.191,6.099 9.207,6.099 h 112.895 c 4.016,0 7.641,-2.402 9.207,-6.099 1.566,-3.697 0.77,-7.973 -2.023,-10.857 -0.117,-0.122 -10.279,-11.174 -14.676,-32.651 h 114.981 c 5.523,0 10,-4.477 10,-10 V 43.937 c 0,-5.523 -4.477,-10 -10,-10 z m -10,210.392 h -16.311 v -2.816 c 0,-5.523 -4.477,-10 -10,-10 -5.523,0 -10,4.477 -10,10 v 2.816 h -10.439 v -2.816 c 0,-5.523 -4.477,-10 -10,-10 -5.522,0 -10,4.477 -10,10 v 2.816 H 211.341 136.532 20 V 53.937 h 307.873 z"/></g></svg>
