<svg role="img" focusable="false" aria-hidden="true" xmlns="http://www.w3.org/2000/svg" viewBox="0 0 14 14"><path d="M 1.8659929,3.0963517 C 4.8143266,1.3677616 6.9839148,0.99927167 6.9839148,0.99927167 c 0,0 0.0023,3.5e-4 0.0055,9.6003e-4 0.0033,-6.1003e-4 0.0055,-9.6003e-4 0.0055,-9.6003e-4 0,0 -0.011,12.00000033 0,12.00000033 -0.0019,-3.5e-4 -0.0036,-9.6e-4 -0.0055,-10e-4 -0.0019,3.5e-4 -0.0036,9.6e-4 -0.0055,10e-4 C 1.4751699,11.823072 1.8659929,3.0963517 1.8659929,3.0963517 Z M 6.9835418,1.7402516 c -0.4826472,0.10437 -2.1774312,0.53826 -4.3878043,1.7781601 0.0096,1.61164 0.285353,7.7100603 4.3878043,8.7349403 l 0,-10.5131004 z M 12.123424,3.09708 C 9.1750899,1.36849 7.0055019,1 7.0055019,1 c 0,0 -0.0023,3.5e-4 -0.0055,9.6e-4 C 6.9967019,1.00035 6.9945019,1 6.9945019,1 c 0,0 0.011,12 0,12 0.0019,-3.5e-4 0.0036,-9.6e-4 0.0055,-10e-4 0.0019,3.5e-4 0.0036,9.6e-4 0.0055,10e-4 C 12.514247,11.8238 12.123424,3.09708 12.123424,3.09708 Z M 7.0058749,1.74098 c 0.482647,0.10437 2.177431,0.53826 4.3878041,1.77816 -0.0096,1.61164 -0.285353,7.71006 -4.3878041,8.73494 l 0,-10.5131 z" /></svg>