<svg role="img" focusable="false" aria-hidden="true" xmlns="http://www.w3.org/2000/svg" viewBox="0 0 100 100"><path d="M 55.828394,67.300226 C 55.696111,67.167565 55.587639,62.12182 55.587639,56.08735 V 45.115608 h 2.529751 2.529751 V 56.328484 67.54136 h -2.288806 c -1.258885,0 -2.397279,-0.108472 -2.529789,-0.241134 z" style="fill:#676868;stroke-width:0.36155057"/><path d="M 17.598132,68.00628 C 17.240211,67.772327 17.162957,63.961467 17.236809,50.189397 l 0.09373,-17.519209 h 2.710451 2.710488 V 50.393756 68.11736 l -2.34909,0.09335 c -1.291994,0.0514 -2.55394,-0.04082 -2.804334,-0.204472 z m 50.02666,0.05065 C 67.492131,67.924264 67.384036,62.715735 67.384036,56.482311 V 45.148868 h 2.671786 c 2.102967,0 2.718501,0.1217 2.89115,0.572144 0.120567,0.314835 0.219212,5.422905 0.219212,11.351547 v 10.77944 l -0.813165,0.218079 c -1.101354,0.295559 -4.429191,0.28611 -4.728227,-0.01512 z M 42.447581,50.212717 V 32.489148 h 2.710451 2.71045 v 17.723569 17.723604 h -2.71045 -2.710451 z m -12.47879,4.985688 c -0.0994,-0.259653 -0.137953,-5.434545 -0.08504,-11.50012 l 0.09562,-11.028286 h 2.710489 2.71045 v 11.393728 11.393727 l -2.625335,0.106205 c -1.904429,0.0771 -2.675037,-0.02268 -2.806262,-0.365481 z M 54.888124,38.877459 c -0.102048,-0.266078 -0.137575,-1.771882 -0.07899,-3.345791 l 0.106583,-2.861669 h 2.710451 2.710488 l 0.103937,3.345789 0.103937,3.345753 h -2.735358 c -1.951256,0 -2.788573,-0.138708 -2.92097,-0.484082 z m 17.629947,-0.142866 -5.888315,-0.11452 0.105826,-2.613356 0.105827,-2.613317 h 9.576983 9.576984 v 2.712757 2.712833 l -3.794646,0.01512 c -2.087056,0.0076 -6.444397,-0.0378 -9.682961,-0.0994 z" style="fill:#990606;stroke-width:0.36155057"/><path d="M 42.266882,99.57985 C 36.975695,98.72288 32.802038,97.368675 27.811058,94.889494 13.719014,87.889468 4.1337604,75.445335 0.83394526,59.866273 -0.19760125,54.9962 -0.28590614,46.222669 0.64576257,41.170272 2.3952909,31.682597 6.8687438,22.82191 13.43759,15.833185 19.286182,9.61076 26.617521,4.929966 34.5955,2.324662 43.677742,-0.64124703 54.58304,-0.77617603 64.046259,1.960316 79.703936,6.488038 92.375974,18.765381 97.553474,34.423964 100.61481,43.682562 100.81819,55.192018 98.078866,64.153731 92.611968,82.038495 78.427778,95.173676 60.336615,99.104688 55.939097,100.06023 46.728312,100.30242 42.266882,99.57985 Z M 58.529661,93.433431 C 76.370203,89.766155 89.781404,76.426312 93.617776,58.532175 94.520327,54.322311 94.527848,45.775438 93.632896,41.605749 91.805343,33.092777 88.126049,26.010849 82.323604,19.837519 73.09498,10.018987 59.088617,4.69435 45.999848,6.028712 30.644535,7.594155 17.451677,16.454729 10.543381,29.841967 -0.7577555,51.741876 7.9943421,78.44885 30.13479,89.625065 c 4.187112,2.113625 9.947943,3.77537 15.565493,4.489966 2.425776,0.308409 9.959736,-0.09184 12.829531,-0.6816 z"
     style="fill:#050505;stroke-width:0.36155057"/></svg>
