<svg role="img" focusable="false" aria-hidden="true" xmlns="http://www.w3.org/2000/svg" viewBox="0 0 100 100"><path d="m 45.466679,92.535273 c -3.819436,-0.29316 -6.579019,-0.62273 -7.733333,-0.92356 -0.256667,-0.0669 -1.336667,-0.3102 -2.4,-0.54069 -2.385425,-0.51708 -5.812783,-1.63205 -7.487278,-2.43573 -2.491272,-1.19569 -4.346947,-2.72841 -5.062172,-4.18118 -0.250075,-0.50795 -0.316507,-0.85598 -0.313859,-1.64432 0.0038,-1.14204 0.355168,-1.9839 1.234647,-2.95846 1.962773,-2.17497 6.509745,-4.21664 11.961995,-5.37113 0.88,-0.18634 1.735,-0.36955 1.9,-0.40714 l 0.3,-0.0684 v -3.34823 -3.34824 l -0.5,0.0833 c -4.405644,0.73399 -7.541246,0.21092 -10.227796,-1.70616 -1.379738,-0.98456 -2.379555,-2.21978 -3.730585,-4.60892 -1.368801,-2.42057 -2.474911,-3.55825 -4.487993,-4.61609 -2.317207,-1.21767 -2.264001,-2.55066 0.107256,-2.68715 2.558529,-0.14728 5.160656,1.49685 7.149423,4.51731 1.024073,1.55531 1.652544,2.24132 2.720135,2.96918 2.156501,1.47025 4.726274,1.74143 7.626261,0.80477 1.527718,-0.49344 1.576423,-0.53598 1.993761,-1.74122 0.463951,-1.33986 1.195299,-2.56099 2.114594,-3.53073 l 0.711555,-0.7506 -1.104973,-0.15457 c -8.380022,-1.17219 -14.139892,-4.23247 -17.272003,-9.1768 l -0.612845,-0.96743 -0.943396,1.3e-4 c -1.538532,2.7e-4 -6.0782,0.37356 -9.010062,0.74096 -3.415943,0.42806 -7.030127,1.08562 -9.798296,1.78268 -1.846231,0.4649 -2.157102,0.5113 -2.32188,0.34652 -0.359174,-0.35917 0.09626,-0.57518 2.362138,-1.12031 5.350428,-1.28723 10.693849,-2.04894 16.943673,-2.41534 1.202099,-0.0705 2.211274,-0.15378 2.24261,-0.18511 0.03134,-0.0313 -0.07459,-0.36281 -0.235388,-0.73659 l -0.292362,-0.67961 -4.016913,2.7e-4 c -5.769366,2.6e-4 -10.482671,0.35294 -15.060784,1.12677 -1.878496,0.31747 -2.222798,0.31878 -2.222798,0.008 0,-0.33256 0.360553,-0.45056 2.400029,-0.78545 4.440151,-0.72908 7.846269,-1.00186 13.833305,-1.1078 2.585,-0.0457 4.7,-0.1347 4.7,-0.19768 0,-0.063 -0.121168,-0.54875 -0.269263,-1.07949 -0.717356,-2.57084 -1.160553,-6.76568 -1.018413,-9.63921 0.210671,-4.25891 1.479783,-7.67322 4.0495,-10.89443 l 0.719572,-0.902 -0.354064,-1.36467 c -0.466219,-1.79693 -0.589633,-4.73637 -0.278489,-6.63291 0.230986,-1.40795 0.777325,-3.4145302 1.124962,-4.1317502 0.222655,-0.45937 0.2408,-0.46736 1.159528,-0.51106 1.906794,-0.0907 4.094154,0.52206 7.066667,1.9796 1.026667,0.50341 2.53701,1.3389302 3.356318,1.8567102 0.819308,0.51778 1.609505,0.94142 1.755993,0.94142 0.14649,0 0.886145,-0.14788 1.643683,-0.32863 5.541296,-1.32212 12.569064,-1.42235 18.510674,-0.264 0.916668,0.17871 1.786666,0.32332 1.933334,0.32135 0.146665,-0.002 0.836667,-0.36668 1.533332,-0.81048 1.52713,-0.97282 4.616784,-2.4983102 6.018932,-2.9717802 1.488011,-0.50247 2.791139,-0.74646 3.98671,-0.74646 0.94941,0 1.073658,0.03 1.242701,0.3 0.267636,0.42748 0.832577,2.23841 1.11267,3.5666602 0.339281,1.60895 0.336427,5.38452 -0.0052,6.84113 l -0.244161,1.04113 0.48294,0.55887 c 2.668388,3.08794 4.00805,5.84635 4.674781,9.62554 0.151676,0.85974 0.210342,2.02599 0.206903,4.113 -0.0053,3.21286 -0.148906,5.10606 -0.562855,7.42034 -0.150845,0.84333 -0.283079,1.60709 -0.293855,1.69725 -0.01508,0.12618 1.131345,0.17745 4.980412,0.22274 6.085777,0.0716 9.508086,0.33714 14.133302,1.09662 2.039478,0.33489 2.40003,0.45288 2.40003,0.78545 0,0.31545 -0.37276,0.31485 -2.222033,-0.003 -4.653483,-0.80129 -9.841958,-1.16841 -15.642894,-1.10687 l -3.931597,0.0417 -0.158521,0.33333 c -0.08719,0.18334 -0.197911,0.49211 -0.246055,0.68616 l -0.08753,0.35283 1.577647,0.088 c 6.778412,0.37808 12.704027,1.19408 18.069021,2.48825 2.266198,0.54666 2.721163,0.76271 2.362137,1.12173 -0.16478,0.16478 -0.47565,0.11838 -2.321881,-0.34652 -5.226856,-1.31619 -14.290424,-2.52304 -18.95291,-2.52364 l -1.087948,-1.3e-4 -0.531046,0.96666 c -2.275272,4.14171 -6.141642,6.78943 -12.113779,8.29561 -1.402742,0.35377 -5.02371,1.00439 -5.589876,1.00439 -0.177506,0 -0.322738,0.0358 -0.322738,0.0796 0,0.0438 0.354977,0.46695 0.788837,0.94043 0.936843,1.0224 1.777685,2.57475 2.171214,4.00845 0.266377,0.97047 0.288627,1.4233 0.340932,6.93865 l 0.05596,5.90042 0.288196,0.0597 c 0.15851,0.0328 1.03846,0.21142 1.955449,0.39683 4.712171,0.95278 8.505377,2.36636 11.039663,4.11407 2.679466,1.84782 3.567077,4.11034 2.434439,6.20539 -2.510105,4.64295 -14.430637,8.08977 -27.674685,8.00213 -1.906667,-0.0126 -4.036667,-0.0667 -4.733334,-0.12017 z m -1.591235,-19.33017 c 0.247935,-0.1327 0.257902,-0.33108 0.257902,-5.13334 0,-2.74742 -0.04706,-4.99531 -0.104586,-4.99531 -0.179437,0 -0.546688,0.73084 -0.778369,1.54897 -0.175149,0.6185 -0.235047,1.58118 -0.283264,4.55255 -0.03363,2.0725 -0.02687,3.8575 0.01502,3.96667 0.08832,0.23014 0.521455,0.25946 0.893299,0.0605 z m 13.154336,-3.76198 c -0.05302,-2.99201 -0.113371,-3.93043 -0.293481,-4.56295 -0.265266,-0.93161 -0.556641,-1.53705 -0.73971,-1.53705 -0.146959,0 -0.187366,9.63143 -0.04102,9.77777 0.04889,0.0489 0.325599,0.0889 0.614918,0.0889 h 0.526031 z m -6.661654,-2.13334 -0.03478,-5.63333 H 50.000013 49.66668 l -0.03478,5.63333 -0.03478,5.63334 h 0.402895 0.402894 z M 39.147807,47.083793 c 1.257307,-0.55617 2.474315,-2.28943 2.912317,-4.14773 0.25766,-1.09316 0.26068,-3.28 0.006,-4.36009 -0.431901,-1.83182 -1.632549,-3.53675 -2.934516,-4.16702 -1.345299,-0.65125 -2.991256,-0.26295 -4.170416,0.98384 -2.851431,3.01497 -2.410867,9.1505 0.822366,11.45276 0.915035,0.65157 2.220801,0.74403 3.364229,0.23824 z m -1.753096,-1.74925 c -0.680986,-0.19802 -1.483536,-1.00165 -1.953345,-1.95597 -0.388997,-0.79016 -0.442003,-1.03499 -0.486947,-2.24913 -0.03833,-1.03552 0.0048,-1.53328 0.179738,-2.07439 0.550174,-1.7017 1.667638,-2.7786 2.883279,-2.7786 0.821312,0 1.182151,0.14652 1.852631,0.75226 1.039835,0.93942 1.545,2.43639 1.42833,4.23259 -0.120542,1.85582 -0.881749,3.25057 -2.10737,3.86132 -0.73755,0.36754 -1.110042,0.41148 -1.796316,0.21192 z m -0.224367,-5.93232 c 0.326467,-0.22866 0.401542,-0.83389 0.136335,-1.0991 -0.088,-0.088 -0.316,-0.16 -0.506667,-0.16 -0.446073,0 -0.666667,0.22691 -0.666667,0.68577 0,0.31677 0.396235,0.7809 0.666667,0.7809 0.0407,0 0.20735,-0.0934 0.370332,-0.20757 z m 26.902151,7.65749 c 2.478107,-1.16484 3.796361,-5.51017 2.725277,-8.98326 -1.443144,-4.67951 -5.929712,-5.38059 -7.965781,-1.24474 -0.666195,1.35322 -0.867969,2.4463 -0.795859,4.31141 0.07372,1.9068 0.37782,2.99115 1.172651,4.18142 1.278864,1.91511 3.099277,2.56456 4.863712,1.73517 z m -2.790418,-1.77957 c -1.607403,-0.57291 -2.702154,-3.05087 -2.350156,-5.31956 0.346201,-2.23133 1.571569,-3.68413 3.107381,-3.68413 0.848832,0 1.443821,0.29295 2.093102,1.03058 1.956661,2.22288 1.409227,6.64424 -0.969422,7.82957 -0.767332,0.38237 -1.132604,0.41025 -1.880905,0.14354 z m 0.193368,-5.94171 c 0.418481,-0.22397 0.316762,-0.91952 -0.160127,-1.09498 -0.567462,-0.20878 -1.068684,0.78609 -0.54864,1.08899 0.298443,0.17382 0.393657,0.17463 0.708767,0.006 z m -43.608767,20.67136 c -0.146666,-0.14667 -0.265408,-0.43167 -0.263869,-0.63334 0.0034,-0.4419 0.613792,-2.56992 0.786806,-2.74294 0.148857,-0.14885 0.687142,1.56181 0.780359,2.47997 0.04964,0.48893 0.0093,0.69817 -0.173308,0.9 -0.305397,0.33746 -0.790419,0.33587 -1.129988,-0.004 z" style="opacity:1;fill:#f2c8b0;stroke-width:0.13333334"/><path d="m 45.466679,92.535273 c -3.819436,-0.29316 -6.579019,-0.62273 -7.733333,-0.92356 -0.256667,-0.0669 -1.336667,-0.3102 -2.4,-0.54069 -2.385425,-0.51708 -5.812783,-1.63205 -7.487278,-2.43573 -2.491272,-1.19569 -4.346947,-2.72841 -5.062172,-4.18118 -0.470532,-0.95574 -0.446005,-2.38479 0.05748,-3.34911 1.459526,-2.79542 6.218643,-5.22864 13.065558,-6.68011 0.988017,-0.20945 1.863149,-0.42207 1.944737,-0.4725 0.17632,-0.10897 0.213595,-6.5532 0.03853,-6.6614 -0.0604,-0.0373 -0.675396,0.025 -1.366667,0.13853 -1.571969,0.25814 -4.728216,0.17527 -5.918715,-0.15541 -1.89746,-0.52704 -3.618902,-1.58403 -4.955608,-3.04281 -0.448132,-0.48905 -1.320574,-1.76075 -2.038628,-2.97155 -1.510572,-2.54717 -2.677236,-3.81708 -4.262223,-4.6394 -1.37576,-0.71377 -2.040448,-1.3352 -1.988513,-1.8591 0.0624,-0.62953 0.651148,-0.90172 1.944234,-0.89888 2.514542,0.006 4.841747,1.53671 6.803562,4.47641 1.420801,2.12902 2.752304,3.2689 4.634747,3.96776 0.66176,0.24567 1.074079,0.29442 2.524288,0.29844 1.814796,0.005 2.603405,-0.13885 4.171571,-0.76107 0.757533,-0.30058 0.762908,-0.30666 1.044174,-1.18212 0.446406,-1.38947 1.245623,-2.77418 2.162043,-3.74591 0.963715,-1.02189 1.038574,-0.91735 -0.844455,-1.17939 -3.399774,-0.47312 -7.036173,-1.55339 -9.674817,-2.87412 -3.033484,-1.51836 -5.270609,-3.44905 -6.974366,-6.01903 -0.668935,-1.00903 -0.878056,-1.23303 -1.150817,-1.23271 -0.183334,2.7e-4 -1.323334,0.0614 -2.533334,0.13607 -6.240224,0.38485 -12.002981,1.22298 -17.046922,2.47929 -1.454598,0.36229 -1.950305,0.43935 -2.066666,0.32123 -0.260541,-0.26447 0.199738,-0.47195 2.045235,-0.92195 5.16115,-1.25846 10.748554,-2.07152 16.668353,-2.42553 1.503334,-0.0899 2.77827,-0.20236 2.833189,-0.2499 0.05492,-0.0475 -0.0293,-0.39215 -0.187163,-0.76579 -0.358382,-0.84827 -0.306772,-0.83774 -4.112692,-0.83878 -4.992401,-0.002 -10.065832,0.35783 -14.200001,1.00534 -3.451088,0.54052 -3.266667,0.52505 -3.266667,0.274 0,-0.31768 0.380587,-0.42588 2.822501,-0.80244 4.73976,-0.73088 8.694864,-1.01239 14.224101,-1.01239 h 3.917819 l -0.06923,-0.3 c -0.03808,-0.165 -0.219305,-0.87 -0.402728,-1.56666 -0.643315,-2.44341 -0.816141,-4.05699 -0.82116,-7.66667 -0.0042,-3.01591 0.02498,-3.46562 0.306351,-4.7225 0.597969,-2.67114 1.629053,-4.93041 3.197438,-7.00611 0.490368,-0.64898 0.967379,-1.28072 1.060026,-1.40386 0.136796,-0.18184 0.130996,-0.33005 -0.03086,-0.78882 -0.416613,-1.1808 -0.651137,-2.86791 -0.650388,-4.67871 7.94e-4,-2.08651 0.246539,-3.64867 0.886086,-5.6343202 0.53666,-1.66622 0.641235,-1.74684 2.122905,-1.63665 2.743366,0.20404 6.462239,1.71927 10.233146,4.1694402 l 1.129332,0.73379 0.670668,-0.15891 c 4.189969,-0.9928 6.641515,-1.26962 11.204001,-1.26512 3.987035,0.004 5.339259,0.12869 8.799999,0.81193 l 1.733333,0.34221 1.266667,-0.79373 c 3.729645,-2.3370802 7.027816,-3.6387102 9.733334,-3.8413002 1.448145,-0.10843 1.558632,-0.022 2.093386,1.63834 0.661028,2.0523502 0.885524,3.5358702 0.872799,5.7676502 -0.0079,1.37643 -0.08552,2.279 -0.269654,3.13334 l -0.258633,1.2 0.858137,1 c 2.179832,2.54018 3.451231,5.12896 4.190881,8.53333 0.273097,1.25698 0.303685,1.74734 0.299414,4.8 -0.005,3.5855 -0.227985,6.17777 -0.702161,8.16353 -0.135299,0.56661 -0.214586,1.06161 -0.176194,1.1 0.03839,0.0384 1.935829,0.0698 4.216524,0.0698 5.764044,0 9.655351,0.27258 14.453004,1.01239 2.441912,0.37656 2.822499,0.48476 2.822499,0.80244 0,0.25105 0.184424,0.26652 -3.266669,-0.274 -2.630354,-0.41198 -5.482465,-0.69431 -8.799999,-0.87111 -2.7925,-0.14882 -8.032747,-0.16313 -9.047289,-0.0247 -0.628418,0.0857 -0.654512,0.10739 -0.895011,0.74246 -0.136248,0.35978 -0.216427,0.70478 -0.178175,0.76667 0.03825,0.0619 0.471005,0.11277 0.961679,0.11307 2.056985,0.001 7.331663,0.48693 10.952556,1.00849 2.826052,0.40707 5.1622,0.85349 7.772648,1.48527 2.067368,0.50035 2.547164,0.70579 2.280514,0.97646 -0.11636,0.11812 -0.612068,0.0411 -2.066664,-0.32123 -5.043943,-1.25631 -10.806702,-2.09444 -17.046925,-2.47928 -3.447477,-0.21262 -3.09476,-0.28587 -3.674271,0.76308 -2.99534,5.42174 -8.054147,8.11758 -17.697256,9.43088 l -0.638192,0.0869 0.916656,0.98154 c 0.9923,1.06255 1.691153,2.26392 2.172102,3.73399 0.296288,0.90563 0.306856,1.11147 0.355986,6.93334 0.02785,3.3 0.09645,6.04709 0.152455,6.10465 0.056,0.0576 0.966731,0.28033 2.023839,0.49505 4.972698,1.01004 8.715159,2.39223 11.295594,4.17176 2.679466,1.84782 3.567077,4.11034 2.434439,6.20539 -2.510105,4.64295 -14.430637,8.08977 -27.674685,8.00213 -1.906667,-0.0126 -4.036667,-0.0667 -4.733334,-0.12017 z m -1.591235,-19.33017 c 0.248027,-0.13275 0.257902,-0.33184 0.257902,-5.20001 0,-2.78408 -0.04895,-5.06197 -0.108782,-5.06197 -0.216114,0 -0.707396,1.07717 -0.894937,1.96222 -0.139754,0.65953 -0.192277,1.90035 -0.193967,4.58222 -0.0013,2.02278 0.03769,3.71778 0.08658,3.76667 0.132241,0.13224 0.560375,0.10758 0.85321,-0.0491 z m 13.159257,-3.96198 c -0.05647,-4.23933 -0.123485,-4.72285 -0.799242,-5.76667 l -0.302113,-0.46666 -0.035,4.9328 c -0.01928,2.71304 -0.0061,5.00804 0.02914,5.1 0.03704,0.0965 0.295824,0.1672 0.612106,0.1672 h 0.547948 z m -6.530934,-1.7 c 0.0204,-2.93334 0.0033,-5.47198 -0.03791,-5.64144 -0.06201,-0.25476 -0.149234,-0.30093 -0.503754,-0.26667 l -0.428759,0.0414 -0.03486,5.46654 c -0.01917,3.0066 -0.0046,5.54543 0.03242,5.64185 0.0416,0.10841 0.233,0.15934 0.501523,0.13346 l 0.434251,-0.0419 z m 9.162913,-14.25909 c 8.230065,-1.09812 11.772794,-4.6175 12.149821,-12.06975 0.159436,-3.15132 -0.81445,-5.44548 -3.323316,-7.82865 -1.16654,-1.1081 -2.385434,-1.75304 -4.026505,-2.1305 -1.366155,-0.31423 -5.126641,-0.30804 -8.4,0.0138 -3.560507,0.35009 -7.800329,0.40883 -10.933334,0.15147 -5.675924,-0.46626 -6.961944,-0.52022 -8.553203,-0.3589 -2.873215,0.29129 -4.415383,1.01662 -6.180131,2.90671 -2.259712,2.4202 -3.012437,4.58823 -2.695069,7.76247 0.735348,7.35473 5.431333,10.83735 15.828403,11.73862 0.733333,0.0636 4.273333,0.0999 7.866665,0.0808 5.295262,-0.0282 6.861804,-0.0786 8.266669,-0.26607 z m -11.092054,-1.99906 c -1.081595,-0.50359 -1.924051,-1.88698 -1.295915,-2.12802 0.282975,-0.10859 0.407252,-0.0169 0.782067,0.57682 0.792633,1.25561 2.725508,1.25188 3.445785,-0.007 0.331427,-0.5791 0.576321,-0.72519 0.843681,-0.50331 0.282698,0.23462 0.220203,0.56142 -0.224844,1.17579 -0.48105,0.66407 -1.527673,1.20759 -2.325387,1.20759 -0.293334,0 -0.844758,-0.145 -1.225387,-0.32222 z m 0.57956,-3.55952 c -0.405233,-0.23556 -0.63978,-0.95488 -0.470084,-1.44167 0.142171,-0.40783 0.694369,-0.80733 1.115911,-0.80733 0.421541,0 0.973739,0.3995 1.11591,0.80733 0.174364,0.50018 -0.07277,1.22218 -0.495857,1.44861 -0.340339,0.18214 -0.946311,0.17882 -1.26588,-0.007 z m -12.154174,-2.76594 c -0.62838,-0.39159 -1.087201,-0.95 -1.492461,-1.81639 -0.342012,-0.73118 -0.374196,-0.93192 -0.374094,-2.33333 1.01e-4,-1.37184 0.03648,-1.61058 0.345355,-2.26667 0.709267,-1.50656 1.656671,-2.2119 2.820755,-2.10005 2.233942,0.21466 3.56772,3.68356 2.506687,6.51943 -0.328162,0.87709 -1.02399,1.73042 -1.655323,2.03 -0.621879,0.2951 -1.649741,0.27934 -2.150919,-0.033 z m 0.418831,-5.55643 c 0.773272,-0.77328 -0.322047,-1.86553 -1.21557,-1.21217 -0.359246,0.26269 -0.327857,0.99553 0.05595,1.30632 0.415266,0.33626 0.756942,0.30852 1.159615,-0.0941 z m 23.439137,5.46919 c -1.217541,-0.80144 -1.856636,-2.38653 -1.766695,-4.38175 0.204393,-4.53426 4.385605,-5.61635 5.798585,-1.50067 0.317889,0.92593 0.311324,2.84562 -0.01281,3.74379 -0.585113,1.62138 -1.401872,2.37286 -2.659729,2.44715 -0.708462,0.0419 -0.889527,7.6e-4 -1.359364,-0.30852 z m 0.799177,-5.47201 c 0.335441,-0.33544 0.265164,-0.94787 -0.139173,-1.21281 -0.312314,-0.20463 -0.385357,-0.20799 -0.700003,-0.0322 -0.223313,0.12477 -0.367086,0.33262 -0.394628,0.57053 -0.08267,0.71405 0.742915,1.16536 1.233804,0.67448 z m -43.790479,20.60953 c -0.146666,-0.14667 -0.265408,-0.43167 -0.263869,-0.63334 0.0034,-0.4419 0.613792,-2.56992 0.786806,-2.74294 0.148857,-0.14885 0.687142,1.56181 0.780359,2.47997 0.04964,0.48893 0.0093,0.69817 -0.173308,0.9 -0.305397,0.33746 -0.790419,0.33587 -1.129988,-0.004 z" style="opacity:1;fill:#9ad8ee;stroke-width:0.13333334"/><path d="m 50.892778,92.458113 c -0.173314,-0.17332 -0.09627,-3.73955 0.103764,-4.80326 0.122472,-0.65126 0.405166,-1.45962 0.750195,-2.14519 l 0.553667,-1.10014 -0.562141,-0.60985 c -0.30918,-0.33541 -0.721766,-0.95035 -0.916862,-1.36653 l -0.354722,-0.75669 0.04842,-9.74743 c 0.02663,-5.36108 0.0065,-9.8795 -0.04473,-10.04093 -0.07441,-0.23444 -0.178055,-0.28526 -0.515091,-0.25257 l -0.421937,0.0409 v 9.86667 c 0,8.89655 -0.02183,9.92089 -0.222071,10.41817 -0.368084,0.91413 -0.636825,1.37246 -1.11526,1.90203 l -0.455577,0.50427 0.533828,1.05443 c 0.722314,1.42673 0.920627,2.49072 0.923432,4.95443 l 0.0023,2.03334 -1.566666,-0.0156 c -0.861667,-0.009 -1.956667,-0.0536 -2.433334,-0.1 l -0.866666,-0.0844 -0.0837,-2.4 c -0.05092,-1.45995 -0.157366,-2.63502 -0.271764,-3 -0.174187,-0.55573 -0.224574,-0.60306 -0.682963,-0.64139 l -0.494901,-0.0414 v 2.94138 2.94139 l -0.566667,-0.002 c -0.54174,-0.002 -2.962932,-0.30968 -3.733334,-0.47391 l -0.366666,-0.0782 v -2.42806 c 0,-2.56312 -0.130759,-3.43362 -0.676439,-4.50324 -0.435756,-0.85415 -1.349795,-1.65625 -2.216673,-1.94521 -0.47549,-0.1585 -0.858682,-0.3882 -1.029675,-0.61722 -0.272212,-0.3646 -0.272216,-0.36501 -0.0081,-0.84411 0.189821,-0.34434 0.519976,-0.61473 1.172381,-0.96015 2.008735,-1.06353 2.359558,-1.73754 2.50578,-4.81415 0.14026,-2.95115 0.146236,-7.96768 0.0096,-8.05213 -0.0604,-0.0373 -0.675396,0.025 -1.366666,0.13852 -1.57197,0.25815 -4.728217,0.17528 -5.918715,-0.1554 -1.89746,-0.52704 -3.618903,-1.58403 -4.955609,-3.04281 -0.448132,-0.48905 -1.320573,-1.76075 -2.038628,-2.97155 -1.510572,-2.54718 -2.677236,-3.81708 -4.262222,-4.6394 -1.375761,-0.71377 -2.040449,-1.3352 -1.988514,-1.8591 0.0624,-0.62953 0.651148,-0.90173 1.944235,-0.89889 2.514541,0.006 4.841747,1.53672 6.803562,4.47642 1.420801,2.12901 2.752304,3.2689 4.634746,3.96776 0.661761,0.24567 1.074079,0.29442 2.524289,0.29844 1.814796,0.005 2.603405,-0.13885 4.17157,-0.76107 0.757534,-0.30058 0.762908,-0.30666 1.044175,-1.18212 0.446405,-1.38947 1.245623,-2.77418 2.162043,-3.74592 0.963714,-1.02189 1.038573,-0.91734 -0.844455,-1.17938 -3.399775,-0.47312 -7.036173,-1.5534 -9.674818,-2.87412 -3.033484,-1.51837 -5.270608,-3.44905 -6.974365,-6.01903 -0.668935,-1.00903 -0.878056,-1.23303 -1.150818,-1.23271 -0.183333,2.7e-4 -1.323333,0.0614 -2.533333,0.13607 -6.240224,0.38485 -12.002982,1.22298 -17.046922,2.47928 -1.454599,0.3623 -1.950306,0.43935 -2.066667,0.32124 -0.26054,-0.26447 0.199739,-0.47196 2.045235,-0.92195 5.161138,-1.25846 10.748543,-2.07152 16.668342,-2.42553 1.503333,-0.0899 2.778269,-0.20236 2.833189,-0.2499 0.05492,-0.0475 -0.0293,-0.39215 -0.187164,-0.7658 -0.358381,-0.84826 -0.306772,-0.83774 -4.112692,-0.83877 -4.9924,-0.002 -10.065832,0.35783 -14.200001,1.00533 -3.451087,0.54053 -3.266666,0.52506 -3.266666,0.274 0,-0.31768 0.380587,-0.42588 2.822501,-0.80243 4.73976,-0.73089 8.694863,-1.01239 14.224101,-1.01239 h 3.917818 l -0.06923,-0.3 c -0.03808,-0.165 -0.219305,-0.87 -0.402727,-1.56667 -0.643315,-2.4434 -0.816142,-4.05698 -0.821161,-7.66666 -0.0042,-3.01592 0.02498,-3.46562 0.306351,-4.72251 0.597969,-2.67114 1.629054,-4.93041 3.197439,-7.0061 0.490368,-0.64898 0.967379,-1.28072 1.060025,-1.40387 0.136796,-0.18183 0.130996,-0.33005 -0.03086,-0.78881 -0.416614,-1.18081 -0.651138,-2.86791 -0.650388,-4.67872 7.93e-4,-2.0865 0.246538,-3.64866 0.886085,-5.6343202 0.53666,-1.66621 0.641236,-1.74684 2.122906,-1.63664 2.743365,0.20403 6.462238,1.71926 10.233145,4.1694302 l 1.129333,0.73379 0.670667,-0.15891 c 4.18997,-0.9928 6.641515,-1.26962 11.204002,-1.26512 3.987037,0.004 5.339261,0.1287 8.8,0.81194 l 1.733333,0.3422 1.266667,-0.79372 c 3.729646,-2.3370802 7.027817,-3.6387202 9.733335,-3.8413002 1.448145,-0.10843 1.558631,-0.022 2.093385,1.63833 0.661029,2.0523502 0.885525,3.5358702 0.872799,5.7676602 -0.0079,1.37643 -0.08552,2.279 -0.269654,3.13333 l -0.258633,1.2 0.858138,1 c 2.179831,2.54019 3.45123,5.12896 4.19088,8.53334 0.273097,1.25697 0.303685,1.74734 0.299414,4.8 -0.005,3.58549 -0.227985,6.17777 -0.702161,8.16352 -0.135299,0.56661 -0.214586,1.06161 -0.176194,1.1 0.03839,0.0384 1.935829,0.0698 4.216525,0.0698 5.764044,0 9.655351,0.27257 14.453004,1.01239 2.441911,0.37655 2.822498,0.48475 2.822498,0.80243 0,0.25106 0.18442,0.26653 -3.266668,-0.274 -2.630355,-0.41197 -5.482466,-0.6943 -8.799999,-0.8711 -2.7925,-0.14883 -8.032747,-0.16314 -9.04729,-0.0247 -0.628418,0.0857 -0.654512,0.10739 -0.895011,0.74245 -0.136248,0.35978 -0.216427,0.70478 -0.178174,0.76667 0.03825,0.0619 0.471005,0.11277 0.961678,0.11307 2.056985,10e-4 7.331664,0.48694 10.952557,1.0085 2.826051,0.40707 5.1622,0.85348 7.772648,1.48527 2.067367,0.50035 2.547163,0.70579 2.280514,0.97646 -0.116361,0.11812 -0.612069,0.0411 -2.066665,-0.32123 -5.043942,-1.25631 -10.806701,-2.09444 -17.046924,-2.47929 -3.447477,-0.21261 -3.094761,-0.28587 -3.674272,0.76309 -2.99534,5.42173 -8.054147,8.11757 -17.697256,9.43088 l -0.638192,0.0869 0.916656,0.98155 c 0.997913,1.06855 1.699582,2.27844 2.165526,3.73399 0.288918,0.90254 0.302037,1.17744 0.397682,8.33333 0.0683,5.1098 0.149144,7.585 0.26123,7.99777 0.394329,1.45216 1.200476,2.48906 2.473991,3.18215 0.357154,0.19438 0.761345,0.5463 0.898201,0.78205 0.371086,0.63925 0.118851,1.05965 -0.961296,1.60219 -1.110678,0.55787 -1.658823,1.10156 -2.183414,2.16564 l -0.425522,0.86312 -0.04063,2.87021 c -0.02234,1.57861 -0.08235,2.9122 -0.133334,2.96352 -0.08132,0.0819 -3.894482,0.64002 -4.372381,0.64002 -0.147367,0 -0.188794,-0.57692 -0.217817,-3.03333 l -0.03583,-3.03334 -0.442927,0.0207 c -0.243609,0.0114 -0.472403,0.0502 -0.50843,0.0862 -0.273131,0.27313 -0.485616,1.74847 -0.545,3.78408 l -0.06683,2.29098 -0.818407,0.0708 c -1.698796,0.147 -3.90303,0.21815 -3.99231,0.12887 z m -7.194103,-9.82128 c 0.204072,-0.37508 0.242835,-1.02734 0.318563,-5.36038 0.134648,-7.70428 0.131216,-14.33333 -0.0074,-14.33333 -0.226755,0 -0.796659,1.38858 -0.957651,2.33333 -0.114396,0.67131 -0.13698,2.3745 -0.08044,6.06667 0.0444,2.89995 0.02473,5.56192 -0.04521,6.11841 -0.215355,1.71342 -1.003873,2.99008 -2.400204,3.8861 -0.362796,0.23281 -0.65963,0.44133 -0.65963,0.46339 0,0.022 0.255001,0.19111 0.566667,0.3757 0.311667,0.18458 0.860956,0.63677 1.220642,1.00487 l 0.653976,0.66927 0.579184,-0.39849 c 0.318552,-0.21917 0.68374,-0.59066 0.811528,-0.82554 z m 14.528758,0.73962 c 0.222965,-0.275 0.740122,-0.71 1.149244,-0.96666 0.409119,-0.25667 0.74674,-0.50542 0.750263,-0.55277 0.0034,-0.0474 -0.290427,-0.27658 -0.653223,-0.50939 -1.395999,-0.8958 -2.184352,-2.17192 -2.400745,-3.8861 -0.07055,-0.55887 -0.09009,-3.14839 -0.04516,-5.98508 0.08406,-5.30735 0.01935,-6.24268 -0.518151,-7.49219 -0.149711,-0.34801 -0.362596,-0.70776 -0.47308,-0.79946 -0.178749,-0.14835 -0.191554,0.83149 -0.116235,8.8958 0.04655,4.98439 0.135061,9.27252 0.19669,9.52919 0.209193,0.87127 0.515222,1.41887 1.030129,1.8433 0.282486,0.23285 0.549899,0.42336 0.594252,0.42336 0.04435,0 0.263062,-0.225 0.486021,-0.5 z M 35.195165,63.948963 c 0.08863,-0.10679 0.122431,-0.25679 0.07512,-0.33334 -0.137796,-0.22295 -0.868168,-0.16647 -0.960556,0.0743 -0.154267,0.40201 0.586837,0.61883 0.885433,0.25905 z m -2.995153,-0.20263 c 0,-0.26836 -0.685451,-0.50443 -0.885057,-0.30482 -0.08269,0.0827 -0.112798,0.24822 -0.0669,0.36783 0.10881,0.28355 0.951954,0.22775 0.951954,-0.063 z m 5.376443,-0.71426 c 0.02552,-0.13157 -0.0425,-0.22229 -0.166667,-0.22229 -0.123684,0 -0.209776,0.11401 -0.209776,0.27778 0,0.32494 0.311569,0.27901 0.376443,-0.0555 z m -8.109776,-0.0192 c 0,-0.26951 -0.579213,-0.62826 -0.84788,-0.52517 -0.274247,0.10524 -0.276774,0.24506 -0.0093,0.51257 0.268633,0.26864 0.857142,0.27729 0.857142,0.0126 z m -2.266667,-1.86974 c 0,-0.22721 -0.462997,-0.73333 -0.670851,-0.73333 -0.259392,0 -0.294789,0.40996 -0.05799,0.67163 0.279625,0.30898 0.728839,0.34701 0.728839,0.0617 z m -1.866667,-2.20877 c 0,-0.30487 -0.288706,-0.6579 -0.538024,-0.6579 -0.292703,0 -0.329034,0.1589 -0.123952,0.5421 0.14472,0.27041 0.661976,0.3609 0.661976,0.1158 z m -1.904761,-2.35314 c -0.161186,-0.16118 -0.267938,-0.18539 -0.369524,-0.0838 -0.101588,0.10159 -0.07738,0.20834 0.08381,0.36953 0.161185,0.16118 0.267936,0.1854 0.369524,0.0838 0.101587,-0.10159 0.07737,-0.20834 -0.08381,-0.36953 z m -1.561906,-1.09049 c 0,-0.16358 -0.375637,-0.29489 -0.458772,-0.16037 -0.03702,0.0599 -0.02894,0.14728 0.01795,0.19417 0.127069,0.12707 0.44082,0.10301 0.44082,-0.0338 z m 37.800002,-2.20669 c 8.230065,-1.09812 11.772794,-4.6175 12.149821,-12.06975 0.159436,-3.15132 -0.81445,-5.44548 -3.323316,-7.82865 -1.16654,-1.1081 -2.385434,-1.75304 -4.026505,-2.1305 -1.366155,-0.31423 -5.126641,-0.30804 -8.4,0.0138 -3.560507,0.3501 -7.800329,0.40883 -10.933334,0.15147 -5.675924,-0.46627 -6.961944,-0.52023 -8.553203,-0.35891 -2.873215,0.29129 -4.415383,1.01662 -6.180131,2.90671 -2.259712,2.4202 -3.012437,4.58823 -2.695069,7.76247 0.735348,7.35473 5.431333,10.83735 15.828403,11.73862 0.733333,0.0636 4.273333,0.0999 7.866665,0.0808 5.295262,-0.0282 6.861804,-0.0786 8.266669,-0.26607 z m -11.092054,-1.99906 c -1.081595,-0.50359 -1.924051,-1.88698 -1.295915,-2.12802 0.282975,-0.10859 0.407252,-0.0169 0.782067,0.57682 0.792633,1.25561 2.725508,1.25188 3.445785,-0.007 0.331427,-0.5791 0.576321,-0.72519 0.843681,-0.5033 0.282698,0.23461 0.220203,0.56141 -0.224844,1.17578 -0.48105,0.66407 -1.527673,1.20759 -2.325387,1.20759 -0.293334,0 -0.844758,-0.145 -1.225387,-0.32222 z m 0.57956,-3.55952 c -0.405233,-0.23556 -0.63978,-0.95488 -0.470084,-1.44166 0.142171,-0.40784 0.694369,-0.80734 1.115911,-0.80734 0.421541,0 0.973739,0.3995 1.11591,0.80734 0.174364,0.50017 -0.07277,1.22217 -0.495857,1.4486 -0.340339,0.18214 -0.946311,0.17882 -1.26588,-0.007 z m -12.154174,-2.76593 c -0.62838,-0.3916 -1.087201,-0.95001 -1.492461,-1.8164 -0.342012,-0.73118 -0.374196,-0.93191 -0.374094,-2.33333 1.01e-4,-1.37184 0.03648,-1.61058 0.345355,-2.26667 0.709267,-1.50656 1.656671,-2.2119 2.820755,-2.10004 2.233942,0.21465 3.56772,3.68355 2.506687,6.51942 -0.328162,0.87709 -1.02399,1.73042 -1.655323,2.03 -0.621879,0.2951 -1.649741,0.27934 -2.150919,-0.033 z m 0.418831,-5.55644 c 0.773272,-0.77328 -0.322047,-1.86553 -1.21557,-1.21217 -0.359246,0.26269 -0.327857,0.99553 0.05595,1.30632 0.415266,0.33626 0.756942,0.30852 1.159615,-0.0942 z m 23.439137,5.46918 c -1.217541,-0.80144 -1.856636,-2.38653 -1.766695,-4.38175 0.204393,-4.53426 4.385605,-5.61635 5.798585,-1.50067 0.317889,0.92593 0.311324,2.84562 -0.01281,3.74379 -0.585113,1.62138 -1.401872,2.37286 -2.659729,2.44715 -0.708462,0.0419 -0.889527,7.6e-4 -1.359364,-0.30852 z m 0.799177,-5.47201 c 0.335441,-0.33544 0.265164,-0.94787 -0.139173,-1.21281 -0.312314,-0.20463 -0.385357,-0.20799 -0.700003,-0.0322 -0.223313,0.12477 -0.367086,0.33262 -0.394628,0.57053 -0.08267,0.71405 0.742915,1.16536 1.233804,0.67448 z" style="opacity:1;fill:#79b5de;stroke-width:0.13333334"/><path d="m 42.447206,85.693523 c -0.28846,-0.24812 -0.364593,-0.42512 -0.353356,-0.82151 0.01253,-0.44215 0.122605,-0.60662 0.881497,-1.31707 0.629693,-0.58949 0.906795,-0.95788 1.011844,-1.34515 0.172315,-0.63526 0.208456,-19.26667 0.03737,-19.26667 -0.216114,0 -0.707396,1.07717 -0.894937,1.96222 -0.148707,0.70178 -0.192343,2.14433 -0.194739,6.43778 -0.0017,3.04333 -0.06197,5.89333 -0.133935,6.33333 -0.452161,2.76451 -2.635553,4.41067 -6.216005,4.68653 -1.397017,0.10763 -1.992828,-0.006 -2.273364,-0.43436 -0.200464,-0.30595 -0.201532,-0.37356 -0.01219,-0.77062 0.155277,-0.32563 0.4278,-0.54046 1.081944,-0.85293 1.033521,-0.49368 1.868349,-1.28304 2.265447,-2.14206 0.274584,-0.59399 0.288297,-0.83094 0.328229,-5.67155 0.02292,-2.77841 -0.0077,-5.10103 -0.06803,-5.16136 -0.06034,-0.0603 -0.679086,-0.0162 -1.375007,0.0981 -1.580498,0.25951 -4.733289,0.17756 -5.927166,-0.15405 -1.89746,-0.52704 -3.618903,-1.58403 -4.955608,-3.04281 -0.448132,-0.48905 -1.320573,-1.76075 -2.038628,-2.97155 -1.510572,-2.54717 -2.677236,-3.81708 -4.262223,-4.6394 -1.37576,-0.71377 -2.040448,-1.3352 -1.988514,-1.8591 0.06241,-0.62953 0.651149,-0.90172 1.944235,-0.89888 2.514542,0.006 4.841747,1.53671 6.803562,4.47641 1.420801,2.12902 2.752304,3.2689 4.634746,3.96776 0.661761,0.24567 1.074079,0.29442 2.524288,0.29844 1.814796,0.005 2.603406,-0.13885 4.171571,-0.76107 0.757534,-0.30058 0.762908,-0.30666 1.044175,-1.18212 0.446405,-1.38947 1.245623,-2.77418 2.162043,-3.74591 0.963715,-1.02189 1.038573,-0.91735 -0.844455,-1.17939 -3.399775,-0.47312 -7.036174,-1.55339 -9.674818,-2.87412 -3.033484,-1.51836 -5.270608,-3.44905 -6.974365,-6.01903 -0.668934,-1.00903 -0.878056,-1.23303 -1.150817,-1.23271 -0.183334,2.7e-4 -1.323334,0.0614 -2.533334,0.13607 -6.240224,0.38485 -12.002981,1.22298 -17.046922,2.47929 -1.454599,0.36229 -1.950305,0.43935 -2.066667,0.32123 -0.26054,-0.26447 0.199739,-0.47195 2.045236,-0.92195 5.161151,-1.25846 10.748556,-2.07152 16.668355,-2.42553 1.503333,-0.0899 2.778269,-0.20236 2.833189,-0.2499 0.05492,-0.0475 -0.0293,-0.39215 -0.187164,-0.76579 -0.358381,-0.84827 -0.306772,-0.83774 -4.112692,-0.83878 -4.9924,-0.002 -10.065832,0.35783 -14.200001,1.00534 -3.451087,0.54052 -3.266666,0.52505 -3.266666,0.274 0,-0.31768 0.380587,-0.42588 2.8225,-0.80244 4.73976,-0.73088 8.694864,-1.01239 14.224102,-1.01239 h 3.917818 l -0.06923,-0.3 c -0.03808,-0.165 -0.219305,-0.87 -0.402728,-1.56666 -0.643315,-2.44341 -0.816141,-4.05699 -0.82116,-7.66667 -0.0042,-3.01591 0.02498,-3.46562 0.306351,-4.7225 0.597969,-2.67114 1.629053,-4.93041 3.197439,-7.00611 0.490368,-0.64898 0.967378,-1.28072 1.060025,-1.40386 0.136796,-0.18184 0.130996,-0.33005 -0.03086,-0.78882 -0.416614,-1.1808 -0.651138,-2.86791 -0.650389,-4.67871 7.94e-4,-2.08651 0.246539,-3.64867 0.886086,-5.6343202 0.53666,-1.66622 0.641236,-1.74684 2.122905,-1.63665 2.743365,0.20404 6.462239,1.71927 10.233146,4.1694402 l 1.129332,0.73379 0.670668,-0.15891 c 4.189969,-0.9928 6.641515,-1.26962 11.204002,-1.26512 3.987034,0.004 5.339258,0.12869 8.799998,0.81193 l 1.733333,0.34221 1.266667,-0.79373 c 3.729645,-2.3370802 7.027816,-3.6387102 9.733334,-3.8413002 1.448145,-0.10843 1.558632,-0.022 2.093386,1.63834 0.661028,2.0523502 0.885524,3.5358702 0.872799,5.7676502 -0.0079,1.37643 -0.08552,2.279 -0.269654,3.13334 l -0.258633,1.2 0.858137,1 c 2.179832,2.54018 3.451231,5.12896 4.190881,8.53333 0.273097,1.25698 0.303685,1.74734 0.299414,4.8 -0.005,3.5855 -0.227985,6.17777 -0.702161,8.16353 -0.135299,0.56661 -0.214586,1.06161 -0.176194,1.1 0.03839,0.0384 1.935829,0.0698 4.216524,0.0698 5.764044,0 9.655351,0.27258 14.453004,1.01239 2.441912,0.37656 2.822499,0.48476 2.822499,0.80244 0,0.25105 0.184425,0.26652 -3.266669,-0.274 -2.630354,-0.41198 -5.482465,-0.69431 -8.799999,-0.87111 -2.7925,-0.14882 -8.032747,-0.16313 -9.047289,-0.0247 -0.628418,0.0857 -0.654512,0.10739 -0.895011,0.74246 -0.136248,0.35978 -0.216427,0.70478 -0.178175,0.76667 0.03825,0.0619 0.471005,0.11277 0.961679,0.11307 2.056985,10e-4 7.331663,0.48693 10.952556,1.00849 2.826052,0.40707 5.1622,0.85349 7.772648,1.48527 2.067368,0.50035 2.547164,0.70579 2.280514,0.97646 -0.11636,0.11812 -0.612068,0.0411 -2.066664,-0.32123 -5.043943,-1.25631 -10.806702,-2.09444 -17.046925,-2.47928 -3.447477,-0.21262 -3.09476,-0.28587 -3.674271,0.76308 -2.99534,5.42174 -8.054147,8.11758 -17.697256,9.43088 l -0.638192,0.0869 0.916656,0.98154 c 0.998351,1.06903 1.700232,2.27956 2.165008,3.73399 0.32609,1.02043 0.363148,2.05694 0.431686,12.07401 l 0.02971,4.34068 0.504828,1.02102 c 0.532921,1.07784 1.129296,1.68068 2.192424,2.21619 1.447129,0.72893 1.046427,2.01605 -0.626921,2.01376 -2.487024,-0.003 -4.887916,-0.95549 -5.954597,-2.36135 -0.234674,-0.3093 -0.564162,-0.9093 -0.732196,-1.33333 -0.298677,-0.75374 -0.307332,-0.9126 -0.386978,-7.10431 -0.08759,-6.80855 -0.109497,-7.02383 -0.827781,-8.13333 l -0.302113,-0.46667 -0.03519,9.06667 c -0.03405,8.76973 -0.02638,9.09583 0.234285,9.95716 0.225948,0.74664 0.375617,0.98355 0.926585,1.46666 0.750739,0.65827 0.994723,1.15083 0.810308,1.63587 -0.27476,0.72268 -1.123411,0.97601 -2.28935,0.6834 -2.099842,-0.52699 -3.801642,-1.7441 -4.542557,-3.24879 l -0.437398,-0.88832 -0.06998,-10.00299 c -0.03849,-5.50164 -0.08349,-10.0218 -0.1,-10.04478 -0.01651,-0.023 -0.225023,-0.023 -0.463357,0 l -0.433333,0.0418 -0.07001,9.86666 c -0.04908,6.91648 -0.115736,9.99509 -0.222928,10.29617 -0.709971,1.99416 -2.305844,3.35683 -4.644805,3.96605 -1.132219,0.2949 -1.710552,0.2648 -2.148394,-0.11181 z m -7.423083,-21.49869 c 0.597478,-0.16024 0.465256,-0.85171 -0.162866,-0.85171 -0.700964,0 -1.008122,0.49021 -0.494578,0.78932 0.277193,0.16145 0.285229,0.16221 0.657444,0.0624 z m -2.690778,-0.38325 c 0,-0.36545 -0.634258,-0.6642 -0.997452,-0.46983 -0.558847,0.29909 -0.191753,0.83506 0.530215,0.77413 0.36406,-0.0307 0.467237,-0.0979 0.467237,-0.3043 z m 5.315962,-0.63513 c 0.122199,-0.45598 0.105753,-0.5 -0.186812,-0.5 -0.298851,0 -0.466676,0.28969 -0.347599,0.6 0.115648,0.30138 0.443276,0.24007 0.534411,-0.1 z m -8.09686,-0.035 c 0.159856,-0.41657 -0.61518,-0.94031 -1.052435,-0.71118 -0.302801,0.15867 -0.294566,0.31832 0.03333,0.64622 0.314423,0.31442 0.908836,0.35231 1.019101,0.065 z m -2.271316,-1.85454 c 0.09744,-0.25392 -0.155444,-0.70279 -0.49973,-0.88705 -0.21837,-0.11687 -0.322169,-0.1064 -0.476628,0.048 -0.32445,0.32446 0.128109,1.02191 0.66609,1.02654 0.130636,10e-4 0.270255,-0.0833 0.310268,-0.18754 z m -1.862274,-2.27812 c 0.106961,-0.27874 -0.305025,-0.86564 -0.607653,-0.86564 -0.349415,0 -0.455755,0.3788 -0.211143,0.75212 0.231796,0.35377 0.70161,0.41891 0.818796,0.11352 z m -1.685512,-2.1259 c 0,-0.26061 -0.502289,-0.64685 -0.728367,-0.56009 -0.276397,0.10606 -0.25789,0.30076 0.05868,0.61733 0.270824,0.27082 0.669691,0.23673 0.669691,-0.0572 z m -1.8,-1.40823 c 0,-0.11707 -0.150055,-0.21544 -0.366667,-0.24036 -0.392228,-0.0451 -0.468306,0.0872 -0.202774,0.35274 0.212632,0.21264 0.569441,0.14222 0.569441,-0.11238 z m 37.733335,-2.19059 c 8.230065,-1.09812 11.772794,-4.6175 12.149821,-12.06975 0.159436,-3.15133 -0.81445,-5.44548 -3.323316,-7.82866 -1.16654,-1.1081 -2.385434,-1.75304 -4.026505,-2.1305 -1.366155,-0.31423 -5.126641,-0.30804 -8.4,0.0138 -3.560507,0.3501 -7.800329,0.40884 -10.933334,0.15147 -5.675924,-0.46625 -6.961944,-0.52021 -8.553203,-0.35889 -2.873215,0.29129 -4.415383,1.01662 -6.180131,2.90671 -2.259712,2.4202 -3.012437,4.58823 -2.695069,7.76247 0.735348,7.35473 5.431333,10.83735 15.828403,11.73862 0.733333,0.0636 4.273333,0.0999 7.866665,0.0808 5.295262,-0.0282 6.861804,-0.0786 8.266669,-0.26607 z m -11.092054,-1.99907 c -1.081595,-0.50358 -1.924051,-1.88698 -1.295915,-2.12802 0.282975,-0.10858 0.407252,-0.0169 0.782067,0.57682 0.792633,1.25562 2.725508,1.25188 3.445785,-0.007 0.331427,-0.5791 0.576321,-0.72519 0.843681,-0.5033 0.282698,0.23462 0.220203,0.56142 -0.224844,1.17579 -0.48105,0.66406 -1.527673,1.20758 -2.325387,1.20758 -0.293334,0 -0.844758,-0.145 -1.225387,-0.32221 z m 0.57956,-3.55952 c -0.405233,-0.23556 -0.63978,-0.95487 -0.470084,-1.44166 0.142171,-0.40783 0.694369,-0.80733 1.115911,-0.80733 0.421541,0 0.973739,0.3995 1.11591,0.80733 0.174364,0.50018 -0.07277,1.22217 -0.495857,1.4486 -0.340339,0.18215 -0.946311,0.17882 -1.26588,-0.007 z m -12.154174,-2.76597 c -0.62838,-0.3916 -1.087201,-0.95 -1.492461,-1.8164 -0.342012,-0.73117 -0.374196,-0.93191 -0.374094,-2.33333 1.01e-4,-1.37183 0.03648,-1.61057 0.345355,-2.26667 0.709267,-1.50655 1.656671,-2.21189 2.820755,-2.10004 2.233942,0.21465 3.56772,3.68356 2.506687,6.51942 -0.328162,0.87709 -1.02399,1.73042 -1.655323,2.03001 -0.621879,0.2951 -1.649741,0.27934 -2.150919,-0.033 z m 0.418831,-5.55644 c 0.773272,-0.77327 -0.322047,-1.86552 -1.21557,-1.21216 -0.359246,0.26268 -0.327857,0.99552 0.05595,1.30631 0.415266,0.33627 0.756942,0.30852 1.159615,-0.0941 z m 23.439137,5.4692 c -1.217541,-0.80144 -1.856636,-2.38653 -1.766695,-4.38175 0.204393,-4.53426 4.385605,-5.61635 5.798585,-1.50067 0.317889,0.92593 0.311324,2.84562 -0.01281,3.74379 -0.585113,1.62138 -1.401872,2.37286 -2.659729,2.44715 -0.708462,0.0419 -0.889527,7.6e-4 -1.359364,-0.30852 z m 0.799177,-5.47201 c 0.335441,-0.33544 0.265164,-0.94787 -0.139173,-1.21281 -0.312314,-0.20463 -0.385357,-0.20799 -0.700003,-0.0322 -0.223313,0.12477 -0.367086,0.33262 -0.394628,0.57053 -0.08267,0.71405 0.742915,1.16536 1.233804,0.67448 z" style="opacity:1;fill:#a19f9e;stroke-width:0.13333334"/><path d="m 42.354011,85.632623 c -0.247103,-0.27304 -0.291168,-0.9753 -0.08533,-1.3599 0.07443,-0.13908 0.3985,-0.43394 0.720149,-0.65524 0.370451,-0.25487 0.699613,-0.63549 0.898,-1.03836 l 0.313185,-0.636 0.03755,-9.56667 c 0.03359,-8.55827 0.01581,-9.56667 -0.168625,-9.56667 -0.256641,0 -0.669608,0.6573 -0.963367,1.53334 -0.192657,0.57453 -0.233826,1.57923 -0.297885,7.26991 l -0.07433,6.60324 -0.437409,0.88807 c -0.995609,2.02136 -3.240433,3.19246 -6.181301,3.22469 -1.089191,0.0119 -1.32831,-0.0247 -1.566667,-0.23991 -0.586881,-0.52994 -0.299512,-1.13168 0.807264,-1.69038 1.158941,-0.58504 2.043088,-1.45746 2.374372,-2.3429 0.248221,-0.66343 0.278833,-1.14897 0.358462,-5.68571 0.07462,-4.25119 0.05935,-4.9833 -0.106801,-5.12091 -0.151834,-0.12575 -0.467118,-0.11585 -1.454227,0.0456 -1.594157,0.26081 -4.743384,0.18019 -5.927026,-0.15173 -2.819263,-0.7906 -4.84411,-2.45701 -6.561542,-5.40002 -1.890531,-3.23964 -2.747315,-4.21885 -4.530892,-5.1783 -1.490203,-0.80164 -2.0409,-1.27689 -2.0409,-1.76132 0,-0.57003 0.58302,-0.8276 1.858117,-0.82089 2.456064,0.0129 4.699859,1.476 6.58101,4.29113 1.28938,1.92955 2.444461,3.0439 3.851505,3.71569 0.610152,0.29131 1.427322,0.59507 1.815931,0.67501 1.538721,0.31653 3.579612,0.12202 5.419639,-0.51651 1.201183,-0.41684 1.344851,-0.55271 1.654473,-1.56469 0.38488,-1.25796 1.354155,-2.89625 2.250179,-3.8033 0.414644,-0.41975 0.719903,-0.79718 0.678353,-0.83873 -0.04155,-0.0416 -0.818118,-0.18958 -1.725709,-0.32897 -2.502551,-0.38434 -4.122915,-0.76365 -6.250164,-1.4631 -4.907683,-1.61367 -8.231579,-4.03709 -10.588618,-7.72006 l -0.627636,-0.98071 -1.491874,0.0868 c -7.692361,0.44785 -14.431014,1.41179 -19.270453,2.75659 -0.932193,0.25904 -1.284518,0.25656 -1.012531,-0.007 0.15821,-0.15338 3.461561,-0.95575 5.724444,-1.39045 3.999415,-0.76829 8.539562,-1.32292 12.914771,-1.57768 1.753035,-0.10208 2.80219,-0.21604 2.837563,-0.30822 0.03087,-0.0804 -0.09277,-0.48293 -0.274746,-0.89441 l -0.330871,-0.74816 -0.906691,-0.0978 c -1.111471,-0.11994 -8.421276,0.0223 -10.706693,0.20831 -2.588851,0.21073 -5.072271,0.50706 -7.377905,0.88036 -1.922974,0.31134 -2.415088,0.33507 -2.185398,0.10538 0.136619,-0.13662 3.649005,-0.69185 6.173752,-0.97593 3.568623,-0.40154 6.350893,-0.54162 10.771352,-0.54231 l 3.9818,-7.6e-4 -0.06714,-0.36666 c -0.03693,-0.20167 -0.2215,-0.95055 -0.410163,-1.66417 -0.644238,-2.43687 -0.812572,-4.0116 -0.816248,-7.63583 -0.0036,-3.58242 0.101822,-4.44139 0.810293,-6.6 0.509114,-1.5512 1.697515,-3.81872 2.655428,-5.06667 1.393291,-1.81515 1.296004,-1.60975 1.068223,-2.25535 -0.438299,-1.24227 -0.654364,-2.85683 -0.643868,-4.81132 0.0115,-2.14345 0.193886,-3.29364 0.863637,-5.4467102 0.50648,-1.6282 0.590059,-1.69066 2.086686,-1.55934 2.736262,0.24009 6.315005,1.71315 10.151856,4.1786502 l 1.128969,0.72546 1.537698,-0.34761 c 3.863583,-0.87338 5.884944,-1.08406 10.337697,-1.07743 4.011779,0.006 5.473968,0.14137 8.801355,0.81503 l 1.734686,0.3512 0.931978,-0.59533 c 3.702615,-2.3651402 7.26463,-3.8139502 9.957812,-4.0502402 1.49266,-0.13096 1.577023,-0.0679 2.08628,1.55961 0.639874,2.0449102 0.851762,3.4011002 0.861408,5.5133802 0.0076,1.65286 -0.223692,3.61402 -0.515913,4.37553 -0.03681,0.0959 0.289001,0.57754 0.724006,1.07031 2.218579,2.51316 3.564525,5.20851 4.304886,8.62083 0.272133,1.25425 0.303473,1.75395 0.30105,4.8 -0.003,3.60372 -0.224568,6.15827 -0.71142,8.19727 -0.139722,0.58516 -0.225468,1.11016 -0.190545,1.16667 0.03492,0.0565 2.000632,0.10272 4.368257,0.10272 4.623334,0 7.161332,0.12678 10.935712,0.54624 2.509194,0.27886 6.035531,0.8344 6.173752,0.97262 0.229822,0.22983 -0.262632,0.20583 -2.185398,-0.10648 -2.398137,-0.38953 -4.760508,-0.6703 -7.377907,-0.87686 -2.532653,-0.19987 -8.992758,-0.32652 -10.688239,-0.20954 l -1.421579,0.0981 -0.299361,0.8005 c -0.363349,0.97158 -0.304543,1.03655 0.942512,1.04139 3.30271,0.0128 10.547396,0.82622 15,1.68417 2.271757,0.43773 5.566851,1.23868 5.724446,1.39146 0.271986,0.26368 -0.08034,0.26616 -1.012531,0.007 -4.985526,-1.38539 -13.773196,-2.61061 -19.499452,-2.71872 l -1.587542,-0.03 -0.679128,1.14335 c -0.963523,1.62214 -1.52256,2.33851 -2.707,3.46885 -3.123734,2.98105 -7.88211,4.79991 -14.80546,5.65927 -0.384998,0.0478 -0.699999,0.12643 -0.699999,0.17476 0,0.0483 0.416209,0.52092 0.924915,1.0502 0.646541,0.67269 1.089226,1.29458 1.470867,2.06628 0.983827,1.98937 0.955722,1.72319 1.074006,10.17062 0.114697,8.19137 0.11709,8.21754 0.858032,9.39127 0.387224,0.6134 1.248594,1.38993 1.924029,1.73451 1.019082,0.5199 1.245472,1.29029 0.514817,1.75193 -0.381898,0.24129 -0.570206,0.26435 -1.586453,0.19427 -2.897915,-0.19983 -4.930405,-1.32401 -5.880223,-3.25238 l -0.433323,-0.87976 -0.07669,-6.46992 c -0.0812,-6.85052 -0.08856,-6.92992 -0.75741,-8.16992 -0.720211,-1.33522 -0.711428,-1.44825 -0.668296,8.60001 0.0462,10.763 -0.01969,10.18936 1.314085,11.43796 0.871771,0.81609 1.009659,1.29247 0.541474,1.87066 -0.551323,0.68085 -2.523575,0.42215 -4.241888,-0.5564 -0.954403,-0.54353 -2.085605,-1.80358 -2.466636,-2.74761 l -0.311305,-0.77128 0.04761,-9.68209 c 0.03484,-7.08492 0.0068,-9.75843 -0.104691,-9.96667 -0.174386,-0.32584 -0.821036,-0.39209 -1.056604,-0.10825 -0.102596,0.12362 -0.157294,3.14252 -0.182992,10.1 l -0.03666,9.92368 -0.359452,0.76701 c -0.921661,1.9667 -3.245501,3.43299 -5.440756,3.43299 -0.694624,0 -0.940583,-0.0539 -1.11246,-0.24384 z M 32.240012,64.116453 c 0.088,-0.088 0.16,-0.26589 0.16,-0.39531 0,-0.51797 -1.097664,-0.67868 -1.386552,-0.203 -0.288992,0.47585 0.811968,1.01289 1.226552,0.59831 z m 3.066667,0 c 0.470498,-0.4705 -0.190155,-1.09368 -0.843742,-0.79589 -0.454756,0.2072 -0.568888,0.54865 -0.259105,0.77517 0.30592,0.2237 0.888919,0.23465 1.102847,0.0207 z m 2.401383,-1.08364 c 0.04582,-0.54224 -0.187472,-0.65789 -0.565192,-0.28017 -0.274643,0.27464 -0.265626,0.54461 0.02381,0.71289 0.360105,0.20936 0.496322,0.10048 0.541382,-0.43272 z m -8.318955,0.36271 c 0.553598,-0.21244 0.0047,-1.11907 -0.677561,-1.11907 -0.763894,0 -0.411676,1.11104 0.377561,1.19098 0.049,0.005 0.184002,-0.0274 0.3,-0.0719 z m -2.266667,-1.86667 c 0.537584,-0.20629 -0.0309,-1.31262 -0.630627,-1.22726 -0.454835,0.0647 -0.46344,0.67293 -0.01452,1.02606 0.407981,0.32092 0.366717,0.30805 0.645144,0.2012 z m -1.681259,-2.67862 c 0.03233,-0.33297 -0.03187,-0.47189 -0.298971,-0.6469 -0.187077,-0.12257 -0.430602,-0.18815 -0.541169,-0.14572 -0.2899,0.11124 -0.247137,0.70607 0.07383,1.02704 0.38582,0.38582 0.715891,0.28485 0.766305,-0.23442 z m -1.665493,-1.82514 c 0.110732,-0.28856 -0.28867,-0.74864 -0.649903,-0.74864 -0.232863,0 -0.325773,0.0733 -0.325773,0.25715 0,0.52379 0.807236,0.93044 0.975676,0.49149 z m -1.775676,-1.53965 c 0,-0.29557 -0.49065,-0.50501 -0.697794,-0.29786 -0.221962,0.22196 -0.0056,0.55554 0.360276,0.55554 0.244706,0 0.337518,-0.0709 0.337518,-0.25768 z m 35.606682,-1.88489 c 3.724744,-0.2961 6.114195,-0.84733 8.335881,-1.92304 3.971145,-1.92276 5.931031,-5.48754 5.974979,-10.86772 0.01829,-2.23903 -0.153517,-3.06362 -0.979018,-4.69878 -1.42238,-2.81748 -3.728576,-4.79797 -6.405188,-5.50058 -1.364663,-0.35823 -4.812465,-0.40927 -8.669549,-0.12836 -4.135121,0.30117 -8.090612,0.30067 -12.330453,-0.002 -4.115818,-0.29338 -7.079619,-0.23007 -8.666667,0.18511 -1.78475,0.46691 -2.653011,0.97183 -4.009527,2.33167 -2.645199,2.65168 -3.642544,5.33245 -3.279526,8.81505 0.193279,1.8542 0.662814,3.51494 1.392202,4.9242 0.700852,1.35412 2.513499,3.2357 3.905308,4.05382 2.510251,1.47555 6.163734,2.43743 10.65821,2.80608 2.00127,0.16415 12.023393,0.16708 14.073348,0.004 z m -8.873348,-2.30928 c -0.903463,-0.39468 -1.67923,-1.37564 -1.486036,-1.87909 0.127021,-0.33101 0.327636,-0.23456 0.708185,0.34049 0.924319,1.39674 2.778376,1.3761 3.716419,-0.0414 0.188787,-0.28527 0.414837,-0.49511 0.502341,-0.46631 0.568202,0.18702 -0.193006,1.4898 -1.13769,1.94711 -0.670683,0.32467 -1.68688,0.36843 -2.303219,0.0992 z m 0.373558,-3.74832 c -0.566392,-0.39671 -0.457606,-1.61114 0.165749,-1.85034 0.619968,-0.23791 1.201968,-0.0498 1.474081,0.4764 0.400102,0.77371 -0.08128,1.57411 -0.946721,1.57411 -0.224032,0 -0.535931,-0.0901 -0.693109,-0.20017 z m -11.706892,-2.53183 c -0.821148,-0.28786 -1.610694,-1.24233 -1.94899,-2.3561 -0.226531,-0.7458 -0.271319,-1.17481 -0.227423,-2.17845 0.04834,-1.10516 0.107981,-1.3535 0.515536,-2.14648 0.609453,-1.18581 1.222306,-1.67858 2.187157,-1.7586 0.943691,-0.0782 1.728579,0.35154 2.317246,1.2689 1.593781,2.48369 0.712105,6.60259 -1.547666,7.23019 -0.615086,0.17083 -0.642513,0.16957 -1.29586,-0.0595 z m 0.1,-5.50444 c 0.320084,-0.28107 0.301813,-1.02842 -0.03333,-1.36356 -0.319001,-0.319 -0.895309,-0.34513 -1.303665,-0.0591 -0.217548,0.15238 -0.296335,0.34185 -0.296335,0.71267 0,0.93599 0.92037,1.33607 1.633334,0.71 z m 23.766667,5.45607 c -1.114866,-0.5304 -1.827333,-1.66348 -2.054472,-3.26736 -0.384155,-2.71263 0.995921,-5.15227 2.914579,-5.15227 2.003316,0 3.44623,3.00549 2.752528,5.73333 -0.555152,2.18301 -2.160846,3.37698 -3.612635,2.6863 z m 0.466666,-5.4863 c 0.383671,-0.38367 0.34518,-0.98556 -0.08465,-1.32366 -0.193225,-0.15198 -0.425133,-0.27634 -0.515354,-0.27634 -0.09022,0 -0.322129,0.12436 -0.51535,0.27634 -0.647928,0.50966 -0.297736,1.59033 0.51535,1.59033 0.183334,0 0.453335,-0.12 0.6,-0.26667 z" style="opacity:1;fill:#a95f54;stroke-width:0.13333334"/><path d="m 42.354011,85.632623 c -0.247103,-0.27304 -0.291168,-0.9753 -0.08533,-1.3599 0.07443,-0.13908 0.3985,-0.43394 0.720149,-0.65524 0.370451,-0.25487 0.699613,-0.63549 0.898,-1.03836 l 0.313185,-0.636 0.03755,-9.56667 c 0.03359,-8.55827 0.01581,-9.56667 -0.168625,-9.56667 -0.256641,0 -0.669608,0.6573 -0.963367,1.53334 -0.192657,0.57453 -0.233826,1.57923 -0.297885,7.26991 l -0.07433,6.60324 -0.437409,0.88807 c -0.995609,2.02136 -3.240433,3.19246 -6.181301,3.22469 -1.089191,0.0119 -1.32831,-0.0247 -1.566667,-0.23991 -0.586881,-0.52994 -0.299512,-1.13168 0.807264,-1.69038 1.158941,-0.58504 2.043088,-1.45746 2.374372,-2.3429 0.248221,-0.66343 0.278833,-1.14897 0.358462,-5.68571 0.07462,-4.25119 0.05935,-4.9833 -0.106801,-5.12091 -0.151834,-0.12575 -0.467118,-0.11585 -1.454227,0.0456 -1.594157,0.26081 -4.743384,0.18019 -5.927026,-0.15173 -2.819263,-0.7906 -4.84411,-2.45701 -6.561542,-5.40002 -1.890531,-3.23964 -2.747315,-4.21885 -4.530892,-5.1783 -1.490203,-0.80164 -2.0409,-1.27689 -2.0409,-1.76132 0,-0.57003 0.58302,-0.8276 1.858117,-0.82089 2.456064,0.0129 4.699859,1.476 6.58101,4.29113 1.28938,1.92955 2.444461,3.0439 3.851505,3.71569 0.610152,0.29131 1.427322,0.59507 1.815931,0.67501 1.538721,0.31653 3.579612,0.12202 5.419639,-0.51651 1.201183,-0.41684 1.344851,-0.55271 1.654473,-1.56469 0.38488,-1.25796 1.354155,-2.89625 2.250179,-3.8033 0.414644,-0.41975 0.719903,-0.79718 0.678353,-0.83873 -0.04155,-0.0416 -0.818118,-0.18958 -1.725709,-0.32897 -2.502551,-0.38434 -4.122915,-0.76365 -6.250164,-1.4631 -4.907683,-1.61367 -8.231579,-4.03709 -10.588618,-7.72006 l -0.627636,-0.98071 -1.491874,0.0868 c -7.692361,0.44785 -14.431014,1.41179 -19.270453,2.75659 -0.932193,0.25904 -1.284518,0.25656 -1.012531,-0.007 0.15821,-0.15338 3.461561,-0.95575 5.724444,-1.39045 3.999415,-0.76829 8.539562,-1.32292 12.914771,-1.57768 1.753035,-0.10208 2.80219,-0.21604 2.837563,-0.30822 0.03087,-0.0804 -0.09277,-0.48293 -0.274746,-0.89441 l -0.330871,-0.74816 -0.906691,-0.0978 c -1.111471,-0.11994 -8.421276,0.0223 -10.706693,0.20831 -2.588851,0.21073 -5.072271,0.50706 -7.377905,0.88036 -1.922974,0.31134 -2.415088,0.33507 -2.185398,0.10538 0.136619,-0.13662 3.649005,-0.69185 6.173752,-0.97593 3.568623,-0.40154 6.350893,-0.54162 10.771352,-0.54231 l 3.9818,-7.6e-4 -0.06714,-0.36666 c -0.03693,-0.20167 -0.2215,-0.95055 -0.410163,-1.66417 -0.644238,-2.43687 -0.812572,-4.0116 -0.816248,-7.63583 -0.0036,-3.58242 0.101822,-4.44139 0.810293,-6.6 0.509114,-1.5512 1.697515,-3.81872 2.655428,-5.06667 1.393291,-1.81515 1.296004,-1.60975 1.068223,-2.25535 -0.438299,-1.24227 -0.654364,-2.85683 -0.643868,-4.81132 0.0115,-2.14345 0.193886,-3.29364 0.863637,-5.4467102 0.50648,-1.6282 0.590059,-1.69066 2.086686,-1.55934 2.736262,0.24009 6.315005,1.71315 10.151856,4.1786502 l 1.128969,0.72546 1.537698,-0.34761 c 3.863583,-0.87338 5.884944,-1.08406 10.337697,-1.07743 4.011779,0.006 5.473968,0.14137 8.801355,0.81503 l 1.734686,0.3512 0.931978,-0.59533 c 3.702615,-2.3651402 7.26463,-3.8139502 9.957812,-4.0502402 1.49266,-0.13096 1.577023,-0.0679 2.08628,1.55961 0.639874,2.0449102 0.851762,3.4011002 0.861408,5.5133802 0.0076,1.65286 -0.223692,3.61402 -0.515913,4.37553 -0.03681,0.0959 0.289001,0.57754 0.724006,1.07031 2.218579,2.51316 3.564525,5.20851 4.304886,8.62083 0.272133,1.25425 0.303473,1.75395 0.30105,4.8 -0.003,3.60372 -0.224568,6.15827 -0.71142,8.19727 -0.139722,0.58516 -0.225468,1.11016 -0.190545,1.16667 0.03492,0.0565 2.000632,0.10272 4.368257,0.10272 4.623334,0 7.161332,0.12678 10.935712,0.54624 2.509194,0.27886 6.035531,0.8344 6.173752,0.97262 0.229822,0.22983 -0.262632,0.20583 -2.185398,-0.10648 -2.398137,-0.38953 -4.760508,-0.6703 -7.377907,-0.87686 -2.532653,-0.19987 -8.992758,-0.32652 -10.688239,-0.20954 l -1.421579,0.0981 -0.299361,0.8005 c -0.363349,0.97158 -0.304543,1.03655 0.942512,1.04139 3.30271,0.0128 10.547396,0.82622 15,1.68417 2.271757,0.43773 5.566851,1.23868 5.724446,1.39146 0.271986,0.26368 -0.08034,0.26616 -1.012531,0.007 -4.985526,-1.38539 -13.773196,-2.61061 -19.499452,-2.71872 l -1.587542,-0.03 -0.679128,1.14335 c -0.963523,1.62214 -1.52256,2.33851 -2.707,3.46885 -3.123734,2.98105 -7.88211,4.79991 -14.80546,5.65927 -0.384998,0.0478 -0.699999,0.12643 -0.699999,0.17476 0,0.0483 0.416209,0.52092 0.924915,1.0502 0.646541,0.67269 1.089226,1.29458 1.470867,2.06628 0.983827,1.98937 0.955722,1.72319 1.074006,10.17062 0.114697,8.19137 0.11709,8.21754 0.858032,9.39127 0.387224,0.6134 1.248594,1.38993 1.924029,1.73451 1.019082,0.5199 1.245472,1.29029 0.514817,1.75193 -0.381898,0.24129 -0.570206,0.26435 -1.586453,0.19427 -2.897915,-0.19983 -4.930405,-1.32401 -5.880223,-3.25238 l -0.433323,-0.87976 -0.07669,-6.46992 c -0.0812,-6.85052 -0.08856,-6.92992 -0.75741,-8.16992 -0.720211,-1.33522 -0.711428,-1.44825 -0.668296,8.60001 0.0462,10.763 -0.01969,10.18936 1.314085,11.43796 0.871771,0.81609 1.009659,1.29247 0.541474,1.87066 -0.551323,0.68085 -2.523575,0.42215 -4.241888,-0.5564 -0.954403,-0.54353 -2.085605,-1.80358 -2.466636,-2.74761 l -0.311305,-0.77128 0.04761,-9.68209 c 0.03484,-7.08492 0.0068,-9.75843 -0.104691,-9.96667 -0.174386,-0.32584 -0.821036,-0.39209 -1.056604,-0.10825 -0.102596,0.12362 -0.157294,3.14252 -0.182992,10.1 l -0.03666,9.92368 -0.359452,0.76701 c -0.921661,1.9667 -3.245501,3.43299 -5.440756,3.43299 -0.694624,0 -0.940583,-0.0539 -1.11246,-0.24384 z M 32.240012,64.116453 c 0.088,-0.088 0.16,-0.26589 0.16,-0.39531 0,-0.51797 -1.097664,-0.67868 -1.386552,-0.203 -0.288992,0.47585 0.811968,1.01289 1.226552,0.59831 z m 3.066667,0 c 0.470498,-0.4705 -0.190155,-1.09368 -0.843742,-0.79589 -0.454756,0.2072 -0.568888,0.54865 -0.259105,0.77517 0.30592,0.2237 0.888919,0.23465 1.102847,0.0207 z m 2.401383,-1.08364 c 0.04582,-0.54224 -0.187472,-0.65789 -0.565192,-0.28017 -0.274643,0.27464 -0.265626,0.54461 0.02381,0.71289 0.360105,0.20936 0.496322,0.10048 0.541382,-0.43272 z m -8.318955,0.36271 c 0.553598,-0.21244 0.0047,-1.11907 -0.677561,-1.11907 -0.763894,0 -0.411676,1.11104 0.377561,1.19098 0.049,0.005 0.184002,-0.0274 0.3,-0.0719 z m -2.266667,-1.86667 c 0.537584,-0.20629 -0.0309,-1.31262 -0.630627,-1.22726 -0.454835,0.0647 -0.46344,0.67293 -0.01452,1.02606 0.407981,0.32092 0.366717,0.30805 0.645144,0.2012 z m -1.681259,-2.67862 c 0.03233,-0.33297 -0.03187,-0.47189 -0.298971,-0.6469 -0.187077,-0.12257 -0.430602,-0.18815 -0.541169,-0.14572 -0.2899,0.11124 -0.247137,0.70607 0.07383,1.02704 0.38582,0.38582 0.715891,0.28485 0.766305,-0.23442 z m -1.665493,-1.82514 c 0.110732,-0.28856 -0.28867,-0.74864 -0.649903,-0.74864 -0.232863,0 -0.325773,0.0733 -0.325773,0.25715 0,0.52379 0.807236,0.93044 0.975676,0.49149 z m -1.775676,-1.53965 c 0,-0.29557 -0.49065,-0.50501 -0.697794,-0.29786 -0.221962,0.22196 -0.0056,0.55554 0.360276,0.55554 0.244706,0 0.337518,-0.0709 0.337518,-0.25768 z m 33.854335,-1.74724 c 5.88218,-0.30849 9.247082,-1.15959 11.807229,-2.98647 2.814886,-2.00866 4.335167,-5.6142 4.33765,-10.28728 0.0015,-3.07513 -1.071386,-5.42455 -3.565281,-7.80633 -2.448817,-2.33872 -5.049827,-2.82907 -12.23393,-2.30638 -4.226283,0.30749 -8.786648,0.30672 -13.066669,-0.002 -7.031558,-0.50755 -9.674161,-1.3e-4 -12.116767,2.32664 -1.731787,1.64966 -2.889282,3.5481 -3.346938,5.48941 -0.254088,1.07781 -0.257008,3.17226 -0.0066,4.71089 0.873755,5.36807 4.271935,8.56555 10.608915,9.98234 4.012428,0.89709 10.785554,1.23585 17.582356,0.8794 z" style="opacity:1;fill:#5f5f5f;stroke-width:0.13333334"/><path d="m 42.519456,85.462563 c -0.38897,-0.38897 -0.258399,-1.01427 0.30336,-1.45277 0.821682,-0.6414 1.175926,-1.09718 1.375763,-1.7701 0.1714,-0.57717 0.201433,-2.08496 0.201433,-10.1129 0,-7.02643 -0.03957,-9.45906 -0.155037,-9.53042 -0.235496,-0.14554 -0.840844,0.61525 -1.192391,1.49859 -0.3065,0.77015 -0.312181,0.87635 -0.391328,7.31483 -0.04889,3.97742 -0.134829,6.6913 -0.219666,6.93713 -0.648484,1.87907 -2.189523,3.11302 -4.478101,3.58574 -1.362683,0.28147 -3.072942,0.28195 -3.353953,7.6e-4 -0.439558,-0.43956 -0.103817,-0.96954 0.907529,-1.43254 1.420906,-0.65052 2.347996,-1.79453 2.605994,-3.21576 0.08464,-0.46626 0.14362,-2.69079 0.14362,-5.41701 0,-5.34602 0.06918,-5.06199 -1.168686,-4.79827 -1.382613,0.29454 -4.366988,0.3372 -5.637982,0.0806 -2.226495,-0.44954 -3.973532,-1.38311 -5.404272,-2.8879 -0.877413,-0.92283 -1.296558,-1.53161 -2.605058,-3.78367 -1.093819,-1.88258 -2.415888,-3.2614 -3.908239,-4.076 -2.484193,-1.35601 -2.578852,-2.25321 -0.238224,-2.25795 2.355432,-0.005 4.695283,1.46871 6.349426,3.99843 0.359497,0.54979 0.837219,1.23431 1.061605,1.52116 l 0.407974,0.52155 -0.359575,-0.0902 c -0.471207,-0.11826 -0.951172,0.31966 -0.826348,0.75397 0.119879,0.4171 0.68778,0.89318 1.065456,0.89318 0.380735,0 0.650266,-0.42293 0.523692,-0.82173 -0.104892,-0.33048 -0.01759,-0.28831 0.906208,0.43779 0.789127,0.62025 1.777248,1.09257 2.900689,1.38653 1.718511,0.44967 4.802503,0.0745 6.513114,-0.79235 0.599844,-0.30396 0.636224,-0.35678 0.986545,-1.4325 0.460227,-1.4132 1.515551,-3.13714 2.37183,-3.87455 0.363942,-0.31342 0.661744,-0.64118 0.661779,-0.72836 3.7e-5,-0.0883 -0.280503,-0.19615 -0.633267,-0.24348 -9.008118,-1.20893 -14.643798,-4.0524 -17.899859,-9.03135 -0.467587,-0.715 -0.898903,-1.3 -0.958483,-1.3 -0.05958,0 -0.108326,-0.11605 -0.108326,-0.25788 0,-0.34061 -0.668972,-1.87545 -0.817428,-1.87545 -0.06375,0 -0.116066,-0.135 -0.116264,-0.3 -1.33e-4,-0.16501 -0.176294,-0.99595 -0.391328,-1.84655 -0.597824,-2.36482 -0.814445,-4.06476 -0.898809,-7.05345 -0.06167,-2.18467 -0.03195,-3.03917 0.148063,-4.2569 0.48345,-3.27046 1.733973,-6.122 3.804977,-8.67644 0.553961,-0.68327 0.791839,-1.08446 0.751047,-1.26666 -0.03284,-0.14667 -0.183835,-0.71667 -0.335554,-1.26667 -0.648177,-2.34972 -0.60897,-5.4642 0.104256,-8.28176 0.550678,-2.1754302 0.699552,-2.4839902 1.248115,-2.5869002 0.709651,-0.13313 2.531888,0.17503 4.151419,0.70205 1.724181,0.56107 4.606123,1.9790102 6.639353,3.2666102 0.781649,0.495 1.511846,0.9 1.62266,0.9 0.110815,0 0.821283,-0.1492 1.578821,-0.33156 5.771601,-1.38935 12.578516,-1.47938 18.923556,-0.25028 l 1.812885,0.35118 1.587114,-0.97339 c 3.263267,-2.0013802 6.511604,-3.3235202 8.856605,-3.6048102 1.82753,-0.21921 1.890153,-0.18151 2.386193,1.43678 1.026025,3.3473202 1.141444,6.5467602 0.348095,9.6493702 -0.07428,0.2905 0.05179,0.50813 0.810977,1.4 1.700315,1.99749 2.825862,3.95468 3.584606,6.23318 0.790798,2.37477 0.931264,3.47306 0.915246,7.1562 -0.01497,3.4373 -0.222395,5.77714 -0.710434,8.01325 -0.146411,0.67084 -0.231367,1.27607 -0.188791,1.34496 0.04258,0.0689 -0.01202,0.22648 -0.121274,0.35019 -0.109277,0.12371 -0.301632,0.58493 -0.427457,1.02493 -0.125824,0.44 -0.279726,0.89 -0.342005,1 -0.06228,0.11 -0.360318,0.65 -0.662306,1.2 -2.844476,5.18058 -8.222317,7.97882 -17.562187,9.13811 -0.384918,0.0478 -0.732476,0.13966 -0.772354,0.20418 -0.03987,0.0645 0.367174,0.55698 0.904547,1.09436 0.681146,0.68114 1.143662,1.29801 1.527194,2.03686 1.029996,1.98423 1.004137,1.74202 1.102612,10.32649 0.05469,4.76677 0.140818,7.81843 0.227721,8.0679 0.489456,1.40506 1.281936,2.38267 2.510131,3.09652 0.366668,0.21311 0.756666,0.55194 0.866665,0.75294 0.187903,0.34337 0.18096,0.38112 -0.114769,0.62406 -0.646447,0.53105 -3.44225,0.2156 -5.009753,-0.56525 -1.31122,-0.65318 -2.18923,-1.63776 -2.650635,-2.97237 -0.08469,-0.24497 -0.171727,-2.89497 -0.221273,-6.73713 -0.07773,-6.02754 -0.09566,-6.37518 -0.3713,-7.2 -0.332572,-0.99515 -0.990528,-1.88398 -1.225626,-1.65568 -0.107236,0.10413 -0.137779,2.75884 -0.109685,9.53333 0.04492,10.83263 -0.03576,10.1334 1.324467,11.47684 0.830831,0.82058 0.939965,1.15078 0.519345,1.5714 -0.396631,0.39664 -1.120101,0.47544 -2.033446,0.22151 -1.886801,-0.52458 -3.52489,-1.74449 -4.206684,-3.1328 l -0.367307,-0.74794 -0.0366,-9.95956 -0.0366,-9.95956 -0.351012,-0.27611 c -0.346301,-0.2724 -0.740563,-0.26605 -1.042445,0.0168 -0.08541,0.08 -0.157295,3.70585 -0.200001,10.08803 l -0.06667,9.9631 -0.431151,0.87558 c -0.750896,1.52493 -2.188269,2.62814 -4.080673,3.132 -1.028804,0.27393 -1.76705,0.24086 -2.102066,-0.0942 z m -7.019444,-21.28921 c 0.304282,-0.2672 0.294852,-0.50205 -0.03333,-0.83023 -0.518453,-0.51846 -1.599999,-0.19354 -1.599999,0.48066 0,0.2475 0.110493,0.37996 0.433333,0.51946 0.469679,0.20295 0.834169,0.15135 1.2,-0.16989 z m -3.04198,-0.0207 c 0.444788,-0.49148 -0.07086,-1.12781 -0.89494,-1.10438 -1.167866,0.0332 -0.92794,1.36149 0.245923,1.36149 0.241844,0 0.513853,-0.10775 0.649017,-0.25711 z m 5.248647,-0.56955 c 0.088,-0.088 0.16,-0.388 0.16,-0.66667 0,-0.44758 -0.03776,-0.50666 -0.323809,-0.50666 -0.411904,0 -0.742858,0.32799 -0.742858,0.73622 0,0.47884 0.583589,0.76018 0.906667,0.43711 z m -8.049524,-0.18286 c 0.294,-0.294 0.261504,-0.55062 -0.11775,-0.92987 -0.416418,-0.41642 -1.195348,-0.45433 -1.401983,-0.0682 -0.393291,0.73487 0.920266,1.59756 1.519733,0.99809 z m -4.050669,-4.20257 c 0.111537,-0.20841 0.108104,-0.37795 -0.01359,-0.67177 -0.42511,-1.0263 -1.683382,-0.75222 -1.303188,0.28387 0.247221,0.67372 1.038992,0.90696 1.316784,0.3879 z m -1.67474,-2.1162 c 0.100478,-0.31658 -0.112138,-0.74949 -0.459358,-0.93532 -0.347227,-0.18583 -0.484295,-0.17208 -0.729519,0.0731 -0.271613,0.27161 -0.264748,0.35097 0.06682,0.77249 0.34272,0.4357 0.995673,0.48789 1.122057,0.0897 z m -1.750957,-1.3639 c 0.10802,-0.17236 0.08278,-0.29024 -0.107048,-0.5 -0.471509,-0.52102 -1.328205,-0.20787 -1.017843,0.37205 0.24803,0.46345 0.870267,0.53422 1.124891,0.12795 z m 36.63752,-2.02708 c 5.227702,-0.58329 8.103753,-1.73579 10.359613,-4.15135 1.976931,-2.11688 2.958471,-5.14303 2.953455,-9.10569 -0.0023,-1.86823 -0.222652,-2.90526 -0.925512,-4.35702 -1.048614,-2.16591 -2.849673,-4.07968 -4.701543,-4.99576 -2.20495,-1.09074 -4.909323,-1.30371 -10.970975,-0.86397 -3.691608,0.26782 -7.928576,0.26362 -11.866668,-0.0117 -4.0866,-0.28575 -7.405094,-0.21664 -8.906731,0.18549 -1.610111,0.43117 -2.800381,1.12398 -4.038592,2.35068 -1.71566,1.69972 -2.70762,3.36908 -3.190896,5.36993 -0.336431,1.39288 -0.218883,4.26604 0.247933,6.06004 0.842412,3.23743 2.94326,5.79705 6.028646,7.34514 2.511872,1.26033 6.705251,2.12747 11.65964,2.41107 2.178892,0.12472 11.610692,-0.0426 13.35163,-0.23682 z" style="opacity:1;fill:#1f1e1e;stroke-width:0.13333334"/></svg>
