<?xml version="1.0" encoding="UTF-8" standalone="no"?>
<svg
   xmlns:dc="http://purl.org/dc/elements/1.1/"
   xmlns:cc="http://creativecommons.org/ns#"
   xmlns:rdf="http://www.w3.org/1999/02/22-rdf-syntax-ns#"
   xmlns:svg="http://www.w3.org/2000/svg"
   xmlns="http://www.w3.org/2000/svg"
   xmlns:sodipodi="http://sodipodi.sourceforge.net/DTD/sodipodi-0.dtd"
   xmlns:inkscape="http://www.inkscape.org/namespaces/inkscape"
   width="85"
   height="18"
   version="1.1"
   id="svg14"
   sodipodi:docname="paypal.svg"
   inkscape:version="0.92.5 (2060ec1f9f, 2020-04-08)">
  <metadata
     id="metadata20">
    <rdf:RDF>
      <cc:Work
         rdf:about="">
        <dc:format>image/svg+xml</dc:format>
        <dc:type
           rdf:resource="http://purl.org/dc/dcmitype/StillImage" />
        <dc:title></dc:title>
      </cc:Work>
    </rdf:RDF>
  </metadata>
  <defs
     id="defs18" />
  <sodipodi:namedview
     pagecolor="#ffffff"
     bordercolor="#666666"
     borderopacity="1"
     objecttolerance="10"
     gridtolerance="10"
     guidetolerance="10"
     inkscape:pageopacity="0"
     inkscape:pageshadow="2"
     inkscape:window-width="1366"
     inkscape:window-height="716"
     id="namedview16"
     showgrid="false"
     inkscape:zoom="2.2419355"
     inkscape:cx="62"
     inkscape:cy="16.5"
     inkscape:window-x="0"
     inkscape:window-y="0"
     inkscape:window-maximized="1"
     inkscape:current-layer="svg14" />
  <path
     d="M 33.20592,4.0255154 H 29.126724 A 0.56663794,0.56663794 0 0 0 28.566647,4.503877 l -1.649812,10.460136 a 0.33998276,0.33998276 0 0 0 0.336404,0.392471 h 1.947446 a 0.56663794,0.56663794 0 0 0 0.560077,-0.478958 l 0.444959,-2.82126 a 0.56663794,0.56663794 0 0 1 0.559481,-0.478959 h 1.291338 c 2.687057,0 4.237856,-1.300284 4.642852,-3.8769954 C 36.88191,6.5729999 36.707092,5.6872557 36.179278,5.0669362 35.599518,4.3857774 34.571219,4.0255154 33.20592,4.0255154 Z m 0.470608,3.8203322 C 33.453451,9.309563 32.335087,9.309563 31.253704,9.309563 H 30.638156 L 31.069993,6.5759823 A 0.33998276,0.33998276 0 0 1 31.405801,6.289085 h 0.282126 c 0.736629,0 1.431506,0 1.790576,0.419908 0.214129,0.2505137 0.27974,0.6227052 0.198025,1.1368546 z m 11.722844,-0.047116 h -1.95341 a 0.33998276,0.33998276 0 0 0 -0.335807,0.2868969 l -0.08649,0.5463582 -0.13659,-0.1980249 c -0.422891,-0.6137581 -1.365896,-0.818941 -2.307111,-0.818941 -2.158592,0 -4.002254,1.6348996 -4.361323,3.9282922 -0.186692,1.144012 0.07874,2.237921 0.727682,3.000795 0.595268,0.701438 1.447015,0.993703 2.460402,0.993703 1.73928,0 2.703757,-1.118363 2.703757,-1.118363 l -0.08708,0.542779 a 0.33998276,0.33998276 0 0 0 0.335211,0.393664 h 1.75956 A 0.56663794,0.56663794 0 0 0 44.67825,14.876933 L 45.733985,8.191202 A 0.33878984,0.33878984 0 0 0 45.39937,7.7987312 Z m -2.722845,3.8018424 c -0.188481,1.115979 -1.074226,1.865132 -2.203922,1.865132 -0.567235,0 -1.020545,-0.18192 -1.311618,-0.526675 -0.288687,-0.342367 -0.398436,-0.829676 -0.306581,-1.372456 0.175956,-1.106435 1.076612,-1.8800443 2.189012,-1.8800443 0.554708,0 1.005633,0.1843062 1.302671,0.5320433 0.297633,0.351315 0.415733,0.841606 0.330438,1.382 z M 55.802845,7.7987312 H 53.839891 A 0.56902379,0.56902379 0 0 0 53.370477,8.047455 L 50.66314,12.035393 49.515549,8.2031315 A 0.56842732,0.56842732 0 0 0 48.971577,7.7987278 h -1.928955 a 0.33998276,0.33998276 0 0 0 -0.322685,0.449731 l 2.162171,6.3451522 -2.032739,2.869574 a 0.33998276,0.33998276 0 0 0 0.277354,0.536814 h 1.960568 a 0.56604147,0.56604147 0 0 0 0.465835,-0.243356 L 56.081988,8.3325597 A 0.33998276,0.33998276 0 0 0 55.802845,7.7987278 Z"
     id="path2"
     inkscape:connector-curvature="0"
     style="fill:#253b80;stroke-width:0.596461" />
  <path
     d="M 62.301883,4.0255154 H 58.22209 A 0.56663794,0.56663794 0 0 0 57.66261,4.503877 l -1.649811,10.460136 a 0.3393863,0.3393863 0 0 0 0.335211,0.392471 h 2.093579 a 0.39664656,0.39664656 0 0 0 0.391278,-0.335211 l 0.468222,-2.965007 a 0.56663794,0.56663794 0 0 1 0.55948,-0.478959 h 1.290741 c 2.687653,0 4.237855,-1.300284 4.643449,-3.8769954 0.183114,-1.1273117 0.0072,-2.0130559 -0.52071,-2.6333754 C 64.694885,4.3857774 63.667182,4.0255154 62.301883,4.0255154 Z m 0.470608,3.8203322 C 62.550011,9.309563 61.431647,9.309563 60.349667,9.309563 H 59.734715 L 60.16715,6.5759823 A 0.33878984,0.33878984 0 0 1 60.502361,6.289085 h 0.282126 c 0.736033,0 1.431506,0 1.790576,0.419908 0.214129,0.2505137 0.279143,0.6227052 0.197428,1.1368546 z m 11.722248,-0.047116 h -1.952216 a 0.33819338,0.33819338 0 0 0 -0.335212,0.2868973 l -0.08649,0.5463582 -0.137186,-0.1980249 c -0.422891,-0.6137581 -1.365299,-0.818941 -2.306515,-0.818941 -2.158592,0 -4.001657,1.6348996 -4.360726,3.9282918 -0.186096,1.144012 0.07814,2.237921 0.727086,3.000795 0.596461,0.701438 1.447014,0.993703 2.460401,0.993703 1.739281,0 2.703758,-1.118363 2.703758,-1.118363 l -0.08708,0.542779 a 0.33998276,0.33998276 0 0 0 0.336405,0.393664 h 1.758961 a 0.56663794,0.56663794 0 0 0 0.55948,-0.478958 l 1.056333,-6.6857306 a 0.34057922,0.34057922 0 0 0 -0.337,-0.3924708 z m -2.722844,3.8018414 c -0.187289,1.115979 -1.074226,1.865133 -2.203924,1.865133 -0.566041,0 -1.020545,-0.18192 -1.311618,-0.526675 -0.288687,-0.342368 -0.397243,-0.829676 -0.30658,-1.372456 0.177149,-1.106435 1.076612,-1.8800447 2.189011,-1.8800447 0.554709,0 1.005634,0.1843062 1.302671,0.5320427 0.298828,0.351316 0.416927,0.841607 0.33044,1.382 z m 5.02578,-7.2881568 -1.674266,10.6515998 a 0.3393863,0.3393863 0 0 0 0.335212,0.392472 h 1.683212 c 0.27974,0 0.517132,-0.202797 0.560077,-0.478959 L 79.352914,4.4179896 A 0.33998276,0.33998276 0 0 0 79.017703,4.0249222 h -1.884817 a 0.34057922,0.34057922 0 0 0 -0.335211,0.287494 z"
     id="path4"
     inkscape:connector-curvature="0"
     style="fill:#179bd7;stroke-width:0.596461" />
  <path
     d="M 9.9767474,17.389223 10.288696,15.40778 9.5938195,15.39167 H 6.275707 L 8.5816251,0.77062733 a 0.18848167,0.18848167 0 0 1 0.1872888,-0.1598514 h 5.5948041 c 1.857379,0 3.139174,0.3865068 3.808403,1.14938077 0.313739,0.3578763 0.513553,0.7318578 0.61018,1.1434152 0.101398,0.4318376 0.103188,0.9477769 0.0042,1.5770427 l -0.0072,0.045928 v 0.403207 l 0.313737,0.1777457 a 2.2009411,2.2009411 0 0 1 0.635232,0.4843263 c 0.268407,0.3059841 0.441977,0.6948766 0.515342,1.1559414 0.07575,0.4741868 0.0507,1.0384384 -0.07337,1.677248 -0.14315,0.73484 -0.374577,1.3748429 -0.687122,1.898535 a 3.9050301,3.9050301 0 0 1 -1.088575,1.192923 c -0.415136,0.294652 -0.90841,0.518324 -1.466101,0.661475 -0.540393,0.140765 -1.156538,0.211744 -1.832327,0.211744 H 14.6607 c -0.311353,0 -0.613758,0.112135 -0.85115,0.313142 a 1.3181788,1.3181788 0 0 0 -0.443711,0.792099 l -0.0328,0.178342 -0.55113,3.492279 -0.02505,0.12824 c -0.0066,0.04056 -0.01789,0.06084 -0.03459,0.07456 a 0.09245145,0.09245145 0 0 1 -0.05726,0.02087 z"
     id="path6"
     inkscape:connector-curvature="0"
     style="fill:#253b80;stroke-width:0.596461" />
  <path
     d="m 19.390094,4.573066 c -0.0167,0.1067667 -0.03579,0.2159192 -0.05726,0.3280541 C 18.595013,8.6892435 16.07079,9.997879 12.846918,9.997879 H 11.20546 c -0.394261,0 -0.726489,0.286302 -0.787925,0.675194 l -0.8404165,5.329975 -0.2379879,1.510836 a 0.41990854,0.41990854 0 0 0 0.4145404,0.485519 h 2.911326 c 0.344754,0 0.637617,-0.250513 0.691895,-0.590496 l 0.02863,-0.147923 0.548147,-3.47856 0.03519,-0.190868 c 0.05368,-0.341176 0.347141,-0.591689 0.691896,-0.591689 h 0.435416 c 2.820664,0 5.028761,-1.145204 5.674132,-4.4591419 0.269602,-1.384386 0.130029,-2.5403273 -0.583339,-3.3533035 A 2.7836834,2.7836834 0 0 0 19.390094,4.573066 Z"
     id="path8"
     inkscape:connector-curvature="0"
     style="fill:#179bd7;stroke-width:0.596461" />
  <path
     d="M 18.618274,4.2652929 A 5.8196699,5.8196699 0 0 0 17.900731,4.1060373 9.1163102,9.1163102 0 0 0 16.453717,4.0004639 h -4.385181 a 0.69905227,0.69905227 0 0 0 -0.691298,0.5916889 l -0.932865,5.9085432 -0.02684,0.172377 a 0.79687188,0.79687188 0 0 1 0.787925,-0.675194 h 1.641461 c 3.223871,0 5.748094,-1.3092322 6.485916,-5.0967589 0.02207,-0.1121349 0.04056,-0.2212874 0.05726,-0.3280541 A 3.9330638,3.9330638 0 0 0 18.783494,4.317185 5.3949896,5.3949896 0 0 0 18.618274,4.26529 Z"
     id="path10"
     inkscape:connector-curvature="0"
     style="fill:#222d65;stroke-width:0.596461" />
  <path
     d="m 11.377238,4.5921528 a 0.69726289,0.69726289 0 0 1 0.691298,-0.5910923 h 4.385181 c 0.519518,0 1.00444,0.033995 1.447014,0.1055735 a 5.8196699,5.8196699 0 0 1 0.883359,0.210551 c 0.217708,0.072171 0.419909,0.1574656 0.606601,0.255881 C 19.610188,3.1731724 19.388891,2.2200283 18.631992,1.3569489 17.797544,0.40678643 16.291479,3.2198945e-8 14.364314,3.2198945e-8 H 8.7695103 C 8.3758461,3.2198945e-8 8.0400386,0.28630133 7.9791996,0.67579013 L 5.6488265,15.447146 a 0.48074756,0.48074756 0 0 0 0.4741864,0.555902 h 3.4541056 l 0.8672545,-5.502352 z"
     id="path12"
     inkscape:connector-curvature="0"
     style="fill:#253b80;stroke-width:0.596461" />
</svg>
