<?xml version="1.0" encoding="UTF-8" standalone="no"?>
<!-- Generator: Adobe Illustrator 19.2.1, SVG Export Plug-In . SVG Version: 6.00 Build 0)  -->

<svg
   xmlns:dc="http://purl.org/dc/elements/1.1/"
   xmlns:cc="http://creativecommons.org/ns#"
   xmlns:rdf="http://www.w3.org/1999/02/22-rdf-syntax-ns#"
   xmlns:svg="http://www.w3.org/2000/svg"
   xmlns="http://www.w3.org/2000/svg"
   xmlns:sodipodi="http://sodipodi.sourceforge.net/DTD/sodipodi-0.dtd"
   xmlns:inkscape="http://www.inkscape.org/namespaces/inkscape"
   version="1.1"
   id="layer"
   x="0px"
   y="0px"
   viewBox="0 0 600 129"
   xml:space="preserve"
   sodipodi:docname="australia-post-logo-vector.svg"
   width="600"
   height="129"
   inkscape:version="0.92.5 (2060ec1f9f, 2020-04-08)"><metadata
   id="metadata13"><rdf:RDF><cc:Work
       rdf:about=""><dc:format>image/svg+xml</dc:format><dc:type
         rdf:resource="http://purl.org/dc/dcmitype/StillImage" /><dc:title></dc:title></cc:Work></rdf:RDF></metadata><defs
   id="defs11" /><sodipodi:namedview
   pagecolor="#ffffff"
   bordercolor="#666666"
   borderopacity="1"
   objecttolerance="10"
   gridtolerance="10"
   guidetolerance="10"
   inkscape:pageopacity="0"
   inkscape:pageshadow="2"
   inkscape:window-width="1366"
   inkscape:window-height="708"
   id="namedview9"
   showgrid="false"
   inkscape:zoom="0.36196319"
   inkscape:cx="326"
   inkscape:cy="326"
   inkscape:window-x="0"
   inkscape:window-y="0"
   inkscape:window-maximized="1"
   inkscape:current-layer="g6" />
<style
   type="text/css"
   id="style2">
	.st0{fill:#DC1928;}
</style>
<g
   id="g6"
   transform="translate(0,-523)">
	<path
   class="st0"
   d="m 0,587.55 c 0,27.6 17.1,51.1 41.2,60.3 V 527.25 C 17.1,536.45 0,559.95 0,587.55 Z m 63.8,-64.5 c -1.8,0 -3.5,0.1 -5.2,0.2 v 4.5 h 0.3 c 24.3,0.2 43.8,18.9 43.7,41.8 -0.2,22.8 -19.8,41.2 -44,41.2 v 41 c 1.7,0.2 3.5,0.2 5.2,0.2 35.2,0 63.8,-28.9 63.8,-64.5 -0.1,-35.5 -28.7,-64.4 -63.8,-64.4 z m 122.3,79.5 h -20.5 l -3.6,10.7 h -9.1 l 17.6,-51.6 h 10.9 l 17.4,51.6 h -9.1 z m -2.6,-7.8 -7.7,-22.9 -7.7,22.9 z m 42.3,-19.1 h 8.7 v 37.6 h -8.7 v -4.4 h -0.3 c -2.4,3.3 -5.6,5.3 -10.6,5.3 -7.5,0 -12.4,-5.5 -12.4,-13.9 v -24.6 h 8.7 v 23.7 c 0,4.2 2,7.3 6.8,7.3 5,0 7.7,-3.5 7.7,-7.9 v -23.1 z m 23.5,26.8 c 0.6,3.3 2.8,5.4 7.5,5.4 4.3,0 6.8,-1.8 6.8,-4.9 0,-2.5 -0.9,-4.1 -5,-4.6 l -6.7,-0.8 c -7.6,-0.9 -10.8,-4.5 -10.8,-10.4 0,-7.2 6,-12.3 15.4,-12.3 9.8,0 14.5,5.7 14.9,11.4 h -8.6 c -0.4,-3 -2.6,-4.9 -6.5,-4.9 -4,0 -6.6,1.9 -6.6,4.8 0,2.4 1.3,3.8 5.6,4.3 l 6.6,0.8 c 7.3,0.9 10.2,4.3 10.2,10.5 0,7.8 -6.7,12.6 -15.4,12.6 -10.1,0 -15.5,-5 -16.2,-11.8 h 8.8 z m 32.4,-20.2 h -7.1 v -6.6 h 7.2 v -14 h 8.7 v 14 h 8.5 v 6.5 h -8.5 v 19.3 c 0,3.4 1.7,4.8 5,4.8 h 3.6 v 7 H 294 c -8.3,0 -12.3,-3.8 -12.3,-11.2 z m 33.6,31 h -8.8 v -37.6 h 8.8 v 5.7 h 0.3 c 1.8,-4.1 4.8,-5.7 8,-5.7 h 4.2 v 7.8 h -3.9 c -5.8,0 -8.6,2.8 -8.6,9.7 z m 26.5,1 c -7.1,0 -11.9,-4.2 -11.9,-11.3 0,-7.4 5.6,-10.2 11.7,-11 l 7.9,-1 c 3,-0.3 3.7,-1.7 3.7,-3.8 0,-3.2 -2.1,-5.6 -6.5,-5.6 -4.4,0 -6.8,2.5 -7.2,6 h -8.9 c 0.2,-6.4 5.5,-12.6 15.9,-12.6 9.7,0 15.5,5.8 15.5,14.4 v 17.7 c 0,2.3 0.3,4.7 0.8,6.5 h -9.1 c -0.2,-1.6 -0.4,-3.2 -0.4,-4.9 h -0.2 c -1.8,3 -5.9,5.6 -11.3,5.6 z m 6.8,-18.2 -3.9,0.9 c -3.7,0.8 -6,2.3 -6,5.7 0,3.4 2,5.2 5.9,5.2 4.5,0 8.7,-3 8.7,-7.9 v -5.9 c -1,1 -2.8,1.5 -4.7,2 z m 21.2,7.1 v -44 h 8.7 v 43.4 c 0,2.3 1,3.8 3.6,3.8 h 2.9 v 6.9 h -4.6 c -6.8,0 -10.6,-3.9 -10.6,-10.1 z m 30.8,-39.2 c 0,3.1 -2.4,5.4 -5.4,5.4 -3,0 -5.4,-2.4 -5.4,-5.4 0,-3 2.4,-5.4 5.4,-5.4 3.1,0 5.4,2.3 5.4,5.4 z m -1,11.7 v 37.6 h -8.8 v -37.6 z m 18.1,38.6 c -7.1,0 -11.9,-4.2 -11.9,-11.3 0,-7.4 5.6,-10.2 11.7,-11 l 7.9,-1 c 3,-0.3 3.7,-1.7 3.7,-3.8 0,-3.2 -2.1,-5.6 -6.5,-5.6 -4.5,0 -6.8,2.5 -7.2,6 h -8.9 c 0.2,-6.4 5.5,-12.6 15.9,-12.6 9.8,0 15.5,5.8 15.5,14.4 v 17.7 c 0,2.3 0.3,4.7 0.8,6.5 h -9.1 c -0.2,-1.6 -0.4,-3.2 -0.3,-4.9 h -0.2 c -2,3 -6.1,5.6 -11.4,5.6 z m 6.7,-18.2 -3.9,0.9 c -3.7,0.8 -6,2.3 -6,5.7 0,3.4 2,5.2 5.9,5.2 4.5,0 8.7,-3 8.7,-7.9 v -5.9 c -1,1 -2.7,1.5 -4.7,2 z m 57.5,-34.3 c 11,0 17.9,6.3 17.9,16.7 0,10.6 -7,16.8 -17.9,16.8 H 469 v 18 h -9.3 v -51.6 h 22.2 z m 8.5,16.7 c 0,-6.4 -3.9,-9.1 -10.3,-9.1 H 469 v 18.3 h 11.1 c 6.5,0 10.3,-2.5 10.3,-9.2 z m 29.2,-3.6 c 10.8,0 17.9,7.8 17.9,19.7 0,12 -7.2,19.7 -17.9,19.7 -10.8,0 -18,-7.7 -18,-19.7 0,-12 7.2,-19.7 18,-19.7 z m 9,18.2 c 0,-7 -3.5,-11.2 -9.1,-11.2 -5.6,0 -9.1,4.1 -9.1,11.2 v 3.1 c 0,7 3.4,11.1 9.1,11.1 5.6,0 9.1,-4.1 9.1,-11.1 z m 21.6,9.4 c 0.6,3.3 2.8,5.4 7.5,5.4 4.3,0 6.7,-1.8 6.7,-4.9 0,-2.5 -0.9,-4.1 -5,-4.6 l -6.7,-0.8 c -7.6,-0.9 -10.8,-4.5 -10.8,-10.4 0,-7.2 6,-12.3 15.4,-12.3 9.8,0 14.5,5.7 15,11.4 h -8.6 c -0.4,-3 -2.6,-4.9 -6.5,-4.9 -4,0 -6.6,1.9 -6.6,4.8 0,2.4 1.3,3.8 5.6,4.3 l 6.6,0.8 c 7.3,0.9 10.2,4.3 10.2,10.5 0,7.8 -6.7,12.6 -15.4,12.6 -10.1,0 -15.5,-5 -16.2,-11.8 h 8.8 z m 32.4,-20.2 h -7.1 v -6.6 h 7.2 v -14 h 8.7 v 14 h 8.6 v 6.5 h -8.6 v 19.3 c 0,3.4 1.7,4.8 5,4.8 h 3.6 v 7 h -5.1 c -8.3,0 -12.3,-3.8 -12.3,-11.2 z m 0,0"
   id="path4"
   inkscape:connector-curvature="0"
   style="fill:#dc1928" />
</g>
</svg>