<svg role="img" focusable="false" aria-hidden="true" xmlns="http://www.w3.org/2000/svg" viewBox="0 0 100 100"><circle style="opacity:1;fill:#ffffff;fill-opacity:1;stroke:none;stroke-width:58.89323425;stroke-linecap:round;stroke-linejoin:bevel;stroke-miterlimit:4;stroke-dasharray:none;stroke-opacity:1;paint-order:markers stroke fill" cx="50" cy="50" r="50"/><path style="fill:#39393c;stroke-width:0.78762478" d="m 59.966606,13.163834 h 1.827289 c 1.32951,0 2.658234,0 3.986957,0.16601 -3.986957,10.29903 -5.815035,15.78083 -8.471693,26.74456 0.331585,-10.29968 0.664753,-16.6118 2.657447,-26.9107 z m -4.817114,0.83006 c -0.997128,8.638 -0.498571,14.78463 -0.664752,24.25256 -2.658234,-9.13643 -2.824422,-13.78738 -3.489178,-23.25531 1.329511,-0.49804 2.82521,-0.83007 4.153934,-0.99738 z m -4.651712,19.60173 c -3.156014,-6.14586 -4.817114,-9.3027 -6.145836,-15.44855 1.328722,-0.83136 2.492044,-1.66104 3.986956,-2.32587 0.332376,6.14586 0.332376,8.14009 2.15888,17.77442 z M 39.867208,21.800914 c 0.663974,-0.49804 1.328722,-0.99608 1.827289,-1.49411 0.997128,2.98979 1.494912,4.8171 2.325856,7.80689 -1.4957,-2.49201 -3.1568,-3.48835 -4.153145,-6.31278 z"/><path style="fill:#1c7553;stroke-width:0.78762478" d="m 31.229326,29.774854 c 1.827289,-1.82731 2.159667,-2.82364 4.817113,-4.48481 -2.657446,-9.46806 -6.644403,-17.7742901 -10.963738,-21.7611921 2.824423,8.8040021 5.48187,14.6182221 6.146625,26.2460021 z"/><path style="fill:#1d5b99;stroke-width:0.78762478" d="m 10.465172,82.600064 c 9.302637,-6.47982 26.910778,2.6566 38.206105,3.32143 12.126273,1.3294 27.907912,-10.79759 41.529883,-3.32143 -14.950695,-2.32587 -24.585709,6.312 -39.370216,7.14219 -13.95356,-0.16601 -21.761285,-6.81146 -40.365772,-7.14219 z"/><path style="fill:#1d5b99;stroke-width:0.78762478" d="m 86.047225,86.420044 c -8.471691,1.16339 -21.262719,9.63421 -32.392645,9.96662 -18.106708,0.99738 -27.242368,-7.14219 -33.886771,-8.30558 6.644403,-1.49489 19.600832,5.81344 33.222804,4.65018 12.790239,-0.99478 23.256197,-8.47094 33.056612,-6.31122 z m 7.142183,-7.4746 c -15.780063,-5.98127 -23.422387,0.16601 -38.538483,2.15972 -19.269241,2.15804 -17.608141,-7.47616 -48.6712769,-4.15317 10.6313609,-6.97605 27.5747449,-2.49201 37.8737289,-0.33203 18.605273,3.65462 32.393433,-10.63209 49.336031,2.32587 z"/><path style="fill:#1c7553;stroke-width:0.78762478" d="M 96.678586,30.771974 C 98.838253,36.419264 100,42.399624 100,48.711624 c 0,9.13655 -2.324282,17.77441 -6.644403,25.08275 -15.281496,-6.312 -28.2395,-3.65462 -40.033394,0.16601 2.325855,-4.98324 2.990611,-15.78083 6.644403,-25.41503 -0.496989,-1.4949 -1.493338,-2.65829 -1.163323,-4.48469 0.997128,-1.32953 2.658233,-2.49214 3.655366,-3.82076 3.655367,-18.43912 6.145836,-26.7447 13.621972,-35.3825601 C 71.26272,17.482244 69.600831,25.455404 69.104628,42.233354 72.259852,30.438654 74.253331,16.651274 82.060267,8.5119639 78.572665,21.303004 76.579188,28.943754 75.582054,43.063554 c 4.15157,-14.78463 7.142181,-21.76055 12.791026,-29.56835 -2.990611,10.46518 -5.150278,18.27298 -4.98409,30.39919 3.156801,-9.80034 4.98409,-15.61456 10.465171,-23.08994 -1.993477,8.30544 -3.156799,12.62477 -3.322988,20.76407 1.828076,-3.98613 3.821555,-7.97303 6.147411,-10.79668 z"/><path style="stroke-width:0.78762478" d="m 33.222805,40.074534 c 0.166194,0.16602 0.332376,0.16602 0.332376,0.33203 0.165403,0.83006 0.332376,1.66117 0.332376,2.6575 h -0.166195 c -0.165403,-0.49803 -0.331585,-0.99607 -0.663961,-1.32953 -0.166194,0 -0.498571,0 -0.664752,-0.16601 -0.331585,-0.16601 -0.830156,-0.49804 -0.830156,-0.83006 0,-0.16602 0,-0.33203 -0.166195,-0.33203 -0.332376,-0.16601 -0.830946,-0.33203 -1.162531,-0.49804 h -0.166195 c 0,-0.16601 0.166195,-0.16601 0.166195,-0.16601 h 0.497779 c 0.830156,-0.16731 1.826502,-7.8e-4 2.491259,0.33202 z m 7.30837,-0.49804 0.664753,0.16602 h 0.166194 l -0.166194,0.16601 c -0.332377,0.16601 -0.830947,0.16601 -1.162532,0.33203 l -0.166195,0.16601 c -0.166195,0.16601 -0.332376,0.49804 -0.332376,0.66535 -0.166195,0.16601 -0.49778,0.33202 -0.664753,0.49804 -0.332376,0.16601 -0.497779,0.16601 -0.664752,0.16601 -0.331585,0.33203 -0.498571,0.83136 -0.663974,1.16339 0,-0.83007 0,-1.66104 0.165403,-2.49123 0.166195,-0.33203 0.498571,-0.33203 0.830947,-0.49804 0.664753,-0.16602 1.163323,-0.16602 1.993479,-0.33203 0,0.16601 0,0 0,0 z"/><path style="fill:#1c7553;stroke-width:0.78762478" d="m 3.322202,30.439554 c 2.1596672,1.82654 3.9869569,4.48469 5.4818692,8.13931 0.3315902,-5.31566 -1.1633218,-8.80401 -2.9906119,-13.28882 2.9906119,-5.81422 7.4753477,-11.1291 12.6248387,-15.28228 4.983303,6.14586 8.80407,12.45863 12.457862,20.26565 -3.322202,-0.66535 -4.983302,-0.66535 -7.474559,-0.33202 1.328723,2.32509 2.15888,3.65462 4.484736,5.31565 0.498571,2.98979 0.830947,4.8171 1.32951,7.80702 0,0 2.823634,2.32574 4.983303,8.63787 1.162532,0.16601 1.328722,0.16601 2.492044,0.49804 0.664752,-0.49804 1.329511,-0.99738 1.661102,-1.32953 0.497779,-4.48482 3.654578,-7.14297 5.813458,-10.79681 3.489178,2.6575 5.481081,4.48481 8.305504,8.80413 -0.166194,7.14297 -0.997128,12.62477 -2.492045,20.93035 -2.491257,0.33203 -3.653792,1.32953 -3.653792,3.15515 C 33.554393,69.974254 20.597965,67.813754 5.6480581,72.134504 1.9926912,65.156504 3.996808e-7,57.182564 3.996808e-7,48.710844 -7.8722515e-4,42.234264 1.1625347,35.589074 3.322202,30.439554 Z"/></svg>
