<svg role="img" focusable="false" aria-hidden="true" xmlns="http://www.w3.org/2000/svg" viewBox="0 0 14 14"><path d="M 10.333984,7 H 7.75 V 3.25 C 7.75,2.83579 7.4142109,2.5 7,2.5 v 0 C 6.5857891,2.5 6.25,2.83579 6.25,3.25 V 7 H 3.6660156 C 3.5107422,7 3.3642578,7.0879 3.2939453,7.23145 3.2236333,7.37207 3.2382813,7.53906 3.3349613,7.66797 L 4.9169922,9.49902 5.5,10.08203 V 13 h 3 V 10.08203 L 9.0830078,9.49902 10.665039,7.66797 c 0.09668,-0.12891 0.111328,-0.2959 0.04102,-0.43652 C 10.635742,7.08789 10.489258,7 10.333984,7 Z M 4.5625,4.5625 C 4.8730469,4.5625 5.125,4.31055 5.125,4 5.125,3.68945 4.8730469,3.4375 4.5625,3.4375 4.2519531,3.4375 4,3.68945 4,4 4,4.31055 4.2519531,4.5625 4.5625,4.5625 Z M 3.0625,3.25 C 3.3730469,3.25 3.625,2.99805 3.625,2.6875 3.625,2.37695 3.3730469,2.125 3.0625,2.125 2.7519531,2.125 2.5,2.37695 2.5,2.6875 2.5,2.99805 2.7519531,3.25 3.0625,3.25 Z M 3.625,5.3125 C 3.625,5.00195 3.3730469,4.75 3.0625,4.75 2.7519531,4.75 2.5,5.00195 2.5,5.3125 2.5,5.62305 2.7519531,5.875 3.0625,5.875 3.3730469,5.875 3.625,5.62305 3.625,5.3125 Z M 1.5625,3.4375 C 1.2519531,3.4375 1,3.68945 1,4 1,4.31055 1.2519531,4.5625 1.5625,4.5625 1.8730469,4.5625 2.125,4.31055 2.125,4 2.125,3.68945 1.8730469,3.4375 1.5625,3.4375 Z M 1.5625,1 C 1.2519531,1 1,1.25195 1,1.5625 1,1.87305 1.2519531,2.125 1.5625,2.125 1.8730469,2.125 2.125,1.87305 2.125,1.5625 2.125,1.25195 1.8730469,1 1.5625,1 Z m 0,4.875 C 1.2519531,5.875 1,6.12695 1,6.4375 1,6.74805 1.2519531,7 1.5625,7 1.8730469,7 2.125,6.74805 2.125,6.4375 2.125,6.12695 1.8730469,5.875 1.5625,5.875 Z M 9.4375,4.5625 C 9.7480469,4.5625 10,4.31055 10,4 10,3.68945 9.7480469,3.4375 9.4375,3.4375 9.1269531,3.4375 8.875,3.68945 8.875,4 c 0,0.31055 0.2519531,0.5625 0.5625,0.5625 z m 1.5,0.1875 c -0.310547,0 -0.5625,0.25195 -0.5625,0.5625 0,0.31055 0.251953,0.5625 0.5625,0.5625 C 11.248047,5.875 11.5,5.62305 11.5,5.3125 11.5,5.00195 11.248047,4.75 10.9375,4.75 Z m 0,-2.625 c -0.310547,0 -0.5625,0.25195 -0.5625,0.5625 0,0.31055 0.251953,0.5625 0.5625,0.5625 C 11.248047,3.25 11.5,2.99805 11.5,2.6875 11.5,2.37695 11.248047,2.125 10.9375,2.125 Z m 1.5,1.3125 c -0.310547,0 -0.5625,0.25195 -0.5625,0.5625 0,0.31055 0.251953,0.5625 0.5625,0.5625 C 12.748047,4.5625 13,4.31055 13,4 13,3.68945 12.748047,3.4375 12.4375,3.4375 Z m 0,2.4375 C 12.126953,5.875 11.875,6.12695 11.875,6.4375 11.875,6.74805 12.126953,7 12.4375,7 12.748047,7 13,6.74805 13,6.4375 13,6.12695 12.748047,5.875 12.4375,5.875 Z m 0,-3.75 C 12.748047,2.125 13,1.87305 13,1.5625 13,1.25195 12.748047,1 12.4375,1 12.126953,1 11.875,1.25195 11.875,1.5625 c 0,0.31055 0.251953,0.5625 0.5625,0.5625 z"/></svg>
