<svg role="img" focusable="false" aria-hidden="true" xmlns="http://www.w3.org/2000/svg" viewBox="0 0 14 14"><path d="M 1,13.006719 1.912548,4.7121974 C 2.081452,7.4139474 2.015125,10.531923 2.805164,12.134839 3.08646,10.002827 3.19948,7.9127774 3.070318,5.8835774 3.452534,7.6833174 3.962607,9.4403874 4.061142,11.334759 4.24679,9.9305474 4.379141,8.5351174 4.859415,7.0818174 4.840335,8.7183774 4.428622,10.217366 5.177665,11.035009 5.539998,9.7544374 5.905494,8.4768674 5.967452,6.8957874 c 0.533973,1.55302 0.460467,3.4096976 0.626307,5.1469216 0.211305,-1.708604 0.383597,-6.4729416 1.177577,-7.9874916 -0.07808,3.13756 -0.09695,5.6219 0.687813,6.8844026 0.775653,-0.9708626 0.842657,-2.8729526 0.860582,-4.6779726 0.547579,1.55021 0.915235,3.31631 0.950381,5.4813116 0.216551,-1.8063816 0.468625,-3.6127816 1.089284,-5.4190516 -0.144301,2.21648 -0.03223,3.9401476 0.490165,4.8745316 0.345438,-1.3945416 0.640265,-2.7891016 0.731043,-4.1839016 0.462425,2.07815 0.326359,4.0064116 0.419396,5.9921816 z"/></svg>
