<svg role="img" focusable="false" aria-hidden="true" xmlns="http://www.w3.org/2000/svg" viewBox="0 0 14 14"><path d="M 7.811523,5.125 C 7.336914,5.125 5.306641,5.1719 4,7.14062 V 5.125 C 4,3.88281 2.992187,2.875 1.75,2.875 1.336914,2.875 1,3.21191 1,3.625 c 0,0.41309 0.336914,0.75 0.75,0.75 0.413086,0 0.75,0.33691 0.75,0.75 v 6 c 0,0.82617 0.673828,1.5 1.5,1.5 h 4.125 c 0.208008,0 0.375,-0.16699 0.375,-0.375 v -0.375 c 0,-0.41309 -0.336914,-0.75 -0.75,-0.75 H 7 l 3,-2.25 v 3.375 c 0,0.20801 0.166992,0.375 0.375,0.375 h 0.75 c 0.208008,0 0.375,-0.16699 0.375,-0.375 V 7.41895 C 11.259766,7.48045 11.010742,7.52441 10.75,7.52441 9.302734,7.52441 8.089844,6.49316 7.811523,5.125 Z M 11.5,2.875 H 10 l -1.5,-1.5 v 3.14941 c 0,1.24219 1.007812,2.25 2.25,2.25 1.242187,0 2.25,-1.00781 2.25,-2.25 V 1.375 Z M 9.8125,4.75 C 9.604492,4.75 9.4375,4.58301 9.4375,4.375 9.4375,4.16699 9.604492,4 9.8125,4 c 0.208008,0 0.375,0.16699 0.375,0.375 0,0.20801 -0.166992,0.375 -0.375,0.375 z m 1.875,0 c -0.208008,0 -0.375,-0.16699 -0.375,-0.375 0,-0.20801 0.166992,-0.375 0.375,-0.375 0.208008,0 0.375,0.16699 0.375,0.375 0,0.20801 -0.166992,0.375 -0.375,0.375 z"/></svg>
