<svg role="img" focusable="false" aria-hidden="true" xmlns="http://www.w3.org/2000/svg" viewBox="0 0 14 14"><path d="m 12.25,7 h -1.5 V 5.81055 l 1.280273,-1.28028 c 0.292969,-0.29297 0.292969,-0.76757 0,-1.06054 -0.292968,-0.29297 -0.767578,-0.29297 -1.060546,0 L 9.6894531,4.75 H 4.3105469 L 3.0302734,3.46973 c -0.2929687,-0.29297 -0.7675781,-0.29297 -1.0605468,0 -0.2929688,0.29297 -0.2929688,0.76757 0,1.06054 L 3.25,5.81055 V 7 H 1.75 C 1.3354375,7 1,7.33581 1,7.75 1,8.16419 1.3354375,8.5 1.75,8.5 h 1.5 v 0.75 c 0,0.35412 0.072375,0.68897 0.1850391,1.00441 l -1.4653125,1.46532 c -0.2929688,0.29297 -0.2929688,0.76757 0,1.06054 C 2.1162109,12.92676 2.3080937,13 2.5,13 2.6919063,13 2.8837891,12.9268 3.0302734,12.78027 L 4.2988281,11.51172 C 4.8245313,11.96563 5.5009609,12.25 6.25,12.25 H 6.6285625 V 6.62322 C 6.6285625,6.41709 6.7956484,6.25 7.0017813,6.25 7.2079141,6.25 7.375,6.41709 7.375,6.62322 V 12.25 H 7.75 c 0.7490859,0 1.4254688,-0.28437 1.9511719,-0.73828 l 1.2685551,1.26855 C 11.116211,12.92676 11.308094,13 11.5,13 c 0.191906,0 0.383789,-0.0732 0.530273,-0.21973 0.292969,-0.29297 0.292969,-0.76757 0,-1.06054 L 10.564961,10.25441 C 10.677625,9.93897 10.75,9.60412 10.75,9.25 V 8.5 h 1.5 C 12.664562,8.5 13,8.16419 13,7.75 13,7.33581 12.664562,7 12.25,7 Z m -3,-3.75 C 9.25,2.00734 8.2426562,1 7,1 5.7573438,1 4.75,2.00734 4.75,3.25 V 4 h 4.5 z"/></svg>
