<svg role="img" focusable="false" aria-hidden="true" xmlns="http://www.w3.org/2000/svg" viewBox="0 0 14 14"><path d="M 13,8.2 12.069531,7.89063 C 11.55625,7.71953 10.991406,7.91173 10.691406,8.36172 L 10,9.4 9.7773438,9.17734 C 9.2617188,8.66172 8.4085937,8.72266 7.9703125,9.30625 L 7,10.6 6.0296875,9.30625 C 5.5914062,8.72266 4.7382813,8.66172 4.2226563,9.17734 L 4,9.4 3.3085938,8.36172 C 3.0085937,7.91172 2.44375,7.71953 1.9304688,7.89063 L 1,8.2 2.528125,4.63281 C 2.6734375,4.29766 3.0765625,4.16641 3.3882813,4.35391 L 5.2773437,5.48594 5.8,3.4 6.5992187,4 H 7.4007812 L 8.2,3.4 8.7226562,5.48594 10.609375,4.35391 c 0.314063,-0.1875 0.717188,-0.0563 0.8625,0.2789 z"/></svg>
