<svg role="img" focusable="false" aria-hidden="true" xmlns="http://www.w3.org/2000/svg" viewBox="0 0 14 14"><path d="m 10.002088,1 c 0,0 -1.0895012,0.88053 -1.5647222,2.26481 -0.190542,0.55573 -0.315972,1.08647 -0.372757,1.53166 -0.630936,0.13199 -1.785801,0.85429 -1.785801,0.85429 l -0.883311,-0.0956 0.304869,0.46159 -0.910567,0.1441 0.399508,0.37579 -0.766461,-0.0341 0.08505,0.32354 -0.681411,-0.0172 0.06814,0.52489 L 3.2982638,7.21899 3.3664038,7.8151 2.8894158,7.72 2.8725058,8.20678 2.1229538,8.08766 2.1910938,8.6497 1.2844188,8.91368 V 13 h 4.503874 l 1.705975,-2.92083 -0.908548,-1.15542 0.318749,-0.24783 1.1213,1.42667 c 0.113568,0.11281 0.233446,0.2178 0.315468,0.25237 0.44645,0.18853 1.343894,0.21074 1.7587972,0.45958 0.233447,0.13931 0.514339,0.67717 0.770247,0.7703 0.04442,0.013 0.09073,0.0187 0.137039,0.0169 0.224109,0 0.571628,-0.0785 0.571628,-0.0785 l 0.315216,0.30688 0.294269,-0.25237 -0.772014,-0.79044 0.288717,-0.2824 0.817188,0.8351 0.05527,-0.0391 c 0,0 0.246317,-1.36615 0.08076,-1.77954 C 12.461754,9.03 11.504195,8.41572 11.213964,7.97305 10.974966,7.60964 10.784978,6.72355 10.520742,6.37855 10.264078,6.04239 9.7340908,5.53012 9.2041048,5.1768 9.4309898,4.79218 9.6561078,4.29954 9.8453878,3.74785 10.320609,2.36282 10.002113,1 10.002113,1 Z m 1.660371,0.54765 c 0,0 -0.555224,0.28695 -1.159408,0.85303 A 5.4027055,5.4027055 0 0 1 10.227458,3.87984 C 10.090419,4.2841 9.9245578,4.6781 9.7312898,5.05869 c 0.08278,0.0633 0.163286,0.12871 0.241775,0.19458 A 9.0240765,9.0240765 0 0 0 10.804386,4.14554 C 11.594823,2.91471 11.662459,1.5476 11.662459,1.5476 Z M 9.4811868,6.94872 c 0.343153,0 0.514919,0.41483 0.272312,0.65743 -0.242608,0.24259 -0.657435,0.0708 -0.657435,-0.27236 0,-0.21268 0.172447,-0.38512 0.385123,-0.38512 z m 2.6999012,2.5722 c 0.06789,0 0.123159,0.17666 0.123159,0.39623 0,0.21956 -0.05527,0.39622 -0.123159,0.39622 -0.06789,0 -0.123158,-0.17742 -0.123158,-0.39622 0,-0.21881 0.05527,-0.39623 0.123158,-0.39623 z"/></svg>
