<svg role="img" focusable="false" aria-hidden="true" xmlns="http://www.w3.org/2000/svg" viewBox="0 0 14 14"><path d="m 7.234352,5.8750545 3.515648,1.2539 v 5.1210505 c 0,0.20801 -0.166992,0.375 -0.375,0.375 h -1.5 c -0.208008,0 -0.375,-0.16699 -0.375,-0.375 V 9.6250245 H 4.75 v 2.6249805 c 0,0.20801 -0.166992,0.375 -0.375,0.375 h -1.5 c -0.208008,0 -0.375,-0.16699 -0.375,-0.375 V 7.2373545 C 1.629883,6.9268045 1,6.1006345 1,5.1250545 c 0,-0.41309 0.336914,-0.75 0.75,-0.75 0.413086,0 0.75,0.33691 0.75,0.75 0,0.41308 0.336914,0.75 0.75,0.75 z M 13,3.2500745 v 0.75 c 0,0.82908 -0.670898,1.49998 -1.5,1.49998 h -0.75 v 0.83496 l -3,-1.07227 v -3.51267 c 0,-0.33398 0.404297,-0.50098 0.638672,-0.26367 l 0.641601,0.63867 h 1.256836 c 0.254883,0 0.556641,0.18457 0.670899,0.41602 l 0.166992,0.33398 h 1.5 c 0.208008,0 0.375,0.16699 0.375,0.375 z m -2.625,0 c 0,-0.20801 -0.166992,-0.375 -0.375,-0.375 -0.208008,0 -0.375,0.16699 -0.375,0.375 0,0.20801 0.166992,0.375 0.375,0.375 0.208008,0 0.375,-0.16699 0.375,-0.375 z"/></svg>
