<svg role="img" focusable="false" aria-hidden="true" xmlns="http://www.w3.org/2000/svg" viewBox="0 0 14 14"><path d="m 9.8746675,1.0000887 c -0.07168,-8.8999e-4 -0.147718,0.005 -0.2288,0.0184 -2.058928,0.34137 -0.974628,3.58757 -0.910034,5.48105 -2.121933,-0.41164 -4.235823,3.05189 -7.289295,3.8521003 1.464475,1.32296 5.19497,2.25901 8.363863,0.29876 1.0035455,-0.62077 1.1411035,-2.3198703 0.8658615,-4.1612403 -0.168996,-1.13064 -1.8090995,-3.35766 -0.258904,-3.56163 l 0.0154,-0.0127 c 0.324834,-0.26746 0.418673,-0.60111 0.567829,-0.95048 l 0.04283,-0.10024 c -0.29468,-0.4038 -0.584167,-0.85686 -1.1687615,-0.86402 z m 0.1280785,0.49479 a 0.22690962,0.22690962 0 0 1 0.22691,0.22691 0.22690962,0.22690962 0 0 1 -0.22691,0.2269 0.22690962,0.22690962 0 0 1 -0.2269105,-0.2269 0.22690962,0.22690962 0 0 1 0.2269105,-0.22691 z m 1.328758,0.86155 c -0.0827,0.2059 -0.186848,0.43995 -0.368401,0.6629 0.530338,0.19237 1.057122,0.0776 1.590359,-0.0218 -0.391167,-0.23377 -0.806865,-0.45873 -1.221958,-0.64114 z m -2.2592135,4.56474 c 0.481779,0.6536 0.538885,1.36057 0.293394,1.97116 -0.245491,0.61061 -0.765064,1.1294303 -1.403562,1.5250903 -1.276997,0.79138 -3.057935,1.12068 -4.300013,0.43138 l 0.220228,-0.39679 c 1.017665,0.56475 2.681114,0.29833 3.840773,-0.42029 0.579805,-0.3593203 1.02664,-0.8240403 1.221505,-1.3086603 0.194865,-0.48466 0.1663,-0.98462 -0.23765,-1.53265 l 0.365325,-0.26927 z m -1.636624,5.1293903 a 8.387588,8.387588 0 0 1 -0.481426,0.0815 l -0.08845,0.41413 h -0.329876 l 0.08844,-0.3742 a 10.090116,10.090116 0 0 1 -0.4753,0.038 l -0.186762,0.79001 h 2.415074 v -0.45382 h -1.047515 z"/></svg>
