<svg role="img" focusable="false" aria-hidden="true" xmlns="http://www.w3.org/2000/svg" viewBox="0 0 14 14"><path d="m 11.872602,11.499995 h -0.351539 c 0.427711,-0.43066 0.726539,-0.9873 0.726539,-1.5 0,-0.62109 -0.518555,-1.23633 -1.122046,-1.43261 v -2.31739 h 1.122046 c 0.47721,0 0.834843,-0.44179 0.735843,-0.90862 -0.242531,-1.1437 -1.042593,-2.09137 -2.235819,-2.09137 v -0.75 c -1.1249523,0 -1.7401863,1.4707 -2.0946548,2.5371 l -0.90314,2.71467 v -3.37677 c 0,-1.86396 -1.5109912,-3.375 -3.3749274,-3.375 -1.8639362,0 -3.37490386,1.51104 -3.37490386,3.375 0,1.60556 1.12359296,2.94323 2.62560756,3.28495 -0.2407264,0.50074 -0.3839529,1.05616 -0.3751638,1.65276 0.03068,2.07937 1.8640065,3.68728 3.9435676,3.68728 h 5.4285667 c 0.205078,0 0.375,-0.16699 0.375,-0.375 0,-0.61875 -0.506227,-1.125 -1.124976,-1.125 z m -1.124976,-6.74999 c 0,-0.20801 0.166992,-0.375 0.375,-0.375 0.208008,0 0.375,0.16699 0.375,0.375 0,0.208 -0.166992,0.375 -0.375,0.375 -0.208008,0 -0.375,-0.167 -0.375,-0.375 z"/></svg>
