<svg role="img" focusable="false" aria-hidden="true" xmlns="http://www.w3.org/2000/svg" viewBox="0 0 14 14"><path d="m 8.6556796,1.0000495 c -0.248908,-0.002 -0.503495,0.057 -0.758134,0.22548 -1.966081,1.30081 -0.475149,3.00913 -0.05303,4.34936 0.31099,0.072 0.682284,0.0915 1.061953,0.0467 0.445259,-0.0525 0.898945,-0.19007 1.2830644,-0.40216 -0.161751,-0.30538 0.09475,-0.77472 0.236475,-1.01363 l 2.182742,-0.21965 c 0.316906,-0.19912 0.562358,-0.50402 0.106133,-0.63373 l -2.169368,-0.29963 c 0.183552,-0.74123 -0.5863594,-1.71717 -1.0740194,-1.88238 -0.259062,-0.0878 -0.53375,-0.16822 -0.815819,-0.17039 z m 0.760149,1.28798 c 0.216871,0 0.392598,0.17578 0.392598,0.3926 0,0.21684 -0.175727,0.3926 -0.392598,0.3926 -0.216793,0 -0.392599,-0.17576 -0.392599,-0.3926 0,-0.21682 0.175806,-0.3926 0.392599,-0.3926 z m 1.1264434,3.27309 c -0.473578,0.2911 -1.0324294,0.46379 -1.5805494,0.52839 -0.373335,0.044 -0.742587,0.0393 -1.080509,-0.0215 -2.015731,0.49454 -3.506951,0.96516 -5.528833,0.96516 -0.633654,-0.0815 -0.827493,-0.31397 -1.318293,-0.52556 0.424975,1.48874 0.09794,2.50284 1.685085,3.43375 2.751984,1.3138095 5.717411,1.3486195 8.3754334,0 0.574764,-0.29163 0.885649,-2.71508 0.470751,-3.32699 -0.216452,-0.31921 -0.723846,-0.78818 -1.023111,-1.05334 z m -0.7571914,1.4466 c 0.0072,0.73473 -0.349099,1.334 -0.878897,1.75465 -0.529746,0.42071 -1.229095,0.68176 -1.963333,0.80941 -0.734237,0.12762 -1.504777,0.12074 -2.185412,-0.0188 -0.680635,-0.1395 -1.278667,-0.40783 -1.645511,-0.85037 l 0.362656,-0.30065 c 0.261628,0.3156 0.763159,0.56351 1.377497,0.68946 0.614286,0.12589 1.334155,0.13366 2.010104,0.0161 0.67595,-0.11752 1.30662,-0.3613 1.751042,-0.71419 0.444421,-0.3529 0.70652,-0.79588 0.700762,-1.38103 l 0.471039,-0.005 z m -4.87814,4.1891495 -0.007,1.16306 c -0.295312,0.13121 -0.530007,0.33617 -0.719397,0.64007 h 3.768945 c -0.389772,-0.38977 -0.874395,-0.78056 -1.682258,-0.83171 l 0.0049,-0.76224 c -0.154055,-0.0147 -0.311775,-0.0327 -0.470751,-0.0539 l -0.0053,0.81831 c -0.151124,0.009 -0.292354,0.0241 -0.424137,0.0483 l 0.0055,-0.93087 c -0.16039,-0.0273 -0.318686,-0.0574 -0.470543,-0.0909 z"/></svg>
