<svg role="img" focusable="false" aria-hidden="true" xmlns="http://www.w3.org/2000/svg" viewBox="0 0 14 14"><path d="m 7.7146465,12.038509 0.20244,-0.51975 0.16138,0.51975 0.150465,-0.60628 -0.110445,-1.24739 c -0.20166,0.20634 -0.455814,0.46387 -0.772857,0.78663 z m 1.000505,-9.8974695 a 2.9900803,2.9900803 0 0 0 -0.549108,-0.50934 c -0.449968,-0.30873 -0.920413,-0.4915 -1.431372,-0.57536 -0.487285,-0.0797 -0.987252,-0.0713 -1.463856,0.003 a 5.2977383,5.2977383 0 0 0 -1.194369,0.33523 4.7868312,4.7868312 0 0 0 -0.769739,0.39917 c -0.319745,0.22341 -0.271072,0.17744 0.02469,0.0473 a 4.6672903,4.6672903 0 0 1 0.803003,-0.25987 c 1.310453,-0.12557 2.557394,-0.19696 3.486694,0.70607 a 2.0789712,2.0789712 0 0 1 0.319122,0.4158 c 0.122504,0.20945 0.20283,0.43858 0.251036,0.66501 l 1.187353,0.0738 c -0.130768,-0.46132 -0.39646,-0.97644 -0.663452,-1.30092 z m 1.3006565,0.69204 c -0.2216965,-0.34347 -0.4806325,-0.6608 -0.7707785,-0.90643 a 2.0332338,2.0332338 0 0 0 -0.410337,-0.26975 c 0.06939,0.0696 0.135653,0.14163 0.197762,0.21622 a 3.5896036,3.5896036 0 0 1 0.237262,0.3147 l 0.0026,0.004 0.0023,0.004 c 0.253946,0.39344 0.446043,0.87997 0.540013,1.27726 l 0.5766545,0.0338 a 6.5874801,6.5874801 0 0 0 -0.374994,-0.67333 z m 0.776756,1.11745 1.8191,4.66209 -0.307168,0.73726 -1.709175,-0.98596 -0.207897,0.36019 1.75569,1.01349 -0.112445,0.14953 -1.16846,-0.10951 -1.6977405,-0.81781 a 1.1021146,1.1021146 0 0 0 -0.24142,-0.0372 c -0.148387,0 -0.247398,0.0535 -0.330297,0.17203 -0.06575,0.0938 -2.03999,2.0924895 -3.836741,3.9053495 H 1.0359515 V 6.4442095 l 2.412906,0.10005 2.510618,-0.86433 0.263249,-0.28586 a 5.5796988,5.5796988 0 0 1 0.987512,0.63071 0.48258119,0.48258119 0 0 0 0.30171,0.10213 c 0.358415,-0.0409 0.572367,-0.237 0.853158,-0.46335 -0.0849,-0.55207 -0.174737,-1.1359 -0.248437,-1.6138 -0.167955,-0.056 -0.33591,-0.11195 -0.503891,-0.16788 l 0.114084,-0.12422 z m -0.9680215,1.68968 c -0.104572,-0.38214 -0.522706,-0.50485 -0.794687,-0.4714 -0.07986,0.0112 -0.160263,0.0371 -0.227907,0.0696 0.02256,0.0803 0.05639,0.20452 0.09849,0.26897 0.169618,0.23937 0.450825,0.36117 0.718285,0.3251 0.103091,-0.0175 0.232325,-0.0955 0.205818,-0.19231 z m 1.6015875,2.74087 0.493756,0.51974 0.301451,-0.28586 -0.493756,-0.51974 z m 1.537919,-3.77516 c 0,0 -1.053518,-0.72244 -1.481267,-0.0312 l 0.292356,0.74921 z m -4.7036725,5.4328795 0.348228,0.57899 -0.01039,-0.9261795 c -0.0855,0.0897 -0.195683,0.20322 -0.336534,0.3471895 z M 7.4651695,5.6989395 c 0.152233,0.0487 0.457634,-0.15717 0.450358,-0.20815 l -0.173335,-1.12603 -0.72764,-0.24194 c -0.458673,-0.0743 -1.513075,-0.12965 -1.748155,0.24116 1.028987,1.03252 1.027168,0.43841 2.198772,1.33496 z M 10.767615,10.191859 C 10.369674,9.9916495 9.9662245,9.8021595 9.5649305,9.6087095 c 0.133912,0.7636795 0.28313,1.5247195 0.409298,2.2897295 l 0.6564345,0.9701 -0.06757,-0.88357 0.451917,0.32926 v -0.74505 l 0.264809,-1.09016 0.173334,-0.28716 z"/></svg>
