<svg role="img" focusable="false" aria-hidden="true" xmlns="http://www.w3.org/2000/svg" viewBox="0 0 14 14"><path d="M 11.2,2.8000229 H 10.892969 C 10.61875,2.4367329 10.189844,2.2000029 9.7,2.2000029 c -0.8273438,0 -1.5,0.67269 -1.5,1.50005 v 0.39377 l -6.9726563,5.48696 C 1.084375,9.6862529 1,9.8550029 1,10.033153 c 0,0.42187 0.4429687,0.69377 0.8203125,0.50627 l 2.278125,-1.1391201 h 1.809375 l 0.8320312,2.2524301 c 0.044531,0.11719 0.1734375,0.1758 0.2882813,0.1336 l 0.4242187,-0.15469 c 0.1171875,-0.0422 0.1757813,-0.17109 0.1335938,-0.2883 L 6.86875,9.4003029 H 7.6 c 0.035156,0 0.070312,-0.005 0.1054687,-0.005 l 0.834375,2.2571201 c 0.044531,0.11719 0.1734375,0.1758 0.2882813,0.1336 l 0.4242188,-0.15469 c 0.1171875,-0.0422 0.1757812,-0.17109 0.1335937,-0.2883 L 8.6125,9.2526429 c 1.495313,-0.4383 2.5875,-1.81648 2.5875,-3.45249 v -1.50006 l 1.8,-0.30002 c 0,-0.6633 -0.80625,-1.20005 -1.8,-1.20005 z m -1.5,1.35005 c -0.2484375,0 -0.45,-0.20156 -0.45,-0.45002 0,-0.24845 0.2015625,-0.45002 0.45,-0.45002 0.2484375,0 0.45,0.20159 0.45,0.45002 0,0.24844 -0.2015625,0.45002 -0.45,0.45002 z"/></svg>
