<svg role="img" focusable="false" aria-hidden="true" xmlns="http://www.w3.org/2000/svg" viewBox="0 0 14 14"><path d="m 7.7500083,4.9188817 v -0.65923 c -0.6621084,-0.8526 -1.1044905,-1.86051 -1.2685527,-2.9358 -0.049805,-0.31642 -0.4453118,-0.43946997 -0.6503896,-0.19335 -0.4951165,0.58305 -0.8847643,1.26864 -1.1455061,2.0275 0.7998035,0.89655 1.8749971,1.51476 3.0644484,1.76088 z m 2.6249957,-2.42011 c -1.0371075,0 -1.8749969,0.84089 -1.8749969,1.87807 v 1.39172 c -2.4462852,-0.14649 -4.5234305,-1.65248 -5.460929,-3.79132 -0.1289061,-0.29299 -0.5449211,-0.30764 -0.6796865,-0.0205 -0.3896479,0.82331 -0.6093741,1.7433 -0.6093741,2.71309 0,1.65834 0.7998035,3.20829 1.9951142,4.35682 0.3076167,0.29885 0.6123037,0.54497 0.9111314,0.76764 L 1.2841979,10.638112 c -0.2519527,0.0645 -0.36328067,0.35452 -0.2226559,0.57427 0.407226,0.62993 1.4150369,1.69936 3.5888617,1.78725 0.1874997,0.006 0.3749994,-0.0615 0.5185539,-0.1846 l 1.5292945,-1.31552 h 1.801755 c 2.0712859,0 3.7499939,-1.6759203 3.7499939,-3.7473903 v -3.75323 L 13,2.4987717 Z m 0,2.25312 c -0.205078,0 -0.374999,-0.16995 -0.374999,-0.37505 0,-0.20801 0.169921,-0.37502 0.374999,-0.37502 0.205078,0 0.375,0.16701 0.375,0.37502 0,0.2051 -0.169922,0.37505 -0.375,0.37505 z"/></svg>
