<svg role="img" focusable="false" aria-hidden="true" xmlns="http://www.w3.org/2000/svg" viewBox="0 0 14 14"><path d="M 11.954669,4.00667 C 11.413169,3.97477 10.928706,4.32638 10.459375,4.50391 10.1875,3.85469 9.5476562,3.4 8.8,3.4 8.5890625,3.4 8.3875,3.4422 8.2,3.51016 V 3.25 C 8.2,3.00156 7.9984375,2.8 7.75,2.8 H 7.45 C 7.2015625,2.8 7,3.00156 7,3.25 V 4.16875 C 6.3625,3.69297 5.5234375,3.4 4.6,3.4 2.6125,3.4 1,4.74297 1,6.4 v 4.35 c 0,0.24853 0.2014687,0.45 0.45,0.45 h 0.9 c 0.2485312,0 0.45,-0.20147 0.45,-0.45 V 9.57344 C 3.4070312,9.84297 4.1265625,10 4.9,10 5.6734375,10 6.3929687,9.84297 7,9.57344 V 10.75 c 0,0.24853 0.2014687,0.45 0.45,0.45 h 0.9 c 0.2485312,0 0.45,-0.20147 0.45,-0.45 V 7.6 h 2.4 v 0.6 c 0,0.16569 0.134306,0.3 0.3,0.3 h 0.6 c 0.165694,0 0.3,-0.13431 0.3,-0.3 V 7.6 C 12.730469,7.6 13,7.33047 13,7 V 5.19876 C 13,4.59541 12.556975,4.04217 11.954669,4.00667 Z M 9.4,5.5 C 9.2335937,5.5 9.1,5.36641 9.1,5.2 9.1,5.03359 9.2335937,4.9 9.4,4.9 c 0.1664063,0 0.3,0.13359 0.3,0.3 0,0.16641 -0.1335937,0.3 -0.3,0.3 z"/></svg>
