<svg role="img" focusable="false" aria-hidden="true" xmlns="http://www.w3.org/2000/svg" viewBox="0 0 14 14"><path d="m 6.7080851,1.14069 c -0.11,0 -0.126506,0.0183 -0.147714,0.0808 -0.02121,0.0624 -0.01886,0.221 0.107359,0.45154 0.231302,0.42257 0.854535,1.04918 2.07784,1.70564 0.188834,-0.19755 0.412108,-0.34123 0.648904,-0.4414 C 8.7215361,2.56552 8.2310951,2.15605 7.8391111,1.82386 7.3391621,1.40024 7.0117781,1.1407 6.7080581,1.1407 Z m -1.750325,1.44359 c -0.100756,1.9e-4 -0.123601,0.0228 -0.133901,0.0358 -0.0103,0.0129 -0.02641,0.0497 -0.01281,0.13535 0.0272,0.17125 0.189099,0.47578 0.475388,0.7644 0.572657,0.5772 1.605569,1.11682 2.893051,0.91697 0.05625,-0.009 0.124789,-0.0163 0.207216,0.0315 0.0824,0.0478 0.124921,0.15741 0.125978,0.22079 0.002,0.12696 -0.03948,0.18155 -0.07189,0.25212 -0.06476,0.14116 -0.114885,0.30786 -0.115545,0.30292 v 8e-5 c 0.05229,0.39616 0.379623,0.69407 0.855592,0.9146 0.475995,0.2206 1.0762249,0.34344 1.5549139,0.38921 0.331503,0.0317 0.719156,0.0263 1.080186,-0.0367 -0.04107,-0.0717 -0.07067,-0.14727 -0.08742,-0.22491 C 11.681959,6.071 11.731319,5.85354 11.836616,5.67033 12.005432,5.37665 12.314962,5.15044 12.691258,5.06738 12.568713,4.8604 12.415691,4.63628 12.241647,4.4179 11.715551,3.75785 10.988921,3.1778 10.446319,3.16647 9.9058301,3.15517 9.2814341,3.32638 8.9312321,3.80671 c -0.05916,0.0811 -0.146842,0.10944 -0.211759,0.11779 -0.06489,0.008 -0.122095,0.003 -0.18276,-0.007 C 8.4154361,3.8973 8.2805321,3.8548 8.1243671,3.79794 7.8120641,3.68416 7.4211901,3.51033 7.0117751,3.32852 6.6023611,3.14674 6.1754101,2.95719 5.8036571,2.8151 5.4319041,2.67301 5.1025661,2.5844 4.9578101,2.58469 Z m 5.9270809,1.6352 a 0.4225668,0.4225668 0 0 1 0.410233,0.42241 0.422567,0.422567 0 0 1 -0.845134,0 0.4225668,0.4225668 0 0 1 0.434901,-0.42243 z M 1.3599741,5.45845 c -0.02123,1.6e-4 -0.05327,0.007 -0.106091,0.0328 a 0.23769383,0.23769383 0 0 0 -5.3e-5,0 c -0.112297,0.0555 -0.196414,0.1905 -0.234604,0.43115 -0.03822,0.2406 -0.01838,0.56175 0.04986,0.88554 0.06827,0.32387 0.183658,0.65189 0.319989,0.9147 0.07984,0.15389 0.168657,0.2791 0.251691,0.37326 0.131154,-0.45682 0.368241,-0.89355 0.73149,-1.27932 C 2.2889861,6.76278 2.2146381,6.69979 2.1513331,6.63049 1.9651391,6.42668 1.8448661,6.18486 1.7380621,5.97348 1.6312321,5.76211 1.5315331,5.58118 1.4570551,5.50852 c -0.03719,-0.0363 -0.05863,-0.0453 -0.07897,-0.0486 -0.0051,-8.4e-4 -0.01093,-0.001 -0.01804,-0.001 z m 11.5579939,0.0544 c -0.307814,0.0299 -0.562278,0.20838 -0.669293,0.39447 -0.05765,0.10028 -0.07379,0.19459 -0.05559,0.27876 0.01347,0.0623 0.04516,0.12669 0.116417,0.19253 0.313043,-0.12053 0.558766,-0.3016 0.690501,-0.55298 -0.0076,0.0111 0.0048,-0.0349 -0.01331,-0.1105 -0.01305,-0.0547 -0.0369,-0.12439 -0.06867,-0.2023 z m -5.2423639,0.204 c -0.06505,-1.1e-4 -0.129305,1.8e-4 -0.192796,9e-4 -1.889322,0.0213 -3.18478,0.35574 -4.030865,0.85007 -0.966965,0.565 -1.365841,1.32295 -1.448453,2.15086 -0.08261,0.82786 0.174309,1.73023 0.581029,2.49737 0.391931,0.73918 0.926848,1.34765 1.37255,1.64326 h 4.597104 c -0.0035,-0.0504 -0.01769,-0.0939 -0.03967,-0.13702 -0.04323,-0.0848 -0.129887,-0.17325 -0.264949,-0.25584 -0.270126,-0.16522 -0.716251,-0.2917 -1.183504,-0.38131 -0.46728,-0.0896 -0.955398,-0.14779 -1.337028,-0.21128 -0.190868,-0.0317 -0.353715,-0.0628 -0.489438,-0.10895 -0.06788,-0.0231 -0.129939,-0.0479 -0.19314,-0.0949 -0.06317,-0.0471 -0.140318,-0.14222 -0.140318,-0.26331 0,-0.0689 0.03354,-0.13158 0.06273,-0.16427 0.02924,-0.0326 0.05361,-0.046 0.07263,-0.0561 0.03808,-0.0202 0.06029,-0.0251 0.08253,-0.0305 0.04453,-0.0108 0.08552,-0.016 0.135353,-0.0215 0.09973,-0.0109 0.230141,-0.0198 0.388762,-0.0314 0.317189,-0.0231 0.742318,-0.0556 1.187624,-0.12381 C 7.7263671,10.84279 8.6681631,10.536 8.9791191,10.0168 9.1482251,9.73447 9.1293941,9.4709 8.9643291,9.19396 8.7991851,8.91699 8.4673381,8.64652 8.0209491,8.47095 7.1281971,8.11977 5.8006241,8.14177 4.5157571,9.06439 L 4.2384481,8.67808 c 0.88018,-0.632 1.795645,-0.88897 2.614632,-0.89214 0.491445,-0.002 0.947923,0.0879 1.341174,0.24263 0.524353,0.20627 0.941954,0.52636 1.177747,0.92188 0.235845,0.39553 0.26928,0.88573 0.01487,1.31062 -0.46588,0.77779 -1.544376,1.04453 -2.479305,1.18768 -0.155743,0.0238 -0.298834,0.0388 -0.444858,0.0553 0.222455,0.033 0.457376,0.0688 0.692482,0.11391 0.489755,0.0939 0.97436,0.21788 1.342759,0.44316 0.184212,0.1127 0.343071,0.25502 0.439918,0.44489 0.05435,0.1067 0.08462,0.22694 0.089,0.35324 h 3.4507859 c 0.05472,-0.0465 0.09072,-0.0859 0.101522,-0.10731 0.01421,-0.0281 0.01215,-0.0311 0.0066,-0.0545 -0.01117,-0.0467 -0.09685,-0.16282 -0.205473,-0.29381 -0.06674,-0.0804 -0.290964,-0.20909 -0.571997,-0.27979 -0.281007,-0.0707 -0.616525,-0.0964 -0.904558,-0.0586 l -0.06191,0.007 -0.05858,-0.0231 c -0.176078,-0.0717 -0.313333,-0.25491 -0.323528,-0.43083 -0.01019,-0.17589 0.04992,-0.32622 0.124658,-0.48772 0.149351,-0.323 0.390927,-0.69634 0.585941,-1.12826 0.195015,-0.43186 0.34088,-0.91168 0.30953,-1.42201 -0.03045,-0.49467 -0.223617,-1.02816 -0.735266,-1.60787 -0.01643,-0.001 -0.03296,-0.003 -0.04912,-0.004 h -5.3e-5 C 10.180284,6.91925 9.5459321,6.79361 9.0030391,6.54202 8.6007291,6.35557 8.2354201,6.08864 8.0413031,5.72135 c -0.123917,-0.003 -0.246462,-0.005 -0.365784,-0.005 z"/></svg>
