<svg role="img" focusable="false" aria-hidden="true" xmlns="http://www.w3.org/2000/svg" viewBox="0 0 14 14"><path d="m 11.274197,4.035705 -0.325874,-0.27933 c 0.211312,-0.56831 0.614764,-1.26881 1.225966,-2.10683 0.124476,-0.17185 0.07692,-0.35243 -0.01015,-0.46449 -0.108257,-0.14022 -0.277265,-0.20875 -0.476623,-0.17758 -1.212981,0.19029 -2.1940958,0.57738 -2.9044141,0.93946 C 7.9510262,1.344035 6.9571852,1.000015 5.9229147,1.000015 H 5.1249883 c -1.8639556,0 -3.3749904,1.51104 -3.3749904,3.37499 0,0.43081 0.088383,0.83923 0.2355227,1.21802 l -0.6515372,0.43437 c -0.20864,0.13913 -0.33398341,0.37326 -0.33398341,0.62402 v 0.34863 c 0,0.41424 0.33576471,0.75 0.74999791,0.75 h 3.7499893 l -4.68e-5,-5e-5 h 0.022148 l 2.4099541,1.44598 c 0.2499368,0.14997 0.5679359,-0.0301 0.5679359,-0.32156 v -1.12442 h 0.068016 c 0.019547,0 0.037266,0.005 0.056531,0.006 0.021258,-0.001 0.041437,-0.006 0.062953,-0.006 0.7248729,0 1.3124963,0.58763 1.3124963,1.3125 0,0.72487 -0.5876234,1.3125 -1.3124963,1.3125 H 7.2291777 l -0.306257,-0.4995 C 6.8196554,9.719515 6.6439215,9.624995 6.4549455,9.624995 h -1.423871 c -0.2240619,0 -0.3577724,0.2497 -0.2335306,0.43619 l 0.8332477,1.25098 v 6.1e-4 l -0.8326149,1.24991 c -0.1245231,0.18699 0.00952,0.4373 0.23414,0.4373 h 1.4225819 c 0.1890229,-5e-5 0.3647568,-0.0945 0.4680221,-0.25052 l 0.306257,-0.49948 h 1.270801 c 2.4824933,0 4.5095963,-2.01754 4.4999873,-4.49999 0,-2.00931 -1.211387,-3.27338 -1.725769,-3.71429 z m -7.2742055,0.44046 c 0.043078,-0.26787 0.2650539,-0.47615 0.5450609,-0.47615 0.3106398,0 0.5624985,0.25181 0.5624985,0.56249 0,0.31064 -0.2518587,0.5625 -0.5624985,0.5625 -0.280007,0 -0.5019829,-0.20829 -0.5450609,-0.47615 z"/></svg>
