<svg role="img" focusable="false" aria-hidden="true" xmlns="http://www.w3.org/2000/svg" viewBox="0 0 14 14"><path d="M 12.399981,2.8 H 11.79998 L 11.551318,2.55134 C 11.326355,2.32637 11.021218,2.2 10.703087,2.2 H 10.318712 C 10.108524,2.2 9.9020677,2.2549 9.7196114,2.35915 L 6.8499045,4 H 5.7998854 C 3.8116162,4 2.199772,5.61177 2.199772,7.6 v 0.0305 c 0,0.61292 -0.2972813,1.16465 -0.7388439,1.58972 C 1.1179718,9.55037 0.93204675,10.03796 1.0229468,10.56557 1.1484405,11.29405 1.8261595,11.8 2.5654534,11.8 h 2.034413 c 0.3304688,0 0.6000001,-0.26953 0.6000001,-0.6 0,-0.33047 -0.2695313,-0.6 -0.6000001,-0.6 h -2.100038 c -0.1664063,0 -0.3000189,-0.13359 -0.3000189,-0.3 0,-0.16641 0.1336126,-0.3 0.3000189,-0.3 h 4.2000573 c 0.166425,0 0.3000188,-0.13359 0.3000188,-0.3 0,-0.495 -0.4050376,-0.9 -0.900019,-0.9 H 5.1998665 L 8.0030485,7.29062 9.3999426,10 h 1.5000194 c 0.166406,0 0.3,-0.13359 0.3,-0.3 0,-0.495 -0.405038,-0.9 -0.9,-0.9 H 10.070255 L 9.0366425,6.73281 10.771055,5.8 h 0.428907 C 12.194068,5.8 13,4.99412 13,4 V 3.4 C 13,3.07 12.729981,2.8 12.399981,2.8 Z m -1.800019,0.3 c 0.166406,0 0.3,0.13359 0.3,0.3 0,0.1664 -0.133594,0.3 -0.3,0.3 -0.166407,0 -0.3,-0.1336 -0.3,-0.3 0,-0.16641 0.133593,-0.3 0.3,-0.3 z m 0.6,1.8 h -0.65625 L 8.6358611,5.9289 8.3757048,5.41094 10.599962,4.3 h 1.443769 c -0.124219,0.34922 -0.452344,0.6 -0.843769,0.6 z"/></svg>
