<svg role="img" focusable="false" aria-hidden="true" xmlns="http://www.w3.org/2000/svg" viewBox="0 0 14 14"><path d="M 5.91877,9.2738211 5.98779,10.650951 H 5.316991 L 4.819515,9.2344511 Z m 3.848917,0.008 -0.0087,0.11197 0.463987,1.2567299 h 0.624784 L 10.703066,9.2059011 a 8.3379562,8.3379562 0 0 1 -0.934876,0.0759 z m 0.838244,-4.19454 a 2.3022944,2.3022944 0 0 0 0.33361,-0.0286 c 1.308877,-0.1948 0.932831,-1.26695 0.932831,-1.26695 0,0 -1.031764,0.23007 -1.350547,0.59871 5.12e-4,0 -0.71886,0.69687 0.08462,0.69687 z m 2.092414,-0.64754 c 0,0 -0.174091,0 -0.406979,0.021 a 1.2015083,1.2015083 0 0 1 -0.33949,0.58541 2.9794849,2.9794849 0 0 1 0.190196,0.3602 c 0.645491,-0.24107 0.55704,-0.96658 0.55704,-0.96658 z M 13,7.0007511 v 1.06065 c 0,0 -1.358727,0.81549 -3.438359,0.81549 -0.05598,0 -0.113504,-0.004 -0.170512,-0.005 L 9.251039,10.650631 H 8.765322 L 8.140282,8.9414211 3.983831,8.7913611 3.743529,10.650631 H 3.165016 c 0,0 -1.230907,-2.5967899 -0.592574,-4.6541799 -0.14188,-0.0982 -0.290918,-0.20886 -0.427686,-0.32467 -0.131143,0.0677 -0.262287,0.10507 -0.38346,0.0984 C 1.358407,5.7484811 1.036045,5.4447511 1,5.4099811 l 0.285294,-0.29296 c 0.06647,0.0639 0.286573,0.23339 0.497987,0.24464 a 0.20272257,0.20272257 0 0 0 0.04346,-0.003 1.1851473,1.1851473 0 0 1 -0.117339,-0.1654 c -0.144436,-0.25129 -0.178948,-0.51946 -0.09817,-0.73599 a 0.64165655,0.64165655 0 0 1 0.407491,-0.38013 c 0.288617,-0.0974 0.686393,-0.0856 0.888349,0.12526 0.07516,0.0785 0.185083,0.25155 0.07669,0.52918 -0.09177,0.23749 -0.27737,0.4944 -0.494919,0.69329 0.07337,0.0588 0.15185,0.11785 0.232377,0.17563 0.241835,-0.53301 0.635009,-1.01183 1.240365,-1.37432 a 6.107241,6.107241 0 0 1 3.169937,-0.87711 6.6246565,6.6246565 0 0 1 3.081485,0.76999 2.0691506,2.0691506 0 0 0 -0.198632,0.23647 c -0.194287,0.27277 -0.247204,0.52381 -0.157219,0.74621 0.07286,0.17895 0.26152,0.3942 0.747492,0.3942 a 2.6842206,2.6842206 0 0 0 0.393941,-0.0332 2.0576468,2.0576468 0 0 0 0.613536,-0.18355 c 0.402633,0.6575 0.440212,1.49984 0.715792,1.5594 0.326964,0.0695 0.672078,0.16208 0.672078,0.16208 z M 2.603374,4.5844411 c 0.01099,-0.0286 0.02684,-0.0795 0.0082,-0.0989 -0.03374,-0.0353 -0.122963,-0.0578 -0.228031,-0.0578 a 0.74595769,0.74595769 0 0 0 -0.234166,0.0363 c -0.08002,0.0268 -0.130888,0.0718 -0.155685,0.13753 -0.03732,0.10098 -0.01176,0.24593 0.0703,0.38832 a 0.92797341,0.92797341 0 0 0 0.122452,0.15978 c 0.170256,-0.14879 0.337189,-0.35892 0.416948,-0.56522 z m 8.465265,2.08474 a 0.23135425,0.23135425 0 1 0 -0.231354,0.23136 0.23135425,0.23135425 0 0 0 0.231354,-0.23136 z"/></svg>
