<svg role="img" focusable="false" aria-hidden="true" xmlns="http://www.w3.org/2000/svg" viewBox="0 0 14 14"><path d="m 11.167499,1.000035 c -0.140539,0.3516 -0.449725,0.67408 -0.679699,0.78881 L 9.723778,1.431875 c -0.140539,0.38124 -0.08432,0.62271 0.08943,0.84221 -0.240194,0.12444 -0.523827,0.13211 -0.835569,0.058 -0.03833,0.4027 0.278523,0.75099 0.669478,0.75099 0.153315,-0.19983 0.388399,-0.42622 0.69503,-0.58133 0.375623,-0.1896 0.881564,-0.23636 1.369618,0.0705 0.615817,-0.0399 0.802351,-0.70193 0.802351,-1.12866 -0.518718,0.20672 -0.661812,0.38866 -1.183085,0.45305 0.268302,-0.26115 0.06899,-0.67868 -0.163536,-0.89664 z M 2.21541,2.738125 c 0.684553,0.41906 1.347643,0.7078 1.498403,1.28018 -0.897662,-0.28874 -1.689536,0.19675 -2.227929,1.04766 0.704484,-0.23764 1.150121,-0.40118 1.905967,-0.32963 -0.685065,0.29896 -1.388272,0.64137 -1.341,1.20352 0.486777,-0.28107 0.600486,-0.45228 1.34611,-0.44972 -0.720838,0.43184 -1.116392,0.71803 -0.960266,1.69924 0.244027,-0.41139 0.845279,-0.80746 1.284784,-0.879 -0.633704,0.76657 -0.747924,1.24185 -0.480389,2.01609 0.227418,-0.34751 0.459947,-0.948 0.922448,-1.20608 -0.235083,0.51105 -0.140539,1.26741 0.08177,1.62515 0.240194,-0.44462 0.419062,-0.91479 0.89434,-1.28274 0.521272,0.84579 0.912227,1.71969 2.189855,2.41727 0.19931,0.21464 0.316852,0.47017 0.337294,0.8279 h 1.402837 l 0.44717,-0.82279 c 1.331289,-0.51105 2.079979,-1.30574 2.465823,-2.23585 -0.212086,-0.11499 -0.342404,-0.31685 -0.431838,-0.5085 -0.33985,0.3373 -0.531494,0.65926 -0.758912,1.05788 -0.222307,-0.31941 -0.396065,-0.70525 -0.436949,-1.05532 -0.298965,0.24786 -0.477833,0.50083 -0.70014,0.81002 C 9.483585,7.585445 9.343046,7.156165 9.337936,6.806095 8.852437,6.972185 8.714453,7.181715 8.39249,7.552225 8.231509,7.007955 8.067973,6.346145 8.223843,5.952635 6.284403,6.049735 6.511821,3.591575 5.70947,2.935895 5.7248,3.305385 5.499939,3.962085 5.374731,4.010635 4.86368,2.821425 3.100552,2.738375 2.21541,2.738125 Z m 8.765555,0.0324 c -0.158426,0 -0.30152,0.048 -0.444615,0.11882 -0.288744,0.16813 -0.526383,0.40322 -0.69503,0.68685 -0.04599,0.38073 0.01533,0.75891 0.0026,1.13709 -0.01533,0.52383 -0.429284,1.07321 -0.891785,1.16009 -0.05366,0.008 -0.104766,0.0179 -0.155871,0.0256 -0.275968,0.20442 -0.209531,0.50083 -0.14565,0.76402 0.390955,-0.26063 0.751246,-0.31685 1.183085,-0.3884 -0.05366,0.26319 -0.07155,0.55449 -0.03066,0.79469 0.324518,-0.32708 0.613262,-0.52128 0.981219,-0.78702 -0.01789,0.3424 -0.03066,0.73336 0.046,1.02977 0.286189,-0.38329 0.534049,-0.59538 0.896895,-0.85601 0.112432,0.23252 0.255526,0.65925 0.403731,0.77935 0.06644,-0.2172 0.112431,-0.44206 0.148205,-0.66948 0.04855,-0.35518 -0.09965,-0.68992 -0.265747,-1.02977 -0.329628,-0.0102 -0.654146,-0.1942 -0.896895,-0.45483 -0.311742,-0.32963 -0.493165,-0.84579 -0.260636,-1.34151 l 0.05877,-0.12777 c 0.278523,0.008 0.582599,0.0179 0.820238,0.0894 0.319407,0.0434 0.623483,0.30663 0.748691,0.26063 -0.08177,-0.33473 -0.319408,-0.88411 -0.88412,-0.79468 0.02811,-0.25655 -0.442059,-0.3907 -0.618372,-0.39683 z m -0.04344,0.18193 c 0.104765,0 0.189089,0.082 0.189089,0.18424 0,0.10221 -0.08432,0.18397 -0.189089,0.18397 -0.104766,0 -0.191645,-0.0818 -0.191645,-0.18397 0,-0.10221 0.08688,-0.18552 0.191645,-0.18424 z m 0.265747,1.10668 c -0.06899,0.26831 0.03833,0.52383 0.227417,0.7257 0.168647,0.17887 0.396065,0.28363 0.574933,0.30918 -0.0051,-0.42417 -0.04855,-0.68736 -0.140539,-0.81512 -0.171202,-0.1942 -0.439504,-0.20698 -0.661811,-0.21976 z m -3.434266,7.08573 0.08432,0.47017 c -0.263191,0.0613 -0.541715,0.0945 -0.917337,0.046 l -0.05622,0.42928 c 0.334739,0.046 0.618372,0.0307 0.871343,-0.0102 l -0.475278,0.47272 0.023,0.4395 0.702696,-0.55449 0.09199,0.56216 0.429283,-0.0741 -0.145649,-0.88668 0.347515,-0.0204 0.217197,0.95056 0.424172,-0.0946 -0.09454,-0.41139 c 0.459946,0.21975 0.930114,0.26574 1.323623,0.32451 l -0.385844,-0.45739 c -0.518717,-0.0792 -0.590264,-0.0996 -1.047655,-0.44206 L 9.021083,11.144875 H 8.581578 l 0.08177,0.44206 -0.367957,0.0204 -0.08432,-0.4625 z"/></svg>
