<svg role="img" focusable="false" aria-hidden="true" xmlns="http://www.w3.org/2000/svg" viewBox="0 0 14 14"><path d="m 12.984474,10.166275 c 0.05667,0.18357 -0.04672,0.3782 -0.230978,0.43472 l -0.333674,0.10237 c -0.184348,0.0565 -0.379783,-0.0465 -0.4365,-0.23013 l -0.521957,-1.6899399 -1.7345875,-0.69132 1.1624785,1.35102 c 0.110435,0.12835 0.151565,0.30202 0.110435,0.46598 l -0.613674,2.3927099 c -0.04676,0.18631 -0.236261,0.29964 -0.4233265,0.25311 l -0.338587,-0.0842 c -0.187174,-0.0465 -0.300957,-0.23544 -0.254174,-0.42183 l 0.547826,-2.1309399 -0.837217,-0.97321 c 0.0033,0.0479 0.01439,0.0936 0.01439,0.14237 0,1.1526099 -0.937935,2.0869499 -2.094957,2.0869499 -1.157022,0 -2.094957,-0.93434 -2.094957,-2.0869499 0,-0.0487 0.01111,-0.0943 0.01439,-0.14224 l -0.837131,0.97308 0.547826,2.1309399 c 0.04674,0.18639 -0.06704,0.3753 -0.254174,0.42183 l -0.33863,0.0842 c -0.187022,0.0465 -0.376522,-0.0668 -0.423283,-0.25311 L 3.0003385,9.9089751 c -0.04117,-0.16396 0,-0.33763 0.110435,-0.46598 l 1.162478,-1.35102 -1.734587,0.69132 -0.522,1.6899399 c -0.05667,0.18363 -0.252109,0.28663 -0.436457,0.23013 l -0.333674,-0.10237 c -0.184304,-0.0565 -0.287695,-0.25115 -0.231021,-0.43472 l 0.595565,-1.9280599 c 0.04659,-0.15085 0.159196,-0.27263 0.306326,-0.33127 l 2.276022,-0.90693 h -4.3e-5 l -2.276457,-0.90711 c -0.146826,-0.0585 -0.259218,-0.18006 -0.305761,-0.33067 l -0.595652,-1.92848 c -0.05667,-0.18357 0.04672,-0.3782 0.230978,-0.43472 l 0.333696,-0.10237 c 0.184326,-0.0565 0.379761,0.0465 0.436478,0.23013 l 0.521957,1.68994 1.734587,0.69132 -1.162479,-1.35102 c -0.110434,-0.12835 -0.151565,-0.30202 -0.110434,-0.46598 l 0.613674,-2.39271 c 0.04676,-0.18631 0.236261,-0.29964 0.423326,-0.25311 l 0.338587,0.0842 c 0.187174,0.0465 0.300956,0.23544 0.254174,0.42183 l -0.547826,2.13094 1.171934,1.36226 v -0.53142 h 0.0068 c -0.03904,-0.79632 0.455283,-1.48324 1.161587,-1.72969 0.111739,-0.039 0.228283,0.0481 0.228283,0.16608 v 0.52013 h 0.698304 v -0.51978 c 0,-0.11835 0.117261,-0.2053 0.229326,-0.16611 0.679848,0.23779 1.167327,0.88261 1.167327,1.64113 0,0.0303 -0.008,0.0584 -0.0095,0.0882 h 0.0095 v 0.53142 l 1.171935,-1.36226 -0.547827,-2.13094 c -0.04674,-0.18639 0.06704,-0.3753 0.254174,-0.42183 l 0.338631,-0.0842 c 0.1870225,-0.0465 0.3765225,0.0668 0.4232835,0.25311 l 0.613674,2.39271 c 0.04117,0.16396 0,0.33763 -0.110435,0.46598 l -1.1624795,1.35102 1.7345885,-0.69132 0.522,-1.68994 c 0.05667,-0.18363 0.252108,-0.28663 0.436456,-0.23013 l 0.333674,0.10237 c 0.184305,0.0565 0.287696,0.25115 0.231022,0.43472 l -0.595565,1.92806 c -0.04659,0.15085 -0.159196,0.27263 -0.306327,0.33127 l -2.2760225,0.90693 h 4.4e-5 l 2.2764575,0.90711 c 0.146826,0.0585 0.259217,0.18006 0.305761,0.33067 z"/></svg>
