<svg role="img" focusable="false" aria-hidden="true" xmlns="http://www.w3.org/2000/svg" viewBox="0 0 14 14"><path d="m 9.9405869,1.00018 c -0.271756,0.0662 -0.666942,0.18933 -1.002139,0.36411 -0.246272,0.12841 -0.462483,0.28308 -0.586984,0.43338 -0.124475,0.15039 -0.161951,0.26662 -0.118211,0.41725 l 0.09519,0.32802 -0.340926,-0.0203 c -0.08159,-0.005 -0.132345,-0.003 -0.197125,-0.007 -0.06478,-0.004 -0.144685,-0.0189 -0.221377,-0.0501 -0.103327,-0.042 -0.243113,-0.12447 -0.430574,-0.2385 -0.0098,0.12393 -0.01553,0.27057 -0.01089,0.42846 0.01017,0.34571 0.05407,0.74805 0.129025,1.10206 0.03555,0.16784 0.08049,0.32481 0.128624,0.45855 0.08009,-0.12595 0.167679,-0.24633 0.263403,-0.35784 0.455657,-0.53051 1.083329,-1.11321 1.870248,-1.16972 0.386085,-0.0277 0.7852061,0.14252 1.1391151,0.3322 0.106994,-0.20438 0.274566,-0.37377 0.444815,-0.52654 0.1714,-0.15386 0.351901,-0.29493 0.507267,-0.42749 C 11.354353,1.88683 11.160066,1.79705 10.993832,1.77614 10.781396,1.74944 10.564784,1.81494 10.221957,2.01246 L 9.8148059,2.24701 9.9406189,1.0002 Z m -0.342532,2.16813 a 0.44355711,0.44355711 0 0 0 -0.04476,8e-4 c -0.557243,0.04 -1.116789,0.51123 -1.539199,1.00303 -0.370532,0.43143 -0.625316,1.10099 -0.766923,1.64777 0.183794,0.0302 0.380383,0.0592 0.57724,0.065 0.293117,0.009 0.547687,-0.0426 0.678158,-0.15607 l 0.188452,-0.16366 0.156918,0.19407 c 0.132665,0.16404 0.289155,0.37709 0.383327,0.62843 0.04765,0.12715 0.07709,0.27111 0.07222,0.41777 0.334261,-0.0707 0.640575,-0.19171 0.7731871,-0.34424 l 0.140696,-0.16176 0.177048,0.12099 c 0.267848,0.18305 0.530743,0.39034 0.712957,0.67554 0.02765,-0.10044 0.0518,-0.20521 0.06467,-0.31454 0.04023,-0.34098 -0.0048,-0.69411 -0.177637,-0.95012 -0.273897,-0.30134 -0.592016,-0.59039 -0.667343,-0.99125 -0.02853,-0.15191 0.01847,-0.26822 0.07442,-0.38252 0.056,-0.11431 0.133094,-0.22665 0.223519,-0.3371 0.101801,-0.12432 0.220252,-0.2436 0.3466,-0.34933 C 10.864129,3.70002 10.747016,3.62255 10.600136,3.53917 10.2583,3.34493 9.8347129,3.17533 9.5980769,3.16815 Z m -8.152029,0.42222 c -0.170061,-9.9e-4 -0.267044,0.0125 -0.267044,0.0422 0.07549,0.34416 0.214096,0.71017 0.413094,1.05683 0.69612,-0.0995 1.419008,-0.15272 2.158948,-0.14691 0.716063,0.23182 1.463712,0.42884 2.163713,0.67827 -0.681986,-0.121 -1.358163,-0.18316 -2.021357,-0.19542 a 13.116308,13.116308 0 0 0 -0.316406,-0.002 c -0.762907,0.004 -1.506006,0.0742 -2.220141,0.19193 0.128088,0.86945 0.53797,2.11633 1.349062,3.22499 0.882028,1.20555 2.220676,2.24915 4.202041,2.52849 1.557536,0.21955 2.876911,-0.13187 3.5460471,-0.8391 0.334609,-0.35361 0.519179,-0.79096 0.514762,-1.33222 -0.0042,-0.50748 -0.184088,-1.1116 -0.597664,-1.79634 -0.03033,-0.0237 -0.06157,-0.0473 -0.09423,-0.071 C 9.9244679,7.20778 9.4291939,7.29837 8.9947649,7.3404 l -0.49233,0.0476 0.266081,-0.41705 c 0.07961,-0.12474 0.07388,-0.24801 0.01159,-0.41422 -0.03978,-0.10606 -0.107503,-0.21543 -0.180689,-0.32101 -0.244398,0.11826 -0.525576,0.1388 -0.789542,0.13082 -0.347377,-0.0105 -0.683833,-0.078 -0.901034,-0.11409 l -0.248092,-0.0412 0.05182,-0.24608 C 6.7900389,5.5972 6.9196249,5.14436 7.1191849,4.70966 5.8721929,4.08756 2.4317209,3.59622 1.4460169,3.59041 Z m 8.13131,0.002 c 0.236956,0 0.4332781,0.19766 0.4332781,0.434 0,0.23637 -0.1963221,0.434 -0.4332781,0.434 -0.236903,0 -0.433305,-0.19766 -0.433305,-0.434 0,-0.23637 0.196375,-0.434 0.433305,-0.434 z m 1.9783661,0.36057 -0.04569,0.0251 c -0.159488,0.0877 -0.366838,0.26983 -0.512165,0.4473 -0.07268,0.0888 -0.130819,0.177 -0.163557,0.24381 -0.02369,0.0484 -0.02763,0.0844 -0.03025,0.0897 0.03467,0.15525 0.280697,0.45276 0.561233,0.76349 l 0.01036,0.0114 0.0087,0.0127 a 1.4690654,1.4690654 0 0 1 0.127258,0.22331 c 0.307037,0.0151 0.641538,-0.0202 1.034663,-0.0998 L 11.439369,4.84197 c 0,0 1.002139,0.02 1.368576,-0.0438 0.125706,-0.0219 -0.682441,-0.59501 -1.252239,-0.84508 z m -7.1115831,2.37952 0.46888,0.11109 c -0.04358,0.1838 -0.169552,0.3041 -0.303958,0.40175 -0.134379,0.0977 -0.291083,0.17686 -0.455068,0.25039 -0.143747,0.0645 -0.292394,0.12309 -0.433518,0.1793 0.461679,0.19166 1.063734,0.33498 1.551084,0.20762 l 0.217763,-0.0569 0.07153,0.21348 c 0.05627,0.16784 0.02141,0.34585 -0.05273,0.48443 -0.07404,0.13856 -0.182429,0.25265 -0.306555,0.35718 -0.117996,0.0994 -0.252375,0.18939 -0.391786,0.27063 0.04047,0.0107 0.07361,0.0209 0.11813,0.0317 0.432421,0.10501 1.0496,0.21388 1.66528,0.25907 0.615599,0.0452 1.233661,0.022 1.647452,-0.1085 0.206868,-0.0653 0.357281,-0.15525 0.444494,-0.25572 0.08727,-0.10046 0.128489,-0.20919 0.111357,-0.39189 l 0.479749,-0.0449 c 0.0273,0.29146 -0.05889,0.55874 -0.227266,0.75274 C 8.8805819,9.18803 8.6470519,9.31089 8.3856289,9.3934 7.8626759,9.55837 7.2059859,9.57047 6.5578629,9.52288 5.9097129,9.47528 5.2741439,9.36323 4.8141509,9.25152 4.5842079,9.19562 4.4006819,9.14145 4.2684979,9.0881 4.2023779,9.0614 4.1540079,9.0458 4.0860159,8.98624 c -0.034,-0.0298 -0.102739,-0.0855 -0.0961,-0.21639 0.0033,-0.0654 0.03785,-0.12975 0.07217,-0.16511 0.03426,-0.0353 0.06526,-0.0507 0.09016,-0.0614 0.261263,-0.11232 0.550418,-0.27224 0.73887,-0.43092 A 1.1107131,1.1107131 0 0 0 4.9968519,8.00995 C 4.2278949,8.06415 3.4680119,7.7379 3.0220459,7.46253 L 2.6567599,7.237 3.0396059,7.04272 c 0.263216,-0.13358 0.619561,-0.25305 0.917095,-0.38654 0.148834,-0.0667 0.281285,-0.13671 0.36906,-0.2005 0.08772,-0.0637 0.116979,-0.11725 0.118318,-0.12306 z m -0.753324,3.80742 c -0.266081,0.27245 -0.660116,0.53819 -1.075566,0.75086 -0.169713,-0.21243 -0.352115,-0.41384 -0.547286,-0.59539 l -0.32813,0.35287 c 0.146826,0.13652 0.287763,0.28851 0.421928,0.45009 -0.153251,0.0618 -0.3042,0.11443 -0.447439,0.15507 l 0.131541,0.4635 c 0.178146,-0.0506 0.364162,-0.11377 0.551569,-0.18832 -1.07e-4,0.45212 -0.04792,0.95671 -0.174853,1.30674 l 0.452926,0.16436 c 0.09757,-0.26903 0.154054,-0.57427 0.182723,-0.88069 0.127821,0.22593 0.241347,0.45172 0.337446,0.66745 l 0.440158,-0.19611 c -0.18631,-0.41828 -0.42937,-0.86891 -0.722112,-1.29614 0.449312,-0.23109 0.871963,-0.52555 1.177019,-0.86966 a 6.5375821,6.5375821 0 0 1 -0.399924,-0.2846 z m 8.0690181,0.9403 c -0.405759,0.005 -0.860961,0.21033 -1.317287,0.49506 a 5.2636336,5.2636336 0 0 0 -0.5475801,0.39243 c -0.179618,-0.13807 -0.367534,-0.28621 -0.558395,-0.43445 a 29.077002,29.077002 0 0 0 -0.210937,-0.16227 c -0.210991,0.0511 -0.431993,0.089 -0.66132,0.11328 0.188799,0.13277 0.383247,0.27928 0.576731,0.42956 0.165538,0.12854 0.330112,0.25891 0.491741,0.38424 -0.132719,0.13534 -0.252964,0.27652 -0.354498,0.4212 l 0.39441,0.27679 c 0.09388,-0.13379 0.213721,-0.27098 0.350027,-0.40466 0.1362531,0.0985 0.2691861,0.1896 0.3967121,0.26675 l 0.249404,-0.41224 a 3.8365415,3.8365415 0 0 1 -0.124929,-0.0792 c 0.519499,-0.0624 1.045424,-0.009 1.409451,0.0716 l 0.104666,-0.47033 c -0.283213,-0.0631 -0.64111,-0.11304 -1.028346,-0.11443 l -0.0051,5e-5 c 0.364456,-0.19322 0.712234,-0.30043 0.888988,-0.29063 l 0.02677,-0.48103 a 1.1840325,1.1840325 0 0 0 -0.08049,-0.002 z"/></svg>
