<svg role="img" focusable="false" aria-hidden="true" xmlns="http://www.w3.org/2000/svg" viewBox="0 0 14 14"><path d="m 3.9106266,12.985293 c -1.5832,-0.166124 -2.43706,-0.367003 -2.67431,-0.629159 -0.28777003,-0.317992 0.0777,-0.826482 0.73424,-1.021441 0.20633,-0.06127 0.75271,-0.148102 1.21418,-0.192956 1.2579,-0.122263 1.72407,-0.207654 1.85353,-0.339519 0.10583,-0.107796 0.10013,-0.132929 -0.0599,-0.264142 -0.0973,-0.07975 -0.31735,-0.182841 -0.48907,-0.229079 -1.06349,-0.286368 -1.37292,-0.522598 -1.1434,-0.872895 0.32167,-0.490922 1.53605,-0.724489 3.77052,-0.725196 2.1733,-6.79e-4 3.6362704,0.236885 4.0282704,0.65415 0.15657,0.166655 0.16311,0.203037 0.071,0.394776 -0.0558,0.116162 -0.33058,0.39487 -0.61062,0.619349 -0.36463,0.292296 -0.50915,0.45775 -0.50915,0.582906 0,0.310374 0.259,0.408994 1.09167,0.415677 0.93586,0.0075 1.37087,0.114725 1.57329,0.38776 0.22042,0.297316 0.0862,0.54427 -0.42252,0.777149 -0.88026,0.402997 -1.18374,0.431512 -4.8070804,0.451658 -1.84616,0.01026 -3.47546,0.0062 -3.62066,-0.009 z m 2.50593,-6.552013 c -0.47929,-0.149666 -0.80975,-0.440224 -1.04308,-0.917132 -0.28723,-0.587076 -0.29016,-1.363484 -0.008,-2.047766 0.25395,-0.615301 0.80379,-1.437403 1.34509,-2.011138 L 7.1419566,1 l 0.27993,0.264007 c 0.41811,0.394332 1.13137,1.378262 1.38338,1.908367 0.85207,1.79229 0.0516,3.387648 -1.68911,3.366301 -0.20743,-0.0025 -0.52237,-0.04997 -0.69986,-0.105395 z"/></svg>
