<svg role="img" focusable="false" aria-hidden="true" xmlns="http://www.w3.org/2000/svg" viewBox="0 0 14 14"><path d="m 1.07937,12.699536 c -0.0437,-0.0469 -0.0794,-0.115808 -0.0794,-0.15313 0,-0.03732 0.11617,-0.180651 0.25815,-0.318509 L 1.51627,11.977245 1.33605,11.802082 c -0.2094,-0.203515 -0.24251,-0.371889 -0.0936,-0.476165 0.1329,-0.09309 0.19736,-0.07507 0.40423,0.113017 0.11732,0.106663 0.22376,0.171121 0.27587,0.167066 0.0467,-0.0036 0.0777,-0.01819 0.0689,-0.03236 -0.009,-0.01417 0.0794,-0.115933 0.19597,-0.226148 L 2.3993,11.147101 2.22523,10.962666 C 2.01768,10.742763 1.98146,10.637346 2.06804,10.505209 2.17181,10.346827 2.30993,10.376692 2.54435,10.608198 l 0.20263,0.200112 0.25641,-0.226512 c 0.14102,-0.124582 0.2564,-0.246048 0.2564,-0.269925 0,-0.02388 -0.0796,-0.121575 -0.17698,-0.217107 C 2.87992,9.8956458 2.86627,9.7802798 3.03111,9.6577958 c 0.13293,-0.0988 0.21097,-0.07132 0.43571,0.153427 l 0.18137,0.181371 0.20519,-0.200371 c 0.11285,-0.110204 0.23855,-0.224462 0.27933,-0.253906 0.0714,-0.05153 0.0731,-0.103692 0.0461,-1.394589 l -0.028,-1.341053 0.1292,-0.103128 c 0.0711,-0.05672 0.34837,-0.280679 0.61624,-0.497685 2.02395,-1.639645 2.61684,-2.106406 2.64976,-2.086062 0.0208,0.01284 0.0295,5.11e-4 0.0195,-0.02738 -0.0101,-0.02803 0.0541,-0.103028 0.14348,-0.167615 0.089,-0.06429 0.24706,-0.191404 0.35125,-0.282479 0.1042,-0.09108 0.21514,-0.165591 0.24655,-0.165591 0.0314,0 0.16921,0.09205 0.30623,0.204554 0.13702,0.112504 0.51724,0.423719 0.84493,0.691587 0.32769,0.267868 0.73038,0.600999 0.89486,0.740291 0.16449,0.139291 0.47835,0.400653 0.69746,0.580805 0.21912,0.180151 0.41882,0.347263 0.44378,0.371361 0.025,0.0241 0.15058,0.125564 0.27916,0.225482 0.12858,0.09992 0.32211,0.265936 0.43008,0.368929 l 0.19632,0.187262 -0.021,2.961163 -0.021,2.9611632 -0.65263,0.01068 -0.65262,0.01068 v -1.185135 c 0,-1.044745 -0.007,-1.187937 -0.0616,-1.208785 -0.0805,-0.0309 -5.28995,-0.0309 -5.37048,0 -0.0543,0.02084 -0.0616,0.162152 -0.0616,1.18737 v 1.163721 l -0.66236,-0.0036 -0.66237,-0.0036 -0.004,-1.213021 c -0.005,-1.367391 -0.004,-1.347436 -0.0465,-1.351002 -0.0172,-0.0014 -0.18207,0.137945 -0.36648,0.309741 -0.18441,0.171796 -0.3528,0.301536 -0.3742,0.288312 -0.0214,-0.01322 -0.028,-0.0063 -0.0146,0.01528 0.0306,0.04944 -0.14382,0.217799 -0.18399,0.177632 -0.0163,-0.01627 -0.0237,-0.01089 -0.0166,0.01195 0.0118,0.03763 -0.38677,0.434816 -1.05566,1.052098 -0.13774,0.127108 -0.37444,0.349313 -0.526,0.493786 -0.30372,0.289515 -0.42646,0.328108 -0.56627,0.178045 z M 8.4081,9.1612798 H 9.53691 L 9.52461,7.9631778 C 9.51341,6.8743368 9.50551,6.7526388 9.43831,6.6287058 9.14734,6.0922138 8.73925,5.8590808 8.15656,5.8964748 c -0.48067,0.03085 -0.86425,0.307319 -1.05693,0.761797 -0.0714,0.168312 -0.0795,0.287472 -0.0915,1.34082 l -0.0131,1.156091 0.0902,0.01706 c 0.0496,0.0094 0.1136,0.01075 0.14214,0.003 0.0285,-0.0077 0.55986,-0.01401 1.1807,-0.01401 z M 7.55263,7.7878458 c 0.0145,-0.962251 0.0359,-1.039537 0.34098,-1.235321 0.36694,-0.235469 0.81644,-0.112306 1.01891,0.279183 0.0668,0.129081 0.0748,0.232323 0.0748,0.964326 v 0.819768 H 8.26374 7.54016 Z M 3.73758,6.4631148 c -0.0612,-0.07795 -0.14157,-0.981474 -0.095,-1.068441 0.0218,-0.04066 0.13302,-0.154677 0.24724,-0.253376 0.39157,-0.338359 0.55284,-0.480299 0.63414,-0.558132 0.32194,-0.308212 0.541,-0.483671 0.57647,-0.461746 0.0229,0.01414 0.031,0.0085 0.018,-0.01258 -0.0213,-0.03441 0.35545,-0.403586 0.71295,-0.698676 0.17626,-0.145489 0.42216,-0.363934 0.52386,-0.465366 0.044,-0.04392 0.32553,-0.297346 0.62554,-0.563164 0.30001,-0.265818 0.61561,-0.547736 0.70133,-0.626486 0.38596,-0.354582 0.62081,-0.542222 0.67817,-0.541839 0.0342,2.32e-4 0.14978,0.08094 0.25693,0.17936 0.10715,0.09842 0.28329,0.260415 0.39143,0.35999 0.10815,0.09957 0.26245,0.238269 0.3429,0.30821 0.0846,0.07357 0.13469,0.145898 0.1188,0.171611 -0.0173,0.02804 -0.0101,0.03371 0.0196,0.01537 0.0268,-0.0166 0.0754,0.002 0.11317,0.0434 0.0364,0.03986 0.21395,0.203654 0.39463,0.363982 0.18069,0.160329 0.40982,0.370406 0.50919,0.466839 0.0994,0.09643 0.31097,0.289145 0.47022,0.428252 0.15925,0.139106 0.30708,0.272235 0.32851,0.295844 0.0214,0.02361 0.16242,0.155258 0.31331,0.292557 0.1509,0.137298 0.44896,0.409761 0.66237,0.605472 0.2134,0.195711 0.46241,0.423642 0.55335,0.506514 l 0.16534,0.150677 -0.0433,0.506515 c -0.047,0.549539 -0.0876,0.652887 -0.21992,0.559956 -0.0608,-0.0427 -0.38262,-0.324083 -0.68599,-0.59981 -0.0241,-0.02192 -0.27122,-0.241084 -0.54913,-0.487033 -0.2779,-0.245949 -0.53299,-0.47348 -0.56687,-0.505624 -0.0339,-0.03214 -0.20858,-0.189943 -0.38824,-0.350664 C 10.36692,4.3640058 10.18125,4.1974398 10.13397,4.1545808 10.08667,4.1117208 9.98908,4.0233378 9.91706,3.9581718 9.84506,3.8930018 9.5757,3.6550938 9.31855,3.4294778 9.0614,3.2038618 8.78087,2.9534468 8.69515,2.8730008 8.42392,2.6184558 8.37895,2.5967768 8.27008,2.6681108 c -0.0516,0.03383 -0.32003,0.2594 -0.59642,0.501256 -0.27639,0.241855 -0.61476,0.53617 -0.75194,0.654032 -0.13717,0.117862 -0.33874,0.293194 -0.44793,0.389626 -0.10919,0.09643 -0.31013,0.271765 -0.44654,0.389627 -0.1364,0.117862 -0.30202,0.263765 -0.36804,0.324229 -0.19308,0.17683 -0.32138,0.259958 -0.35472,0.229838 -0.0171,-0.01544 -0.0197,-0.0082 -0.006,0.01612 0.0143,0.02502 -0.0702,0.126466 -0.19466,0.233776 -0.12095,0.10427 -0.259,0.224648 -0.30677,0.267507 -0.59692,0.535465 -0.95392,0.837697 -0.9895,0.837697 -0.0175,0 -0.049,-0.02192 -0.0701,-0.0487 z"/></svg>
