<svg role="img" focusable="false" aria-hidden="true" xmlns="http://www.w3.org/2000/svg" viewBox="0 0 14 14"><path d="m 12.453259,6.6149474 c -0.650686,-0.11914 -0.975862,-0.41797 -0.981737,-0.42317 -0.254533,-0.25389 -0.673144,-0.2526 -0.93551,-0.008 -0.02083,0.0195 -0.523732,0.47915 -1.5360722,0.47915 -1.0123404,0 -1.5152608,-0.4596 -1.5285937,-0.47133 -0.2545538,-0.2552 -0.6728312,-0.2526 -0.9351972,-0.008 -0.020833,0.0195 -0.5237321,0.47915 -1.5360726,0.47915 -1.0123404,0 -1.5152608,-0.4596 -1.5285937,-0.47133 -0.2545538,-0.2552 -0.6724978,-0.25324 -0.9351972,-0.007 -0.013666,0.0124 -0.3388426,0.31118 -0.9895496,0.43032 -0.3619668,0.0664 -0.60185446,0.4134 -0.5357942,0.77537 0.066414,0.36197 0.4121109,0.60608 0.7760152,0.53577 0.5276695,-0.0963 0.931614,-0.27732 1.2122086,-0.44269 0.4062362,0.24024 1.0722343,0.513 2.0009109,0.513 0.9280308,0 1.5933623,-0.27211 1.9999318,-0.51233 0.4065486,0.24022 1.0719009,0.51233 1.9999317,0.51233 0.9286767,0 1.5946752,-0.27276 2.0009102,-0.513 0.280574,0.16537 0.68454,0.34634 1.212188,0.44269 0.365884,0.0703 0.709622,-0.1738 0.776015,-0.53577 0.06608,-0.36197 -0.173827,-0.70898 -0.535794,-0.77537 z m 0,3.00365 c -0.650686,-0.11914 -0.975862,-0.41797 -0.981737,-0.42318 -0.254533,-0.25388 -0.673144,-0.25259 -0.93551,-0.008 -0.02083,0.0195 -0.523732,0.47915 -1.5360722,0.47915 -1.0123404,0 -1.5152608,-0.45961 -1.5285937,-0.47134 -0.2545538,-0.2552 -0.6728312,-0.25259 -0.9351972,-0.008 -0.020833,0.0195 -0.5237321,0.47915 -1.5360726,0.47915 -1.0123404,0 -1.5152608,-0.45961 -1.5285937,-0.47134 -0.2545538,-0.2552 -0.6724978,-0.25324 -0.9351972,-0.007 -0.013666,0.0124 -0.3388426,0.3112 -0.9895496,0.43034 -0.3619668,0.0664 -0.60185446,0.4133796 -0.5357942,0.7753496 0.066414,0.36196 0.4121109,0.6061 0.7760152,0.53579 0.5276695,-0.0963 0.931614,-0.27734 1.2122086,-0.44269 0.4062362,0.24022 1.0722343,0.513 2.0009109,0.513 0.9280308,0 1.5933623,-0.27212 1.9999318,-0.51236 0.4065486,0.24046 1.0719009,0.51258 1.9999317,0.51258 0.9286767,0 1.5946752,-0.27278 2.0009102,-0.513 0.280574,0.16537 0.68454,0.34634 1.212188,0.44269 0.365884,0.0703 0.709622,-0.17383 0.776015,-0.53579 0.06608,-0.36197 -0.173827,-0.7089596 -0.535794,-0.7753496 z M 1.7869568,4.9261874 c 0.5276695,-0.0963 0.931614,-0.27732 1.2122086,-0.44269 0.4062362,0.24024 1.0722343,0.513 2.0009109,0.513 0.9280308,0 1.5933623,-0.27211 1.9999318,-0.51233 0.4065486,0.24022 1.0719009,0.51233 1.9999317,0.51233 0.9286767,0 1.5946752,-0.27276 2.0009102,-0.513 0.280574,0.16537 0.68454,0.34634 1.212188,0.44269 0.365884,0.0703 0.709622,-0.1738 0.776015,-0.53577 0.06608,-0.36197 -0.173827,-0.70897 -0.535794,-0.77537 -0.650686,-0.11914 -0.975862,-0.41796 -0.981737,-0.42317 -0.254533,-0.25389 -0.673144,-0.2526 -0.93551,-0.008 -0.02083,0.0195 -0.523732,0.47915 -1.5360722,0.47915 -1.0123404,0 -1.5152608,-0.45961 -1.5285937,-0.47134 -0.2545538,-0.2552 -0.6728312,-0.2526 -0.9351972,-0.008 -0.020833,0.0195 -0.5237321,0.47915 -1.5360726,0.47915 -1.0123404,0 -1.5152608,-0.45961 -1.5285937,-0.47134 -0.2545538,-0.2552 -0.6724978,-0.25324 -0.9351972,-0.007 -0.013666,0.0124 -0.3388426,0.31118 -0.9895496,0.43032 -0.3619668,0.0664 -0.60185446,0.4134 -0.5357942,0.77537 0.066414,0.36197 0.4121109,0.60608 0.7760152,0.53577 z"/></svg>
