<svg role="img" focusable="false" aria-hidden="true" xmlns="http://www.w3.org/2000/svg" viewBox="0 0 14 14"><path d="m 7.0465675,1 -4.571583,2.90917 -0.191982,0.12215 0.244314,0.38397 0.191982,-0.12216 4.327269,-2.75374 4.3272695,2.75374 0.191982,0.12216 0.244314,-0.38397 -0.191982,-0.12215 z M 3.3831735,1.14511 3.1686655,1.4881 3.5544505,1.72938 3.7690095,1.38644 3.3831735,1.14506 Z m -0.982919,0.42846 -0.334946,0.30792 0.273665,0.29781 0.335022,-0.30792 z m 7.7139395,0.27349 -0.4514145,0.0576 0.05117,0.40121 0.4513895,-0.0575 -0.05114,-0.40126 z M 7.0465675,1.94386 3.3017945,4.32694 3.0860725,5.08708 H 10.998821 L 10.772052,4.31468 7.0465675,1.94384 Z m 0,1.10847 1.441007,0.48033 V 4.73315 H 5.6055605 V 3.53266 Z m 0,0.47963 -0.985952,0.32865 v 0.41748 h 1.971904 V 3.86061 Z m -2.144472,0.47325 0.186143,0.35914 -0.403987,0.2094 -0.186168,-0.35911 0.403987,-0.2094 z M 11.6451,5.16168 11.468084,5.58097 11.840723,5.73829 12.017765,5.31908 11.645075,5.16171 Z M 3.6148975,5.54214 3.1833535,7.28651 H 11.096102 L 10.662864,5.54214 Z m 0.777183,0.75842 h 5.308974 v 0.45506 h -5.308974 z m -2.360218,1.01599 -0.444437,0.0977 0.08681,0.39509 0.444437,-0.0977 -0.08679,-0.39506 z m 1.631802,0.42502 -0.528926,1.9719 H 11.136753 L 10.605932,7.74157 H 3.6636385 Z m 5.150058,0.24477 0.374586,0.25842 -0.229752,0.33295 -0.374561,-0.25848 0.229702,-0.33289 z m -4.421642,0.74118 h 5.308974 V 9.18257 H 4.3920805 Z M 12.038015,9.19875 11.808313,9.5317 12.182823,9.79015 12.412574,9.4572 12.037988,9.19878 Z m -8.3744015,0.96978 -0.528925,1.9719 h 8.0020645 l -0.530821,-1.9719 H 3.6636385 Z m 2.621192,0.0812 0.214634,0.34281 -0.385659,0.24151 -0.214685,-0.34276 0.385685,-0.24156 z m -3.747074,0.28904 -0.170494,0.36683 0.412659,0.19183 0.170469,-0.36678 -0.412659,-0.19188 z m 7.6636305,0.0206 0.184854,0.35975 -0.4047975,0.20801 -0.184803,-0.3598 0.4047465,-0.20793 z m -5.8092815,0.59509 h 5.308974 v 0.45505 h -5.308974 z m -0.581459,1.44101 V 13 h 1.21348 v -0.40449 z m 5.258412,0 V 13 h 1.2134805 v -0.40449 z"/></svg>
