<svg role="img" focusable="false" aria-hidden="true" xmlns="http://www.w3.org/2000/svg" viewBox="0 0 14 14"><path d="m 9.2468084,1.32737 -8.243889,1.47203 -0.0029,0.81721 8.388369,-1.50035 z m -2.726687,1.78984 -0.801182,0.14421 v 4.28365 h 0.801182 z M 2.2471534,3.881 1.4459724,4.02521 v 3.51986 h 0.801181 z m 6.449511,0.75311 c -0.229672,0.16291 -0.186943,0.64362 0.09347,1.07091 -0.576851,0.2003 -1.217796,0.45935 -1.789305,0.68368 v 1.15637 h 0.427296 v 2.42758 c 1.10296,-0.55549 1.98693,-1.40741 2.8522056,-2.37684 0.122848,0.6089 0.905335,0.69169 1.364679,0.76646 0,0 0.02404,0.35519 0.186942,0.49674 0.245696,0.2083 0.643616,0.35786 0.92403,0.19762 C 13.01503,8.90708 13.001677,8.37029 12.999007,8.27414 12.993707,8.07385 12.804053,7.92429 12.627793,7.84685 12.147084,6.91214 11.094866,5.42461 10.202884,5.36051 10.080036,5.35251 9.9037764,5.37921 9.6954694,5.42731 9.3295964,5.18161 8.8382054,4.79438 8.6966634,4.63414 Z m -3.458433,2.31007 c -1.05756,0.0641 -1.856071,0.0694 -2.510369,0.0801 v 0.52077 h 2.510369 z m -4.219556,1.0816 v 1.22848 h 5.928743 V 8.02578 Z m 0,1.70918 v 1.22848 h 5.928743 V 9.73496 Z m 0,1.70919 v 1.22848 h 5.928743 v -1.22848 z"/></svg>
