<?xml version="1.0" encoding="utf-8"?>
<!-- Svg Vector Icons : http://www.onlinewebfonts.com/icon -->
<!DOCTYPE svg PUBLIC "-//W3C//DTD SVG 1.1//EN" "http://www.w3.org/Graphics/SVG/1.1/DTD/svg11.dtd">
<svg version="1.1" xmlns="http://www.w3.org/2000/svg" xmlns:xlink="http://www.w3.org/1999/xlink" x="0px" y="0px" viewBox="0 0 1000 1000" enable-background="new 0 0 1000 1000" xml:space="preserve">
<metadata> Svg Vector Icons : http://www.onlinewebfonts.com/icon </metadata>
<g><path d="M752.4,585.8v39.9H648.6v-39.9l-39.9-59.9l-39.9,59.9v39.9H465v-39.9l-39.9-59.9l-39.9,59.9v39.9H277.4v-39.9l-39.9-59.9l-39.9,59.9v39.9H89.8v-39.9l-39.9-59.9L10,585.8v307.3h83.8v-59.9h103.8v59.9h83.8v-59.9h103.8v59.9H469v-59.9h103.8v59.9h83.8v-59.9h103.8v59.9h83.8V585.8l-39.9-59.9L752.4,585.8z M193.6,789.4H89.8V665.6h103.8V789.4z M381.2,789.4H277.4V665.6h103.8V789.4z M564.8,789.4H461V665.6h103.8V789.4z M752.4,789.4H648.6V665.6h103.8V789.4z"/><path d="M979.9,230.6c-20-20-39.9-39.9-59.9-63.9c8-12,12-20,23.9-31.9c4-4,0-8,0-8c-16,4-55.9,35.9-39.9-16c0-4-4-4-4-4c-20,16-39.9,27.9-55.9,27.9c-20,0-35.9,8-43.9,23.9c-16,23.9-31.9,43.9-43.9,67.9c-27.9,51.9-67.9,75.8-123.7,79.8c-20,0-39.9,4-59.9,12c-35.9,8-71.8,16-111.8,8c-39.9-8-71.8-8-99.8-16c-59.9-12-119.7-12-175.6,20c-27.9,16-51.9,27.9-79.8,43.9c-8,4-16,12-16,20c-4,16-4,35.9,0,51.9c8,23.9,4,55.9,35.9,63.9c4,0,4,12,8,16c4,27.9-4,51.9-12,79.8h12h39.9v-27.9l63.9-87.8l59.9,87.8v27.9h59.9v-27.9l63.9-87.8l59.9,87.8v27.9h59.9v-27.9l63.9-87.8l59.9,87.8v27.9h16c4-4,8-12,12-16c31.9-31.9,67.9-59.9,67.9-111.8c0-23.9,4-47.9,12-67.9c16-35.9,39.9-67.9,55.9-103.8c16-31.9,23.9-35.9,47.9-27.9c4,20,4,39.9,12,47.9c8,12,20,31.9,43.9,31.9c-4-12-8-20-12-27.9c-12-31.9,0-47.9,27.9-47.9c16,0,27.9-8,35.9-20C995.9,250.5,987.9,242.6,979.9,230.6z"/></g>
</svg>