<svg role="img" focusable="false" aria-hidden="true" xmlns="http://www.w3.org/2000/svg" viewBox="0 0 14 14"><path d="m 10.164868,11.890122 c 0.05669,0.110488 0.107478,0.208978 0.113488,0.220976 0.0149,0.039 -0.3045282,0.140385 -0.5553111,0.176181 -0.3731696,0.05699 -0.7553582,-0.03 -0.9106914,-0.203078 -0.041796,-0.045 -0.050695,-0.08699 -0.035796,-0.164182 l 0.020898,-0.104489 0.3015174,-0.018 c 0.1672219,-0.012 0.4389324,-0.042 0.600145,-0.06599 0.1642322,-0.024 0.3105371,-0.042 0.3284551,-0.042 0.0179,0 0.08069,0.08999 0.137295,0.199978 z M 6.6118016,11.558758 c 0.1731213,0.039 0.4508412,0.09199 0.6150635,0.119287 l 0.304517,0.05099 0.050694,0.188179 c 0.056794,0.214877 0.18515,0.498546 0.3194355,0.707624 0.053694,0.08299 0.080691,0.155183 0.065693,0.170181 -0.050694,0.048 -0.3881979,0.143285 -0.6359811,0.18218 -0.3075267,0.045 -0.7703866,0.021 -0.9733247,-0.05099 -0.1791306,-0.06299 -0.3701599,-0.176081 -0.3940873,-0.238874 -0.014898,-0.039 0.2687009,-1.086783 0.313546,-1.164474 0.014998,-0.021 0.1194971,-0.01 0.3344538,0.036 z M 4.1485582,10.931726 c 0.6091741,0.146384 0.6001551,0.143284 0.6538893,0.298668 0.023897,0.07499 0.086591,0.206077 0.1372951,0.286569 0.1074784,0.173181 0.1074784,0.17618 -0.1493138,0.253872 -0.2268555,0.07199 -0.7702667,0.06899 -0.9554064,0 -0.071692,-0.03 -0.1612226,-0.08099 -0.1970487,-0.113588 l -0.065693,-0.06299 0.068693,-0.241874 c 0.1164974,-0.424054 0.1433045,-0.498746 0.1761209,-0.495746 0.017998,2e-4 0.1672319,0.036 0.3314539,0.07499 z M 4.372534,3.2522575 c 0,0.059994 0.1881496,0.5166441 0.3642806,0.8928037 L 4.8891281,4.4675263 4.7637417,4.5959124 C 4.6920494,4.6709043 4.5010501,4.8138888 4.3398375,4.9183775 4.178615,5.0197665 4.0472092,5.1153562 4.0442095,5.1272549 c 0,0.032996 0.4955564,0.295668 0.6508796,0.3433628 0.077692,0.023997 0.2836093,0.053994 0.4627399,0.062993 L 5.4772644,5.5546086 5.3100325,5.8083811 C 5.0592497,6.1845404 4.8890081,6.3876185 4.557554,6.7100836 4.0739063,7.1790328 3.6409834,7.4328053 3.1096009,7.5581918 2.9842045,7.5881885 2.8797358,7.6181853 2.8797358,7.630184 c 0,0.056994 0.4329131,0.4747486 0.5613192,0.5464408 0.2328648,0.1253865 0.5732178,0.2029781 0.92258,0.2088774 0.1702415,0 0.3075367,0.011999 0.3075367,0.020998 0,0.01 -0.101589,0.1313857 -0.2239758,0.2746702 C 3.9605288,9.2455091 3.2140696,9.782851 2.5273539,10.06362 L 2.3661413,10.12961 2.1242475,10.06962 C 1.9898421,10.039622 1.7062428,9.9826286 1.4942857,9.9472332 L 1.1090874,9.8812403 1.4196238,9.7289568 C 1.5898654,9.6449659 1.8466576,9.496082 1.9899621,9.3915933 2.3035081,9.1676176 2.7244026,8.7376641 2.9155619,8.4480955 3.1156102,8.1465281 3.1214996,8.12863 2.9632567,8.2062216 c -0.110488,0.056994 -0.1791306,0.065993 -0.4866573,0.065993 -0.3105364,0 -0.379189,-0.011999 -0.5135944,-0.071992 C 1.879414,8.1642266 1.786874,8.1072326 1.759947,8.0778358 1.715152,8.0268408 1.721151,8.0208418 1.855537,7.9763468 2.1779717,7.8658585 2.6050055,7.5493927 2.9304403,7.1761331 3.1991412,6.8685664 3.4798608,6.4267142 3.5515131,6.2028385 l 0.020898,-0.068993 -0.101469,0.050994 C 3.3425457,6.2508333 3.0261199,6.2708311 2.8200622,6.2298355 2.5423423,6.1728417 2.5423423,6.169842 2.849859,5.8804733 3.1932118,5.5520089 3.5096376,5.0832596 3.820174,4.4503281 4.0232318,4.0292737 4.2530969,3.4770332 4.2979421,3.2918532 c 0.020798,-0.083991 0.074492,-0.1135877 0.074492,-0.038996 z m 5.2400229,0.020998 c 0.08959,0.2746703 0.3970981,0.9494976 0.6031651,1.3256568 0.361261,0.656929 0.812102,1.2808614 1.137547,1.5734298 0.06859,0.062993 0.113488,0.1164873 0.101459,0.1253864 -0.08069,0.047995 -0.492666,0.050994 -0.722532,0.01 -0.134415,-0.029997 -0.253792,-0.044995 -0.259801,-0.035996 -0.0239,0.023997 0.244893,0.6031347 0.400096,0.868906 0.200059,0.3344638 0.629972,0.7583179 0.973325,0.9583962 l 0.262812,0.1522835 -0.152204,0.065993 c -0.289619,0.1253864 -0.653889,0.1462842 -1.024059,0.062993 -0.06279,-0.011999 -0.110488,-0.014998 -0.110488,0 0,0.053994 0.304527,0.5255431 0.495686,0.7704166 0.358261,0.4568506 0.955407,1.0151892 1.412247,1.3196562 l 0.161103,0.100089 -0.08659,0.036 c -0.164222,0.06899 -0.722542,0.244974 -0.844928,0.265771 -0.110478,0.018 -0.143305,0.01 -0.367281,-0.137285 C 10.806818,10.236201 9.851411,9.3227008 9.334937,8.5761816 L 9.1797337,8.3522058 9.5619125,8.3402071 C 10.024653,8.3222091 10.272556,8.2472172 10.693571,7.9968443 L 10.97718,7.8296624 10.532118,7.602687 C 9.9947155,7.3279167 9.7737494,7.1727335 9.4781214,6.8651668 9.1796037,6.5517007 8.8570486,6.0560543 8.6899467,5.652998 L 8.6422519,5.5425099 h 0.3523718 c 0.3314542,0 1.1703743,-0.1074883 1.1703743,-0.1552832 0,-0.01 -0.128406,-0.1223867 -0.2836101,-0.2507728 C 9.6007881,4.9065788 9.3230782,4.6288088 9.1648654,4.4198314 L 9.0841741,4.3124431 9.1946521,4.0525712 C 9.2574453,3.9062867 9.3648937,3.6376158 9.4335363,3.4494362 L 9.5589327,3.109073 Z M 7.1791302,1.4220556 C 7.3612705,1.9087029 7.8897733,2.9865863 8.1763823,3.4612349 8.5824884,4.1300628 9.0184212,4.6974014 9.4034895,5.0556626 9.5707214,5.2138455 9.5916391,5.2437423 9.546794,5.26454 9.516997,5.276539 9.2990208,5.285538 9.0601367,5.285538 8.7377016,5.285538 8.576479,5.27054 8.4360642,5.231544 8.3315855,5.2045465 8.2390156,5.1835488 8.2360159,5.1895481 8.2181179,5.2075461 8.364412,5.5538087 8.5375332,5.9120699 8.9585477,6.7719769 9.5108479,7.3691122 10.248419,7.7483712 l 0.191149,0.098989 -0.08659,0.053994 c -0.217967,0.1343855 -0.4568518,0.1881797 -0.8598382,0.1881797 -0.2149567,0 -0.4657395,-0.017998 -0.5613193,-0.038996 -0.09559,-0.020998 -0.1821401,-0.029997 -0.194039,-0.017998 -0.023897,0.023997 0.08959,0.2388742 0.2956281,0.5524402 0.5164741,0.7883147 1.3675324,1.6451219 2.1885334,2.2064599 l 0.262802,0.179081 -0.113488,0.04799 c -0.501565,0.211978 -1.233126,0.406057 -1.8033352,0.480648 -0.2896187,0.036 -0.5254931,0.045 -1.0600053,0.033 C 7.5255727,11.511163 7.0777412,11.430572 5.268397,10.958923 4.0980237,10.654456 3.6142563,10.546967 2.9782751,10.439479 L 2.4916078,10.361488 2.7842361,10.227102 C 3.7486617,9.7851507 4.5309469,9.1134234 5.0862568,8.2535165 5.1877258,8.101233 5.268397,7.9638479 5.268397,7.9519492 c 0,-0.011999 -0.071692,0.011999 -0.1582128,0.050994 C 4.6113781,8.2330187 3.7842479,8.1583268 3.4199673,7.8538598 l -0.098589,-0.083991 0.220966,-0.077992 C 4.279914,7.4290057 5.1636684,6.6019953 5.6951708,5.6733958 5.832466,5.4315219 5.9758905,5.1060572 5.934055,5.1269549 5.6444463,5.2763387 5.3548277,5.3210339 5.0144745,5.2703394 4.8830687,5.2523413 4.7158368,5.2103459 4.6441846,5.1773494 L 4.5157885,5.1203556 4.6919194,4.9859702 C 5.4413883,4.4246309 6.2683988,3.0601783 6.8774429,1.3851596 L 7.0177477,1.0000013 Z"/></svg>
