<svg role="img" focusable="false" aria-hidden="true" xmlns="http://www.w3.org/2000/svg" viewBox="0 0 14 14"><path d="M 5.6875,1.75 H 5.3125 C 5.003125,1.75 4.75,2.00312 4.75,2.3125 v 9.375 c 0,0.30937 0.253125,0.5625 0.5625,0.5625 h 0.375 C 5.996875,12.25 6.25,11.99687 6.25,11.6875 V 2.3125 C 6.25,2.00312 5.996875,1.75 5.6875,1.75 Z m -2.0625,0 C 3.41875,1.75 3.25,1.91875 3.25,2.125 v 9.75 c 0,0.20625 0.16875,0.375 0.375,0.375 C 3.83125,12.25 4,12.08125 4,11.875 V 2.125 C 4,1.91875 3.83125,1.75 3.625,1.75 Z m -1.6875,0 H 1.5625 C 1.253125,1.75 1,2.00312 1,2.3125 v 9.375 C 1,11.99687 1.253125,12.25 1.5625,12.25 h 0.375 C 2.246875,12.25 2.5,11.99687 2.5,11.6875 V 2.3125 C 2.5,2.00312 2.246875,1.75 1.9375,1.75 Z m 10.5,0 h -0.375 C 11.753125,1.75 11.5,2.00312 11.5,2.3125 v 9.375 c 0,0.30937 0.253125,0.5625 0.5625,0.5625 h 0.375 C 12.746875,12.25 13,11.99687 13,11.6875 V 2.3125 C 13,2.00312 12.746875,1.75 12.4375,1.75 Z m -2.0625,0 C 10.16875,1.75 10,1.91875 10,2.125 v 9.75 c 0,0.20625 0.16875,0.375 0.375,0.375 0.20625,0 0.375,-0.16875 0.375,-0.375 V 2.125 C 10.75,1.91875 10.58125,1.75 10.375,1.75 Z m -2.4375,0 H 7.5625 C 7.253125,1.75 7,2.00312 7,2.3125 v 9.375 C 7,11.99687 7.253125,12.25 7.5625,12.25 h 0.375 C 8.246875,12.25 8.5,11.99687 8.5,11.6875 V 2.3125 C 8.5,2.00312 8.246875,1.75 7.9375,1.75 Z"/></svg>
