<svg role="img" focusable="false" aria-hidden="true" xmlns="http://www.w3.org/2000/svg" viewBox="0 0 14 14"><path d="m 11.780879,5.1798959 -7.87994,-3.46604 c -0.3098751,-0.12238 -0.6614377,0 -0.8254795,0.28906 l -1.9869174,3.47646 c -0.0989583,0.17187 -0.11458333,0.37498 -0.046896,0.55987 0.067729,0.1849 0.2135626,0.33073 0.3984376,0.39844 L 4.7003976,7.7892059 3.869689,10.000066 H 2.3332926 v 0 c 0,-0.5522501 -0.4477085,-0.9999601 -0.9999587,-0.9999601 h -2.08e-5 c -0.1840834,0 -0.3333127,0.14923 -0.3333127,0.33331 v 2.6665901 c 0,0.1841 0.1492293,0.33333 0.3333127,0.33333 h 2.08e-5 c 0.5522502,0 0.9999587,-0.44771 0.9999587,-0.99996 v -2e-5 h 2.0011049 c 0.2777084,0 0.5262919,-0.17225 0.6237919,-0.43227 l 0.976542,-2.6040801 1.4270423,0.59112 c 0.1926875,0.0703 0.4062293,0.0495 0.5807085,-0.0599 l 3.9425638,-2.46606 c 0.463542,-0.28906 0.401042,-0.98175 -0.104167,-1.18227 z m 1.007792,2.19004 -0.736958,-0.32289 -2.8827095,1.80202 2.4895005,1.09371 c 0.177063,0.0781 0.385396,-0.003 0.463521,-0.17967 l 0.848938,-1.92963 c 0.03644,-0.0859 0.03904,-0.18229 0.0052,-0.26823 -0.03385,-0.0885 -0.101583,-0.15625 -0.1875,-0.19531 z"/></svg>
