<svg role="img" focusable="false" aria-hidden="true" xmlns="http://www.w3.org/2000/svg" viewBox="0 0 14 14"><path d="m 2.5612134,1.0368178 c -0.252967,0.45499 -0.295373,1.05146 -0.214692,1.61271 0.04266,0.29638 0.118119,0.58413 0.232943,0.83646 -0.278315,-0.0591 -0.579443,-0.17084 -0.893498,-0.30576 l 0.497418,0.92442 c -0.368501,-0.17789 -0.745595,-0.12872 -1.104996,-0.008 0.810712,0.53179 0.466342,0.98318 -0.0784,1.49948 0.253576,-0.053 0.512018,-0.16846 0.74377,-0.24637 -0.147319,0.49343 -0.165569,1.0749 0.0056,1.71891 1.346203,5.0672102 5.654002,6.5991302 8.7527776,5.6112902 2.03464,-0.64852 2.75831,-2.5312 2.416702,-4.1047202 -0.170766,-0.78678 -0.601749,-1.5069 -1.264179,-1.96759 -0.662379,-0.46069 -1.554103,-0.6488 -2.5878216,-0.39213 h -7.61e-4 c -0.903738,0.22539 -1.644491,0.31051 -2.17988,0.16557 -0.535414,-0.14493 -0.901204,-0.48591 -1.140636,-1.26339 -0.09214,-0.2991 -0.224679,-0.5546 -0.387359,-0.7644 -0.02433,-0.46533 0.1678,-0.82714 0.535465,-1.105 -0.52198,-0.11059 -1.038409,-0.16965 -1.487591,0.41342 0.137002,-0.34075 -0.0185,-0.95951 -0.325538,-1.13823 -0.189295,0.65898 -0.517696,0.93998 -0.934687,0.99727 -0.150209,-0.22645 -0.277555,-0.57194 -0.330328,-0.93867 -0.06983,-0.48548 -0.01343,-1.00292 0.159993,-1.31492 z m 1.87888,3.18425 0.08162,0.0332 c 0.32901,0.16641 0.610468,0.47996 0.771526,1.00283 0.271167,0.88049 0.789319,1.39689 1.469341,1.58102 0.37608,0.10182 0.79046,0.11213 1.243621,0.0618 -2.667007,2.2231 2.1278676,5.9285102 4.4389466,3.1850802 -0.220269,0.92055 -0.880266,1.75957 -2.08721,2.14425 -2.8448456,0.90693 -6.8623146,-0.43276 -8.1508016,-5.2825402 -0.175278,-0.65964 -0.130083,-1.21473 0.04674,-1.65468 0.130286,0.0437 0.226733,0.16283 0.274893,0.40708 0.440462,-0.3465 0.751906,-0.71168 0.796062,-1.11448 0.444087,0 0.888301,0.0734 1.332363,0.36044 0.03211,-0.2555 -0.0047,-0.50023 -0.21705,-0.724 z"/></svg>
