<svg role="img" focusable="false" aria-hidden="true" xmlns="http://www.w3.org/2000/svg" viewBox="0 0 14 14"><path d="M 11.087464,0.99999686 C 10.245114,1.5454569 8.963501,1.9860169 8.764541,2.9567869 8.221923,2.3482769 7.39766,1.9986769 6.772357,1.9883369 c -0.914699,-0.007 -1.842318,0.277 -2.695004,0.80489 1.578761,0.10464 2.286749,0.33849 3.591616,0.75191 l -0.563289,0.24805 c -0.353994,0.15504 -0.509028,0.30749 -0.578793,0.43668 -0.155034,0.48578 0.113692,0.87078 0.06201,1.31779 0.322987,-0.0827 0.648558,-0.13178 0.932786,-0.22221 0.423759,-0.13695 0.74933,-0.33591 0.953458,-0.91729 l 0.173121,-0.49611 0.250638,0.45994 c 0.3049,0.5607 0.581377,0.81909 0.829431,0.94054 0.248054,0.11885 0.493524,0.11369 0.785504,0.0723 0.516779,-0.0672 0.896612,-0.1757 1.361714,-0.0465 -0.193793,-0.4651 -0.235135,-0.81651 -0.372082,-1.05423 -0.496108,-0.64597 -1.643358,-0.85785 -2.297083,-1.00513 0.07752,-1.08885 1.441814,-1.4183 2.144634,-1.89658 z M 3.2195,3.2660769 c -0.52944,0.78292 -0.100772,1.59426 0.744162,1.45215 -0.04651,-0.56846 0.149866,-1.09816 0.558122,-1.44957 -0.353994,-0.0827 -1.043894,-0.28164 -1.302284,-0.003 z m 2.204063,0.11628 c -0.382416,0.0853 -0.767417,0.27389 -0.932786,0.71832 -0.21188,0.5607 0.02584,1.1395 0.493524,1.3152 0.289396,0.10853 0.865605,0.0103 1.121411,-0.18862 0.06977,-0.5142 -0.191208,-0.9638 0.0956,-1.34621 -0.155034,-0.26873 -0.472853,-0.56071 -0.777753,-0.49869 z m -2.739446,1.32037 c -0.116276,0.11369 -0.214464,0.25839 -0.279061,0.43151 -0.21188,0.5607 0.02584,1.1395 0.493524,1.3152 0.160718,0.062 0.333839,0.0672 0.501793,0.0258 -0.03618,-0.50644 0.103356,-0.95604 0.423759,-1.30487 -0.472853,-0.0155 -0.860955,-0.12403 -1.140015,-0.46768 z m 5.904719,0.44701 c -0.258389,0.32299 -0.591712,0.50903 -0.925034,0.61755 -0.35141,0.11369 -0.705404,0.16795 -1.00772,0.24547 0.118859,0.11628 0.266141,0.21188 0.436678,0.27648 0.607216,0.22738 1.250606,-0.0439 1.454734,-0.58396 0.06718,-0.18087 0.0801,-0.37208 0.04134,-0.55554 z m -4.3642,0.24289 c -0.136947,0.11886 -0.250638,0.27906 -0.322987,0.47027 -0.209296,0.56328 0.02584,1.14208 0.493524,1.31778 0.24547,0.0904 0.514195,0.0568 0.746746,-0.0749 -0.222215,-0.46252 0.286812,-1.124 0.534866,-1.21443 -0.589128,-0.0207 -1.08782,-0.005 -1.452149,-0.49869 z m 4.849973,0.0129 c -0.0155,0.32557 -0.136947,0.62788 -0.322987,0.86302 0.04134,0.35657 0.250638,0.65889 0.565873,0.77775 0.465102,0.1757 1.025807,-0.10336 1.237687,-0.66665 0.06976,-0.18345 0.09044,-0.36949 0.06976,-0.54261 -0.674397,0.0362 -1.098156,0.008 -1.550338,-0.43151 z m 2.007687,0.36174 c 0.05168,0.60722 -0.19896,1.18084 -0.656309,1.52192 0.165369,0.27647 0.426343,0.47027 0.705403,0.50386 0.480605,0.062 0.899196,-0.35141 0.90178,-0.97155 0,-0.47027 -0.237718,-0.88111 -0.563289,-1.08007 -0.131779,-0.005 -0.273893,0.008 -0.387585,0.0258 z m -4.891315,0.41601 c -0.291981,0.10077 -0.423759,0.20154 -0.529699,0.47544 -0.201544,0.53228 0.131779,1.17825 0.790672,1.42889 0.658894,0.24805 1.335875,-0.0207 1.534835,-0.55554 0.09302,-0.24288 0.07235,-0.51161 -0.03876,-0.75191 -0.700236,0.12919 -1.335874,-0.0698 -1.757048,-0.59688 z m -3.920288,0.4005 c -0.113691,0.1447 -0.193792,0.32816 -0.224799,0.54262 -0.08604,0.60205 0.263558,1.15242 0.744162,1.26094 0.07907,0.0181 0.16046,0.0207 0.240819,0.0129 -0.143147,-0.48835 -0.06227,-1.04906 0.21188,-1.43406 -0.373373,0.0103 -0.729434,-0.13953 -0.972062,-0.38242 z m 6.204452,0.31007 c 0.0646,0.45218 0.01034,0.81134 -0.242886,1.14983 0.103356,0.26615 0.310067,0.47027 0.576209,0.54521 0.480604,0.13436 1.015471,-0.19121 1.175672,-0.77 0.03101,-0.10594 0.04651,-0.21447 0.04651,-0.32558 -0.651142,0.16796 -1.237687,-0.0543 -1.555505,-0.59946 z m -4.793128,0.2894 c -0.149866,0.16795 -0.248054,0.4005 -0.263557,0.67439 -0.03359,0.60722 0.361745,1.124 0.850102,1.1886 0.201544,0.0284 0.395336,-0.0258 0.558121,-0.13953 0,-0.40568 0.147283,-0.78551 0.39792,-1.06457 -0.01034,-0.0801 -0.03101,-0.1602 -0.05685,-0.23772 -0.594296,0.16795 -1.129163,0.0439 -1.485741,-0.42117 z m 6.725882,0.74933 c -0.136946,0.48577 -0.348826,0.71057 -0.658893,0.91211 0.09044,0.23772 0.268725,0.42893 0.50386,0.51678 0.465101,0.17571 1.025806,-0.10335 1.237686,-0.66406 0.05943,-0.15762 0.08268,-0.31265 0.07752,-0.46252 -0.413424,0.10077 -0.868189,-0.0594 -1.16017,-0.30231 z m -4.782792,0.16278 c -0.113691,0.10853 -0.206711,0.24547 -0.266141,0.40309 -0.209296,0.55037 0.06201,1.155 0.599464,1.35655 0.540034,0.2041201 1.139498,-0.0723 1.348794,-0.62272 0.07752,-0.21188 0.08785,-0.43151 0.03876,-0.63306 -0.671813,0.10077 -1.263525,-0.0543 -1.720875,-0.50386 z m 2.286749,0.34624 c -0.03876,0.0103 -0.0801,0.0233 -0.11886,0.0388 0.124027,0.65631 -0.09819,1.26611 -0.604631,1.6278601 0.06201,0.0801 0.142114,0.1447 0.229966,0.19379 0.434095,0.23513 1.059398,0.0517 1.390137,-0.4573501 0.167953,-0.25581 0.219631,-0.53487 0.175705,-0.77775 -0.436679,-0.0129 -0.870773,-0.30749 -1.072317,-0.62531 z m -5.849166,0.0362 c -0.06072,0.13695 -0.0956,0.29715 -0.09586,0.47544 0,0.56328 0.342625,1.04389 0.766384,1.1730801 C 2.61513,9.6844769 2.628307,9.2503769 2.821064,8.8653769 2.535802,8.8136769 2.240979,8.6509169 2.062691,8.4777969 Z m 1.254998,0.47802 c -0.09819,0.13695 -0.165369,0.30748 -0.193792,0.50128 -0.08785,0.6020401 0.263557,1.1524101 0.744162,1.2583501 0.121443,0.0284 0.248054,0.0258 0.369497,-0.008 -0.07235,-0.44701 -0.02842,-0.8268501 0.183457,-1.1860101 -0.421175,0 -0.886277,-0.29198 -1.103324,-0.56587 z m 6.157425,0.35658 c -0.0646,0.52453 -0.307484,0.9379501 -0.707988,1.2247601 0.06977,0.11886 0.170537,0.21705 0.297148,0.28682 0.431511,0.23771 1.056814,0.0543 1.390137,-0.45477 0.103355,-0.16278 0.162785,-0.33074 0.183456,-0.4935201 -0.465101,0.0258 -0.919867,-0.21447 -1.162753,-0.56329 z m -4.49598,0.23255 c -0.124027,0.12919 -0.219631,0.29456 -0.273893,0.4883501 -0.162785,0.57363 0.134363,1.13692 0.633055,1.27645 0.498692,0.13953 1.04131,-0.18863 1.204096,-0.76483 0.0155,-0.0594 0.02584,-0.11886 0.03359,-0.18088 -0.79584,0.15762 -1.310035,-0.25322 -1.596848,-0.8190901 z m 2.030943,1.0464801 c -0.0956,0.36949 -0.377249,0.77258 -0.64339,0.95862 0.0646,0.0801 0.142114,0.1447 0.23255,0.19379 0.434095,0.23514 1.056814,0.0543 1.390136,-0.45735 0.100772,-0.15503 0.160202,-0.31782 0.180873,-0.47802 -0.465101,0.0568 -0.824263,0.031 -1.160169,-0.21704 z m -4.025711,0.0336 c -0.02687,0.12661 -0.03256,0.17312 -0.03669,0.26097 -0.0155,0.31007 0.07028,0.59688 0.204645,0.80101 0.136946,0.20154 0.312651,0.31782 0.503859,0.3359 0.05685,-0.30231 0.10594,-0.59429 0.235135,-0.82943 -0.405672,-0.11886 -0.695068,-0.24805 -0.906949,-0.56845 z m 5.614807,0.44701 c -0.124027,0.42118 -0.439262,0.7855 -0.785504,0.99222 0.0078,0.005 0.01292,0.0103 0.02067,0.0129 0.400504,0.27131 1.056813,0.15503 1.465069,-0.31266 0.111107,-0.12402 0.18604,-0.25838 0.232551,-0.39016 -0.377249,-0.0103 -0.66923,-0.0827 -0.932787,-0.30232 z m -4.147154,0.12661 c -0.0956,0.11111 -0.178288,0.24547 -0.237718,0.40309 -0.217047,0.57362 -0.0078,1.12916 0.385001,1.27644 0.392752,0.14729 0.914699,-0.13436 1.129162,-0.7054 0.04909,-0.13436 0.07752,-0.26356 0.08527,-0.39017 -0.55037,0.0853 -1.077485,-0.16537 -1.361715,-0.58396 z m 1.788057,0.87077 c -0.05685,0.27648 -0.196376,0.55296 -0.353994,0.7545 0.02067,0.0233 0.04651,0.0465 0.07235,0.0646 0.155034,0.11369 0.364329,0.14211 0.599464,0.0775 0.408256,-0.15762 0.671813,-0.37208 0.850102,-0.72866 -0.449598,0.0646 -0.839766,0.0568 -1.167921,-0.16796 z"/></svg>
