<svg role="img" focusable="false" aria-hidden="true" xmlns="http://www.w3.org/2000/svg" viewBox="0 0 14 14"><path d="m 7.7499872,4.3749783 c 0,0.6211 0.503859,1.125 1.1249992,1.125 0.6210933,0 1.1249991,-0.5039 1.1249991,-1.125 0,-0.62109 -0.5039058,-1.125 -1.1249991,-1.125 -0.6211402,0 -1.1249992,0.50391 -1.1249992,1.125 z m -2.624998,1.125 c 0.6210933,0 1.1249992,-0.5039 1.1249992,-1.125 0,-0.62109 -0.5039059,-1.125 -1.1249992,-1.125 -0.6211401,0 -1.1249991,0.50391 -1.1249991,1.125 0,0.6211 0.503859,1.125 1.1249991,1.125 z m 2.9999978,-3.37499 c 0,-0.6211 -0.5039059,-1.12500003 -1.1249992,-1.12500003 -0.6211401,0 -1.1249991,0.50390003 -1.1249991,1.12500003 0,0.62109 0.503859,1.12499 1.1249991,1.12499 0.6210933,0 1.1249992,-0.5039 1.1249992,-1.12499 z m -1.4142177,4.56004 c 0.037969,-0.30129 -0.2751561,-0.52559 -0.5673512,-0.39898 -0.9311243,0.40467 -1.9131313,0.60654 -2.8766228,0.59135 -0.2480623,-0.005 -0.4271012,0.23262 -0.3500153,0.45978 0.1169764,0.35786 0.2002732,0.72757 0.249867,1.10906 0.049969,0.37856 -0.2200077,0.7327 -0.6121871,0.80236 -0.3953669,0.0695 -0.789726,0.1019 -1.1830304,0.0973 -0.2483904,-10e-4 -0.43061685,0.23548 -0.353531,0.46261 0.2906248,0.8388097 0.3883122,1.7560797 0.283992,2.6890797 -0.040383,0.35055 0.3212576,0.60159 0.6567183,0.46408 0.9017337,-0.37389 1.8462408,-0.55809 2.7714354,-0.54693 0.2480154,0.005 0.4302419,-0.23227 0.353156,-0.4594 -0.1204921,-0.35506 -0.2034374,-0.72804 -0.2530076,-1.10944 -0.049992,-0.37865 0.2196326,-0.72968 0.6149995,-0.79898 0.3921794,-0.0697 0.7869135,-0.1053797 1.1802179,-0.1008097 0.2515779,0.002 0.4338746,-0.235 0.356695,-0.46216 -0.2995779,-0.87377 -0.3926247,-1.83068 -0.2713357,-2.79895 z m 5.9178007,2.6609 c -0.393328,0.005 -0.787687,-0.0278 -1.183054,-0.0973 -0.392156,-0.0697 -0.662156,-0.4238 -0.612164,-0.80236 0.04957,-0.38149 0.132891,-0.7512 0.249844,-1.10906 0.07709,-0.22716 -0.101953,-0.46437 -0.350016,-0.45978 -0.9634912,0.0152 -1.9454748,-0.18668 -2.8766225,-0.59135 -0.1605468,-0.0696 -0.3213513,-0.0276 -0.43282,0.0692 0.035344,0.13678 0.049266,0.27961 0.031219,0.42298 -0.1063827,0.84923 -0.024586,1.70069 0.2372577,2.46443 0.07957,0.23409 0.071016,0.48595 -0.011156,0.71519 0.2915857,0.0117 0.5833121,0.0376 0.8737259,0.0891 0.3953669,0.0693 0.6649917,0.42033 0.6149995,0.79898 -0.04957,0.3814 -0.1325155,0.75438 -0.2530076,1.10944 -0.077086,0.22713 0.105164,0.46399 0.3531794,0.4594 0.9251716,-0.0112 1.8696796,0.17304 2.7714366,0.54693 0.335437,0.13751 0.697077,-0.11353 0.656694,-0.46408 -0.10432,-0.933 -0.0066,-1.85027 0.284016,-2.6890797 0.07709,-0.22713 -0.105164,-0.46399 -0.353531,-0.46261 z"/></svg>
