<svg role="img" focusable="false" aria-hidden="true" xmlns="http://www.w3.org/2000/svg" viewBox="0 0 14 14"><path d="m 8.6296228,1.0002475 c -0.05983,-3.0995e-4 -0.119228,0.001 -0.17821,0.004 -0.841635,0.046 -1.534514,0.49156 -2.141537,1.11875 0.0686,-0.005 0.136224,-0.007 0.202943,-0.007 0.31397,0.002 0.610453,0.057 0.922591,0.0647 -0.722975,0.17795 -1.341939,0.53793 -1.939239,0.93579 -0.54902,0.76409 -1.03991,1.60941 -1.538692,2.30716 -0.569601,0.79679 -1.390141,1.66976 -2.009414,2.56865 0.01888,0.36318 0.154174,0.72635 0.270745,1.08953 -0.261202,-0.1158 -0.554875,-0.20632 -0.682227,-0.42621 -0.432397,0.79576 -0.62559102,1.6019805 -0.275,2.3849005 0.803802,1.79486 3.854442,2.39778 5.668108,1.63736 0.139886,-0.0587 0.253621,-0.14502 0.348941,-0.25135 -0.399077,-0.005 -0.669925,-0.24596 -0.977292,-0.41961 0.330449,-0.0269 0.844808,0.11585 1.223227,0.0298 0.233917,-0.50585 0.326581,-1.16881 0.630595,-1.62599 0.180196,-0.27098 0.397813,-0.5283405 0.639235,-0.7765705 -0.389303,0.0667 -0.782293,0.0654 -1.241538,0.006 1.190602,-0.43759 1.691653,-0.65017 2.6119752,-1.21041 1.441257,-1.16185 2.924139,-2.2781 2.739352,-3.91397 -0.205547,-1.81957 -2.420405,-3.50584 -4.2745632,-3.51556 z m 0.171556,0.8143 a 0.14491487,0.43471882 69.574 0 1 0.12841,0.0518 0.14491487,0.43471882 69.574 0 1 -0.356833,0.28751 0.14491487,0.43471882 69.574 0 1 -0.45793,0.0159 0.14491487,0.43471882 69.574 0 1 0.356781,-0.28751 0.14491487,0.43471882 69.574 0 1 0.307625,-0.0677 0.14491487,0.43471882 69.574 0 1 0.02195,-10e-5 z m 0.949594,0.44779 c 1.3934422,0.56971 2.4836432,2.6078 1.9018952,3.80379 0.0212,-0.96001 -1.200841,-2.94007 -1.9018952,-3.80379 z m -1.950974,0.81931 c 0.07079,0.001 0.139912,0.007 0.206837,0.0183 -1.084862,0.61409 -2.133155,1.27321 -2.917717,2.25716 0.205909,-1.18805 1.648971,-2.29084 2.71088,-2.27547 z m -2.209287,3.40249 a 0.63077556,0.19752678 19.293 0 1 0.481605,0.0973 0.63077556,0.19752678 19.293 0 1 0.517247,0.3943 0.63077556,0.19752678 19.293 0 1 -0.670673,-0.0295 0.63077556,0.19752678 19.293 0 1 -0.517273,-0.39436 0.63077556,0.19752678 19.293 0 1 0.189094,-0.0677 z m 1.979342,3.5180905 a 0.14491487,0.43471882 69.672 0 1 0.128306,0.052 0.14491487,0.43471882 69.672 0 1 -0.357348,0.28691 0.14491487,0.43471882 69.672 0 1 -0.457981,0.0151 0.14491487,0.43471882 69.672 0 1 0.357348,-0.28686 0.14491487,0.43471882 69.672 0 1 0.307676,-0.0671 0.14491487,0.43471882 69.672 0 1 0.022,-5e-5 z m -5.303048,0.18641 c 0.197243,0.64039 1.006847,1.12708 1.716309,1.76747 -0.834699,-0.15293 -1.964127,-0.37519 -1.716309,-1.76747 z"/></svg>
