<svg role="img" focusable="false" aria-hidden="true" xmlns="http://www.w3.org/2000/svg" viewBox="0 0 14 14"><path d="m 8.7486583,4.164305 c 0.5073346,0 0.9180231,-0.40813 0.9180231,-0.91561 0,-0.50733 -0.4106885,-0.91538 -0.9180231,-0.91538 -0.504668,0 -0.9153148,0.41074 -0.9153148,0.91813 0,0.50473 0.4106468,0.91286 0.9153148,0.91286 z m 3.5450297,2.94899 C 11.751978,6.571455 10.426329,6.308435 9.5668686,6.193855 L 7.4989884,4.107405 c -0.1745212,-0.25277 -0.276084,-0.55485 -0.276084,-0.88312 0,-0.33073 0.104167,-0.6329 0.276084,-0.88559 v -0.17196 c 0,-0.27504 -0.2250422,-0.50008 -0.5000845,-0.50008 v 0 c -0.2750216,0 -0.500043,0.22502 -0.500043,0.50004 v 1.96155 l -2.065276,2.06561 c -0.8594605,0.11458 -2.1850888,0.3776 -2.7267985,0.91944 -0.83341874,0.83356 -0.94539818,2.07079 -0.2526465,2.76627 0.6953976,0.69288 1.9350882,0.5809 2.7658612,-0.2526 0.2370214,-0.23706 0.4193135,-0.63038 0.5599805,-1.06284 0.1796671,0.32627 0.5634181,0.52898 0.9882108,0.39129 0.2623132,-0.085 0.4713137,-0.30789 0.5375014,-0.5756 0.137042,-0.55415 -0.2762715,-1.04771 -0.8069187,-1.04771 -0.1718754,0 -0.3203133,0.0651 -0.4531678,0.15373 0.039063,-0.20842 0.072917,-0.409 0.09375,-0.58869 l 1.3595034,-1.35971 v 1.51854 c 0.32098,0.28813 0.5206263,0.71205 0.4983971,1.18055 -0.02525,0.53262 -0.3734176,0.9931 -0.8414396,1.2486 -0.4033135,0.22015 -0.7315018,0.20755 -1.0268776,0.12882 -0.078125,0.20573 -0.1302086,0.40633 -0.1302086,0.5861 0,1.17992 0.8959189,2.1333 2.0002133,2.1333 1.1042528,0 2.0001717,-0.95338 2.0001717,-2.1333 0,-0.79452 -0.9089398,-1.97186 -1.5001288,-2.65171 v -2.0083 l 1.3595035,1.35971 c 0.1145836,0.85953 0.3776467,2.18538 0.9193564,2.72722 0.8334189,0.8335 2.0704849,0.94548 2.7658619,0.2526 0.695356,-0.69548 0.583376,-1.93271 -0.250022,-2.76627 z"/></svg>
