<svg role="img" focusable="false" aria-hidden="true" xmlns="http://www.w3.org/2000/svg" viewBox="0 0 14 14"><path d="m 6.5944955,7.6 h 0.5742938 c 0.16875,0 0.3187875,-0.0937 0.3914438,-0.24375 0.070312,-0.15234 0.046875,-0.32578 -0.063281,-0.45234 L 6.0319204,5.2 H 6.5733642 C 6.7444955,5.2 6.8992205,5.09922 6.9648455,4.94453 7.0328145,4.79219 7.0000015,4.61406 6.8851575,4.49219 L 4.8176698,2.29141 c -0.1125,-0.12188 -0.323475,-0.12188 -0.435975,0 L 2.3118821,4.49219 c -0.1125,0.12187 -0.1453125,0.3 -0.077344,0.45234 C 2.3001631,5.09922 2.4548882,5.2 2.6259819,5.2 H 3.1674632 L 1.7024318,6.90391 C 1.5922755,7.03281 1.568838,7.20391 1.6391508,7.35625 1.7118068,7.50625 1.8595008,7.6 2.0305947,7.6 H 2.6048885 L 1.1070445,9.29687 C 0.99454418,9.42344 0.96872543,9.59922 1.0390754,9.75156 1.1093879,9.90156 1.2640755,10 1.432863,10 h 2.5671385 v 1.2 c 0,0.33137 0.2686313,0.6 0.6,0.6 v 0 c 0.3313688,0 0.6000001,-0.26863 0.6000001,-0.6 V 10 h 2.566519 c 0.16875,0 0.323475,-0.0984 0.3937875,-0.24844 0.070312,-0.15234 0.046875,-0.32812 -0.065625,-0.45469 z M 12.892959,9.29687 11.395115,7.6 h 0.574293 c 0.16875,0 0.318788,-0.0937 0.391444,-0.24375 0.07031,-0.15234 0.04687,-0.32578 -0.06328,-0.45234 L 10.83254,5.2 h 0.541481 c 0.171094,0 0.325819,-0.10078 0.391444,-0.25547 0.06797,-0.15234 0.03516,-0.33047 -0.07969,-0.45234 L 9.6183062,2.29141 c -0.1125,-0.12188 -0.323475,-0.12188 -0.435975,0 L 7.3984748,4.18984 c 0.2086313,0.28828 0.2625375,0.66094 0.1195688,0.99141 -0.075,0.17578 -0.1945688,0.32109 -0.3422251,0.42656 L 7.9540186,6.5125 C 8.2165561,6.81719 8.2751874,7.24844 8.1040561,7.61172 8.0243691,7.77812 7.9071436,7.91406 7.7641748,8.01484 l 0.7805814,0.8836 C 8.7064749,9.08359 8.7955374,9.16562 8.8002249,9.4 h -2.25e-4 v 1.8 c 0,0.33137 0.2686313,0.6 0.6000001,0.6 v 0 c 0.3313688,0 0.6,-0.26863 0.6,-0.6 V 10 h 2.567138 c 0.168787,0 0.323475,-0.0984 0.393787,-0.24844 0.07035,-0.15234 0.04453,-0.32812 -0.06797,-0.45469 z"/></svg>
