<svg role="img" focusable="false" aria-hidden="true" xmlns="http://www.w3.org/2000/svg" viewBox="0 0 14 14"><path d="m 9.9055652,1.000006 c -0.444816,0.10201 -0.956221,0.97513 -1.267858,1.35575 0.218412,0.0986 0.460797,0.10122 0.716499,0.0959 0.125188,-0.20856 1.3291208,-1.44818 0.551359,-1.45164 z m -7.039809,1.72865 c 0.322292,0.19817 0.767107,0.23546 1.081408,0.23812 0.724491,0.005 1.675384,-0.16354 2.660904,-0.45919 l 0.229067,0.40859 c -0.551358,0.49542 -0.684537,0.89496 -0.684537,1.17197 -0.0027,0.27701 0.157151,0.46878 0.194441,0.49542 0.279674,0.2051 0.663228,0.19178 1.137343,-0.003 0.476779,-0.19178 1.004165,-0.56202 1.47828,-0.97753 l 0.245048,-0.21841 0.133179,0.30098 c 0.340936,0.7751 0.6738818,1.47828 1.0787438,1.93375 0.346264,0.39154 0.721827,0.60996 1.270522,0.59131 -0.237057,-0.72982 -0.372899,-1.26786 -0.572667,-1.71001 -0.226403,-0.50075 -0.532713,-0.91627 -1.2225768,-1.48893 -0.08523,-0.0693 -0.253039,-0.0826 -0.516733,-0.0799 -0.705845,-0.005 -1.203932,-0.14916 -1.688701,-0.66962 -0.154487,-0.16781 -0.271684,-0.31697 -0.551359,-0.52739 -1.526224,0.19391 -3.036467,0.635 -4.272362,0.99351 z m 3.111047,0.44588 c -0.514069,0.12519 -1.009492,0.20776 -1.464962,0.24771 -0.03463,0.18379 -0.213086,0.47678 -0.3729,0.44482 -0.117197,-0.032 -0.173132,-0.21308 -0.138505,-0.42084 -0.26103,-0.005 -0.535377,-0.0213 -0.759117,-0.0666 -0.40646,0.41818 -0.519662,1.01215 -0.620878,1.51024 0.215749,-0.0373 0.242651,0.34094 0.206693,0.4901 -0.06233,0.23173 -0.215216,0.39154 -0.345997,0.36757 -0.14623,1.17197 -0.154753,2.47978 -0.161412,3.69437 -0.0077,1.44631 -0.12652,2.65291 0.719163,3.44133 2.282677,0.63925 5.225919,-1.47296 6.9785468,-3.25755 -0.06393,0.0213 -0.1198608,0.016 -0.1624778,-0.0106 -0.114533,-0.0772 -0.09589,-0.30365 0.03995,-0.50608 0.1092058,-0.12519 0.2876648,-0.33028 0.4528058,-0.23439 0.08523,0.0586 0.09855,0.20243 0.03463,0.36757 0.623275,-0.6872 1.038792,-1.28384 1.121362,-1.59814 0.05594,-0.33295 0.06393,-0.65257 0.03995,-0.95888 -0.03463,0 -0.06659,-0.003 -0.09855,-0.005 -0.0053,0.0799 -0.03196,0.17313 -0.07724,0.26103 -0.111869,0.22107 -0.300983,0.34626 -0.420843,0.285 -0.122524,-0.0613 -0.133179,-0.28767 -0.02131,-0.50874 0.02397,-0.048 0.05327,-0.0932 0.08523,-0.13052 -0.234394,-0.0799 -0.447479,-0.19976 -0.636592,-0.35159 0.03196,0.10654 -0.0053,0.26636 -0.103879,0.41552 -0.135842,0.20509 -0.3409368,0.30897 -0.4528068,0.23173 -0.114533,-0.0746 -0.09589,-0.30098 0.03995,-0.50608 0.106542,-0.12252 0.2343938,-0.2557 0.3835528,-0.2557 -0.06392,-0.0586 -0.122524,-0.1172 -0.181122,-0.18379 -0.3409368,-0.38355 -0.6099568,-0.87365 -0.8603328,-1.40636 -0.07458,0.0985 -0.165141,0.15182 -0.245048,0.13051 -0.09589,-0.0266 -0.151823,-0.15448 -0.14916,-0.3143 -0.367572,0.28234 -0.753789,0.52206 -1.140006,0.67921 -0.07192,0.15449 -0.202432,0.38089 -0.351591,0.34893 -0.07192,-0.0213 -0.122524,-0.0959 -0.141169,-0.20243 -0.396872,0.0772 -0.785753,0.0346 -1.108044,-0.19977 -0.189114,-0.13584 -0.362246,-0.39953 -0.388881,-0.77776 -0.07458,0.11453 -0.173132,0.17846 -0.26103,0.15449 -0.133178,-0.0346 -0.18645,-0.25571 -0.125188,-0.49276 0.0586,-0.21043 0.189114,-0.36491 0.314301,-0.37024 0.07458,0 0.133179,0.0666 0.157151,0.1172 0.04794,-0.13851 0.11986,-0.27968 0.215749,-0.42884 z m -1.334448,0.90828 c 0.130515,0.0373 0.18645,0.25837 0.122525,0.49276 -0.06393,0.23706 -0.221077,0.4022 -0.354255,0.36491 -0.133178,-0.0346 -0.18645,-0.2557 -0.122524,-0.49276 0.07192,-0.16248 0.175795,-0.39421 0.354254,-0.36491 z m -0.942902,0.11453 c 0.130514,0.0373 0.186449,0.25837 0.122524,0.49543 -0.06393,0.23705 -0.221076,0.39953 -0.354255,0.36224 -0.133178,-0.0346 -0.186449,-0.2557 -0.122524,-0.49276 0.07458,-0.16514 0.175796,-0.38888 0.354255,-0.36491 z m 5.01017,0.3729 c 0.133178,0.0346 0.18645,0.25571 0.122524,0.49276 -0.06126,0.23706 -0.221076,0.39954 -0.354254,0.36491 -0.130515,-0.0373 -0.202431,-0.26369 -0.122524,-0.49542 0.05593,-0.16781 0.178459,-0.39421 0.354254,-0.36225 z m -3.59848,0.50075 c 0.133179,0.0373 0.189114,0.25837 0.125188,0.49543 -0.06393,0.23705 -0.22374,0.39953 -0.356918,0.36224 -0.130515,-0.0346 -0.202431,-0.26103 -0.122524,-0.49276 0.05594,-0.1678 0.178459,-0.38888 0.354254,-0.36491 z m 1.179961,0.25038 c 0.130515,0.0346 0.186449,0.2557 0.122524,0.49276 -0.06393,0.23706 -0.22374,0.39953 -0.354255,0.36491 -0.133178,-0.0373 -0.202431,-0.26103 -0.125187,-0.49276 0.0586,-0.17047 0.181122,-0.39421 0.356918,-0.36491 z m 1.792581,0.25836 c 0.133178,0.0346 0.189113,0.25571 0.125187,0.49276 -0.06392,0.23706 -0.223739,0.4022 -0.356918,0.36491 -0.130515,-0.0346 -0.186449,-0.2557 -0.122524,-0.49276 0.07192,-0.16247 0.178459,-0.3942 0.354255,-0.36491 z m 1.049445,0.0479 c 0.133179,0.0346 0.18645,0.2557 0.122524,0.49276 -0.06392,0.23706 -0.221076,0.39953 -0.354254,0.36491 -0.130515,-0.0346 -0.18645,-0.2557 -0.122524,-0.49276 0.07192,-0.16514 0.175795,-0.39421 0.354254,-0.36491 z m -5.265873,0.0799 c 0.133179,0.0346 0.189114,0.2557 0.125188,0.49276 -0.06393,0.23705 -0.22374,0.39953 -0.354254,0.3649 -0.133179,-0.0373 -0.189114,-0.2557 -0.125188,-0.49276 0.06925,-0.15981 0.181122,-0.39687 0.354254,-0.3649 z m 3.228244,0.50075 c 0.133179,0.0373 0.189113,0.25836 0.125188,0.49542 -0.06393,0.23706 -0.22374,0.39954 -0.356918,0.36491 -0.130515,-0.0373 -0.18645,-0.25837 -0.122524,-0.49542 0.07192,-0.16248 0.178459,-0.38889 0.354254,-0.36491 z m -4.205773,0.39687 c 0.130515,0.0373 0.18645,0.25836 0.122524,0.49542 -0.06392,0.23706 -0.222408,0.39954 -0.354521,0.36491 -0.132379,-0.0373 -0.187781,-0.25837 -0.124122,-0.49542 0.07378,-0.16514 0.178193,-0.38888 0.356119,-0.36491 z m 5.585501,0.15981 c 0.133178,0.0346 0.189113,0.2557 0.125188,0.49276 -0.06393,0.23706 -0.22374,0.39954 -0.354255,0.36491 -0.311637,-0.19444 -0.05594,-0.90828 0.229067,-0.85767 z m -2.927261,0.0666 c 0.135842,0.008 0.237058,0.21042 0.22374,0.45547 -0.01065,0.24505 -0.133178,0.43949 -0.26902,0.4315 -0.138506,-0.008 -0.237058,-0.21042 -0.22374,-0.45547 0.01065,-0.24505 0.133178,-0.43949 0.26902,-0.4315 z m -1.174633,0.30098 c 0.133179,0.0373 0.189113,0.25837 0.125188,0.49543 -0.06393,0.23706 -0.22374,0.39953 -0.354255,0.36491 -0.133178,-0.0373 -0.189113,-0.25837 -0.125187,-0.49543 0.07192,-0.16247 0.178459,-0.38888 0.354254,-0.36491 z m 5.300499,0.21043 c 0.114534,0.0746 0.09589,0.30098 -0.03995,0.50607 -0.135842,0.2051 -0.338273,0.30898 -0.452807,0.23173 -0.114533,-0.0772 -0.09589,-0.30364 0.03995,-0.50607 0.09855,-0.11187 0.300983,-0.34627 0.452807,-0.23173 z m 1.2545408,0.17313 c 0.117197,0.0719 0.109206,0.29832 -0.01865,0.50874 -0.127851,0.20776 -0.327619,0.31963 -0.444816,0.25037 -0.117197,-0.0719 -0.106543,-0.30098 0.02131,-0.50874 0.101215,-0.11719 0.277011,-0.35159 0.442152,-0.25037 z m -4.2910068,0.11986 c 0.130514,0.0346 0.186449,0.2557 0.122524,0.49276 -0.06393,0.23706 -0.221076,0.39953 -0.354255,0.36491 -0.130515,-0.0346 -0.18645,-0.25571 -0.122524,-0.49276 0.07192,-0.16248 0.178459,-0.39421 0.354255,-0.36491 z m 1.342438,0.28766 c 0.114533,0.0746 0.09589,0.30099 -0.03995,0.50608 -0.135842,0.2051 -0.338273,0.30898 -0.452806,0.23173 -0.114534,-0.0772 -0.09589,-0.30364 0.03995,-0.50608 0.09855,-0.1092 0.300983,-0.34626 0.452807,-0.23173 z m -4.948909,0.25304 c 0.130515,0.0373 0.18645,0.25837 0.122524,0.49543 -0.06392,0.23705 -0.221076,0.39953 -0.355053,0.36224 -0.132113,-0.0346 -0.187515,-0.2557 -0.123856,-0.49276 0.07378,-0.16514 0.177926,-0.38888 0.356385,-0.36491 z m 5.926438,0.27435 c 0.114533,0.0772 0.09589,0.30365 -0.03995,0.50874 -0.135842,0.20243 -0.338273,0.30631 -0.452806,0.23173 -0.114534,-0.0772 -0.09589,-0.30364 0.03995,-0.50874 0.103879,-0.1172 0.292993,-0.33561 0.452806,-0.23173 z m -3.542545,0.008 c 0.133178,0.0346 0.189113,0.2557 0.125188,0.49276 -0.06393,0.23706 -0.22374,0.39954 -0.354255,0.36491 -0.133178,-0.0373 -0.189113,-0.2557 -0.125187,-0.49276 0.06925,-0.15981 0.181122,-0.39687 0.354254,-0.36491 z m -1.398373,0.15715 c 0.133179,0.0346 0.189113,0.2557 0.125188,0.49276 -0.06393,0.23706 -0.22374,0.39954 -0.356918,0.36491 -0.130515,-0.0346 -0.199768,-0.26103 -0.122524,-0.49276 0.05594,-0.16514 0.181122,-0.39687 0.354254,-0.36491 z m 3.22558,0.46613 c 0.114534,0.0746 0.09589,0.30364 -0.03995,0.50607 -0.135842,0.2051 -0.338273,0.30898 -0.452807,0.23173 -0.114533,-0.0746 -0.09589,-0.30364 0.03995,-0.50607 0.09855,-0.11187 0.300983,-0.34627 0.452806,-0.23173 z m 0.804398,0.5993 c 0.114533,0.0772 0.09589,0.30365 -0.03995,0.50608 -0.135842,0.20509 -0.338273,0.30897 -0.452806,0.23173 -0.114534,-0.0746 -0.09589,-0.30099 0.03995,-0.50608 0.106543,-0.11453 0.292993,-0.33561 0.452807,-0.23173 z m 1.073417,0.0399 c 0.11187,0.0772 0.09323,0.30365 -0.04262,0.50608 -0.135842,0.20509 -0.338273,0.30897 -0.452806,0.23173 -0.11187,-0.0746 -0.09589,-0.30098 0.04262,-0.50608 0.109206,-0.12252 0.287665,-0.32762 0.452806,-0.23173 z m -3.518572,-0.0106 c 0.130515,0.0373 0.18645,0.25836 0.122524,0.49542 -0.06393,0.23706 -0.221076,0.39954 -0.354255,0.36491 -0.133178,-0.0373 -0.202431,-0.26369 -0.122524,-0.49542 0.06126,-0.18113 0.170469,-0.38089 0.354255,-0.36491 z m -2.527726,0.33561 c 0.133179,0.0346 0.189114,0.2557 0.125188,0.49276 -0.06393,0.23705 -0.22374,0.39953 -0.355853,0.36491 -0.132379,-0.0373 -0.187781,-0.25837 -0.123856,-0.49276 0.06979,-0.15982 0.181389,-0.39688 0.354521,-0.36491 z m 1.270522,0.27701 c 0.130515,0.0346 0.18645,0.2557 0.122524,0.49276 -0.06393,0.23706 -0.221076,0.39953 -0.354254,0.36491 -0.133179,-0.0346 -0.205095,-0.26103 -0.125188,-0.49276 0.0586,-0.16781 0.181122,-0.39421 0.356918,-0.36491 z m 2.042956,0.53538 c 0.114534,0.0772 0.09589,0.30364 -0.03995,0.50874 -0.135842,0.20243 -0.338273,0.30631 -0.452807,0.23173 -0.114533,-0.0772 -0.09589,-0.30365 0.03995,-0.50874 0.103879,-0.1172 0.292992,-0.33561 0.452806,-0.23173 z m 1.094726,0.17313 c 0.114534,0.0772 0.09589,0.30364 -0.03995,0.50874 -0.135842,0.20243 -0.338273,0.30631 -0.452807,0.23173 -0.114533,-0.0772 -0.09589,-0.30365 0.03995,-0.50874 0.103879,-0.11454 0.292992,-0.33561 0.452806,-0.23173 z m -4.064604,0.70584 c 0.133179,0.0373 0.189114,0.25837 0.125188,0.49543 -0.06392,0.23705 -0.22374,0.39953 -0.354254,0.36224 -0.133179,-0.0346 -0.189114,-0.2557 -0.125188,-0.49276 0.07192,-0.16248 0.181123,-0.38888 0.354254,-0.36491 z m 1.712674,0.27968 c 0.11187,0.0772 0.09322,0.30364 -0.04262,0.50874 -0.135842,0.20243 -0.338273,0.30631 -0.452806,0.23173 -0.114534,-0.0772 -0.09589,-0.30365 0.03995,-0.50874 0.109207,-0.12253 0.290329,-0.32762 0.45547,-0.23173 z"/></svg>
