<svg role="img" focusable="false" aria-hidden="true" xmlns="http://www.w3.org/2000/svg" viewBox="0 0 14 14"><path d="M 10.471844,5.02832 C 9.7555937,4.81061 9.1895547,4.24455 8.9718437,3.52832 8.4465156,3.36862 8.0076719,3.01759 7.7220625,2.56129 5.4596172,4.38745 3.9215781,5.14195 3.3616328,5.36116 1.7484531,6.03079 1,7.46758 1,8.90676 1,12.21398 4.0271406,13 5.0444219,13 6.5040625,13 7.672,12.54991 10.042375,8.94738 10.603516,8.08802 11.092445,7.2212 11.552125,6.35029 11.03875,6.07023 10.644836,5.59741 10.471844,5.02832 Z M 13,1.5625 C 13,1.2412 12.737266,1 12.4375,1 12.29357,1 12.149641,1.0549 12.039789,1.16479 L 11.71075,1.49383 C 11.530797,1.41745 11.332961,1.375 11.125117,1.375 H 8.1251172 c 0,0.82842 0.6716015,1.5 1.5,1.5 0,0.82842 0.6716018,1.5 1.4999998,1.5 0,0.82842 0.671602,1.5 1.5,1.5 v -3 c 0,-0.20791 -0.04247,-0.4058 -0.118922,-0.5858 L 12.835188,1.96021 C 12.945063,1.85034 13,1.70643 13,1.5625 Z"/></svg>
