<svg role="img" focusable="false" aria-hidden="true" xmlns="http://www.w3.org/2000/svg" viewBox="0 0 14 14"><path d="m 7.956119,1.111855 c -0.507448,0.53958 -1.121996,1.10109 -1.927793,1.30815 0.244799,0.33609 0.423299,0.71451 0.576298,1.02561 0.11985,-0.0204 0.239699,-0.0331 0.362099,-0.0331 0.0459,0 0.0918,0.003 0.137699,0.005 C 6.987123,3.195665 6.923373,2.959025 6.892773,2.759355 l -0.01785,-0.12061 0.08925,-0.0824 C 7.354321,2.196805 7.884719,1.988465 8.438067,1.770445 8.231518,1.554455 8.075968,1.332865 7.956119,1.111775 Z m -0.989396,2.7596 c -0.691048,0 -1.341295,0.4641 -1.833443,1.27755 -0.492149,0.81345 -0.808347,1.96094 -0.808347,3.23084 0,1.26989 0.316198,2.41739 0.808347,3.23083 0.492148,0.81345 1.142395,1.27755 1.833443,1.27755 0.691047,0 1.341295,-0.4641 1.833443,-1.27755 0.492148,-0.81344 0.808347,-1.96094 0.808347,-3.23083 0,-1.2699 -0.316199,-2.41739 -0.808347,-3.23084 C 8.308018,4.335555 7.65777,3.871455 6.966723,3.871455 Z m -2.511741,0.30855 c -0.461548,0 -0.938396,0.408 -1.305595,1.17045 -0.367709,0.7599 -0.604093,1.84109 -0.604093,3.03704 0,1.19594 0.236384,2.27714 0.604093,3.03704 0.367199,0.76244 0.844047,1.17044 1.305595,1.17044 0.211649,0 0.428398,-0.0867 0.634948,-0.25245 -0.12495,-0.153 -0.242249,-0.31875 -0.349349,-0.4947 -0.545698,-0.90014 -0.874647,-2.12159 -0.874647,-3.46798 0,-1.3464 0.328949,-2.56784 0.874647,-3.46799 0.10455,-0.1734 0.219299,-0.3366 0.341699,-0.4845 -0.204,-0.1632 -0.418199,-0.24735 -0.627298,-0.24735 z m 5.23768,0.0612 c -0.244799,0 -0.492148,0.11475 -0.726747,0.33405 0.07905,0.1071 0.15555,0.2193 0.226949,0.3366 0.545698,0.90015 0.874647,2.12159 0.874647,3.46799 0,1.34639 -0.328949,2.56784 -0.874647,3.46798 -0.08925,0.1479 -0.183599,0.2856 -0.285599,0.41565 0.249899,0.25755 0.520198,0.3927 0.785397,0.3927 0.461549,0 0.938397,-0.408 1.305596,-1.17044 0.367198,-0.7599 0.604347,-1.8411 0.604347,-3.03704 0,-1.19595 -0.237149,-2.27714 -0.604347,-3.03704 -0.367199,-0.76245 -0.844047,-1.17045 -1.305596,-1.17045 z m -6.828109,0.023 c -0.456193,0 -0.918507,0.3774 -1.27627,1.0812 C 1.230774,6.049205 1,7.048795 1,8.155495 c 0,1.10669 0.230774,2.10629 0.588283,2.81009 0.357763,0.70379 0.820077,1.08119 1.27627,1.08119 0.03366,0 0.06706,-0.003 0.100725,-0.008 -0.08211,-0.1275 -0.158865,-0.26775 -0.229755,-0.41565 -0.406978,-0.84404 -0.649227,-1.98134 -0.649227,-3.23593 0,-1.2546 0.242249,-2.39189 0.649227,-3.23594 0.14688,-0.306 0.319514,-0.5763 0.513314,-0.79815 -0.1275,-0.0587 -0.256529,-0.0892 -0.384284,-0.0892 z m 8.271404,0.0383 c -0.0969,0 -0.193799,0.0178 -0.290699,0.051 0.216749,0.23205 0.405449,0.5253 0.566098,0.85935 0.407998,0.84405 0.650248,1.98134 0.650248,3.23594 0,1.25459 -0.24225,2.39189 -0.650248,3.23593 -0.0663,0.14025 -0.14025,0.27285 -0.216749,0.3978 0.436048,-0.0306 0.874646,-0.40545 1.216345,-1.07864 C 12.770501,10.300085 13,9.300485 13,8.193795 c 0,-1.1067 -0.229499,-2.10629 -0.589048,-2.81009 -0.356998,-0.7038 -0.818547,-1.0812 -1.274995,-1.0812 z"/></svg>
