<svg role="img" focusable="false" aria-hidden="true" xmlns="http://www.w3.org/2000/svg" viewBox="0 0 14 14"><path d="m 11.520207,1.0007179 c -0.131157,0 -0.270183,0.009 -0.417079,0.0249 -0.288546,0.44593 -0.548237,0.87193 -0.616439,1.2835 l -0.466919,-0.0771 c 0.06558,-0.39531 0.241329,-0.75599 0.448557,-1.09805 -0.02361,0.005 -0.04459,0.009 -0.0682,0.0149 -0.9495777,0.22481 -2.0801517,0.68805 -3.2133487,1.29741 -0.141649,0.0758 -0.283299,0.15424 -0.422326,0.23451 -0.02098,0.13037 -0.04722,0.28802 -0.08132,0.46115 -0.08394,0.42757 -0.204605,0.92334 -0.440688,1.26173 -0.301661,0.42495 -0.855144,0.79743 -1.343048,1.09122 -0.487905,0.2938 -0.91023,0.49578 -0.91023,0.49578 l -0.204605,-0.42495 c 0,0 0.403963,-0.19411 0.870883,-0.47479 0.466919,-0.2833 0.991547,-0.66628 1.198775,-0.96007 0.146896,-0.20723 0.285923,-0.67677 0.36724,-1.08073 0.0026,-0.0184 0.0079,-0.0367 0.01049,-0.0551 -1.922763,1.17779 -3.706237,2.70971 -4.494491,4.06062 -0.396095,0.68202 -0.614865,1.53716 -0.606208,2.38182 0.360944,-0.68727 0.761236,-1.38502 1.424628,-2.04081 l 0.33209,0.33576 c -0.798222,0.78957 -1.188808,1.66308 -1.665957,2.5549401 0.154503,0.73973 0.509151,1.41125 1.090964,1.88342 0.105975,0.0866 0.222705,0.16788 0.348616,0.24133 0.0459,-0.16264 0.112008,-0.38298 0.195424,-0.62169 0.169455,-0.48528 0.389799,-1.04401 0.715068,-1.39026 0.393471,-0.4170801 0.939085,-0.5613501 1.429612,-0.7082501 0.490528,-0.14427 0.923346,-0.28855 1.18566,-0.59283 0.243952,-0.28855 0.469543,-0.94695 0.603323,-1.5188 0.13378,-0.56922 0.194112,-1.0545 0.194112,-1.0545 l 0.46692,0.0577 c 0,0 -0.06033,0.50626 -0.201982,1.10434 -0.139027,0.59808 -0.338386,1.28796 -0.705625,1.71553 -0.372487,0.43807 -0.915477,0.59546 -1.408627,0.7423501 -0.493151,0.1469 -0.941708,0.28593 -1.217138,0.57972 -0.215098,0.22821 -0.456427,0.75809 -0.616438,1.21976 -0.09706,0.28068 -0.167882,0.52463 -0.209852,0.67939 0.369863,0.15477 0.789566,0.26232 1.22763,0.32265 0.236083,-0.37773 0.435442,-0.58234 0.789566,-2.0172 l 0.456427,0.11542 c -0.304285,1.22501 -0.519382,1.6316 -0.718741,1.949 0.949577,0.042 1.925386,-0.13903 2.623142,-0.51676 1.975225,-1.08074 3.6251807,-3.6750201 4.5563967,-6.1329101 0.178373,-0.46954 0.327892,-0.93384 0.453803,-1.38239 -0.469542,0.40134 -0.86039,0.8394 -1.078111,1.39288 l -0.440688,-0.17312 c 0.341008,-0.86039 1.00204,-1.45322 1.705042,-1.98047 0.09181,-0.43545 0.154765,-0.84466 0.18362,-1.21452 0.01312,-0.1789 0.02098,-0.34861 0.01836,-0.50732 -0.170504,0.096 -0.364617,0.2075 -0.569222,0.33341 -0.640046,0.39425 -1.36141,0.92675 -1.647333,1.36219 -0.13378,0.20199 -0.157388,0.49578 -0.17575,0.83679 -0.01836,0.34363 -0.02623,0.73185 -0.251822,1.07548 -0.204605,0.31478 -0.5220047,0.47742 -0.8000577,0.62169 -0.278053,0.14427 -0.519382,0.27543 -0.655785,0.45643 -0.270184,0.35674 -0.545614,1.07548 -0.731857,1.6893 -0.188866,0.61119 -0.299038,1.1227 -0.299038,1.1227 l -0.461673,-0.0997 c 0,0 0.115418,-0.52987 0.309531,-1.16205 0.191489,-0.63218 0.453803,-1.36665 0.805304,-1.83357 0.222967,-0.29642 0.540367,-0.44856 0.815797,-0.59021 0.272807,-0.14427 0.50102,-0.27543 0.624308,-0.46167 0.131157,-0.20461 0.157389,-0.50102 0.1731267,-0.84203 0.01836,-0.34101 0.02886,-0.73186 0.254445,-1.07287 v -0.003 c 0.380356,-0.57185 1.130574,-1.09333 1.794229,-1.50175 0.291169,-0.17942 0.561352,-0.33183 0.779073,-0.44882 -0.0079,-0.0522 -0.01836,-0.1023 -0.02886,-0.14978 -0.0682,-0.3035 -0.183619,-0.49446 -0.314777,-0.58549 -0.191489,-0.1343 -0.474788,-0.21011 -0.831535,-0.22427 -0.04459,-0.003 -0.08919,-0.003 -0.136404,-0.003 z m -2.9641497,1.54503 0.456427,0.11804 c 0,0 -0.107549,0.41524 -0.280676,0.90839 -0.175751,0.49577 -0.403964,1.065 -0.716118,1.42699 -0.54299,0.63742 -1.306325,0.96794 -2.032935,1.28534 -0.72661,0.3174 -1.416496,0.62693 -1.880792,1.14894 v 0.003 c -0.361994,0.40921 -0.752842,1.24074 -1.030895,1.95424 -0.281463,0.7161201 -0.461148,1.3168201 -0.461148,1.3168201 l -0.45223,-0.13641 c 0,0 0.184669,-0.6164401 0.47269,-1.3509101 0.288546,-0.73448 0.666278,-1.58438 1.120082,-2.0959 0.550859,-0.62955 1.316817,-0.9522 2.043427,-1.27222 0.72661,-0.3174 1.41125,-0.62693 1.865054,-1.1568 0.215097,-0.25445 0.45905,-0.80531 0.626931,-1.2801 0.167881,-0.47216 0.270183,-0.86904 0.270183,-0.86904 z m -3.087437,4.90606 0.466919,0.0682 c -0.07345,0.50889 -0.309531,0.88662 -0.608569,1.15943 -0.299038,0.27018 -0.655786,0.44856 -0.994171,0.61644 l -0.209851,-0.41971 c 0.335762,-0.1705 0.650539,-0.33314 0.886622,-0.54823 0.236082,-0.21248 0.40134,-0.46692 0.45905,-0.87613 z m 4.7295237,0.19149 0.430195,0.18886 c 0,0 -0.251822,0.57709 -0.619061,1.25124 -0.3672397,0.67677 -0.8367827,1.4532201 -1.3378027,1.8965301 -0.356747,0.3174 -0.918099,0.5666 -1.406003,0.75809 -0.487905,0.19411 -0.897115,0.3174 -0.897115,0.3174 l -0.136403,-0.45118 c 0,0 0.393471,-0.11804 0.86039,-0.30428 0.466919,-0.18362 1.012533,-0.44594 1.264354,-0.67153 0.401341,-0.35412 0.878753,-1.1122101 1.238123,-1.7680001 0.356748,-0.6584 0.6033227,-1.21713 0.6033227,-1.21713 z"/></svg>
