<svg role="img" focusable="false" aria-hidden="true" xmlns="http://www.w3.org/2000/svg" viewBox="0 0 14 14"><path d="m 9.9856456,1.0045178 c -0.06125,1.5e-4 -0.122863,5.9e-4 -0.184757,0.001 -2.483339,0.0259 -5.460673,0.42007 -7.534427,1.24145 1.378579,0.78439 3.784705,1.79719 5.789908,1.63533 2.7216874,-0.35391 3.3469244,-1.62435 4.2737654,-2.61892 -2.070234,0.90995 -4.8562824,1.75542 -7.1286994,1.21546 l 0.106927,-0.45014 c 1.901901,0.45189 4.346222,-0.18319 6.3021524,-0.96951 -0.499778,-0.0379 -1.047056,-0.0566 -1.6248694,-0.0549 z m 2.9828084,0.2768 c -1.00994,0.91417 -1.671238,2.64861 -4.8585694,3.06097 l -0.0054,6.9e-4 -0.0055,4.7e-4 c -1.575262,0.12869 -3.290813,-0.3825 -4.662221,-0.98547 -2.316215,2.08282 -3.10315203,5.40973 -1.829906,7.9417502 -0.184808,0.38897 -0.362418,1.43204 -0.137359,1.5796 0.254644,0.167 1.449083,0.24578 2.5815,-0.41516 6.8621804,0.56931 9.7949444,-5.0660502 8.5929224,-9.6038402 0.231228,-0.45081 0.436804,-1.24204 0.324454,-1.57901 z m -1.236233,5.28591 0.455285,0.0824 c -0.06968,0.38478 -0.08958,0.48685 -0.307902,0.92384 l -0.413902,-0.20679 c 0.21321,-0.4268 0.195963,-0.40984 0.266519,-0.79948 z m -0.913141,0.0325 0.443333,0.13227 c -0.10194,0.3416 -0.120138,0.39023 -0.401231,0.84662 l -0.393957,-0.24264 c 0.280631,-0.45559 0.248887,-0.39115 0.351881,-0.73625 z m 0.455696,1.37313 0.425573,0.18152 c -0.231023,0.54157 -0.543114,0.95514 -1.020119,1.36177 l -0.300114,-0.35211 c 0.43719,-0.37268 0.688005,-0.70669 0.89466,-1.19118 z m -1.185031,0.0284 0.395756,0.23966 c -0.06742,0.1113 -0.206708,0.29264 -0.371595,0.50179 -0.1648884,0.20912 -0.3416764,0.42444 -0.4623544,0.55211 l -0.336201,-0.31783 c 0.09526,-0.10075 0.274847,-0.31731 0.435185,-0.5207 0.160364,-0.20339 0.3151244,-0.41526 0.3392094,-0.45503 z m -1.1069974,1.29546 0.324866,0.32939 c -0.254336,0.25084 -0.516485,0.3924402 -0.909259,0.6169802 L 8.1687196,9.8414278 c 0.396167,-0.22648 0.611048,-0.34451 0.814028,-0.54469 z m 0.914683,0.45258 0.2953844,0.3561002 c -0.2463674,0.20434 -0.5767854,0.44644 -0.9598184,0.64618 l -0.213955,-0.41022 c 0.343475,-0.17916 0.650631,-0.4031402 0.878389,-0.5920602 z m -2.267815,0.3862002 0.146252,0.43894 -0.459526,0.15319 -0.146278,-0.43896 z m -1.073736,0.3683 0.136459,0.44208 c -0.413954,0.12777 -0.565887,0.19689 -1.094067,0.20177 l -0.0043,-0.46266 c 0.49474,-0.005 0.530519,-0.0481 0.961875,-0.18121 z m 1.795386,0.19705 0.196426,0.41886 c -0.401051,0.1881 -0.934475,0.39722 -1.445563,0.49633 l -0.08806,-0.45418 c 0.449117,-0.0871 0.960744,-0.28446 1.337197,-0.46101 z m -2.356493,0.74583 0.122606,0.44616 c -0.305563,0.084 -0.565476,0.055 -0.924219,0.0449 l 0.01303,-0.46248 c 0.373472,0.0105 0.57676,0.0296 0.788582,-0.0286 z"/></svg>
