<svg role="img" focusable="false" aria-hidden="true" xmlns="http://www.w3.org/2000/svg" viewBox="0 0 14 14"><path d="m 9.4878848,1.8041506 c -0.071873,0.31064 -0.2582552,0.98978 -0.2810961,1.04155 -0.058777,0.15258 -0.1175548,0.34718 -0.2156187,0.47814 0.044768,0.0655 0.2025232,-0.0938 0.144964,0.0719 -0.027257,0.15714 -0.1218185,0.2747 -0.2058732,0.39895 0.028414,0.0372 0.075223,0.0174 0.115423,0.0109 l 0.028384,-0.0174 c 0.041418,0.18729 -0.1309549,0.33195 -0.2290187,0.46595 0.0402,0.0218 0.1035457,0 0.1534912,-0.009 0.038068,0.18303 -0.1285184,0.35328 -0.2201868,0.47814 0.037155,0.007 0.086186,0 0.118773,-0.026 0.025095,0.21562 -0.1480095,0.40809 -0.286578,0.54818 l -0.00213,0.009 c 0.042332,0.0219 0.1078094,0.009 0.1632368,-0.004 -0.016445,0.21562 -0.1796823,0.37459 -0.322819,0.5025 0.0402,0.026 0.1014139,0 0.1525777,-0.004 -0.038373,0.20496 -0.1796823,0.38678 -0.3258644,0.5086 0.043855,0.0436 0.1123775,0.0174 0.1699367,0.0195 -0.051164,0.18973 -0.1949095,0.34109 -0.3380462,0.469 0.034718,0.0304 0.096846,0.0131 0.1467913,0.0217 -0.0804,0.21806 -0.2561233,0.35937 -0.4141828,0.52687 l -0.0064,0.0131 c 0.038068,0.0393 0.098978,0.0174 0.1458776,0.026 -0.033805,0.12212 -0.2865779,0.37459 -0.3197734,0.42637 l 0.1035457,0.0566 c -0.060909,0.13492 -0.1775504,0.21349 -0.2768325,0.31368 0.00667,0.0414 0.056646,0.039 0.086187,0.0478 -0.056646,0.15684 -0.1876004,0.23541 -0.2975416,0.335 l 0.071873,0.0612 c -0.0871,0.13948 -0.2058732,0.23968 -0.3289098,0.34109 0.028262,0.0175 0.045682,0.0457 0.082836,0.0545 -0.1090275,0.1611 -0.2747006,0.27013 -0.3959099,0.42027 0.025095,0.0109 0.019643,0.0588 0.051164,0.0435 -0.068523,0.1458803 -0.2506415,0.2287203 -0.3441371,0.3715503 0.017481,0.0174 -0.00868,0.0655 0.037155,0.0676 C 6.2902095,10.005671 6.141591,10.153981 5.9801815,10.280981 l 0.052382,0.0457 c -0.115423,0.13735 -0.2853597,0.22019 -0.3867736,0.37155 l 0.00978,0.0655 c -0.1470958,0.12426 -0.1982595,0.31369 -0.2920597,0.47814 -0.00764,0.0524 -0.0469,0.11329 -0.00539,0.16568 0.1011093,-0.004 0.144964,-0.10903 0.2003914,-0.17877 0.1001956,-0.1005 0.1699367,-0.23968 0.2582551,-0.35632 l 0.059996,-0.024 c 0.095932,-0.11329 0.1754186,-0.24394 0.2649551,-0.37155 0.023907,0.0108 0.049946,-0.007 0.077355,-0.0131 0.060909,-0.11116 0.144964,-0.19826 0.2265824,-0.28749 0.1035457,0.0175 0.1276048,-0.14375 0.2006959,-0.2092301 0.033805,-0.0371 0.08375,-0.0959 0.1361321,-0.0786 0.069741,-0.11329 0.1327821,-0.23511 0.2451596,-0.3106403 0.00219,0.024 0.014161,0.0329 0.032586,0.0372 0.056646,-0.035 0.060909,-0.1178606 0.1056775,-0.1614106 0.059996,-0.0524 0.1023275,-0.13522 0.1799868,-0.16141 0.00104,0.035 0.019643,0.0174 0.0402,0.0174 0.080705,-0.11116 0.1623231,-0.22872 0.2911461,-0.29633 0.018455,0.004 0.00868,0.0368 0.033805,0.0347 0.066391,-0.0347 0.079487,-0.12212 0.1373503,-0.16567 0.0469,-0.0503 0.1044593,-0.0874 0.1708504,-0.11542 l 0.026221,0.0542 c 0.075223,-0.0588 0.1276048,-0.16568 0.2092232,-0.22659 0.049032,-0.0282 0.091668,-0.0764 0.1437458,-0.0853 -0.00225,0.024 0.01407,0.0435 0.020587,0.0676 0.092887,-0.0871 0.1461821,-0.21775 0.2777461,-0.26161 0.00877,0 0.037155,-0.0262 0.054514,-0.009 -0.00228,0.0217 -0.00323,0.0432 0.00771,0.0652 0.027196,-0.0219 0.092582,-0.11756 0.1601913,-0.18303 0.0938,-0.0959 0.1754186,-0.13279 0.2311505,-0.15471 l 0.017237,0.0719 c 0.09045,-0.0828 0.1407003,-0.20496 0.240896,-0.27013 0.035937,-0.0175 0.068523,-0.0524 0.1111594,-0.0524 0.0011,0.0347 -0.00436,0.0828 0.035936,0.10477 0.049946,-0.0609 0.094714,-0.13309 0.1525776,-0.1876 0.02951,-0.0196 0.020709,-0.0131 0.0469,-0.0347 0.080705,-0.074 0.1668913,-0.13735 0.2692192,-0.1876 l 0.05908,0.11755 c 0.183945,-0.14374 0.359364,-0.31368 0.587774,-0.38677 0.0023,0.0284 -0.012,0.0719 0.02284,0.0895 0.213791,-0.21349 0.529909,-0.31673 0.779637,-0.48728 0.310637,-0.20039 0.639547,-0.39286 0.98673,-0.536 0.02193,0 0.04264,0 0.06304,-0.004 -0.253687,0.37763 -0.700456,0.57559 -1.011093,0.90754 -0.20161,0.14619 -0.313683,0.38982 -0.520774,0.52991 0.02406,0.0414 0.07309,0.0283 0.109941,0.0414 -0.132782,0.16994 -0.282314,0.32587 -0.487273,0.42332 0.03594,0.0284 0.09593,0.0609 0.145877,0.0524 0.02613,0.0439 -0.03715,0.0828 -0.06213,0.1136 -0.05573,0.0588 -0.134,0.0914 -0.199478,0.13948 l 0.0088,0.026 c -0.09258,0.0566 -0.189732,0.10903 -0.295409,0.15258 0.03259,0.0262 0.0871,0.0655 0.134,0.0524 -0.06974,0.16324 -0.248205,0.24851 -0.4324556,0.29632 0.02948,0.0308 0.065173,0.0503 0.1120726,0.0655 -0.1011089,0.12639 -0.2570365,0.22232 -0.4263642,0.24425 0.0011,0.035 0.067609,0.0329 0.089232,0.0676 -0.04355,0.0719 -0.1407003,0.11116 -0.2201868,0.15898 -0.0938,0.0414 -0.1885141,0.0609 -0.2734825,0.0892 0.033805,0.0393 0.081923,0.0634 0.122123,0.0917 -0.086187,0.0807 -0.237546,0.16354 -0.356319,0.18729 -0.081618,0.0283 -0.1340003,0.0132 -0.2083095,0.0503 -0.00317,0.0524 0.074309,0.05 0.092582,0.0914 -0.1470958,0.13522 -0.356319,0.13095 -0.5360012,0.19613 -0.00545,0.0521 0.068827,0.0521 0.070959,0.10232 -0.138264,0.1069 -0.3258644,0.12426 -0.4842284,0.15471 0.00557,0.0131 0.012091,0.0566 0.037155,0.0655 -0.015258,0.0545 -0.1090275,0.0673 -0.1656731,0.0828 -0.1047638,0.0304 -0.2058732,0.0262 -0.310637,0.0524 l 0.022871,0.0609 c -0.1492276,0.0655 -0.3228189,0.0524 -0.4629101,0.11359 0.00329,0.013 0.015105,0.0174 0.021775,0.0195 -0.049032,0.0435 -0.1285185,0.0372 -0.1906459,0.0545 -0.095932,0.0218 -0.191864,-0.004 -0.2853597,0.009 0.00649,0.0131 0.00317,0.0284 0.018455,0.0305 -0.042637,0.0521 -0.1078093,0.0304 -0.1611049,0.0481 -0.1056775,0.0129 -0.2083096,0 -0.3075916,0.0217 0.00113,0.0917 -0.144964,0.085 -0.2037414,0.14162 -0.125473,0.0108 -0.185164,0.13735 -0.3228189,0.16354 -0.014131,0.0217 -0.092582,0.0783 -0.1023275,0.10903 0.055427,0.0217 0.1809004,-0.0917 0.2451596,-0.0652 0.2092232,-0.11785 0.3989555,-0.085 0.6030014,-0.1876 0.1668913,-0.002 0.2734824,-0.12851 0.4415919,-0.0959 0.1927777,-0.12638 0.3867736,-0.0305 0.5816831,-0.12638 0.1361321,0.085 0.2798779,-0.0697 0.4172282,-0.0261 -0.00332,0.0414 0.035936,0.0304 0.058777,0.0261 0.1035457,-0.0261 0.2113551,-0.1133 0.316728,-0.0567 -0.00658,0.004 -0.00225,0.0131 -0.00122,0.0196 l 0.023937,0.0109 c 0.125473,-0.0218 0.2168368,-0.1133 0.3441371,-0.074 0.00228,0.0131 -0.012974,0.0304 -0.00426,0.0478 l 0.027257,0.0131 c 0.138264,-0.0524 0.2810961,-0.13065 0.4141828,-0.11542 0.00667,0.024 -0.00978,0.0503 0.00984,0.074 0.4324555,-0.11542 0.8588201,-0.11999 1.2882306,-0.16323 0.193691,-0.0174 0.386773,0.004 0.578637,0.009 l 0.02509,0.009 c -0.194908,0.13065 -0.450727,0.14374 -0.673046,0.20039 -0.2908414,0.0393 -0.5938648,0.19612 -0.8801382,0.2747 -0.023968,0.0262 0.030455,0.0347 0.00652,0.0609 -0.1285184,0.0393 -0.2637369,0.0981 -0.3928645,0.11542 0.065173,0.0807 -0.052382,0.0938 -0.09715,0.10659 -0.1175548,0.0131 -0.237546,0.0393 -0.3532735,0.0414 -0.00122,0.0326 0.0402,0.0503 0.051164,0.0807 -0.1142048,0.0804 -0.2561233,0.0719 -0.3837281,0.0566 0,0.0304 0.025095,0.0371 0.030455,0.063 -0.076137,0.0676 -0.2125732,0.0393 -0.3197734,0.0503 0.017481,0.0151 0.021866,0.0411 0.033805,0.0652 -0.1394821,0.0566 -0.2747006,0.009 -0.4111373,-0.004 l 0.035936,0.0786 c -0.074309,0.0435 -0.1635412,0.0131 -0.244246,0.006 -0.070655,-0.0152 -0.1428321,-0.0524 -0.2125732,-0.0545 l 0.014222,0.035 c -0.1276048,0.013 -0.2692187,-0.0393 -0.3989554,-0.1069 -0.02281,0.0109 -0.018455,0.0372 -0.021745,0.0545 -0.1209048,-0.0435 -0.2908416,-0.14375 -0.3989554,-0.18304 -0.011969,0.0195 0.00107,0.009 -0.010842,0.0435 -0.1199912,-0.0371 -0.2527733,-0.11329 -0.3380462,-0.18729 -0.049032,0.0393 -0.125473,0.004 -0.1918641,-0.0131 -0.068523,0.0218 -0.1394821,-0.0218 -0.2025231,0.009 0.09045,0.0196 0.2058731,0.0503 0.3075916,0.0743 0.1982595,0.0676 0.4415919,0.15684 0.6304105,0.26161 -0.032891,0.0261 0.052382,0.0524 0.084968,0.074 0.075223,0.0457 0.2463779,0.11116 0.3075916,0.17207 -0.00868,0.002 -0.0402,0.006 -0.02945,0.035 0.3471826,0.24181 0.6882743,0.64564 1.0080477,0.81618 -0.3258643,0.0305 -0.6578196,-0.24394 -0.9319111,-0.38677 -0.02613,-0.004 -0.029389,-0.007 -0.035937,0.0153 C 6.6460132,12.55295 6.3786217,12.327 6.354258,12.32396 c -0.015258,0 -0.00323,0.0371 -0.016324,0.0153 -0.099282,-0.0917 -0.2201868,-0.16568 -0.3258643,-0.25704 l -0.013096,0.039 c -0.1023275,-0.0786 -0.1897323,-0.18303 -0.2823143,-0.268 0,0 -0.011969,0.006 -0.021775,0.0304 -0.027287,-0.0371 -0.211355,-0.22658 -0.3685009,-0.22445 -0.025125,-0.009 -0.0402,-0.0131 -0.051164,-0.0347 0,0 -0.3806827,1.17554 -0.4964102,1.31259 -0.00761,0.009 -0.138264,-0.0588 -0.138264,-0.0588 0.0871,-0.0609 0.5299103,-1.30041 0.5268649,-1.30041 -0.032891,0 0.00107,-0.0108 -0.0469,-0.0108 -0.049032,-0.0283 -0.0938,-0.0938 -0.1632368,-0.0807 -0.1001957,-0.0175 -0.208005,0.0478 -0.3075916,0.0217 l 0.00655,-0.0153 c -0.064259,-0.0284 -0.1906459,0.009 -0.2527733,-0.002 0.019674,-0.0393 -0.1001957,-0.0218 -0.1589731,-0.0304 -0.035023,0.002 -0.1285185,-0.0132 -0.1580595,-0.0218 -0.022871,-0.004 0.018486,-0.004 -0.00216,-0.0154 -0.063346,-0.0283 -0.1504458,-0.0457 -0.1918641,-0.0414 -0.054514,0.004 -0.2506415,-0.0197 -0.2451596,-0.0262 0.00545,-0.009 0.027257,-0.0219 0.027257,-0.0219 -0.055732,-0.0347 -0.1711549,-0.0197 -0.2223186,-0.0524 -0.00548,-0.004 0.00871,-0.0131 0.00326,-0.0174 -0.2844461,-0.0828 -0.785729,-0.15471 -0.8527292,-0.15684 -0.068523,-0.009 -0.4172282,0.0545 -0.1199912,-0.0676 0.3776372,-0.15471 0.8192291,-0.0457 1.2334119,-0.0499 0.0088,-0.004 -0.032586,-0.0131 -0.023937,-0.0175 0.1068957,-0.0545 0.4842283,0.16141 0.4202736,0.085 0.035937,-0.004 0.5238194,0.16781 0.8100928,0.30455 -0.1687186,-0.1069 -0.4141828,-0.19856 -0.4629102,-0.22232 -0.069741,-0.0372 -0.1230366,-0.0676 -0.181814,-0.10233 0.00643,0.005 0.057559,-0.004 0.015258,-0.0216 -0.1361322,-0.0655 -0.2137914,-0.12639 -0.2320642,-0.14618 0.026221,-0.0153 0.038068,-0.0239 0.037155,-0.0262 -0.098064,-0.0588 -0.2539915,-0.0938 -0.3289098,-0.18517 0.010872,-0.009 0.027287,-0.004 0.030455,-0.0196 C 3.6809583,10.57936 3.4890942,10.527 3.4220941,10.40275 l 0.035023,-0.0109 -0.00761,-0.0262 C 3.3416977,10.30015 3.1748064,10.25236 3.1327791,10.12811 l 0.049032,-0.0175 -0.00643,-0.0196 C 3.0706172,10.01271 2.9171259,9.96462 2.894285,9.84037 c 0.014161,0.007 0.02945,-0.007 0.045682,-0.0109 l 0.00326,-0.004 C 2.8320677,9.75577 2.7023311,9.69482 2.6819265,9.5638701 c 0.039286,-0.009 0.082836,-0.004 0.1175548,-0.0284 -0.1373503,-0.13278 -0.2756143,-0.25916 -0.3441372,-0.44768 0.033805,-0.024 0.081618,0.002 0.1132912,-0.0219 -0.1132912,-0.10232 -0.208005,-0.21592 -0.2747006,-0.35631 l 0.086186,-0.0283 c -0.1264045,-0.12878 -0.235432,-0.27923 -0.2823321,-0.45922 l 0.064259,-0.007 c -0.1821187,-0.30025 -0.3075917,-0.64835 -0.4720466,-0.96508 -0.1068957,-0.23967 -0.2561233,-0.51773 -0.2168368,-0.77963 0.3075916,0.42027 0.5390466,0.89536 0.9075474,1.26386 0.015258,0.013 0.015258,0.0673 0.0536,0.0372 0.070655,0.0676 0.1340003,0.14374 0.1687185,0.24394 0.02074,0 0.032891,-0.0151 0.037155,-0.0347 l -0.00326,-0.009 c 0.118773,0.0828 0.1949095,0.20922 0.2616051,0.34109 0.042636,-0.0109 0.054514,-0.0938 0.098064,-0.0283 0.1011093,0.13278 0.1668913,0.30059 0.2603869,0.44159 l 0.055732,-0.0524 c 0.098064,0.10903 0.1580594,0.24638 0.2278005,0.37459 0.00877,-0.0566 0.069741,-0.0566 0.096846,-0.013 l 0.1373503,0.27013 c 0.031673,-0.0439 0.054514,0.0108 0.082836,0.0218 0.079487,0.10019 0.068523,0.2963199 0.2177505,0.3258599 0.088318,0.0938 0.071873,0.27226 0.1906459,0.34109 0.045682,0.26161 0.3197734,0.36546 0.3380462,0.62432 0.062127,0.1069 0.1196866,0.20922 0.1796822,0.31368 0.09045,0.0719 0.1504458,0.34414 0.2680006,0.38069 -0.069741,-0.16994 -0.078268,-0.37459 -0.1830322,-0.53296 l 0.02616,-0.009 -0.234196,-0.41723 c -0.00871,-0.0347 0.014161,-0.0304 0.035023,-0.0478 L 4.4559483,9.90075 4.5007163,9.88315 C 4.4166412,9.7220509 4.294823,9.5755606 4.2314774,9.4050106 c 0.015227,-0.0174 0.075223,0.0239 0.073091,-0.0393 -0.070655,-0.13522 -0.1775504,-0.26161 -0.2134868,-0.41114 0.023998,0 0.057864,0.009 0.076137,-0.0151 -0.080705,-0.14405 -0.1982595,-0.28109 -0.2201869,-0.44768 0.031673,0.0308 0.059996,-0.0239 0.091364,0 -0.071873,-0.11999 -0.2058732,-0.26587 -0.1775504,-0.42636 0.031673,0 0.063346,0.002 0.098064,0 -0.0938,-0.12395 -0.1580594,-0.30455 -0.155623,-0.45378 0.044768,-0.0217 0.084968,0.0414 0.1306502,0.0174 -0.073091,-0.14374 -0.2058731,-0.30454 -0.1742003,-0.47814 0.032586,0.002 0.070959,0.0197 0.1035456,0.0109 -0.091364,-0.12182 -0.1720685,-0.30303 -0.1449639,-0.45682 0.045682,0 0.089232,0.0393 0.1352185,0.0326 -0.088318,-0.13948 -0.1547095,-0.32281 -0.1352185,-0.47813 l 0.096846,0.024 c -0.031673,-0.0786 -0.1340004,-0.2878 -0.09045,-0.38373 0.038373,-0.002 0.071873,0.0347 0.1111594,0.0219 -0.1014139,-0.20069 -0.092582,-0.37459 -0.063346,-0.45681 0.049032,0.0195 0.096846,0.0609 0.1492276,0.0478 -0.070959,-0.19369 -0.1580594,-0.402 -0.094714,-0.59996 0.045682,0 0.1090275,0.0938 0.1601912,0.0503 -0.086187,-0.18729 -0.059996,-0.37763 -0.031673,-0.56341 0.020709,0.0195 0.038068,0.006 0.058777,0.006 -0.054514,-0.23968 -0.029419,-0.48423 -0.065477,-0.72482 -0.081618,-0.38677 -0.096846,-0.7705 -0.2603869,-1.15728 0.2049595,0.0694 0.3136825,0.2811 0.3806826,0.50555 0.1263867,0.35632 0.257037,0.67 0.3532736,1.02328 l 0.025064,0.009 c 0.033805,0.13735 0.0938,0.2747 0.074005,0.41113 0.044768,0.0196 0.059996,-0.0329 0.086187,-0.0545 0.037155,0.009 0.0469,0.0807 0.056646,0.11786 0.019674,0.12212 0.011969,0.24181 0.00877,0.35936 0.054514,0.0173 0.079486,-0.0959 0.1196866,-0.0457 0.065477,0.16994 0.064259,0.34109 0.032891,0.50555 0.04355,-0.013 0.080705,-0.0524 0.1044593,-0.0956 0.033805,0.0283 0.062127,0.074 0.066391,0.12212 0.018516,0.15258 0.037155,0.30455 -0.00436,0.45378 0.052382,0.024 0.070655,-0.0435 0.1068957,-0.0609 0.079486,0.1876 0.037155,0.38373 0.013095,0.57559 0.049032,0.004 0.071873,-0.0393 0.1090276,-0.0655 0.051164,0.16568 0.019643,0.32891 0,0.49337 0.04355,0.013 0.089232,-0.0697 0.1199911,-0.0262 0.037155,0.14831 -0.00978,0.29632 -0.019674,0.44768 0.025125,0.0153 0.05025,-0.0109 0.076441,-0.0153 0.042636,0.15684 0.00755,0.31673 -0.053295,0.47205 0.00326,0.0241 0.025034,0.0195 0.03685,0.0283 l 0.081618,-0.0261 c 0.015227,0.16141 -0.053296,0.31673 -0.071873,0.47814 0.021775,0.0175 0.041418,-0.0108 0.064259,-0.013 0.026161,0.14375 -0.010872,0.28536 -0.049032,0.42637 0.00225,0.0326 0.033805,0.0524 0.063346,0.0347 0.038068,0.13095 -0.0402,0.25703 -0.041418,0.38068 0.05025,0.0174 0.02077,0.0761 0.021836,0.10872 -0.039286,0.13735 -0.086187,0.27014 -0.1001957,0.40505 l 0.04355,0.0108 C 5.38381,9.6359109 5.2760352,9.7927509 5.2605034,9.9496009 c 0.086186,0.1330801 -0.076441,0.2637301 -0.053296,0.4111301 -0.027196,0.0435 -0.028323,0.1002 0.013095,0.12639 -0.058777,0.11359 -0.058777,0.23541 -0.086187,0.35327 0.035937,0.0393 -0.00865,0.13065 -0.010872,0.20283 0.016354,0.11756 -0.014192,0.23755 0.081618,0.32586 l 0.025064,-0.009 c 0.035937,-0.2942 0.1470958,-0.58778 0.1068957,-0.88928 l 0.017298,0.007 c 0.045986,-0.17664 0.044768,-0.37764 0.065477,-0.5664601 -0.00219,-0.0503 0.044768,-0.0261 0.070655,-0.0284 0.014192,-0.20892 0.00652,-0.4141803 0.029419,-0.6243203 0.00877,0.009 0.02077,0.011 0.018577,0.0219 l 0.057864,-0.0154 c 0.025064,-0.19613 0.00761,-0.39287 0.042637,-0.58777 0.016354,0.0284 0.051164,0.024 0.075223,0.0131 0.030455,-0.17664 -0.062127,-0.35936 0,-0.536 l 0.09045,0.0393 c 0.034718,-0.0786 -0.024059,-0.19187 -0.010964,-0.28323 0.00216,-0.0694 0.015197,-0.13948 0.042637,-0.20892 0.016385,0.0108 0.057864,0.0218 0.0871,0.0304 0.028353,-0.0457 -0.013035,-0.10872 -0.00646,-0.16567 -0.00655,-0.085 0.00222,-0.16994 0.025095,-0.25734 0.042332,0.004 0.077355,0.0655 0.1306503,0.0566 -0.018547,-0.1611 -0.073091,-0.33804 0.0402,-0.48727 0.02613,0.013 0.044464,0.0655 0.081618,0.0372 0,-0.15685 -0.045682,-0.31673 0.0402,-0.47205 0.033805,0.0261 0.074005,0.0566 0.1132912,0.0633 -0.00868,-0.0655 0.034718,-0.49336 0.1047639,-0.55122 0.028262,0.0457 0.064259,0.085 0.1078093,0.11999 0.047814,-0.0783 0.02613,-0.536 0.1352185,-0.62128 0.02077,0.0457 0.051164,0.0807 0.0938,0.10233 0.019582,-0.0481 -0.014192,-0.12212 -0.00877,-0.1809 0.028353,-0.13705 0.033805,-0.30059 0.1230366,-0.40809 0.030455,0.0524 0.081923,0.0874 0.122123,0.12639 0.013035,-0.0761 0.028292,-0.35328 0.047814,-0.39591 0.028292,-0.0719 0.059996,-0.14375 0.1199912,-0.18304 0.020709,0.0457 0.0536,0.085 0.088318,0.11756 0.037155,-0.13278 0,-0.30759 0.1111593,-0.42637 0.013126,0.0175 0.059996,0.0588 0.089232,0.0871 0.021836,-0.13521 0.013004,-0.32586 0.1492276,-0.42636 0.020709,0.035 0.047814,0.085 0.089232,0.11755 0.02074,-0.16141 0.023968,-0.39286 0.1839459,-0.50859 0.01739,0.0524 0.044768,0.0938 0.084055,0.12852 0.018455,-0.10903 0.038068,-0.24394 0.1132912,-0.35023 0.022841,-0.0347 0.057864,-0.0566 0.086187,-0.0828 0.020618,0.0566 0.038982,0.10659 0.079487,0.13521 0.051164,-0.1678 0.1370457,-0.39591 0.2472914,-0.536 0.032586,0.0219 0.041418,0.0697 0.070655,0.0959 0.1918641,-0.37459 0.475092,-0.68522 0.6456378,-1.09941 0.09045,-0.26587 0.3136826,-0.79181995 0.3837282,-0.76744995 0.069741,0.0259999 -0.0804,0.53294995 -0.1297367,0.80094995 z"/></svg>
