<svg role="img" focusable="false" aria-hidden="true" xmlns="http://www.w3.org/2000/svg" viewBox="0 0 14 14"><path d="m 12.802711,4.9027432 -0.875649,-0.52313 0.232125,-2.08631 c 0.01474,-0.13109 -0.03347,-0.25104 -0.117727,-0.33481 -0.08374,-0.0841 -0.203625,-0.13237 -0.334781,-0.11763 l -2.0863374,0.23208 -0.5230082,-0.8757 c -0.077859,-0.12928 -0.2108204,-0.19537 -0.3445314,-0.1972 -0.1336876,-0.002 -0.2681252,0.0606 -0.3489378,0.18841 l -2.1069388,3.31163 0.390844,-1.52508 c 0.064641,-0.29681 -0.2027111,-0.55828 -0.4965941,-0.48485 l -0.6052973,0.3262 -1.0667351,-1.20766 c -0.1615313,-0.20281 -0.4730393,-0.20281 -0.6346879,0 l -1.0666647,1.20766 -0.6023911,-0.3262 c -0.2938361,-0.0734 -0.5641878,0.18804 -0.4966175,0.48485 l 0.7758287,3.76428 -0.8727897,0.3761 c -0.329133,0.14098 -0.329133,0.60534 0,0.74927 l 2.5585798,1.1596 -3.0156113,3.0155598 C 1.0549375,12.149663 1,12.293593 1,12.437503 c 0,0.14393 0.054938,0.28784 0.1647892,0.39771 0.109875,0.10985 0.2534298,0.16479 0.3977112,0.16479 0.1442813,0 0.2878361,-0.0549 0.3977112,-0.16479 L 4.9758229,9.8196532 6.1353237,12.378183 c 0.1439766,0.32904 0.6082973,0.32904 0.7493208,0 l 0.3761018,-0.87277 3.7641817,0.77571 c 0.296837,0.0676 0.558306,-0.20268 0.484876,-0.49657 l -0.326157,-0.60241 1.207665,-1.0666 c 0.202758,-0.1616698 0.202758,-0.4731298 0,-0.6347298 l -1.207712,-1.06666 0.326204,-0.60535 c 0.07343,-0.29388 -0.188086,-0.56123 -0.484876,-0.49659 l -1.5250318,0.39075 3.3116508,-2.1068 c 0.127805,-0.0808 0.190242,-0.2153 0.188414,-0.34899 -0.0019,-0.13368 -0.06794,-0.26662 -0.19725,-0.34443 z m -4.4125811,1.23743 -2.2500015,2.24998 c -0.073219,0.0732 -0.169172,0.10987 -0.2651252,0.10987 -0.095953,0 -0.1919064,-0.0366 -0.2651252,-0.10987 -0.1464844,-0.14649 -0.1464844,-0.38379 0,-0.53028 l 2.2500015,-2.24998 c 0.1464845,-0.14648 0.3837893,-0.14648 0.5302504,0 0.1464844,0.14649 0.1464844,0.38379 0,0.53028 z"/></svg>
