<svg role="img" focusable="false" aria-hidden="true" xmlns="http://www.w3.org/2000/svg" viewBox="0 0 14 14"><path d="m 5.5633526,1.0012098 c -0.04074,-0.003 -0.0662,0.0109 -0.117125,0.0593 -0.06111,0.0555 -0.134949,0.15939 -0.211335,0.28084 -0.152772,0.24291 -0.320822,0.58869 -0.700206,0.6806 -0.351376,0.085 -0.641643,-0.10032 -0.875894,-0.22864 -0.234251,-0.12833 -0.399754,-0.1981 -0.519426,-0.15761 -0.109486,0.0387 -0.191474,0.16703 -0.290267,0.37963 -0.09905,0.21261 -0.197585,0.4904 -0.456789,0.67348 -0.212608,0.15022 -0.442021,0.14029 -0.609306,0.1543 -0.08352,0.007 -0.153282,0.0173 -0.196058,0.0316 -0.04278,0.0143 -0.05449,0.0239 -0.06747,0.0428 -0.186892,0.27652 -0.202424,0.85706 -0.124255,1.43759 l 0.153536,0.0535 c 0.147934,0.0535 0.286702,0.12477 0.415795,0.20879 0.690276,-0.92682 1.803731,-1.52518 2.995354,-1.7966 0.14768,-0.24011 0.351376,-0.551 0.593265,-0.86393 0.165504,-0.21312 0.346284,-0.42598 0.542342,-0.61669 -0.175688,-0.19988 -0.356469,-0.31751 -0.514333,-0.33737 -0.0076,0 -0.01273,-0.003 -0.01782,-0.003 z m 1.815443,0.12935 c -0.20115,-0.003 -0.440493,0.10363 -0.690021,0.29765 -0.267351,0.20726 -0.537249,0.50491 -0.7715,0.80893 -0.132402,0.17085 -0.246981,0.32948 -0.341191,0.47257 0.300452,-0.0402 0.60345,-0.0609 0.901356,-0.0606 0.407393,0 0.807147,0.0387 1.186531,0.11484 1.043944,0.2093 2.136265,0.74069 3.0172514,1.48673 0.190966,0.16041 0.374292,0.33355 0.542342,0.51433 0.05092,-0.0306 0.101848,-0.0611 0.152772,-0.0866 0.132403,-0.0637 0.280082,-0.1044 0.427762,-0.11203 0.150226,-0.008 0.302998,0.0178 0.448132,0.084 0.09166,0.0433 0.178234,0.0942 0.259713,0.15023 0.03819,-0.35647 0.05092,-0.72058 0.01273,-1.03122 -0.03819,-0.32591 -0.137495,-0.57544 -0.282629,-0.71293 -0.01528,-0.0102 -0.01782,-0.0153 -0.07893,-0.008 -0.06366,0.008 -0.162957,0.0407 -0.272444,0.0815 -0.109487,0.0407 -0.231704,0.0891 -0.369199,0.10948 -0.137495,0.0204 -0.31573,0.005 -0.453225,-0.10948 -0.150226,-0.124 -0.203696,-0.31293 -0.208788,-0.47105 -0.0051,-0.15837 0.02292,-0.30758 0.04583,-0.44482 0.02292,-0.13699 0.04074,-0.26201 0.03565,-0.34323 -0.0051,-0.0812 -0.01528,-0.0983 -0.04329,-0.11967 -0.129857,-0.0947 -0.257167,-0.10745 -0.445586,-0.0693 -0.185873,0.0385 -0.415031,0.13953 -0.6543744,0.25462 -0.24189,0.11534 -0.49651,0.24367 -0.763861,0.32362 -0.267352,0.081 -0.560165,0.11306 -0.842794,0 -0.175688,-0.071 -0.287721,-0.21184 -0.364107,-0.34908 -0.07639,-0.13699 -0.124764,-0.28008 -0.170595,-0.40714 -0.04838,-0.1268 -0.09421,-0.23705 -0.137495,-0.29867 -0.04329,-0.0614 -0.05856,-0.0698 -0.0993,-0.0733 -0.01273,0 -0.02546,-0.003 -0.04074,-0.003 z m -0.893717,1.98196 c -1.573554,0.0102 -3.302426,0.63655 -4.162279,1.79253 0.298415,0.29027 0.516115,0.65438 0.637315,1.01848 0.09268,0.28263 -0.01528,0.53725 -0.09014,0.75877 -0.07511,0.22407 -0.119162,0.42012 -0.09956,0.49396 0.01859,0.0688 0.06849,0.13241 0.165249,0.20625 0.09676,0.0738 0.234251,0.14768 0.384477,0.22406 0.295359,0.15023 0.667105,0.30046 0.809693,0.67475 0.06111,0.15786 0.07129,0.32337 0.06111,0.48887 0.06875,-0.008 0.140042,-0.0153 0.213882,-0.0178 0.02546,0 0.05347,-0.003 0.07893,-0.003 0.333553,0 0.720575,0.0636 1.178892,0.21643 -0.122218,-0.56526 -0.183327,-1.15598 -0.178234,-1.75688 -0.320822,-0.19352 -0.626366,-0.32083 -0.906449,-0.35138 -0.305544,-0.0331 -0.58308,0.0356 -0.87844,0.2699 l -0.285175,-0.35647 c 0.331007,-0.26481 0.695114,-0.38193 1.056675,-0.37684 0.05347,0 0.104394,0.003 0.155318,0.008 0.297906,0.0306 0.588173,0.13749 0.875894,0.28772 0.0331,-0.5347 0.117126,-1.07704 0.244436,-1.61684 -0.257167,-0.18333 -0.463409,-0.27754 -0.656921,-0.29791 -0.216427,-0.0229 -0.448132,0.0382 -0.779138,0.23171 l -0.234251,-0.39212 c 0.333553,-0.1986 0.636551,-0.30299 0.934457,-0.30045 0.04329,0 0.08403,0.003 0.12731,0.005 0.254621,0.028 0.491417,0.12986 0.733307,0.28518 0.05602,-0.1986 0.119671,-0.39466 0.188419,-0.59072 l 0.432854,0.15277 c -0.134948,0.37939 -0.244435,0.76132 -0.331006,1.14325 0.211335,-0.0688 0.42267,-0.10185 0.636551,-0.10949 0.0331,0 0.0662,-0.003 0.0993,-0.003 0.493963,0.005 0.985381,0.15532 1.464067,0.36666 l -0.188419,0.41758 c -0.753676,-0.3361 -1.443698,-0.46851 -2.115895,-0.13495 -0.08657,0.51688 -0.124764,1.02866 -0.119672,1.53026 0.287721,-0.15022 0.593266,-0.22915 0.916633,-0.24698 0.04329,-0.003 0.08657,-0.003 0.132403,-0.003 h 0.04329 c 0.415032,0.005 0.852979,0.10694 1.298564,0.28772 l -0.173142,0.42267 c -0.875894,-0.35647 -1.588831,-0.36411 -2.192281,0.056 0.05347,0.67984 0.196058,1.33167 0.432855,1.94276 0.297906,-0.32337 0.65692,-0.57035 1.097414,-0.69002 0.193511,-0.0535 0.4023,-0.084 0.623819,-0.0866 h 0.09676 c 0.397208,0.0102 0.837701,0.0993 1.331665,0.27753 0.124764,-0.25716 0.168049,-0.57035 0.183326,-0.92427 0.02037,-0.46341 -0.01273,-0.98029 0.101848,-1.47425 v -0.003 c 0.119672,-0.5016 0.4252164,-1.15343 0.8377014,-1.65758 0.06365,-0.0789 0.132403,-0.15277 0.20115,-0.22406 -0.150226,-0.15787 -0.313183,-0.31064 -0.483778,-0.45577 -0.8224244,-0.69257 -1.8536364,-1.19417 -2.8135554,-1.38768 -0.343738,-0.0688 -0.712937,-0.10185 -1.087229,-0.0993 z m -4.896604,1.81545 c -0.340682,0.81987 -0.5566,2.1439 -0.472321,3.44246 0.09115,1.40805 0.530883,2.7728202 1.424092,3.4832102 0.611852,0.48378 1.737274,0.82242 2.737932,0.79187 0.109487,-0.005 0.216428,-0.0127 0.323368,-0.0229 0.0331,-0.056 0.0662,-0.11967 0.0993,-0.18841 -1.278194,-0.0586 -2.202466,-0.57545 -2.82654,-1.20181 -0.672198,-0.6722 -1.004987,-1.4589802 -1.129242,-1.9554902 l 0.444567,-0.11203 c 0.104649,0.42012 0.410703,1.1432502 1.010843,1.7441502 0.585627,0.58563 1.441151,1.06686 2.714253,1.07195 0.106941,-0.2368 0.22152,-0.48632 0.351376,-0.72567 l -0.0025,-0.003 c -0.320821,-0.24444 -0.575442,-0.48887 -0.809693,-0.57799 -0.208788,-0.0789 -0.486324,-0.0229 -0.789323,0.0356 -0.150226,0.0306 -0.305544,0.0611 -0.468501,0.0509 -0.162957,-0.0102 -0.346284,-0.0738 -0.47614,-0.21897 l -0.0025,-0.003 c -0.142588,-0.16296 -0.178235,-0.37175 -0.178235,-0.5703502 0.0025,-0.19606 0.03819,-0.39975 0.07639,-0.59581 0.07893,-0.39721 0.140042,-0.78678 0.08657,-0.92937 -0.04838,-0.12985 -0.287721,-0.27753 -0.590719,-0.4303 -0.151499,-0.0764 -0.310637,-0.15787 -0.453479,-0.26481 -0.143096,-0.10949 -0.276263,-0.25717 -0.329988,-0.45577 -0.07664,-0.28263 0.0331,-0.5347 0.10745,-0.75622 0.07435,-0.22152 0.110251,-0.40994 0.08988,-0.47105 -0.146661,-0.43795 -0.492945,-0.89881 -0.936748,-1.13815 z m 10.2359934,0.0917 c -0.07893,0.003 -0.157865,0.028 -0.246982,0.0713 -0.178234,0.0866 -0.374292,0.25972 -0.552526,0.47869 -0.359015,0.43795 -0.651828,1.06177 -0.746038,1.47425 -0.09421,0.4023 -0.07129,0.89372 -0.09166,1.39023 -0.02292,0.49396 -0.09166,1.01084 -0.4379474,1.42587 -0.353922,0.4201302 -0.880987,0.5168802 -1.364765,0.5958202 -0.481233,0.0789 -0.929365,0.14513 -1.219632,0.37174 -0.313183,0.24444 -0.605996,0.85043 -0.85807,1.40041 -0.07129,0.15532 -0.140042,0.303 -0.211335,0.44304 1.464067,-0.42012 2.70916,-1.03121 3.641071,-1.88673 C 10.752519,9.8498298 11.404347,8.6250998 11.574943,6.9751598 l 0.458317,0.0458 c -0.183327,1.74669 -0.893718,3.0961802 -1.986039,4.1019302 -0.9191804,0.84534 -2.1006184,1.44879 -3.4577454,1.87655 2.070064,0.028 3.6945424,-0.71803 4.7945024,-2.10316 h 0.0025 c 0.611089,-0.76896 1.219631,-2.0777002 1.433512,-3.2667802 0.106941,-0.59327 0.11458,-1.15852 -0.0076,-1.60411 -0.119672,-0.44558 -0.34883,-0.76895 -0.753676,-0.95737 -0.07129,-0.0331 -0.137495,-0.0484 -0.203697,-0.0484 z m -7.3152434,4.18851 c -0.14768,0 -0.280083,0.0153 -0.394662,0.0407 h -0.0025 c -0.01528,0.0713 -0.0331,0.14259 -0.04583,0.21389 -0.03819,0.19096 -0.06875,0.37174 -0.06875,0.50924 0,0.1400402 0.02801,0.2215202 0.06366,0.2648002 0.04329,0.0458 0.07893,0.0611 0.162957,0.0662 0.08402,0.005 0.208789,-0.0127 0.353922,-0.0407 0.287721,-0.0586 0.659467,-0.15786 1.038851,-0.0153 0.254621,0.0942 0.460863,0.25971 0.656921,0.42267 -0.196058,-0.37684 -0.353922,-0.7715002 -0.47614,-1.1814402 l -0.0051,0.0127 c -0.537248,-0.20879 -0.954826,-0.29027 -1.283286,-0.29281 z m 3.613063,0.31318 c -0.185873,0.003 -0.353923,0.0255 -0.506695,0.0688 -0.415031,0.11458 -0.738399,0.35901 -1.015935,0.7103902 0.04583,0.0967 0.09676,0.19096 0.14768,0.28517 0.04329,-0.0407 0.08912,-0.0815 0.137495,-0.11967 0.42267,-0.33101 0.957372,-0.38448 1.42842,-0.46086 0.3692,-0.0611 0.687475,-0.1298602 0.916633,-0.2902702 -0.389569,-0.12731 -0.73076,-0.18842 -1.028666,-0.19351 z"/></svg>
