<svg role="img" focusable="false" aria-hidden="true" xmlns="http://www.w3.org/2000/svg" viewBox="0 0 14 14"><path d="m 6.0512836,1.00004 c 0.01036,0.10158 0.02332,0.22492 0.03369,0.36433 0.409415,0.0207 0.881019,-0.02 1.243792,-0.0783 C 7.2950756,1.1705 7.2665756,1.07152 7.2484356,1 Z m 1.417404,0.73643 c -0.453465,0.0609 -0.950982,0.1122 -1.355215,0.1008 0.02073,0.53483 0.01037,1.13988 -0.163247,1.58816 -0.456057,1.17124 -1.733535,1.8942 -2.795941,2.62233 -0.531721,0.36277 -1.012653,0.72814 -1.322565,1.11164 -0.309652,0.3835 -0.45502,0.76701 -0.365105,1.25416 0.157029,0.85251 0.789031,1.53142 1.656576,2.02893 -0.551415,-1.45109 1.179011,-3.16389 2.306197,-4.04232 -0.88361,1.29043 -1.948607,2.49795 -1.844958,3.98532 0.06478,0.75404 0.601166,1.18678 0.969121,1.35262 0.720363,0.10624 1.370762,-0.12438 1.977111,-0.33945 -0.691859,-0.76182 -0.738501,-2.26474 -0.297992,-2.93846 -0.142518,0.78773 -0.04923,1.70244 0.39905,2.33211 0.41978,0.58303 1.147916,1.02354 1.725761,1.12978 0.243576,0.0441 0.728137,-0.10624 1.103866,-0.34723 -0.453466,-0.30317 -0.725546,-0.63485 -0.844742,-1.12459 l 0.453465,-0.11143 c 0.18916,0.73332 0.738502,0.96912 1.3889014,1.04945 0.663356,0.0829 1.34485,-0.10365 1.57547,-0.45865 C 12.358345,10.43472 12.425717,9.86465 12.15882,9.2298 12.047397,8.9629 11.850463,8.70378 11.6328,8.40578 11.202655,7.82017 10.712912,7.23455 10.228351,6.72926 c 0.645218,0.27985 1.803499,1.31634 2.189592,1.97192 0.0596,-0.15806 0.10365,-0.3239 0.126971,-0.49492 C 12.607104,7.74243 12.469764,7.37188 12.189915,7.00652 11.223385,5.87674 9.7204696,5.25484 8.7565306,4.29091 8.9871506,4.86616 9.2333176,5.39477 9.5364916,5.90006 8.1553646,4.8532 7.9325186,3.33733 7.4686876,1.73647 Z M 6.9893096,11.8003 c -0.0285,0.49233 -0.05701,0.74368 -0.02591,1.19197 l 0.466422,-0.0337 c -0.04146,-0.29281 -0.0026,-0.61412 0.02073,-0.86806 -0.158065,-0.0829 -0.313539,-0.1788 -0.46124,-0.29022 z m -0.409415,0.0777 c -0.158065,0.057 -0.329086,0.11401 -0.474195,0.15806 0.0052,0.30836 -0.0311,0.57007 -0.09329,0.86547 l 0.456057,0.0959 c 0.108832,-0.37314 0.08551,-0.77478 0.111423,-1.11941 z m -0.774778,0.24357 c -0.186569,0.0415 -0.35759,0.0881 -0.526021,0.10624 -0.06996,0.18139 -0.160656,0.29799 -0.272079,0.45865 l 0.383502,0.26431 c 0.18916,-0.25135 0.344634,-0.55712 0.414598,-0.8292 z m 1.943425,0.10365 c 0.05441,0.28504 0.101058,0.49752 0.150291,0.77478 l 0.458648,-0.0803 c -0.0285,-0.18138 -0.06737,-0.38091 -0.10624,-0.54416 -0.165839,-0.0311 -0.334269,-0.0829 -0.502699,-0.15029 z m 1.223061,0.10106 c -0.163247,0.0492 -0.329086,0.0752 -0.487151,0.0726 0.09587,0.18657 0.155474,0.33427 0.235802,0.52862 l 0.432736,-0.1788 c -0.05701,-0.13993 -0.121788,-0.29281 -0.181387,-0.42237 z"/></svg>
