<svg role="img" focusable="false" aria-hidden="true" xmlns="http://www.w3.org/2000/svg" viewBox="0 0 14 14"><path d="m 7.599289,1.0000073 c -0.101627,0.77132 0.05804,1.65221 0.618766,2.39695 0.648625,0.86151 1.840229,1.56263 3.846841,1.69291 -0.285289,-1.39982 -0.838826,-2.21601 -1.598451,-2.82073 -0.605821,-0.48232 -1.359853,-0.83334 -2.206373,-1.20692 0.783548,0.96598 1.592149,1.92729 2.767341,2.43416 l -0.187235,0.434 C 9.37715,3.2993473 8.469102,2.0738373 7.599263,1.0000073 Z m -0.515066,0.30601 c -1.119021,2.33169 -2.335231,4.61416 -3.885837,6.75095 -0.05165,-0.0423 -0.099,-0.0847 -0.143222,-0.12408 -0.130776,-0.11649 -0.23923,-0.20982 -0.404931,-0.27329 -0.0614,-0.0235 -0.122766,-0.0349 -0.184346,-0.0348 -0.18474,2.6e-4 -0.37158,0.10367 -0.568531,0.29175 -0.262601,0.25086 -0.497524,0.64106 -0.627432,0.9879 -0.37599197,1.00385 0.130118,2.1158797 1.134068,2.4918197 1.003923,0.37605 2.116091,-0.13004 2.492083,-1.13385 C 5.0258,9.9161173 5.106786,9.4635773 5.074643,9.1005873 c -0.01602,-0.18146 -0.05995,-0.33868 -0.12568,-0.45188 -0.06573,-0.11318 -0.145271,-0.18469 -0.268116,-0.22655 -0.117277,-0.0399 -0.276177,-0.0448 -0.46651,-0.0486 -0.179357,-0.003 -0.387127,-0.008 -0.603195,-0.0805 1.400766,-1.93713 2.527167,-3.98353 3.551153,-6.06582 -0.187497,1.48614 -0.372369,3.00791 -0.78544,4.47183 -0.184608,-0.0218 -0.337363,-0.0839 -0.469714,-0.13508 -0.16339,-0.0632 -0.297711,-0.11253 -0.47515,-0.11386 -0.262942,-0.002 -0.456926,0.17767 -0.61488,0.50461 -0.132876,0.27521 -0.212549,0.63576 -0.234503,0.96396 0.08167,0.0102 0.165439,0.027 0.250626,0.056 0.23298,0.0794 0.411759,0.24249 0.524493,0.43663 0.112735,0.19417 0.167382,0.41701 0.18776,0.64762 0.02035,0.22978 0.007,0.46906 -0.03036,0.70186 0.290962,0.17452 0.631871,0.2749397 0.997017,0.2749397 1.072069,0 1.936026,-0.8638997 1.936026,-1.9358397 0,-0.36974 -0.08288,-0.82194 -0.24028,-1.15064 -0.0787,-0.16431 -0.174971,-0.29611 -0.276256,-0.37906 -0.101259,-0.083 -0.200838,-0.12206 -0.330615,-0.11817 -0.123764,0.004 -0.274287,0.0549 -0.453827,0.11811 -0.08251,0.0291 -0.171741,0.06 -0.267538,0.0854 0.31092,-1.1494 0.488438,-2.31737 0.63749,-3.46116 -0.325205,-0.6107 -0.453879,-1.26834 -0.432924,-1.88834 z m 1.227187,2.9045 c 0.04246,0.14317 0.08561,0.28781 0.129856,0.43471 0.536756,1.78162 1.190213,3.78967 1.791122,5.12742 -0.119142,0.005 -0.228856,-0.005 -0.3272,-0.0137 -0.17463,-0.0148 -0.317301,-0.0244 -0.487992,0.0241 -0.252884,0.0719 -0.388649,0.2988397 -0.448391,0.6569497 -0.05974,0.35813 -0.01376,0.81128 0.09026,1.16674 0.301046,1.02881 1.372878,1.61538 2.401827,1.31437 1.028923,-0.30105 1.615521,-1.37278 1.314502,-2.4016 -0.103859,-0.35487 -0.310395,-0.7656097 -0.553721,-1.0368497 -0.121689,-0.13561 -0.251151,-0.23511 -0.371633,-0.28629 -0.06027,-0.0256 -0.117015,-0.0408 -0.174104,-0.0446 -0.05717,-0.004 -0.114704,0.004 -0.176415,0.024 -0.117777,0.0383 -0.247896,0.12965 -0.40241,0.24075 -0.11389,0.0819 -0.242066,0.17358 -0.395897,0.24396 -0.564855,-1.24032 -1.217366,-3.20696 -1.753177,-4.973 -0.236524,-0.14591 -0.448391,-0.30583 -0.636597,-0.4771 z"/></svg>
