<svg role="img" focusable="false" aria-hidden="true" xmlns="http://www.w3.org/2000/svg" viewBox="0 0 14 14"><path d="m 12.622939,8.4999373 h -1.10761 c -1.476774,0 -2.8099928,0.52148 -3.7652119,1.35647 v -2.26468 c 0.8731878,0.38379 1.8957897,0.0527 2.3733989,-0.77346 0.47761,-0.82617 0.260789,-1.87795 -0.5098357,-2.44338 0.5918907,-0.43655 0.8731877,-1.17776 0.7208207,-1.89849 -0.155297,-0.71777 -0.7178911,-1.28027 -1.4357819,-1.43557 -0.7207972,-0.15234 -1.4621255,0.12893 -1.8987194,0.72073 -0.4365939,-0.5918 -1.1779223,-0.87307 -1.8987194,-0.72073 -0.7178909,0.1553 -1.2804848,0.7178 -1.4357818,1.43557 -0.1523672,0.72073 0.1289298,1.46194 0.7208206,1.89849 -0.7676956,0.56543 -0.9874457,1.61721 -0.5098361,2.44338 0.4805392,0.82327 1.5002114,1.15725 2.3733992,0.77346 v 2.26468 C 5.2946632,9.0214173 3.9614439,8.4999373 2.48467,8.4999373 H 1.3770602 c -0.2138907,0 -0.39848447,0.18164 -0.375047,0.39551 0.2314689,2.2998497 2.4906103,4.1045597 5.2449393,4.1045597 h 1.5060943 c 2.7543292,0 5.0134702,-1.80471 5.2449392,-4.1045597 0.02344,-0.21387 -0.161157,-0.39551 -0.375047,-0.39551 z m -5.6229393,-3.00005 c -0.6211877,0 -1.1251645,-0.50391 -1.1251645,-1.125 0,-0.62109 0.5039768,-1.12502 1.1251645,-1.12502 0.6211877,0 1.1251644,0.5039 1.1251644,1.12502 0,0.62112 -0.5039767,1.125 -1.1251644,1.125 z"/></svg>
