<svg role="img" focusable="false" aria-hidden="true" xmlns="http://www.w3.org/2000/svg" viewBox="0 0 14 14"><path d="M 12.997987,8.89551 C 12.766518,11.19531 10.507376,13 7.753047,13 H 6.2469527 C 3.4926237,13 1.2334823,11.19531 1.0020135,8.89551 0.97857596,8.68164 1.1631698,8.5 1.3770605,8.5 h 1.1076097 c 1.4767739,0 2.8099932,0.52148 3.7652122,1.35644 V 7 C 4.5914209,7 3.2494361,5.6582 3.2494361,4 V 1.75 L 5.124718,2.875 7.0263671,1 8.8752818,2.875 10.750564,1.75 V 4 c 0,1.6582 -1.3419852,3 -3.0004467,3 V 9.85644 C 8.7053364,9.02148 10.038556,8.5 11.51533,8.5 h 1.10761 c 0.21389,0 0.398484,0.18164 0.375047,0.39551 z"/></svg>
