<svg role="img" focusable="false" aria-hidden="true" xmlns="http://www.w3.org/2000/svg" viewBox="0 0 14 14"><path d="m 1.012722,1.00018 v 1.01679 c 0.190423,0.0578 0.381203,0.12326 0.571601,0.19564 L 2.206041,3.45039 C 2.350621,4.11483 2.508989,4.82793 2.659216,5.48488 2.11097,5.6891 1.797948,6.2813 1.952423,6.85786 c 0.08156,0.30428 0.277304,0.54688 0.529522,0.69403 0.201923,0.26196 0.55046,0.39255 0.888032,0.30213 0.293534,-0.0787 0.510288,-0.30661 0.590732,-0.5804 5e-5,-2.6e-4 -1.02e-4,-5.1e-4 0,-7.7e-4 C 4.177895,6.99802 4.267396,6.6275 4.16978,6.26316 4.038608,5.77369 3.610136,5.4439 3.130682,5.41487 2.994167,4.81844 2.851089,4.1726 2.716508,3.55694 L 2.685468,2.70702 c 0.76958,0.39649 1.528729,0.89093 2.261038,1.44694 L 5.056995,5.57075 C 4.883236,6.47821 4.800681,7.43878 4.792234,8.44791 4.232718,8.52461 3.801652,9.00419 3.801652,9.58477 c 0,0.24093 0.07429,0.46409 0.201108,0.64874 0.02519,0.44109 0.394941,0.79578 0.841933,0.79578 0.346247,0 0.645786,-0.2126 0.775126,-0.51354 0.289006,-0.20844 0.477775,-0.54741 0.477775,-0.93098 0,-0.52321 -0.350445,-0.9644 -0.829187,-1.1027 0.008,-1.15628 0.114101,-2.23895 0.343449,-3.24129 L 5.852779,4.88385 C 6.402221,5.35099 6.930903,5.84589 7.431626,6.35063 7.73035,6.71341 8.022688,7.07958 8.304596,7.4517 l 0.01824,0.7084 C 7.985544,8.8415 7.741009,9.60014 7.5644,10.42355 c -0.0035,-5e-5 -0.0069,0 -0.01033,0 -0.633981,0 -1.148035,0.514 -1.148035,1.14798 0,0.26543 0.09042,0.50996 0.241686,0.70438 0.08192,0.3795 0.421806,0.66705 0.82443,0.66705 0.310299,0 0.583354,-0.17088 0.729841,-0.42295 0.302133,-0.20675 0.500062,-0.5547 0.500062,-0.94842 0,-0.46463 -0.276337,-0.86483 -0.673414,-1.04549 0.186912,-0.87083 0.450147,-1.65372 0.814101,-2.33657 0.617088,0.88305 1.163223,1.80875 1.587674,2.8128 -0.230823,0.20998 -0.376012,0.51303 -0.376012,0.84984 0,0.63393 0.513239,1.14801 1.14722,1.14801 0.164042,0 0.319967,-0.0342 0.461112,-0.0962 0.0145,7.7e-4 0.02895,7.7e-4 0.04368,7.7e-4 0.463096,0 0.843536,-0.38047 0.843536,-0.84351 0,-0.24601 -0.10736,-0.46862 -0.277456,-0.6233 -0.166179,-0.429 -0.583024,-0.73378 -1.070797,-0.73378 -0.124532,0 -0.243925,0.0206 -0.356169,0.0572 C 10.158326,9.15554 9.179929,7.75748 8.11305,6.43248 8.09104,6.39838 8.06845,6.36468 8.04627,6.33072 l 0.286971,-0.006 c 0.891008,0.29625 1.776342,0.73892 2.665722,1.30307 -0.190296,0.20487 -0.306891,0.47905 -0.306891,0.7807 0,0.48922 0.30595,0.90645 0.737016,1.07171 0.154476,0.20408 0.399062,0.33709 0.672575,0.33709 0.46302,0 0.843485,-0.38047 0.843485,-0.84351 0,-0.0641 -0.0076,-0.1267 -0.02147,-0.18684 0.04147,-0.1186 0.0636,-0.24568 0.0636,-0.37843 0,-0.6339 -0.513214,-1.14798 -1.14717,-1.14798 -0.145902,0 -0.285037,0.0275 -0.41341,0.0771 C 10.393095,6.66473 9.354684,6.14187 8.295106,5.81361 L 7.388783,5.37323 C 6.814842,4.58139 6.188569,3.82481 5.498975,3.11138 l 0.842721,-0.0914 c 0.940363,0.0871 1.867853,0.21085 2.769851,0.43564 -0.06444,0.14349 -0.100159,0.30239 -0.100159,0.46989 0,0.54448 0.37932,0.99997 0.888031,1.11776 0.141297,0.10665 0.316482,0.17015 0.505633,0.17015 0.463096,0 0.844375,-0.38047 0.844375,-0.84354 0,-0.0246 -0.0019,-0.0489 -0.004,-0.0731 0.03994,-0.11662 0.06202,-0.24113 0.06202,-0.37128 0,-0.63391 -0.514028,-1.14801 -1.148009,-1.14801 -0.279593,0 -0.535475,0.10018 -0.734599,0.26636 C 8.348801,2.75617 7.249408,2.61823 6.149355,2.52389 L 4.475029,2.12557 C 4.036305,1.73404 3.57443,1.35828 3.086936,0.99982 H 1.012759 Z m 9.392358,3.002 c 0.206146,0 0.368127,0.16198 0.368127,0.36807 0,0.20612 -0.161981,0.36813 -0.368127,0.36813 -0.206069,0 -0.368049,-0.16201 -0.368049,-0.36813 0,-0.20607 0.161955,-0.36807 0.368075,-0.36807 z M 3.162483,6.67027 c 0.159309,0.004 0.301268,0.11015 0.345026,0.27348 0.05335,0.19905 -0.06167,0.39739 -0.260767,0.45076 -0.199098,0.0534 -0.397434,-0.0609 -0.450808,-0.26 -0.0533,-0.19908 0.06169,-0.39739 0.260766,-0.45074 0.02493,-0.007 0.04935,-0.0112 0.07398,-0.0127 0.01074,-7.1e-4 0.02117,-0.001 0.0318,-8.1e-4 z m 8.939209,1.93583 c 0.206069,0 0.36805,0.16205 0.36805,0.36812 0,0.20607 -0.161955,0.36813 -0.368075,0.36813 -0.206146,0 -0.368126,-0.16206 -0.368126,-0.36813 0,-0.20612 0.16198,-0.36812 0.368126,-0.36812 z M 4.844746,9.81773 c 0.206069,0 0.368075,0.16201 0.368075,0.36813 0,0.20607 -0.16198,0.36807 -0.368126,0.36807 -0.206069,0 -0.368075,-0.162 -0.368075,-0.36812 0,-0.20607 0.16198,-0.36808 0.368126,-0.36808 z m 6.861777,1.87549 c 0.20612,0 0.368126,0.16198 0.368126,0.36807 0,0.20607 -0.161981,0.36813 -0.368126,0.36813 -0.206121,-5e-5 -0.368076,-0.16206 -0.368076,-0.36813 0,-0.20612 0.16193,-0.36812 0.36805,-0.36812 z m -4.234266,0.0382 c 0.20612,0 0.368126,0.16198 0.368126,0.36807 0,0.20607 -0.162006,0.36813 -0.368126,0.36813 -0.206121,-5e-5 -0.368127,-0.16206 -0.368127,-0.36813 0,-0.20612 0.162006,-0.36812 0.368127,-0.36812 z"/></svg>
