<svg role="img" focusable="false" aria-hidden="true" xmlns="http://www.w3.org/2000/svg" viewBox="0 0 14 14"><path d="m 7.5659225,1.00005 c 0.06134,0.85342 -0.0024,1.69041 -0.227283,2.51405 -0.01399,-0.055 -0.02915,-0.10919 -0.04595,-0.16313 C 7.0555725,2.58971 6.5442055,1.93752 5.7386155,1.44204 5.1900655,1.02261 4.2112315,0.84146 2.8633775,1.23058 c 0.05703,0.56421 1.152052,0.62915 1.524748,0.6804 -0.732363,0.16138 -1.540969,0.79033 -2.620226,0.91798 0.996728,0.52579 2.348612,0.11142 3.271329,-0.29625 -0.04748,0.44901 -0.346995,0.73588 -0.621752,1.5105 1.212377,-0.28038 1.795804,-0.94842 1.828882,-1.58573 0.283197,0.30953 0.475577,0.65419 0.594022,1.03444 0.08884,0.28515 0.13535,0.59291 0.141788,0.9212 0.09817,0.12597 0.174892,0.26956 0.22338,0.42531 0.134716,-0.0763 0.28383,-0.13013 0.441968,-0.15601 0.154791,-0.37817 0.329074,-0.68663 0.520364,-0.91643 0.377157,-0.45294 0.784907,-0.6222 1.356041,-0.51174 l 8.37e-4,-0.004 C 10.351132,3.82556 10.135965,4.79563 9.8352535,5.5156 10.38241,5.34638 10.681829,5.01049 10.682767,4.42645 c 0.454895,0.29833 0.644385,0.78811 0.774667,1.31965 0.183002,-0.54503 0.146301,-1.13512 -0.32398,-1.64357 l 1.098647,0.41821 C 11.524324,3.67511 10.855327,2.77378 9.5636145,2.77974 8.8930205,2.66695 8.2985675,2.90564 7.8558645,3.40233 8.0436825,2.61025 8.0950345,1.80707 8.0403875,0.99998 H 7.5659005 Z M 5.9247325,4.368 c -0.481635,0 -0.867309,0.38486 -0.867309,0.8665 0,0.17261 0.04976,0.33272 0.135452,0.46734 0.09277,-0.0205 0.188883,-0.0317 0.287532,-0.0317 0.330925,0 0.634424,0.12184 0.86888,0.32241 0.264618,-0.14792 0.442044,-0.43109 0.442044,-0.75806 0,-0.48164 -0.384913,-0.86653 -0.866599,-0.86653 z m -1.480366,0.47363 c -0.481661,0 -0.867359,0.38488 -0.867359,0.86654 0,0.40497 0.272475,0.74253 0.645577,0.83961 0.101487,-0.27362 0.289964,-0.50549 0.531517,-0.66221 -0.108154,-0.19301 -0.170329,-0.41527 -0.170329,-0.6511 0,-0.12881 0.01876,-0.25339 0.05308,-0.37148 -0.06185,-0.0138 -0.126327,-0.0214 -0.192507,-0.0214 z m 3.419403,0.29625 c -0.481635,0 -0.867283,0.38488 -0.867283,0.86652 0,0.0886 0.01293,0.17403 0.03721,0.25428 0.104554,-0.0264 0.213925,-0.0404 0.326362,-0.0404 0.41069,0 0.77928,0.18706 1.025775,0.47996 0.209718,-0.15778 0.344536,-0.40891 0.344536,-0.69386 0,-0.48159 -0.384913,-0.8665 -0.8666,-0.8665 z m -2.383362,1.0059 c -0.481661,0 -0.867359,0.38572 -0.867359,0.86736 0,0.48163 0.385774,0.86736 0.867359,0.86736 0.481585,0 0.867359,-0.38573 0.867359,-0.86736 0,-0.48164 -0.385698,-0.86736 -0.867359,-0.86736 z m 3.729898,0.17824 c -0.01505,0 -0.03029,5e-5 -0.04512,8.1e-4 -0.07934,0.32284 -0.276481,0.60008 -0.542594,0.78414 0.05095,0.14131 0.07837,0.29316 0.07837,0.45153 0,0.10519 -0.01326,0.20738 -0.03642,0.30573 0.148607,0.12014 0.338123,0.19169 0.545712,0.19169 0.481686,0 0.8673595,-0.38572 0.8673595,-0.86735 0,-0.48164 -0.3856735,-0.86655 -0.8673595,-0.86655 z m -1.850299,0.3699 c -0.207081,0 -0.396521,0.0715 -0.544951,0.19086 0.0041,0.0424 0.0063,0.085 0.0063,0.12836 0,0.3093 -0.105949,0.59468 -0.283552,0.82219 0.113806,0.34547 0.436721,0.59248 0.822141,0.59248 0.481661,0 0.867359,-0.3857 0.867359,-0.86736 0,-0.48164 -0.385698,-0.86653 -0.867359,-0.86653 z m -3.656241,0.2812 c -0.481661,0 -0.866523,0.38567 -0.866523,0.86736 0,0.30304 0.152688,0.56769 0.385724,0.72238 0.111018,-0.51048 0.514662,-0.91362 1.024939,-1.02502 -0.05974,-0.13865 -0.09675,-0.289 -0.106151,-0.44671 -0.12833,-0.0748 -0.277621,-0.11801 -0.437989,-0.11801 z m 0.829339,1.00676 c -0.481686,0 -0.867359,0.38487 -0.867359,0.8665 0,0.48166 0.385699,0.86736 0.867359,0.86736 0.481585,0 0.866498,-0.3857 0.866498,-0.86736 0,-0.19527 -0.06296,-0.37454 -0.170278,-0.51884 -0.257775,-0.0493 -0.490152,-0.17218 -0.673281,-0.34689 -0.0076,-2.1e-4 -0.01528,-7.7e-4 -0.02294,-7.7e-4 z m 1.63166,0.18291 c -0.122297,0.0732 -0.256887,0.12724 -0.399969,0.15841 0.06937,0.16159 0.108484,0.33878 0.108484,0.52518 0,0.27458 -0.08364,0.53058 -0.226548,0.74375 0.157833,0.16774 0.38248,0.27171 0.632904,0.27171 0.481635,0 0.867308,-0.38572 0.867308,-0.86736 0,-0.0387 -0.0031,-0.0767 -0.0079,-0.11406 -0.425569,-0.0713 -0.784476,-0.34481 -0.974246,-0.71763 z m 2.307297,0.14338 c -0.194813,0.28832 -0.499023,0.49697 -0.851441,0.56713 0.127138,0.31992 0.438166,0.54411 0.805514,0.54411 0.48166,0 0.867359,-0.38488 0.867359,-0.86652 0,-0.008 -6.08e-4,-0.0159 -8.11e-4,-0.0238 -0.02725,0.002 -0.05475,0.002 -0.08238,0.002 -0.272348,0 -0.526194,-0.0824 -0.738218,-0.22335 z m -0.963169,1.2198 c -0.116594,0.26761 -0.317694,0.49071 -0.569461,0.63443 0.100879,0.36709 0.434795,0.63366 0.835625,0.63366 0.481686,0 0.866599,-0.38488 0.866599,-0.86655 0,-0.018 -5.57e-4,-0.0361 -0.0016,-0.0539 -0.0697,0.0113 -0.141104,0.0174 -0.213849,0.0174 -0.354015,0 -0.676956,-0.13928 -0.917292,-0.36514 z M 5.3212305,9.9299 c -0.146325,0.10701 -0.315133,0.18427 -0.497451,0.22495 -0.02068,0.0746 -0.03244,0.15299 -0.03244,0.23445 0,0.48169 0.384862,0.8666 0.866498,0.8666 0.481635,0 0.867359,-0.38491 0.867359,-0.8666 0,-0.0255 -0.0011,-0.0511 -0.0032,-0.076 -0.07865,0.0146 -0.159683,0.0222 -0.242389,0.0222 -0.374495,0 -0.714519,-0.15581 -0.958353,-0.40555 z m -1.553288,0.0158 c -0.06544,0.12222 -0.102197,0.26188 -0.102197,0.41112 0,0.48164 0.385699,0.86655 0.867359,0.86655 0.02514,0 0.04983,-10e-4 0.07442,-0.003 -0.181481,-0.22873 -0.289889,-0.51768 -0.289889,-0.83091 0,-0.0739 0.0066,-0.14625 0.01825,-0.21697 -0.208704,-0.0311 -0.401845,-0.11038 -0.567941,-0.2266 z m 3.116816,0.98142 c -0.03062,0.0693 -0.06709,0.1354 -0.108483,0.19803 0.258282,0.22617 0.429498,0.54951 0.455427,0.91167 0.443717,-0.0167 0.797707,-0.36145 0.8301,-0.80075 -0.09251,0.0203 -0.188325,0.0317 -0.286746,0.0317 -0.340962,0 -0.653003,-0.12927 -0.890272,-0.34061 z m -0.433274,0.54021 c -0.222466,0.1645 -0.497096,0.26216 -0.793651,0.26216 -0.168251,0 -0.328999,-0.0316 -0.477631,-0.0887 -0.09581,0.13948 -0.152079,0.30839 -0.152079,0.49187 0,0.48166 0.384887,0.86736 0.866548,0.86736 0.481635,0 0.867359,-0.3857 0.867359,-0.86736 0,-0.26893 -0.120523,-0.50688 -0.310495,-0.66535 z"/></svg>
