<svg role="img" focusable="false" aria-hidden="true" xmlns="http://www.w3.org/2000/svg" viewBox="0 0 14 14"><path d="m 12.012743,1.0950771 c 0.06708,0.11299 0.113513,0.24173 0.141891,0.3782 0.03354,0.17492 0.04386,0.36686 0.03354,0.57428 0.110933,0.22651 0.198648,0.49791 0.257984,0.80878 0.136732,0.72261 0.118673,1.63845 -0.07998,2.61879 -0.397296,1.96068 -1.511788,4.16903 -3.4415101,5.6601799 -1.341518,1.03709 -2.623699,1.37763 -3.877503,1.29508 -0.626901,-0.0413 -1.251223,-0.19349 -1.870385,-0.4231 -0.255405,0.0335 -0.505133,0.049 -0.742737,0.0413 -0.138537,-0.003 -0.273721,-0.0155 -0.404519,-0.0335 0.961507,0.4747 1.957326,0.8075 2.986683,0.87715 1.362157,0.0903 2.773331,-0.2941 4.192244,-1.39053 2.0380751,-1.5737099 3.1938451,-3.8749299 3.6117791,-5.9336399 0.208967,-1.02936 0.234766,-1.99938 0.08255,-2.79758 -0.139311,-0.72881 -0.425674,-1.3294 -0.890045,-1.67535 z m -0.810071,0.0653 c -0.0516,0 -0.110933,0.004 -0.172849,0.0124 -0.252825,0.0315 -0.580465,0.11506 -0.959702,0.24457 -0.7533141,0.25876 -1.7026961,0.69836 -2.6856161,1.2471 -1.965839,1.09772 -4.070991,2.64304 -5.094672,4.01552 -0.437025,0.58562 -0.885144,1.54533 -1.118362,2.44053 -0.116609,0.44889 -0.18007301,0.8823099 -0.170527,1.2409099 0.0095,0.35601 0.09416,0.6269 0.231412,0.78169 0.251534,0.28378 0.667921,0.42825 1.214073,0.44115 0.547185,0.0155 1.207625,-0.10319 1.886123,-0.31732 1.356997,-0.42567 2.791389,-1.22542 3.609199,-1.9761599 1.062895,-0.97776 2.2625221,-2.87652 3.0158361,-4.61018 0.376657,-0.86424 0.642381,-1.69237 0.732675,-2.33063 0.04644,-0.31861 0.04644,-0.58923 0.0077,-0.78427 -0.0387,-0.19478 -0.108354,-0.3021 -0.203808,-0.36143 -0.03354,-0.0214 -0.136731,-0.0464 -0.291522,-0.0439 z m -5.0874491,4.3896 c 0.714616,0 1.30282,0.25282 1.532426,0.52113 1.349258,1.56596 -3.972957,5.2164399 -4.952007,3.9858499 -0.407357,-0.5107999 -0.05934,-2.4921199 1.394405,-3.7330299 0.668179,-0.57014 1.395695,-0.77137 2.025176,-0.77395 z"/></svg>
