<svg role="img" focusable="false" aria-hidden="true" xmlns="http://www.w3.org/2000/svg" viewBox="0 0 14 14"><path d="m 10.0301,2.6044642 c -0.508501,0.6615 -0.95116,1.40767 -1.468866,1.9597 1.072796,-0.81168 2.386391,-1.5571 3.179372,-2.42936 l 0.339561,0.30876 c -0.814223,0.89559 -2.03033,1.60501 -3.030246,2.33072 0.634956,-0.12546 1.359597,-0.40301 2.007151,-0.75012 0.714491,-0.38296 1.337233,-0.85563 1.647826,-1.25826 0.465074,-0.61017 0.38434,-1.26575 -0.26992,-1.59463 -0.953123,-0.35529001 -2.003071,0.91658 -2.404878,1.43319 z m -1.185329,-0.77804 c -0.403669,0.46834 -0.696106,1.04143 -0.799356,1.54999 -0.0789,0.38847 0.1198,0.72191 0.262448,0.9699 0.302587,-0.99331 1.689469,-1.91278 1.446656,-2.70558 -0.232129,-0.33308 -0.754808,0.0113 -0.909748,0.18569 z m -3.073138,0.65783 c -0.669713,-0.006 -1.360158,0.18881 -2.067178,0.75139 0.106234,0.33748 0.350246,0.62323 0.714517,0.86395 -0.513447,0.0382 -0.971508,-0.0621 -1.424291,-0.17554 a 7.1343852,7.1343852 0 0 0 -0.186152,0.22348 c -0.74499,0.93194 -0.651888,2.16536 -0.441792,3.53472 0.03022,0.19686 0.06276,0.3964 0.09535,0.59689 0.45801,0.65895 1.130095,1.13744 1.559238,1.61169 -0.502967,-0.11304 -0.999814,-0.24236 -1.409883,-0.60308 0.08555,0.70067 0.117556,1.4047598 -0.01198,2.0833398 1.154345,-0.48103 2.707515,-0.56118 4.208001,-0.79265 1.072031,-0.16539 2.103006,-0.39984 2.937068,-0.8654698 -1.116401,-0.11185 -1.932154,-0.8193 -2.462177,-1.50766 1.043394,0.3884 2.019952,0.96391 3.19355,0.9877 0.192145,-0.17449 0.365368,-0.37064 0.516227,-0.59211 0.768349,-1.12772 0.684121,-2.09548 0.226366,-2.93914 -0.172662,-0.31824 -0.403694,-0.61552 -0.666933,-0.88562 -0.332779,0.14229 -0.67155,0.2627 -1.00313,0.353 a 3.7573098,3.7573098 0 0 0 0.638272,0.11355 l -0.04136,0.45712 C 8.9731,5.4965042 7.119843,4.9458742 6.844568,3.2335542 l 0.446152,0.10774 c 0.07186,0.15413 0.162182,0.31967 0.254212,0.44422 0.003,-0.29616 0.05368,-0.56496 0.135662,-0.82552 -0.479048,-0.21324 -0.985432,-0.38697 -1.504464,-0.44924 a 3.6449047,3.6449047 0 0 0 -0.404511,-0.0265 z m 0.667725,3.30731 c 0.827815,0.59145 2.871176,1.42271 3.914799,1.71528 -1.559264,0.2655 -3.847275,-0.19151 -3.914799,-1.71528 z M 2.222253,10.421594 c -0.30557,0.21275 -0.493379,0.3936 -1.015216,0.49682 l 0.08905,0.45024 c 0.406934,-0.0805 0.676369,-0.22183 0.893453,-0.36443 0.02203,-0.19041 0.03218,-0.38485 0.03272,-0.58263 z m 1.191805,1.16784 c -0.181205,0.0478 -0.353484,0.10062 -0.514646,0.16016 -0.08181,0.29841 -0.186177,0.57022 -0.423049,0.8346 l 0.341856,0.30626 c 0.385437,-0.43021 0.495215,-0.89274 0.595839,-1.30102 z m -1.341415,0.0171 C 1.671779,11.809084 1.305748,12.110554 1,12.536044 l 0.372686,0.26786 c 0.148412,-0.20658 0.308808,-0.37498 0.480527,-0.5134 0.06905,-0.22514 0.15749,-0.46599 0.21943,-0.68397 z"/></svg>
