<svg role="img" focusable="false" aria-hidden="true" xmlns="http://www.w3.org/2000/svg" viewBox="0 0 14 14"><path d="m 6.999366,1.000015 c -0.831158,0 -1.538526,0.41583 -1.74821,0.94156 l -0.108632,0.26551 -0.234947,-0.1637 c -0.192,-0.13415 -0.416842,-0.23899 -0.65179,-0.30518 -0.467368,-0.12935 -0.929684,-0.0952 -1.287915,0.0546 -0.358737,0.14981 -0.6096,0.40547 -0.700043,0.73339 -0.09777,0.35596 0.0091,0.76017 0.325137,1.11132 l 0.242021,0.26779 -0.346105,0.10106 c -0.937516,0.27789 -1.473095,0.85389 -1.475621,1.41473 0,0.34863 0.197053,0.68716 0.568421,0.97263 0.370611,0.28295 0.913768,0.50021 1.552421,0.576 l 0.179369,0.0202 0.01768,0.17937 c 0.0101,0.0733 0.02526,0.13895 0.05053,0.20211 v 0.003 c 0.108632,0.28548 0.366316,0.49264 0.730105,0.59116 0.361263,0.10106 0.821053,0.0834 1.27579,-0.0909 0.477473,-0.1819 1.050947,-0.94737 1.192421,-1.20758 l 0.189474,-0.36127 0.204631,0.35369 c 0.159158,0.27031 0.682105,0.88421 1.025684,1.05347 0.36379,0.17937 0.745263,0.22232 1.058527,0.15411 0.315789,-0.0657 0.555789,-0.23495 0.677052,-0.48253 0.02526,-0.0581 0.04547,-0.11368 0.05811,-0.16674 l 0.048,-0.19705 0.202105,0.0227 c 0.126316,0.0126 0.250105,0.0202 0.376421,0.0202 0.725052,0 1.381895,-0.21221 1.84421,-0.53811 0.45979,-0.32589 0.722527,-0.75537 0.722527,-1.21516 0,-0.672 -0.586106,-1.32378 -1.56379,-1.61178 l -0.40421,-0.11622 0.320842,-0.27284 c 0.336,-0.28926 0.462316,-0.61465 0.406737,-0.89558 -0.05305,-0.25819 -0.255158,-0.47419 -0.581053,-0.61288 -0.325895,-0.1392 -0.768,-0.18568 -1.232842,-0.092 -0.310737,0.0634 -0.60379,0.18594 -0.838737,0.34737 L 8.856212,2.219665 8.752633,1.951875 C 8.545472,1.420895 7.838103,1.000015 6.999366,1.000015 Z m -0.341052,1.90585 c 0.192,-0.005 0.373894,0.0341 0.538105,0.11546 0.252631,0.12858 0.447158,0.34332 0.598737,0.60101 0.626526,-0.3739 1.169684,-0.47495 1.629473,-0.33095 0.517895,0.15916 0.879158,0.5861 1.172211,1.104 l -0.394105,0.22231 C 9.937472,4.150335 9.639366,3.832015 9.293261,3.725905 8.944629,3.617275 8.489893,3.693105 7.840629,4.132645 L 7.62084,4.279175 7.504629,4.041695 C 7.355577,3.733485 7.183787,3.523805 6.994314,3.427805 c -0.192,-0.096 -0.426948,-0.10863 -0.785685,0.0455 L 6.031787,3.053935 c 0.21979,-0.0942 0.429474,-0.14298 0.626527,-0.14804 z m -1.558737,1.6512 c 0.199579,0 0.384,0.0606 0.543158,0.14906 0.424421,0.22989 0.712421,0.64673 0.851368,0.816 l -0.353684,0.288 C 5.981261,5.613065 5.713472,5.261905 5.425472,5.102755 5.278945,5.024455 5.142524,4.994125 4.995998,5.024455 4.844419,5.057255 4.66505,5.160875 4.455366,5.421085 L 4.288629,5.628245 4.109261,5.431195 C 3.851577,5.145715 3.58884,5.097715 3.361472,5.150775 c -0.227369,0.0556 -0.4176,0.23242 -0.481769,0.44463 L 2.444166,5.464015 c 0.113684,-0.37642 0.426442,-0.66189 0.8112,-0.75537 0.320842,-0.0758 0.689684,-0.003 1.010527,0.25011 0.202105,-0.20463 0.416842,-0.33095 0.631579,-0.37895 0.06821,-0.0126 0.136421,-0.0227 0.202105,-0.0227 z m 1.687579,2.63748 c -0.131369,0.19452 -0.305684,0.42189 -0.515369,0.624 0.02274,1.03579 0.08337,2.04126 0.245053,2.89768 l -0.437053,0.11874 c -0.277894,-0.78821 -0.568421,-1.61432 -0.876631,-2.43032 -0.404211,0.0985 -0.803369,0.10105 -1.159579,0.0126 0.639158,1.45516 1.263158,3.04169 1.710316,4.12295 0.04295,0.10611 0.179368,0.2299 0.391579,0.32084 0.21221,0.0884 0.490105,0.13895 0.765473,0.13895 0.272842,0 0.545684,-0.0581 0.755369,-0.16421 0.21221,-0.10358 0.353684,-0.25011 0.421894,-0.45979 0.500211,-1.56379 1.13179,-3.00884 1.786106,-4.43116 -0.197053,0.18442 -0.447158,0.30821 -0.72,0.36632 -0.166737,0.0354 -0.341053,0.048 -0.520421,0.0354 -0.338527,0.8261 -0.629053,1.66231 -0.810948,2.47326 L 7.373261,10.797065 C 7.269682,9.872435 7.267156,8.821485 7.292421,7.762965 7.097895,7.586125 6.923579,7.381485 6.787158,7.194545 Z"/></svg>
