<svg role="img" focusable="false" aria-hidden="true" xmlns="http://www.w3.org/2000/svg" viewBox="0 0 14 14"><path d="m 6.4115473,0.99979331 c -0.05727,0 -0.119754,0.008 -0.174425,0.0242 -0.114547,0.0328 -0.200458,0.0955 -0.239508,0.16687 -0.04165,0.0713 -0.06248,0.16558 0.01822,0.34964 v 0.003 l 0.622202,1.57919 c 0.130168,-0.0338 0.260336,-0.0599 0.39571,-0.0781 l -0.367073,-1.93585 v -0.005 c -0.0052,-0.0346 -0.02083,-0.0555 -0.101531,-0.0825 -0.04165,-0.0138 -0.09632,-0.0213 -0.153598,-0.0213 z M 5.5081833,3.4274233 c -0.78361,-0.003 -1.634907,0.41133 -2.314383,1.03613 -0.699782,0.64824 -1.205614,1.51516 -1.29569,2.30137 -0.142403,1.24961 0.08904,2.85848 0.782569,4.1106997 0.692753,1.25221 1.809592,2.14776 3.53041,2.09049 1.002292,-0.0365 1.944706,-0.75497 2.621579,-1.74945 0.676872,-0.99449 1.069979,-2.2545097 1.007498,-3.2541997 -0.06248,-1.00229 -0.603978,-2.13215 -1.400605,-3.00687 -0.796627,-0.87473 -1.835365,-1.48652 -2.853277,-1.52557 h -0.0026 c -0.02603,0 -0.04946,-0.003 -0.0755,-0.003 z m 1.942103,0.0573 c -0.03124,0 -0.05988,0.003 -0.09112,0.003 0.523274,0.29418 1.007498,0.6925 1.426638,1.15329 0.859108,0.94242 1.4526727,2.14517 1.5229627,3.29064 0.07289,1.14548 -0.3566587,2.4731897 -1.0882017,3.5483797 -0.421744,0.6222 -0.952828,1.1637 -1.556807,1.51775 0.140581,0.005 0.281163,0.003 0.424347,-0.013 1.384985,-0.14058 2.4028967,-0.71852 3.0797687,-1.58544 0.674269,-0.86692 1.010102,-2.0332197 0.971052,-3.3661397 -0.04165,-1.38759 -0.833074,-2.66844 -1.910863,-3.51453 -0.8070397,-0.63522 -1.7676777,-1.01531 -2.6658357,-1.03353 z"/></svg>
