<svg role="img" focusable="false" aria-hidden="true" xmlns="http://www.w3.org/2000/svg" viewBox="0 0 14 14"><path d="m 5.369986,9.996086 c -1.343498,2.76709 3.035788,2.92986 3.035788,2.92986 0,0 0.2687,-0.83452 -0.160186,-1.82922 -1.694874,0.1886 -2.875602,-1.10064 -2.875602,-1.10064 z m -1.880898,-0.726 c 0,0 -0.58933,1.28924 -2.310816,1.58636 0,0 0.580288,1.8008 2.080872,1.36933 0.35396,-1.5321 1.232401,-1.44943 1.232401,-1.44943 v -1.0748 z m 1.59928,-0.30746 c -2.942002,-2.94278 -1.22465,-5.56518 -1.22465,-5.56518 0.824184,1.57086 1.679372,3.22181 1.627699,5.16213 1.940321,-0.0517 3.58869,0.80352 5.162133,1.6277 0,0 -2.622405,1.71554 -5.565182,-1.22465 z m 3.945233,-0.22478 3.002202,-0.4263 c 0,0 -0.379797,0.53998 -1.591529,1.13939 z M 2.907509,5.937176 c 0,0 -0.5405,-0.75443 -1.907509,-0.6795 0.428111,0.41338 1.242736,3.31999 3.18409,3.50601 0,0 -1.43315,-1.3745 -1.276581,-2.82651 z m 3.320248,1.88606 c 0.0078,-1.11097 -0.731173,-2.40538 -0.731173,-2.40538 0,0 1.307327,-1.11872 3.407835,-0.27128 0.844853,2.09792 -0.271283,3.40783 -0.271283,3.40783 0,0 -1.296993,-0.73892 -2.405379,-0.73117 z m 5.156966,-0.0956 c 0,0 0.51673,-0.56841 0.06717,-1.89899 l -1.751715,0.0775 c 0,0 0.341042,1.07997 -0.258365,2.27361 z m 0.614909,-0.0155 c 0,0 0.808682,-0.56582 0.919779,-1.29182 l -0.620076,0.29195 z m 0.506395,-1.7052 c 0,0 0.06459,-0.92754 -0.330707,-1.70263 l -1.22465,-0.10076 0.186022,1.02829 0.627827,0.031 0.37463,0.9017 z m -3.180473,-1.2815 -0.59424,-0.28161 -0.02067,-1.00504 c 0,0 0.855188,-0.0568 1.581194,0.31779 0.377213,0.726 0.317789,1.58377 0.317789,1.58377 l -1.00504,-0.0232 z m 2.531977,-0.93528 -0.100763,-0.89136 0.881025,0.10852 c 0,0 0.666582,1.19106 0.19119,2.12634 l -0.338458,-1.21948 z m -6.546969,1.22724 0.426302,-3.00427 c 0,0 -0.539983,0.38135 -1.136806,1.59359 z m 1.010207,-2.35138 c 0,0 0.570986,-0.51854 1.898983,-0.0672 l -0.07751,1.74939 c 0,0 -1.079966,-0.33846 -2.273612,0.26095 z m 3.99949,-0.50252 0.868106,0.16664 0.232529,1.28692 -1.13939,-0.60974 z m -2.276196,-0.6206 c 0,0 0.927531,-0.0646 1.700042,0.33045 l 0.103346,1.2244 -1.030876,-0.18344 -0.02842,-0.6299 -0.904278,-0.37359 z m 3.668783,0.22297 0.291953,0.88671 0.364295,0.016 c 0,0 0.08009,-0.48366 -0.656248,-0.90273 z m -5.376575,0.28472 c 0,0 0.568403,-0.80868 1.294408,-0.92159 l -0.294536,0.6206 z m 2.599152,-0.81152 c 0,0 0.377213,0.0323 0.878441,0.1452 0.506395,0.1129 1.139389,0.30642 1.653536,0.62886 0,0 -0.315206,-1.41067003 -2.531977,-0.77406 z"/></svg>
