<svg role="img" focusable="false" aria-hidden="true" xmlns="http://www.w3.org/2000/svg" viewBox="0 0 14 14"><path d="m 10.689173,1.03399 c -0.109901,-5.3e-4 -0.221789,0.003 -0.335246,0.0108 -0.199871,0.0135 -0.4032981,0.0401 -0.6066481,0.0765 0.3043311,0.15175 0.5853851,0.32052 0.8442601,0.50504 a 19.783604,19.783604 0 0 1 0.845907,-0.51262 c -0.233636,-0.053 -0.485162,-0.0785 -0.748273,-0.0798 z m -1.6946131,0.2679 c -0.453568,0.13613 -0.88336,0.31359 -1.245885,0.5076 -0.179261,0.0959 -0.334199,0.22173 -0.472162,0.37087 0.155879,0.56814 0.338619,1.11417 0.563598,1.62938 C 8.5469029,3.10969 9.3277649,2.47611 10.173594,1.90173 9.8250359,1.67354 9.4332709,1.47312 8.9945599,1.30189 Z m 3.0259951,0.025 A 19.840568,19.840568 0 0 0 10.98516,1.93341 C 11.43857,2.32028 11.811452,2.7636 12.111284,3.25514 12.360508,2.95374 12.60764,2.64768 12.856419,2.33828 12.782059,2.11688 12.67789,1.91772 12.541077,1.75067 12.397046,1.57481 12.221211,1.43486 12.020555,1.32689 Z M 10.579508,2.1954 C 9.6526009,2.8117 8.8073209,3.49728 8.0531109,4.26148 8.3926979,4.93244 8.8163969,5.54359 9.3607719,6.07465 10.274261,5.33943 11.053057,4.50869 11.79861,3.62891 11.491193,3.08302 11.0903,2.60325 10.579508,2.1954 Z M 6.9248159,2.66055 c -0.13744,0.22919 -0.259973,0.48375 -0.38057,0.75241 -0.182557,0.40662 -0.358235,0.8401 -0.589334,1.2412 l 0.0086,0.002 c -0.100824,0.4763 -0.0053,0.83377 0.172697,1.18034 C 6.5464119,5.24419 6.9985669,4.68909 7.4896129,4.16878 7.2665699,3.68639 7.0818679,3.18096 6.9248379,2.66072 Z m 6.0564901,0.27269 c -0.207299,0.25673 -0.415356,0.51183 -0.626055,0.76443 0.164353,0.33104 0.29978,0.68072 0.40819,1.04701 a 5.1333748,5.1333748 0 0 0 0.105584,-0.3761 C 12.985883,3.88041 13.028017,3.38382 12.981306,2.93324 Z M 12.02746,4.08559 C 11.324459,4.90467 10.579115,5.68819 9.7129909,6.39284 10.015962,6.64581 10.35241,6.8768 10.726259,7.08373 11.009379,6.97906 11.28018,6.85316 11.528463,6.68004 11.866637,6.44424 12.199607,6.00934 12.462431,5.48364 12.361894,4.98376 12.219118,4.51698 12.027434,4.08559 Z M 7.7125829,4.61872 c -0.511552,0.55552 -0.977647,1.15034 -1.394362,1.78835 l -0.04153,0.0636 -0.0708,0.0273 c -0.57236,0.2209 -1.084434,0.50085 -1.552595,0.82514 0.332185,0.29204 0.680874,0.62273 1.017819,0.96122 a 23.489297,23.489297 0 0 1 0.734124,0.77113 c 0.353448,-0.59237 0.617476,-1.12278 0.73007,-1.47588 l 0.02987,-0.0937 0.08777,-0.0446 c 0.63526,-0.3228 1.207542,-0.6847 1.734602,-1.07753 C 8.4669249,5.84356 8.0509409,5.25496 7.7125839,4.61876 Z M 5.4776749,5.31463 A 2.7713575,2.7713575 0 0 1 5.3542269,5.43942 C 4.8571129,5.90977 4.2350079,6.24 3.6412009,6.53319 c 0.134015,0.0853 0.277576,0.18857 0.430421,0.30679 a 10.074673,10.074673 0 0 1 0.21185,0.16911 C 4.7368819,6.68551 5.2316939,6.39983 5.7807509,6.16525 5.6420279,5.91061 5.5252499,5.63058 5.4776749,5.31463 Z m 3.858721,1.37349 c -0.487149,0.36805 -1.012667,0.7114 -1.589028,1.02318 0.185904,0.10522 0.423071,0.17139 0.682809,0.27081 0.433088,-0.3193 0.935381,-0.47876 1.427604,-0.62438 0.09128,-0.027 0.1821121,-0.0537 0.2726321,-0.0806 C 9.8441019,7.0952 9.5797869,6.89857 9.3363699,6.68813 Z m -6.210617,0.0984 c -0.284009,0.14118 -0.549945,0.28071 -0.776807,0.4316 -0.437561,0.29099 -0.770112,0.7196 -0.995771,1.21606 0.06023,0.15771 0.219355,0.47855 0.449016,0.83014 0.02545,0.0389 0.05262,0.0792 0.07959,0.11934 0.602621,-0.75047 1.249782,-1.46971 2.015055,-2.08209 A 8.8739307,8.8739307 0 0 0 3.7836139,7.21227 C 3.5543199,7.03492 3.3498459,6.89774 3.2006619,6.82135 a 1.1231946,1.1231946 0 0 0 -0.07488,-0.0348 z m 1.139018,0.82307 c -0.795952,0.62391 -1.46537,1.37731 -2.100997,2.17695 0.218205,0.29978 0.465179,0.61549 0.72429,0.92231 0.416245,0.49282 0.864869,0.96334 1.271436,1.30868 0.0029,0.002 0.0058,0.005 0.0087,0.007 0.422888,-0.43722 0.859873,-0.96138 1.260164,-1.5035 A 18.573891,18.573891 0 0 0 6.1476849,9.47282 C 5.8999249,9.19616 5.6236319,8.90349 5.3375559,8.61616 4.9803939,8.2574 4.6093699,7.90829 4.2648399,7.60943 Z m 3.180411,0.47489 c -0.164302,0.38988 -0.410622,0.85194 -0.710873,1.34315 0.125148,0.14568 0.241639,0.28602 0.344164,0.41664 0.07762,0.0989 0.147353,0.19184 0.209391,0.27958 0.157814,-0.61836 0.322194,-1.27556 0.74979,-1.77864 -0.192155,-0.0631 -0.401023,-0.13464 -0.592472,-0.26076 z m -6.3156,0.99093 a 4.2397884,4.2397884 0 0 0 -0.115393,0.69481 4.2924369,4.2924369 0 0 0 0.003,0.73285 c 0.18478,-0.24442 0.370187,-0.48883 0.559099,-0.73198 A 12.053085,12.053085 0 0 1 1.4081949,9.5217 C 1.3025319,9.35994 1.2091089,9.21256 1.1296519,9.07541 Z m 5.34138,0.7692 a 19.910792,19.910792 0 0 1 -0.663926,0.9562 c -0.399324,0.54081 -0.825638,1.06513 -1.253652,1.51425 0.2453,0.16249 0.452939,0.25553 0.569666,0.26374 l -0.0025,0.035 c 0.464526,-0.17811 0.899863,-0.40654 1.252606,-0.65098 0.377537,-0.26154 0.582089,-0.69476 0.741316,-1.20756 a 0.72891919,0.72891919 0 0 0 -0.04352,-0.0964 c -0.06583,-0.12277 -0.193987,-0.30893 -0.362786,-0.524 -0.07166,-0.0913 -0.152087,-0.18915 -0.237219,-0.29031 z m -4.608355,0.32656 c -0.246634,0.31942 -0.490837,0.64407 -0.73721,0.96867 0.131452,0.5143 0.363571,0.97106 0.684954,1.29618 0.316414,0.3201 0.751857,0.48569 1.248081,0.53007 0.235179,-0.14155 0.49803,-0.35157 0.773565,-0.60945 -0.430028,-0.36846 -0.882628,-0.84575 -1.303528,-1.34409 a 16.984,16.984 0 0 1 -0.665862,-0.84138 z m 2.346927,2.48737 c -0.104487,0.0989 -0.208685,0.19265 -0.312204,0.27983 0.02302,-0.003 0.04603,-0.006 0.0691,-0.0101 0.163778,-0.0254 0.329099,-0.06 0.493871,-0.10242 -0.0827,-0.0492 -0.166185,-0.10561 -0.250767,-0.16734 z"/></svg>
