<svg role="img" focusable="false" aria-hidden="true" xmlns="http://www.w3.org/2000/svg" viewBox="0 0 14 14"><path d="m 8.801757,1.5772239 c -1.052058,0.1683 -1.776351,0.0786 -2.543171,0.4438 H 5.583774 c 0.0086,0.008 0.01737,0.0162 0.02586,0.0246 0.241883,0.24183 0.45364,0.56033 0.637029,0.94004 l 0.03806,-0.0152 c 0.847029,0.38842 1.228694,1.06699 1.555154,1.76176 -0.468527,-0.44123 -0.898041,-0.96585 -1.408066,-1.31849 0.306627,0.7923 0.510225,1.78519 0.572761,2.88176 l 0.0043,-0.0142 0.423138,1.92189 -0.412971,-0.79163 c -0.04042,1.31071 -0.280594,2.49171 -0.65882,3.3857301 -0.207941,0.49148 -0.457155,0.89749 -0.750552,1.19082 -0.0085,0.008 -0.01727,0.0163 -0.02586,0.0246 h 2.479506 c -0.576778,0.17385 -1.279004,0.24924 -1.865523,0.40448 0.96344,0.0193 2.136854,0.0117 2.995406,-0.40443 h 0.216879 c 0.23287,0 0.464987,-0.10911 0.700167,-0.34423 0.23523,-0.23513 0.46205,-0.5938 0.653925,-1.04729 0.354728,-0.8384201 0.591113,-1.9967501 0.624853,-3.2856901 0.161046,0.19566 0.292569,0.4279 0.416084,0.68741 -0.08219,1.0198 -0.28795,1.93883 -0.584561,2.6757001 v 1.05213 l -0.25815,-0.49908 c -0.158159,0.29084 -0.335398,0.5392 -0.532645,0.7364 -0.0085,0.008 -0.01727,0.0163 -0.02586,0.0246 h 0.612878 c 0.232871,0 0.464988,-0.10906 0.700168,-0.34418 0.169456,-0.16941 0.334519,-0.40326 0.485347,-0.69018 l 0.09045,0.66025 0.403582,-2.0081701 c 0.04202,-0.16694 0.08001,-0.34084 0.11405,-0.52011 l -0.547281,0.60921 0.643381,-1.21516 C 12.966862,8.0343039 13,7.5347239 13,7.0168139 c 0,-1.14377 -0.160167,-2.19942 -0.424017,-3.04112 0.122009,0.15549 0.241507,0.32573 0.365021,0.50646 -0.15374,-0.69259 -0.504979,-1.25975 -0.919581,-1.73523 -0.09833,-0.14968 -0.200586,-0.27781 -0.304519,-0.38169 -0.23518,-0.23513 -0.467297,-0.34419 -0.700168,-0.34419 h -0.612853 c 0.0085,0.008 0.01732,0.0161 0.02586,0.0246 0.293397,0.29333 0.542585,0.69932 0.750527,1.19079 0.415883,0.98297 0.66492,2.31264 0.66492,3.78038 0,0.15178 -0.0028,0.30196 -0.008,0.45053 -0.112469,-0.35468 -0.272937,-0.68328 -0.455774,-0.98742 -0.05327,-1.2012 -0.282678,-2.27658 -0.617247,-3.0674 -0.191875,-0.45352 -0.418745,-0.81219 -0.6539,-1.04732 -0.23518,-0.23513 -0.467297,-0.34418 -0.700167,-0.34418 H 7.408211 c 0.42841,-0.14217 1.011288,-0.23681 1.393632,-0.44385 z m -5.818493,0.44377 c -0.232871,0 -0.464988,0.10911 -0.700168,0.34424 -0.23523,0.23513 -0.46205,0.5938 -0.653899,1.04729 -0.100419,0.23736 -0.191297,0.50063 -0.270879,0.78502 -0.09685,-0.41589 -0.08054,-0.80702 -0.09941,-1.31127 -0.236486,0.98892 -0.209122,1.81009 -0.181381,2.77268 C 1.027264,6.0909039 1,6.5463539 1,7.0168139 c 0,1.41615 0.245473,2.69739 0.629197,3.6043401 a 4.8675816,4.8675816 0 0 0 0.121255,0.26448 c -0.219565,-0.27148 -0.394845,-0.57457 -0.609967,-0.84919 0.318979,0.49599 0.529632,1.08065 0.990377,1.46069 0.05016,0.0627 0.100971,0.12007 0.152209,0.17131 0.23518,0.23513 0.467297,0.34418 0.700167,0.34418 0.232871,0 0.464988,-0.10905 0.700168,-0.34418 0.23523,-0.23513 0.46205,-0.5938 0.653899,-1.04729 0.05757,-0.13607 0.111967,-0.28067 0.162929,-0.43275 -0.301757,0.23254 -0.683221,0.51841 -0.735665,0.51841 -0.06964,0 0.611297,-0.7807601 0.908611,-1.1181601 0.123766,-0.50247 0.213238,-1.06273 0.258828,-1.66017 a 2.0370377,2.0370377 0 0 0 -0.06276,-0.0646 l 0.06715,0.003 a 12.005573,12.005573 0 0 0 0.03012,-0.85029 c 0,-0.1144 -0.0018,-0.22785 -0.0049,-0.34042 0.09422,0.26832 0.190217,0.56355 0.292067,0.91516 -0.08844,-0.75384 -0.203247,-1.62138 -0.396452,-2.18063 -0.107297,-0.76733 -0.288377,-1.45105 -0.519916,-1.9984 -0.191875,-0.45352 -0.418745,-0.81219 -0.6539,-1.04732 -0.23518,-0.23513 -0.467297,-0.34418 -0.700167,-0.34418 z m 0.993841,0 c 0.0085,0.008 0.01732,0.0162 0.02586,0.0246 0.293398,0.29338 0.542586,0.69937 0.750528,1.19084 0.415882,0.98297 0.66492,2.31264 0.66492,3.78038 0,0.33248 -0.0129,0.65774 -0.03751,0.9736 0.529104,0.67547 0.589958,1.41189 0.599171,2.1409301 C 5.759078,9.5917439 5.595422,9.0031339 5.329865,8.5015439 5.22297,9.3748139 5.023438,10.159154 4.753463,10.797234 c -0.207916,0.49148 -0.457104,0.89749 -0.750527,1.19082 -0.0085,0.008 -0.01727,0.0163 -0.02586,0.0246 h 0.612879 c 0.23287,0 0.464988,-0.10906 0.700168,-0.34418 0.23523,-0.23513 0.46205,-0.5938 0.653924,-1.04729 0.383649,-0.9069801 0.629172,-2.1882201 0.629172,-3.6043701 0,-0.67331 -0.05558,-1.31596 -0.155046,-1.90253 0.108627,0.14177 0.215799,0.29473 0.326209,0.45625 -0.09264,-0.41739 -0.257071,-0.78916 -0.463782,-1.12293 -0.09379,-0.38134 -0.207289,-0.72954 -0.336553,-1.03506 -0.191874,-0.45351 -0.418745,-0.81218 -0.653899,-1.04731 -0.23518,-0.23513 -0.467297,-0.34419 -0.700168,-0.34419 H 3.97713 Z m 5.253339,0.36364 c 0.633815,0.42201 0.860133,1.03599 1.040259,1.65741 -0.432,-0.56536 -0.790895,-1.2477 -1.375306,-1.56924 z m -5.739164,0.34381 -0.19456,0.66477 c 0.06735,0.0425 0.133857,0.10577 0.198401,0.19079 0.606076,0.79858 0.848887,3.08099 0.594477,4.91837 C 3.793665,10.639784 2.972444,11.490824 2.313297,10.561784 2.01877,10.146654 1.781431,9.4241939 1.632109,8.5448839 c 0.156979,0.34252 0.375715,0.67556 0.508067,0.73162 0.08335,0.22393 0.176535,0.41191 0.277406,0.55406 0.533723,0.7523301 1.201933,0.0597 1.438393,-1.64812 0.199757,-1.44276 0.0082,-3.24321 -0.459289,-3.85918 -0.383598,-0.50536 -0.860586,0.007 -1.015883,1.23856 -0.122184,0.96929 0.0116,2.17029 0.326988,2.53145 0.232468,0.26618 0.519841,-0.062 0.594477,-0.81055 0.02445,-0.24495 0.01757,-0.5389 -0.01632,-0.7682 -0.03397,-0.22934 -0.08777,-0.38777 -0.166795,-0.44353 -0.03771,-0.0266 -0.09404,-0.002 -0.129992,0.0615 -0.0359,0.0634 -0.04978,0.11904 -0.05053,0.23006 l -0.254737,-0.0173 c 0.0028,-0.41197 0.08536,-0.74373 0.180628,-0.9118 0.09532,-0.16805 0.205104,-0.21872 0.310443,-0.14443 0.161172,0.11372 0.280268,0.47064 0.341925,0.8873 0.05387,0.36409 0.06939,0.77857 0.04268,1.17557 l -0.0056,0.002 c 0.0013,0.0123 0.002,0.0245 0.0028,0.0367 -0.0033,0.0443 -0.007,0.0884 -0.0113,0.13213 -0.0053,0.053 -0.01142,0.1041 -0.01788,0.15439 -0.0968,0.35787 -0.404937,0.64624 -0.709908,0.90678 0.161549,0.0426 0.397908,-0.13632 0.609339,-0.37607 -0.189489,0.71641 -0.523883,0.96218 -0.806359,0.63866 -0.460846,-0.5277 -0.648854,-2.21422 -0.476737,-3.57991 0.136318,-1.08151 0.447113,-1.74653 0.78728,-1.90256 l 0.560034,-0.63539 z m -1.740201,4.58937 c 0.04524,0.55198 0.130093,1.06577 0.244921,1.49935 -0.253908,-0.2762 -0.371649,-0.61667 -0.457506,-0.9483 -0.01268,-0.11548 -0.0244,-0.23217 -0.03414,-0.35101 l 0.246728,-0.20009 z m 7.686578,0.45575 h 0.324151 c -0.240352,0.59315 -0.777992,1.14537 -1.383892,1.55849 0.390578,-0.51017 0.911046,-0.98786 1.059741,-1.55849 z m 0.539197,2.7276201 0.08292,0.33632 c -0.431799,0.62719 -1.049222,0.84392 -1.673347,1.01435 0.572008,-0.42316 1.259899,-0.77136 1.590452,-1.3507 z"/></svg>
