<svg role="img" focusable="false" aria-hidden="true" xmlns="http://www.w3.org/2000/svg" viewBox="0 0 14 14"><path d="m 13,4.8764446 c 0,2.99651 -1.641915,5.5156704 -4.1085722,6.3313204 -0.469758,0.18604 -0.9801567,0.29161 -1.5161257,0.29161 -1.5210476,0 -2.9341186,-0.85503 -3.649244,-2.2135804 -1.2687896,1.1701404 -1.6103679,2.5086304 -1.6161336,2.5324404 -0.061898,0.258 -0.2925938,0.43177 -0.5467971,0.43177 -0.043219,0 -0.087516,-0.005 -0.131461,-0.0154 -0.3021329,-0.0726 -0.48853147,-0.3768 -0.4160158,-0.67875 0.2249532,-0.9259 2.1203213,-5.3058504 7.8593475,-5.3058504 0.207258,0 0.3750002,-0.16772 0.3750002,-0.375 0,-0.20728 -0.1677422,-0.375 -0.3750002,-0.375 -2.5171652,0 -4.334838,0.81079 -5.6181355,1.77208 0.00452,-0.25368 0.029109,-0.51194 0.082852,-0.77451 0.3157267,-1.5425 1.5478836,-2.78954 3.0806499,-3.1445 0.6639379,-0.15379 1.3049538,-0.14097 1.8967041,-1.6e-4 1.3125006,0.31228 2.7713444,-0.1737 3.4999234,-1.4352 0.13275,-0.23034 0.469172,-0.223 0.577875,0.0194 C 12.781328,2.7990046 13,3.8568146 13,4.8764346 Z"/></svg>
