<svg role="img" focusable="false" aria-hidden="true" xmlns="http://www.w3.org/2000/svg" viewBox="0 0 14 14"><path d="m 7.2764562,1.0000002 c -0.0996,5.8e-4 -0.26453,0.0482 -0.51919,0.22308 -0.18424,1.03357 -0.0216,1.42862 0.1486,1.7705 0.0312,8.3e-4 0.0626,0.001 0.0942,0.001 0.0421,0 0.0838,-9.6e-4 0.12514,-0.002 -0.0171,-0.23049 -0.0778,-0.41613 -0.0682,-0.69293 0.0102,-0.29462 0.12345,-0.65195 0.43052,-1.18747 -0.0466,-0.0514 -0.0943,-0.0922 -0.15234,-0.10603 -0.0164,-0.004 -0.0358,-0.006 -0.0588,-0.006 z m 0.23458,1.36339 c 0.003,0.16899 0.0507,0.33602 0.0673,0.57932 0.17495,-0.0339 0.32461,-0.0832 0.43125,-0.14426 -0.006,0.22141 -0.45587,0.52396 -1.00959,0.52406 -0.55372,-8e-5 -1.00398,-0.30258 -1.00959,-0.52401 0.0992,0.0568 0.236,0.10326 0.39546,0.13673 -0.0519,-0.1393 -0.0975,-0.30254 -0.12633,-0.4982 -0.80681,0.32282 -1.36803,1.29878 -1.68315,3.50465 -3.63542496,4.03935 0,7.0900798 2.42361,7.0580698 2.42362,0.0172 6.0590398,-3.0187198 2.42362,-7.0580698 -0.34421,-2.40938 -0.98182,-3.35217 -1.91259,-3.57832 z m -1.68759,1.3085 c -0.23555,0.48396 -0.22222,2.10584 0.0712,2.26095 -0.54885,0.58621 -2.335,3.25307 -1.31824,5.6639398 -0.807875,-0.80787 -1.722284,-3.2314898 0.70133,-5.6550998 -0.0592,-0.91063 0.28207,-2.11302 0.54572,-2.26982 z"/></svg>
