<svg role="img" focusable="false" aria-hidden="true" xmlns="http://www.w3.org/2000/svg" viewBox="0 0 14 14"><path d="m 1.9521651,1.0002054 c -1.03771496,-0.0289 -1.35942496,1.79034 -0.170753,1.79402 v 1.1e-4 c 0.95376,0.003 1.793312,0.16438 2.547082,0.45142 0.219431,2.12548 -0.413685,4.28547 -1.745599,5.89108 -0.110959,-0.0391 -0.232323,-0.0541 -0.356962,-0.0387 -0.431374,0.053 -0.738034,0.4463 -0.684839,0.87838 0.05312,0.4320896 0.445917,0.7392596 0.877292,0.6861896 0.431374,-0.0531 0.738034,-0.4463 0.684915,-0.8783896 -0.01667,-0.13534 -0.0667,-0.25846 -0.14078,-0.36208 0.659612,-0.79971 1.155324,-1.72395 1.472211,-2.71119 0.254912,1.20636 0.328918,2.47125 0.213619,3.6218996 -0.443582,0.0634 -0.756739,0.47104 -0.701691,0.91853 0.05573,0.45303 0.467642,0.77509 0.919904,0.71946 0.452262,-0.0557 0.773819,-0.46792 0.718061,-0.92094 -0.03586,-0.29151 -0.21933,-0.52866 -0.466043,-0.64599 0.154713,-1.4922596 0.002,-3.1448896 -0.435562,-4.6556496 0.147403,-0.74844 0.195827,-1.52011 0.139917,-2.29075 0.252271,0.1203 0.494645,0.25521 0.72839,0.40335 0.320796,1.1985 0.296305,2.33847 0.233592,3.49866 0.417568,-0.99487 0.52467,-2.01939 0.437796,-3.02023 0.38861,0.30849 0.75377,0.65449 1.102356,1.03 l 0.0369,0.22004 c 0.237932,1.41694 0.04721,2.83273 -0.398457,4.19378 -0.01878,-10e-4 -0.03766,-0.002 -0.05677,-0.002 -0.434623,0 -0.787017,0.3528496 -0.787017,0.7881896 0,0.43533 0.352394,0.78818 0.787017,0.78818 0.434623,0 0.787017,-0.35285 0.787017,-0.78821 0,-0.24592 -0.112533,-0.46556 -0.288819,-0.6101196 0.416655,-1.26288 0.627837,-2.58815 0.493072,-3.93052 0.364043,0.44483 0.712909,0.91988 1.055989,1.41384 l 0.01972,0.18263 c 0.122939,1.13789 0.07568,2.26512 -0.05731,3.3912096 -0.48089,0.0705 -0.850212,0.48525 -0.850212,0.9865 0,0.55078 0.445841,0.99723 0.995712,0.99723 0.549871,0 0.9956359,-0.44642 0.9956359,-0.99723 0,-0.43602 -0.2795039,-0.80641 -0.6687489,-0.94191 0.114208,-0.97198 0.166693,-1.9538896 0.10233,-2.9494496 0.6591049,0.53749 1.1550189,1.13606 1.6920989,1.7423 -0.05868,0.11032 -0.09208,0.2361296 -0.09208,0.3698296 0,0.43536 0.352394,0.78821 0.787017,0.78821 0.434623,0 0.787017,-0.35285 0.787017,-0.78821 0,-0.4352596 -0.352394,-0.7881896 -0.787017,-0.7881896 -0.128242,0 -0.249175,0.0309 -0.356175,0.0854 -0.5685,-0.64439 -1.121416,-1.31806 -1.9104889,-1.92123 -0.287676,-0.48546 -0.587027,-0.95665 -0.90097,-1.40978 0.905792,0.36836 1.8807949,0.88364 2.5723849,1.43288 -0.03891,0.0994 -0.06048,0.20745 -0.06048,0.32067 0,0.48561 0.393052,0.87919 0.877876,0.87919 0.484798,0 0.877875,-0.39358 0.877875,-0.87919 0,-0.48556 -0.393077,-0.87922 -0.877875,-0.87922 -0.1956,0 -0.3762,0.0641 -0.522132,0.1724 -0.935892,-0.76151 -2.2706989,-1.38463 -3.3789439,-1.75113 -0.35214,-0.46216 -0.722426,-0.90181 -1.11398,-1.31491 1.198037,-0.26669 2.436579,-0.2472 3.4489399,0.0587 -0.02119,0.0802 -0.03259,0.16445 -0.03259,0.2514 0,0.54198 0.438684,0.98128 0.979774,0.98128 0.54109,0 0.979774,-0.43932 0.979774,-0.98128 0,-0.5419 -0.438684,-0.98122 -0.979774,-0.98122 -0.280037,0 -0.53241,0.11787 -0.71098,0.30651 -0.651491,-0.2111 -1.3773429,-0.3093 -2.1261889,-0.29805 -0.0097,1.5e-4 -0.01947,5.5e-4 -0.02919,7.6e-4 0.265113,-0.22908 0.540176,-0.41717 0.823055,-0.60023 0.102153,0.0709 0.226131,0.11256 0.359881,0.11256 0.3494239,0 0.6327099,-0.28374 0.6327099,-0.6338 0,-0.34998 -0.283286,-0.63373 -0.6327099,-0.63373 -0.349475,0 -0.632837,0.2837 -0.632837,0.63373 0,0.0426 0.0042,0.0843 0.01223,0.12451 -0.431146,0.2791 -0.873231,0.58957 -1.292271,1.04437 -0.397036,0.044 -0.795595,0.11768 -1.188367,0.22029 -1.246131,-1.21395 -2.703369,-2.1635 -4.465768,-2.72652 -0.09771,-0.0312 -0.190854,-0.0469 -0.278768,-0.0494 z"/></svg>
