<svg role="img" focusable="false" aria-hidden="true" xmlns="http://www.w3.org/2000/svg" viewBox="0 0 14 14"><path d="m 10.828363,1.00007 c -0.73041,0.8392 -1.1780525,1.26484 -2.0559075,1.94386 0.02527,0.0893 0.0491,0.17852 0.07135,0.26748 A 21.626874,21.626874 0 0 1 10.676149,2.8206 c 0.06741,-0.133 0.12385,-0.25941 0.16717,-0.38111 C 10.999401,2.001 11.019824,1.59154 10.828359,1.00004 Z M 7.8205445,1.79943 c -0.04126,0.62969 -0.03705,1.26343 -0.01877,1.90093 0.304866,0.41443 0.524562,0.92505 0.60063,1.53555 l 0.110415,-0.41025 c 0.0918,-0.3412 -0.0029,-1.14005 -0.221655,-1.87515 C 8.1631375,2.52014 7.9886185,2.11337 7.8205725,1.79943 Z m -1.709243,1.18391 c 0.408268,0.7925 0.809084,1.7647 1.036077,2.64795 0.258761,0.0541 0.481835,0.14904 0.655064,0.30298 0.159254,0.14157 0.273588,0.33109 0.356413,0.55543 0.890695,0.0341 1.9243215,0.16064 2.7876335,0.40948 C 10.360453,6.12715 9.5733915,5.64237 8.2100915,5.72267 l -0.231686,0.0137 -0.01367,-0.23169 C 7.8836955,4.12823 7.0160735,3.32745 6.1112985,2.98334 Z m 6.6748035,0.0626 c -0.97664,0.0556 -2.369826,0.23911 -3.8431275,0.62203 0.05792,0.31941 0.087,0.62505 0.07246,0.89668 0.425879,-0.0921 0.962226,-0.1141 1.5111545,-0.0862 z M 10.175027,4.93547 C 9.6074795,4.93478 9.0842845,4.99697 8.8230735,5.10146 l -0.379749,0.15201 c 0.527528,-0.003 0.985434,0.0824 1.385605,0.23578 L 11.845126,5.13526 c -0.01109,-0.003 -0.02058,-0.007 -0.03185,-0.01 C 11.505521,5.04476 11.131291,4.98736 10.749299,4.9574 10.558329,4.9424 10.364213,4.9352 10.175047,4.935 Z M 6.4835205,6.03473 c -0.05018,-2.6e-4 -0.101802,6.9e-4 -0.154199,0.002 l 0.558702,0.20146 -0.06477,-0.18364 c -0.105,-0.0124 -0.218716,-0.0195 -0.339703,-0.0201 z M 5.3112435,6.1634 c -0.07189,0.0146 -0.144401,0.0307 -0.217195,0.0477 a 47.908873,47.908873 0 0 1 0.231042,0.83588 39.495198,39.495198 0 0 1 0.789254,0.12485 29.862291,29.862291 0 0 0 -0.245997,-0.80756 z m 2.054722,0.0348 0.08592,0.24362 0.206081,0.0743 C 7.6068565,6.41163 7.5508515,6.3317 7.4940975,6.28121 c -0.03301,-0.0294 -0.07643,-0.0571 -0.128105,-0.083 z m -2.720462,0.13187 a 7.9482391,7.9482391 0 0 0 -0.835359,0.3003 c 0.02328,0.0794 0.04605,0.15825 0.06893,0.23723 a 28.861618,28.861618 0 0 1 0.946677,0.10928 c -0.05848,-0.2159 -0.118615,-0.4315 -0.180243,-0.64681 z m 1.771361,0.23192 a 32.363959,32.363959 0 0 1 0.205436,0.69787 69.640437,69.640437 0 0 1 0.669401,0.12336 L 7.0873485,6.80381 Z m 1.23437,0.44511 0.168382,0.4773 c 0.02011,0.004 0.04017,0.008 0.06034,0.0118 a 4.3810207,4.3810207 0 0 0 -0.02251,-0.24038 c -0.0079,-0.0639 -0.01741,-0.12532 -0.02824,-0.18452 l -0.178,-0.0642 z m -4.916723,0.23821 0.19783,0.86837 c 0.269333,0.0167 0.547021,0.0341 0.828835,0.0527 a 63.767833,63.767833 0 0 0 -0.24053,-0.86563 24.080555,24.080555 0 0 0 -0.786109,-0.0554 z m 1.282332,0.10315 a 62.292365,62.292365 0 0 1 0.233569,0.85129 c 0.296692,0.0214 0.599263,0.0454 0.907663,0.0736 -0.0655,-0.2705 -0.133056,-0.54063 -0.20309,-0.8103 A 29.391776,29.391776 0 0 0 4.0168175,7.34846 Z m -1.697484,0.16399 c -0.197778,0.16699 -0.36714,0.34332 -0.497926,0.52655 0.204792,0.0156 0.413864,0.0301 0.627887,0.044 L 2.3193595,7.51249 Z m 3.133113,0.0227 c 0.06686,0.26172 0.131714,0.52371 0.194425,0.786 a 31.085134,31.085134 0 0 1 0.803488,0.0944 C 6.3869555,8.16522 6.3213535,7.91548 6.2532525,7.66642 a 41.981215,41.981215 0 0 0 -0.80078,-0.13125 z m 1.306416,0.22124 c 0.06485,0.24265 0.127382,0.48563 0.187979,0.72881 a 24.799053,24.799053 0 0 1 0.778991,0.12924 L 7.4703465,7.88975 C 7.2337355,7.84435 6.9966595,7.79985 6.7589135,7.75639 Z m -4.814636,0.7572 c 0.0838,0.2534 0.158067,0.50871 0.225471,0.76517 0.187773,0.0108 0.374747,0.023 0.560508,0.0374 l -0.173281,-0.7606 a 70.350323,70.350323 0 0 1 -0.612673,-0.042 z m 1.095693,0.0726 0.175937,0.77229 a 29.112669,29.112669 0 0 1 0.87654,0.0962 52.761775,52.761775 0 0 0 -0.205643,-0.8138 164.35236,164.35236 0 0 0 -0.84686,-0.0547 z m -1.54215,0.0566 c -0.07555,0.18888 -0.137078,0.3904 -0.183131,0.59937 0.12274,0.003 0.244965,0.007 0.366675,0.0123 -0.05601,-0.20572 -0.116656,-0.40974 -0.183544,-0.61164 z m 2.877291,0.0324 a 52.474005,52.474005 0 0 1 0.210748,0.84562 31.812734,31.812734 0 0 1 0.889097,0.14002 57.309527,57.309527 0 0 0 -0.20345,-0.91011 c -0.304016,-0.029 -0.602745,-0.0535 -0.896395,-0.0756 z m 1.38398,0.12542 a 59.093807,59.093807 0 0 1 0.209304,0.94835 c 0.28055,0.0523 0.560585,0.10758 0.840439,0.1664 C 6.7315595,9.5764 6.6530625,9.23797 6.5710635,8.90058 a 29.512969,29.512969 0 0 0 -0.811997,-0.0999 z m 1.307009,0.17284 c 0.08391,0.3501 0.164411,0.70048 0.243547,1.05083 0.08027,0.0179 0.160543,0.0356 0.240841,0.054 A 7.9308853,7.9308853 0 0 0 7.7832575,9.09746 23.724916,23.724916 0 0 0 7.0660755,8.97343 Z m -5.826938,0.73096 a 4.3017292,4.3017292 0 0 0 -0.02205,0.63105 c 0.0013,0.0332 0.0031,0.0663 0.0052,0.0993 0.246178,0.01 0.492511,0.0195 0.738585,0.0302 -0.04917,-0.24865 -0.102009,-0.49586 -0.160182,-0.74101 -0.18607,-0.008 -0.373199,-0.0149 -0.561616,-0.0195 z m 1.046803,0.0461 c 0.05647,0.24488 0.107476,0.49049 0.15518,0.73631 0.187927,0.009 0.375442,0.0193 0.562699,0.0302 L 2.8383775,9.79079 a 27.619512,27.619512 0 0 0 -0.552437,-0.0402 z m 1.038655,0.0849 0.162194,0.7122 c 0.293005,0.0203 0.584772,0.0433 0.874399,0.0712 A 47.792372,47.792372 0 0 0 4.2076595,9.93742 28.951714,28.951714 0 0 0 3.3245705,9.83544 Z m 1.375161,0.17096 a 47.953843,47.953843 0 0 1 0.147109,0.6636 20.755182,20.755182 0 0 1 0.859804,0.11691 c -0.04177,-0.21258 -0.08458,-0.42495 -0.128465,-0.63712 a 31.984752,31.984752 0 0 0 -0.878448,-0.14342 z m 1.370829,0.23388 a 67.316098,67.316098 0 0 1 0.125242,0.63093 c 0.29383,0.0552 0.583973,0.11815 0.869758,0.19017 -0.04776,-0.21593 -0.09582,-0.43166 -0.144014,-0.64728 a 37.988426,37.988426 0 0 0 -0.850986,-0.17385 z m -4.790758,0.66174 c 0.04807,0.26002 0.122277,0.50819 0.222429,0.73464 0.222274,0.0115 0.448519,0.0224 0.675667,0.0335 -0.0417,-0.24595 -0.08398,-0.49135 -0.128413,-0.73583 -0.255951,-0.0114 -0.512624,-0.022 -0.769709,-0.0323 z m 1.248913,0.0552 c 0.04404,0.24615 0.08561,0.49174 0.126815,0.73696 0.209459,0.0111 0.418195,0.0233 0.624869,0.0371 l -0.168794,-0.74129 c -0.193652,-0.0119 -0.38782,-0.0229 -0.582864,-0.0327 z m 1.066246,0.0651 0.169774,0.74529 c 0.293186,0.0249 0.577862,0.0539 0.849387,0.0914 -0.04848,-0.25584 -0.09917,-0.5094 -0.151414,-0.76189 -0.286533,-0.0291 -0.57616,-0.0534 -0.867747,-0.0748 z m 1.35247,0.12875 a 46.583736,46.583736 0 0 1 0.153838,0.78811 c 0.31812,0.0625 0.6103,0.14291 0.866921,0.25002 a 76.441257,76.441257 0 0 0 -0.167608,-0.91534 19.479168,19.479168 0 0 0 -0.853177,-0.12274 z m 1.342051,0.21211 c 0.04649,0.24889 0.09206,0.49787 0.136072,0.74709 0.178,-0.1641 0.343082,-0.37028 0.493284,-0.60718 -0.206802,-0.0514 -0.416906,-0.0976 -0.629356,-0.13994 z m -4.510981,0.75261 c 0.08092,0.10856 0.170341,0.20745 0.268302,0.29448 0.08963,0.0797 0.18834,0.15084 0.294346,0.2142 a 74.164621,74.164621 0 0 1 -0.08375,-0.4855 c -0.159872,-0.008 -0.319745,-0.0154 -0.478844,-0.0232 z m 0.956295,0.0476 a 53.073139,53.073139 0 0 0 0.120729,0.68939 c 0.2231,0.0708 0.463063,0.11629 0.711639,0.1371 l -0.179109,-0.786 a 38.776752,38.776752 0 0 0 -0.653259,-0.0405 z m 1.138446,0.0804 0.17225,0.7562 c 0.05294,-0.002 0.10598,-0.005 0.15915,-0.009 a 4.2974745,4.2974745 0 0 0 0.594288,-0.0893 47.469404,47.469404 0 0 0 -0.09482,-0.5529 c -0.260308,-0.0425 -0.539956,-0.0769 -0.830873,-0.10464 z m 1.318768,0.19959 c 0.01924,0.11028 0.03816,0.22103 0.05673,0.33227 0.157294,-0.0533 0.309328,-0.11526 0.453574,-0.18514 -0.151801,-0.055 -0.323097,-0.10392 -0.510302,-0.14713 z"/></svg>
