<svg role="img" focusable="false" aria-hidden="true" xmlns="http://www.w3.org/2000/svg" viewBox="0 0 14 14"><path d="M 9.339765,1.10855 C 8.670418,1.20095 7.03158,1.47696 5.376806,2.1386 4.303726,2.56784 3.220021,3.15936 2.394759,3.98276 1.568966,4.80882 1.003739,5.87924 1.000021,7.21263 c -0.004,1.429 0.56921,2.52864 1.415456,3.33345 0.847043,0.80481 1.957309,1.32807 3.059606,1.67602 1.535248,0.48342 3.059872,0.62685 3.846089,0.66935 C 8.936032,12.79052 8.590734,12.58865 8.29059,12.32038 7.528278,12.23008 6.572068,12.06539 5.618515,11.76525 4.561371,11.43323 3.514853,10.93122 2.744838,10.20078 1.975886,9.47034 1.474673,8.51945 1.478126,7.21263 1.481326,6.01205 1.974558,5.07975 2.73262,4.32275 3.490947,3.56575 4.518873,2.99733 5.554767,2.58244 6.513633,2.1989 7.472499,1.94842 8.229499,1.78959 8.271999,1.74659 8.317149,1.70429 8.362306,1.66422 8.651825,1.41002 8.97853,1.21586 9.339765,1.10855 Z m 0.632161,0.38488 c -0.48873,0 -0.911056,0.1923 -1.29354,0.5291 C 8.298559,2.35906 7.966541,2.84354 7.700927,3.40107 7.167043,4.5193 6.890805,5.93502 6.885493,7.00279 c -0.0053,1.05449 0.247021,2.46224 0.762312,3.57516 0.257645,0.55779 0.579038,1.04121 0.950897,1.37854 0.37186,0.33467 0.786217,0.52591 1.266978,0.52857 0.502011,0.003 0.934961,-0.19124 1.322757,-0.53654 0.390453,-0.3453 0.727782,-0.842 0.998709,-1.41572 0.544508,-1.14745 0.81809,-2.5977 0.812778,-3.68938 C 12.997224,5.80487 12.723686,4.42899 12.19777,3.33998 11.934812,2.79812 11.608107,2.32799 11.236248,2.00208 10.861732,1.67617 10.450031,1.49343 9.971926,1.49343 Z m 0.451544,1.46937 0.46748,0.0956 -0.130151,0.63482 -0.46748,-0.0956 z M 9.039621,3.36122 9.252112,3.69059 8.848379,3.95089 8.635888,3.62153 Z M 9.870993,3.56575 10.030361,4.0651 9.573505,4.20853 9.414137,3.70918 Z M 11.403585,3.94823 11.81263,4.1926 11.523111,4.68133 11.114066,4.43696 Z M 8.829786,4.29353 9.159147,4.71586 8.781976,5.00803 8.452615,4.5857 Z m 1.434315,0.26561 c 1.030582,0.0106 1.386505,1.73181 1.381192,2.75973 -0.0027,1.08105 -0.390452,2.9005 -1.471501,2.88988 C 9.111337,10.19545 8.771351,8.39992 8.7926,7.33746 8.81119,6.29095 9.217583,4.54586 10.264101,4.55914 Z m 1.537904,0.28687 0.377172,0.29748 -0.278894,0.35593 -0.377172,-0.29749 z m 0.119527,0.94027 0.451543,0.15405 -0.196554,0.56842 -0.451544,-0.15406 z M 8.378243,5.98549 8.452613,6.45828 7.97982,6.53528 7.90545,6.06249 Z M 8.364963,7.1356 8.492458,7.59777 8.059507,7.71729 7.932012,7.25512 Z m 3.670784,0.23905 0.31608,0.0797 -0.11687,0.46217 -0.31608,-0.0797 z M 8.152472,8.3468 8.667763,8.46632 8.561517,8.9338 8.046226,8.81428 Z m 3.830152,0.2603 0.289519,0.27624 -0.329361,0.34529 -0.289519,-0.27623 z m -0.366547,1.00136 0.3028,0.52857 -0.414358,0.23906 -0.3028,-0.52857 z M 8.73151,9.99891 9.156492,10.22203 8.946657,10.6178 8.521675,10.39468 Z m 2.127567,0.1514 0.225772,0.41967 -0.443575,0.23906 -0.225772,-0.41967 z m -1.37588,0.44092 0.478105,0.0425 -0.05312,0.6056 -0.478105,-0.0425 z m 1.09433,0.4967 0.0664,0.46483 -0.472793,0.0691 -0.0664,-0.46483 z"/></svg>
