<svg role="img" focusable="false" aria-hidden="true" xmlns="http://www.w3.org/2000/svg" viewBox="0 0 14 14"><path d="m 9.9071599,1.0959775 c -0.156613,-0.0563 -0.337954,-0.10413999 -0.491818,-0.0948 -0.392906,0.028 -1.01386,0.52918 -1.491941,1.06221 -0.266516,0.29482 -0.461594,0.55007 -0.607217,0.75257 0.239041,0.0577 0.450605,0.13738 0.656674,0.21156 0.31872,-0.42505 0.719868,-0.93555 1.285871,-1.11415 0.332458,-0.10303 0.71712,-0.0604 1.0798021,0.18162 0.343449,0.22942 0.681402,0.6303 1.035841,1.23751 0.456099,0.0797 0.769324,0.10166 0.859995,-0.34894 -0.09342,-0.1099 -0.450605,-0.52946 -0.972646,-0.99682 -0.423129,-0.37697 -0.925937,-0.72729 -1.3545611,-0.89077 z m -5.893576,1.49001 c -0.30773,0.12365 -0.555013,0.33439 -0.711626,0.68608 -1.244657,2.79979 -1.597722,4.88246 -1.527933,6.26175 0.03352,0.6896405 0.174197,1.2007005 0.351966,1.5359005 0.197277,0.32147 0.338503,0.47808 0.664916,0.53303 -0.08737,-0.63194 -0.02198,-1.26114 0.0632,-1.8546205 l 0.359934,0.6044705 c -0.02473,0.49182 -0.09617,0.84901 0.112651,1.29686 0.274759,0.50281 0.914947,0.92869 1.544144,1.09354 0.313225,0.0852 0.623703,0.10716 0.868238,0.0605 0.489071,-0.10441 0.94517,-0.78856 1.090792,-1.03309 l 0.593479,-0.21157 c -0.272011,0.44786 -0.535779,0.90121 -0.799548,1.28862 0.04671,0.0192 0.09617,0.0385 0.142875,0.0632 0.255525,0.11265 0.491818,0.12364 0.780315,0.005 0.283001,-0.11815 0.618207,-0.37917 0.994627,-0.83252 0.750091,-0.90945 1.6540481,-2.5607505 2.7475881,-5.1654605 0.42038,-1.00287 0.04121,-1.74197 -0.555013,-2.20357 -0.250031,-0.18134 -0.491818,-0.31048 -0.7720721,-0.37917 0.1593601,0.72262 -0.01649,1.47271 -0.170351,2.09916 l -0.423128,-0.49182 c 0.05495,-0.41214 0.307729,-1.27763 0.01374,-1.53865 -0.758335,-0.59897 -1.989254,-1.18421 -2.986629,-1.21168 -0.401147,-0.003 -0.686897,0.0934 -0.854499,0.32146 -0.178594,0.25004 -0.354439,0.53304 -0.519295,0.84077 l -0.697887,0.29674 c 0.321468,-0.59348 0.868238,-1.709 1.508426,-1.90133 -0.55776,-0.27669 -1.263891,-0.37725 -1.818903,-0.16404 z"/></svg>
