<svg role="img" focusable="false" aria-hidden="true" xmlns="http://www.w3.org/2000/svg" viewBox="0 0 14 14"><path d="m 12.993995,1.0893759 c -1.692021,2.67319 -3.8959353,1.99235 -3.0284903,0.26401 -0.887618,0.25872 -1.454987,0.8039 -1.525593,1.65596 -0.244599,-0.058 -0.741363,-0.65487 -0.463982,-1.76086 -0.673278,0.99151 -1.280994,2.31487 -1.074219,3.20501 -0.605194,0.005 -1.61385,-1.00109 -1.374294,-2.21627 -1.172564,2.04984 -0.857358,4.35966 -0.630411,4.88669 -0.627888,0 -1.59872,-1.78785 -1.61385,-2.99823 -0.925947,2.07026 -1.221735,3.70933 -0.462217,4.89954 -0.833402,-0.0958 -1.357147,-0.71362 -1.685969,-1.75506 -0.82397104,5.5224001 2.188532,6.2612401 7.292334,5.2651901 1.409597,-0.27486 3.1596163,-1.02127 4.0018443,-2.50903 -1.760106,1.00865 -3.0612723,0.1866 -3.5429063,-0.1588701 1.1549123,-0.26225 2.8292813,-0.79684 3.3689133,-2.31991 -1.05909,0.90023 -1.868536,0.34799 -2.158525,0.15634 1.371773,-0.22947 2.453557,-1.80549 2.799021,-3.21509 -0.945615,0.78423 -1.762627,0.8044 -2.113135,0.56485 0.869966,-0.28242 2.322432,-1.73489 2.211479,-3.96427 z m -4.0901013,2.3252 c 0.219383,-0.005 0.443809,0.053 0.658148,0.16139 0.058,0.0252 0.115996,0.058 0.173993,0.0983 0.173994,0.12104 0.3202493,0.27738 0.3933763,0.48668 l 0.08826,0.25216 -0.2521643,0.0756 c -0.474069,0.14121 -0.733798,0.42616 -0.955702,0.81953 l -0.431201,-0.25216 c 0.209296,-0.36816 0.501807,-0.70858 0.927964,-0.9204 -0.04791,-0.0403 -0.105909,-0.0807 -0.166428,-0.11347 -0.166429,-0.0782 -0.363117,-0.116 -0.474069,-0.10339 l -0.05548,-0.49928 c 0.03026,-0.003 0.06304,-0.005 0.0933,-0.005 z m -0.945616,1.82315 c 0.237035,0 0.499285,0.0883 0.726233,0.22947 0.423636,0.26981 0.718668,0.72875 0.496763,1.1423 -1.449943,3.5126501 -3.666466,4.8718101 -6.325788,5.1265001 2.508024,-1.23561 3.509115,-3.8808101 4.474904,-6.0897701 0.121039,-0.28746 0.358073,-0.40598 0.627888,-0.4085 z"/></svg>
