<svg role="img" focusable="false" aria-hidden="true" xmlns="http://www.w3.org/2000/svg" viewBox="0 0 14 14"><path d="m 7.4971695,0.99999 c -0.266428,0.50362 -0.562118,1.01513 -0.752926,1.52245 -0.227857,0.60575 -0.304945,1.17982 -0.04439,1.76132 0.346715,-0.0379 0.722299,-0.005 1.042112,0.0737 0.323301,-0.60457 0.369161,-1.22838 0.261499,-1.85506 -0.08852,-0.51515 -0.28279,-1.02627 -0.506294,-1.50236 z m -3.552423,0.55868 c 0.118229,0.46935 0.224239,0.97929 0.363287,1.47712 0.211758,0.75809 0.504301,1.44921 0.971605,1.85458 a 2.7500716,2.7500716 0 0 1 0.97032,-0.51458 C 6.0876795,3.8475 5.6343775,3.23679 5.0896435,2.66269 4.7139805,2.26679 4.3190195,1.90125 3.9447465,1.55867 Z M 10.088344,2.4115 C 9.6264675,2.78698 9.1988095,3.07656 8.8793105,3.37408 8.5200095,3.70871 8.2927025,4.03327 8.2389765,4.54709 a 2.7700255,2.7700255 0 0 1 0.833633,0.63228 C 9.5146885,4.79136 9.7410775,4.36208 9.8784735,3.86281 9.9964665,3.43408 10.04314,2.93748 10.088344,2.4115 Z M 1.9002985,3.74618 c 0.228119,0.47391 0.501862,0.94725 0.84551,1.34111 0.418062,0.47913 0.93078,0.83733 1.603758,0.96827 C 4.5662015,5.78507 4.7491425,5.4421 4.9534275,5.2068 4.6673605,4.63375 4.1720795,4.3298 3.5562875,4.12336 3.0424165,3.9511 2.4590595,3.85749 1.9002985,3.74618 Z M 12.891355,4.52194 C 12.412619,4.59344 11.894762,4.64875 11.385662,4.73811 10.59726,4.87655 9.8693755,5.10475 9.4216315,5.5441 l 0.421733,0.99833 C 10.388492,6.43796 11.048308,6.0435 11.680015,5.55265 12.110977,5.21779 12.513569,4.86069 12.891355,4.52194 Z M 7.0251975,4.73643 c -1.262654,0 -2.281194,1.01854 -2.281194,2.28119 0,1.26266 1.01854,2.2812 2.281194,2.2812 1.262655,0 2.281195,-1.01854 2.281195,-2.2812 0,-1.26265 -1.01854,-2.28119 -2.281195,-2.28119 z m 0,0.31992 c 1.080395,0 1.961277,0.88088 1.961277,1.96127 0,1.0804 -0.880882,1.96128 -1.961277,1.96128 -1.080394,0 -1.961276,-0.88088 -1.961276,-1.96128 0,-1.08039 0.880882,-1.96127 1.961276,-1.96127 z m 0.413683,0.22764 -0.110703,0.45876 0.377629,0.0911 0.11073,-0.45875 z m -1.058028,0.22778 v 0.47197 h 0.494862 V 5.51177 Z m -0.724922,0.49513 -0.234412,0.40366 0.408176,0.23701 0.234413,-0.40366 z m 2.423048,0.0787 -0.442709,0.0391 0.04148,0.47019 0.442709,-0.0391 z m -1.037996,0.25518 -0.414941,0.26535 0.25434,0.39761 0.414915,-0.26535 z m -3.312556,0.0725 c -0.505062,0.005 -1.044918,0.13952 -1.429286,0.30937 -0.402933,0.18808 -0.811267,0.47444 -1.241075,0.78099 0.585297,0.10829 1.083017,0.24621 1.516653,0.29663 0.538703,0.0626 1.210974,-0.0415 1.690392,-0.42504 l -0.05029,-0.92042 c -0.153574,-0.0305 -0.318056,-0.0432 -0.486392,-0.0415 z m 4.684682,0.36391 -0.167367,0.44124 0.377577,0.14325 0.167367,-0.44124 z m -2.624082,0.0629 -0.01432,0.47176 0.429703,0.0131 0.01434,-0.47176 z m 4.5318165,0.11687 c -0.161152,0.002 -0.3280205,0.0196 -0.5078155,0.0545 -0.05137,0.40317 -0.180818,0.81496 -0.258405,1.14951 0.4796815,0.36882 0.9991645,0.44732 1.6122545,0.38526 0.535294,-0.0542 1.14023,-0.22631 1.775058,-0.4012 C 12.525709,7.80096 12.088034,7.48075 11.622461,7.26152 11.163415,7.07127 10.791109,6.96405 10.389567,6.9571 a 2.4386492,2.4386492 0 0 0 -0.0687,-2.1e-4 z m -2.6289595,0.31121 -0.533904,0.0131 0.01159,0.47187 0.533878,-0.0131 z M 5.9713645,7.6679 5.8528475,8.12477 6.3425435,8.2343 6.4610615,7.77743 Z m 2.257989,0.0153 -0.33856,0.26039 0.287692,0.37417 0.338561,-0.26042 z m -3.807234,0.41528 c -0.613143,0.0313 -0.965496,0.27437 -1.326895,0.67875 -0.302062,0.33803 -0.752401,0.87147 -1.139417,1.36179 0.570797,-0.0132 1.240209,-0.12756 1.684072,-0.26215 0.523154,-0.15864 0.959308,-0.4441 1.342234,-1.01616 C 4.7642985,8.58487 4.6370495,8.36908 4.4221455,8.09848 Z m 2.904458,0.14031 -0.416698,0.013 0.01474,0.47179 0.416725,-0.013 z m 1.890507,0.44252 c -0.139651,0.32002 -0.807018,0.6283 -0.923674,0.82669 0.7223,1.03062 2.1263365,1.41662 3.3121115,1.48933 C 11.263605,10.51898 10.90197,9.98909 10.493532,9.55089 10.10641,9.13556 9.6900785,8.81559 9.2170845,8.68131 Z M 5.3663765,9.2132 c -0.344932,0.41533 -0.620931,1.08181 -0.827077,1.80206 -0.150166,0.52468 -0.264357,1.05058 -0.369292,1.54702 0.344225,-0.34027 0.729563,-0.69065 1.087711,-1.06333 0.554041,-0.57651 1.006504,-1.18973 1.109211,-1.80799 A 2.7442768,2.7442768 0 0 1 5.3663765,9.21322 Z m 2.546993,0.55981 -1.137267,0.0832 c -0.19149,1.2024 0.511144,2.38301 1.245584,3.1438 0.312943,-1.07633 0.533092,-2.42043 -0.108317,-3.22697 z"/></svg>
