<svg role="img" focusable="false" aria-hidden="true" xmlns="http://www.w3.org/2000/svg" viewBox="0 0 14 14"><path d="m 5.0475173,1.0854754 c -0.113969,0 -0.227937,0.007 -0.344438,0.0182 -0.607833,0.0608 -1.116893,0.49665 -1.549974,1.07434 -0.111183,0.14943 -0.21806,0.30974 -0.320632,0.47766 l 0.02482,-1.14729 -0.628854,2.32344 c -0.05926,0.13423 -0.116501,0.271 -0.171713,0.40776 -0.03191,0.0785 -0.06306,0.15955 -0.09345,0.23807 l -0.155504,-1.72422 -0.257316,2.91709 c -0.07471,0.2406 -0.142081,0.47107 -0.200078,0.68381 -0.167154,0.61037 -0.262635,1.05358 -0.284922,1.24859 -0.09649,0.84843 -0.03039,1.91721 0.295559,2.8796096 -0.106118,0.008 -0.217554,-0.0279 -0.353557,-0.25833 -0.0661,0.55211 0.320379,0.86363 0.640251,1.2106 -0.232243,0.10384 -0.361914,0.081 -0.640251,-0.038 0.510833,0.35204 0.931504,0.76739 1.665209,0.97 0.325951,0.22794 0.705846,0.38749 1.146525,0.45081 1.671541,0.2406 2.81376,0.0177 3.598877,-0.49133 0.853499,0.57997 1.995718,0.77752 3.4545167,0.27352 0.731933,-0.25326 1.230862,-0.77498 1.522115,-1.44613 l 0.227938,0.49133 -0.0076,-1.19287 c 0.03292,-0.15956 0.05825,-0.32418 0.07598,-0.4938696 0.0051,-0.0532 0.01013,-0.10637 0.01266,-0.15955 l 0.296319,0.2127396 -0.329243,-1.4461396 c -0.101306,-0.88136 -0.352037,-1.82096 -0.721802,-2.74538 l -0.197546,-0.49133 -0.184882,0.39763 c -0.151958,0.48626 -0.514125,0.88135 -0.975065,1.18021 -0.572376,0.37229 -1.3017757,0.61796 -2.0413057,0.75725 -0.73953,0.13677 -1.48919,0.16463 -2.102089,0.0836 -0.306449,-0.0405 -0.579973,-0.1089 -0.807911,-0.21274 -0.05319,-0.0253 -0.103838,-0.0507 -0.154491,-0.0785 -0.02786,-0.0101 -0.05825,-0.0203 -0.08611,-0.0304 l -0.3647,-0.12664 0.06585,0.3799 c 0.04812,0.27352 0.103838,0.56225 0.174751,0.85603 l 0.293786,2.2844396 0.159557,-0.62303 0.303916,1.68927 0.06078,-0.90668 0.384961,1.29671 c -0.628094,0.20007 -1.461331,0.25326 -2.59342,0.0912 -1.013055,-0.14689 -1.635831,-0.86363 -2.006102,-1.79564 -0.370272,-0.9320096 -0.457141,-2.0666296 -0.360648,-2.9175996 0.01266,-0.11143 0.108144,-0.5825 0.271752,-1.18021 0.163609,-0.59517 0.396865,-1.33723 0.689637,-2.06156 0.29252,-0.72687 0.64557,-1.43575 1.038128,-1.96102 0.395092,-0.52629 0.818042,-0.85224 1.230862,-0.89352 0.103838,-0.0101 0.202611,-0.0157 0.301384,-0.0165 0.69141,-0.006 1.271384,0.21426 1.76778,0.59238 0.569844,0.43207 1.025718,1.07815 1.362559,1.82781 0.04305,0.0937 0.08358,0.18995 0.121567,0.28872 0.146893,-0.0279 0.301384,-0.0507 0.46094,-0.0684 -0.04305,-0.10891 -0.08611,-0.21528 -0.131697,-0.32165 l 0.574908,0.10384 -0.987728,-0.90922 c -0.02279,-0.0377 -0.04559,-0.0757 -0.07091,-0.11118 l 0.633159,0.0152 -1.10423,-0.64355 c -0.177284,-0.20159 -0.372297,-0.3847 -0.582506,-0.54477 -0.567311,-0.43105 -1.256188,-0.68913 -2.046371,-0.68457 z m -0.03039,1.22073 c -0.04305,0 -0.08358,0.007 -0.121567,0.0233 -0.283655,0.12005 -0.09371,0.69471 0.119034,0.91732 0.167154,0.17729 0.592637,0.33938 0.716736,0.1317 0.207676,-0.34672 -0.308982,-1.06928 -0.714203,-1.07232 z m -0.866162,0.75068 c -0.245666,-0.008 -0.463473,0.55971 -0.466006,0.88642 0,0.2254 0.151959,0.5901 0.331776,0.54198 0.382428,-0.1089 0.572376,-1.21566 0.210209,-1.40814 -0.02533,-0.0127 -0.05065,-0.0203 -0.07598,-0.0203 z m 5.240026,1.54491 c -0.544517,0.005 -1.109295,0.0937 -1.529713,0.21527 -0.526789,0.15449 -1.154883,0.42548 -1.615823,0.79272 -0.448276,0.35963 -0.726866,0.78258 -0.691409,1.3043 0.04305,0.0633 0.129164,0.1393 0.273524,0.20515 0.169687,0.0785 0.405222,0.13929 0.68128,0.17475 0.549582,0.0734 1.261253,0.0506 1.957728,-0.0785 0.693943,-0.12917 1.377755,-0.3647 1.8766837,-0.69141 0.486267,-0.31912 0.78765,-0.70408 0.833238,-1.17261 -0.05572,-0.20515 -0.18235,-0.35457 -0.390026,-0.47361 -0.22034,-0.12663 -0.524256,-0.21021 -0.8636287,-0.2482 -0.17222,-0.0203 -0.349504,-0.0279 -0.531854,-0.0279 z m -0.07851,0.37989 c 0.564778,-0.005 1.1168927,0.1089 1.4537337,0.40269 -0.215275,-0.0785 -1.6512797,-0.0912 -2.4262667,0.1393 -0.790182,0.23553 -1.625953,0.56731 -2.145143,1.22832 0.136762,-0.88642 1.182741,-1.35749 2.003316,-1.60315 0.334308,-0.10131 0.726867,-0.16209 1.11436,-0.16716 z m 2.3705477,1.43347 c 0.445744,1.24606 0.655953,2.48959 0.554648,3.49758 -0.111436,1.1244896 -0.572376,1.9298596 -1.511985,2.2565796 -1.8437587,0.63569 -2.9657177,0.1089 -3.7584327,-0.87883 -0.714204,-0.88896 -1.119426,-2.1805996 -1.347363,-3.3202896 0.617964,0.17475 1.228329,0.2482 1.813368,0.24567 0.415353,0.19501 0.795248,0.34444 1.337233,0.27352 0,0 0.06838,0.75979 0.05318,1.13969 -0.01013,0.27352 -0.19248,0.5571796 -0.103838,0.8180396 0.08358,0.24567 0.288721,0.56478 0.549582,0.55212 0.276058,-0.0152 0.49893,-0.3723 0.524256,-0.65089 0.02279,-0.25326 -0.298851,-0.4280196 -0.3647,-0.6762196 -0.108903,-0.42041 -0.02533,-1.30684 -0.02533,-1.30684 0.567311,-0.89655 1.5601037,0.0836 1.6158217,-1.29417 0.265927,-0.20261 0.488799,-0.42295 0.663551,-0.65596 z M 6.4151443,11.310745 c 0.06332,0.0912 0.129165,0.17982 0.197546,0.26593 0.129164,0.16209 0.273525,0.31405 0.425483,0.45334 -0.164622,0.0937 -0.349504,0.17728 -0.554648,0.24313 z"/></svg>
