<svg role="img" focusable="false" aria-hidden="true" xmlns="http://www.w3.org/2000/svg" viewBox="0 0 14 14"><path d="m 5.9654737,2.3575044 c -2.150338,-1.67777 -4.042213,-0.13977 -3.715695,1.30757 -0.984138,0.42939 -1.32317404,1.33327 -0.75692,2.11105 -0.86755404,0.63006 -0.313123,1.28103 0.382671,1.57007 -1.47231704,1.45117 0.307843,2.5013 1.518271,1.61394 0.691493,0.13145 1.944474,-0.0431 2.107682,-0.54642 0.433622,-0.0262 0.837982,-0.29903 1.115945,-0.50474 0.17758,0.30132 0.46121,0.57931 0.757048,0.66383 0.464997,0.0398 0.605743,-0.0675 0.875462,-0.34342 0.533721,0.5057 1.8732003,0.48097 2.4921053,0.3232 2.564023,1.6509496 2.801544,-1.94906 1.200485,-2.62332 0.609838,-0.88402 0.111278,-2.20786 -0.650201,-2.84544 0.59889,-1.29041 -0.846432,-1.67473 -1.5640443,-1.56706 -1.353673,-1.20167 -3.165593,-0.0489 -3.762834,0.84074 z m 2.585043,-0.83188 c 0.227604,0 0.412139,0.18454 0.412139,0.41214 0,0.22763 -0.184535,0.41214 -0.412139,0.41214 -0.22763,0 -0.41214,-0.18451 -0.41214,-0.41214 0,-0.2276 0.18451,-0.41214 0.41214,-0.41214 z m 1.9702333,0.70162 c 0.227604,0 0.412139,0.18453 0.412139,0.41214 0,0.22763 -0.184535,0.41214 -0.412139,0.41214 -0.22763,0 -0.41214,-0.18451 -0.41214,-0.41214 0,-0.22761 0.18451,-0.41214 0.41214,-0.41214 z m -6.4494953,0.0724 c 0.22763,0 0.41214,0.1845 0.41214,0.41213 0,0.22763 -0.18451,0.41214 -0.41214,0.41214 -0.22763,0 -0.412139,-0.18451 -0.412139,-0.41214 0,-0.22763 0.184509,-0.41213 0.412139,-0.41213 z m 4.708205,0.72984 c 0.22763,0 0.41214,0.18451 0.41214,0.41214 0,0.22763 -0.18451,0.41214 -0.41214,0.41214 -0.227604,0 -0.412139,-0.18451 -0.412139,-0.41214 0,-0.22763 0.184535,-0.41214 0.412139,-0.41214 z m -3.059647,0.0944 c 0.22763,0 0.41214,0.18451 0.41214,0.41214 0,0.22763 -0.18451,0.41214 -0.41214,0.41214 -0.227629,0 -0.412139,-0.18451 -0.412139,-0.41214 0,-0.22763 0.18451,-0.41214 0.412139,-0.41214 z m 1.449521,0.70896 c 0.22763,0 0.41214,0.18454 0.41214,0.41214 0,0.22763 -0.18451,0.41214 -0.41214,0.41214 -0.227604,0 -0.41214,-0.18451 -0.41214,-0.41214 0,-0.2276 0.184536,-0.41214 0.41214,-0.41214 z m 3.4961543,0.11532 c 0.22763,0 0.41214,0.18451 0.41214,0.41214 0,0.22763 -0.18451,0.41214 -0.41214,0.41214 -0.22763,0 -0.41214,-0.18451 -0.41214,-0.41214 0,-0.22763 0.18451,-0.41214 0.41214,-0.41214 z m -7.6886693,0.67952 c 0.227604,0 0.412139,0.18453 0.412139,0.41214 0,0.22763 -0.184535,0.41214 -0.412139,0.41214 -0.22763,0 -0.41214,-0.18451 -0.41214,-0.41214 0,-0.22761 0.18451,-0.41214 0.41214,-0.41214 z m 5.189815,0.65132 c 0.22763,0 0.41214,0.18451 0.41214,0.41214 0,0.22763 -0.18451,0.41214 -0.41214,0.41214 -0.227604,0 -0.412139,-0.18451 -0.412139,-0.41214 0,-0.22763 0.184535,-0.41214 0.412139,-0.41214 z m -2.13496,0.48051 c 0.22763,0 0.41214,0.18453 0.41214,0.41214 0,0.22763 -0.18451,0.41214 -0.41214,0.41214 -0.227604,0 -0.412139,-0.18451 -0.412139,-0.41214 0,-0.22761 0.184535,-0.41214 0.412139,-0.41214 z m 4.3247093,-0.1628 c 0.22763,0 0.41214,0.18451 0.41214,0.41214 0,0.22763 -0.18451,0.41214 -0.41214,0.41214 -0.227629,0 -0.4121393,-0.18451 -0.4121393,-0.41214 0,-0.22763 0.1845103,-0.41214 0.4121393,-0.41214 z m -7.8945843,0.27248 c 0.227604,0 0.412139,0.18453 0.412139,0.41214 0,0.22763 -0.184535,0.41214 -0.412139,0.41214 -0.22763,0 -0.41214,-0.18451 -0.41214,-0.41214 0,-0.22761 0.18451,-0.41214 0.41214,-0.41214 z m 2.021596,0.96394 c 0.22763,0 0.412139,0.18451 0.412139,0.41214 0,0.22763 -0.184509,0.41214 -0.412139,0.41214 -0.22763,0 -0.41214,-0.18451 -0.41214,-0.41214 0,-0.22763 0.18451,-0.41214 0.41214,-0.41214 z m 5.5552803,0.25326 c 0.22763,0 0.41214,0.18451 0.41214,0.41214 0,0.22763 -0.18451,0.41214 -0.41214,0.41214 -0.2276303,0 -0.4121393,-0.18451 -0.4121393,-0.41214 0,-0.22763 0.184509,-0.41214 0.4121393,-0.41214 z m -2.2581643,0.15888 c 0.22763,0 0.41214,0.18451 0.41214,0.41214 0,0.22763 -0.18451,0.41214 -0.41214,0.41214 -0.22763,0 -0.412139,-0.18451 -0.412139,-0.41214 0,-0.22763 0.184509,-0.41214 0.412139,-0.41214 z m 4.2024073,0.29932 c 0.227604,0 0.412139,0.18451 0.412139,0.41214 0,0.2276 -0.184535,0.41214 -0.412139,0.41214 -0.22763,0 -0.41214,-0.18454 -0.41214,-0.41214 0,-0.22763 0.18451,-0.41214 0.41214,-0.41214 z m -9.8312803,0.48658 c 0.227604,0 0.41214,0.18451 0.41214,0.41214 0,0.2276 -0.184536,0.41214 -0.41214,0.41214 -0.22763,0 -0.412139,-0.18454 -0.412139,-0.41214 0,-0.22763 0.184509,-0.41214 0.412139,-0.41214 z m 4.356624,0.52457 a 2.4701841,2.4701841 0 0 1 -0.231777,0.13253 c 0.08312,1.16747 0.201021,2.4399996 -0.10999,3.6468996 -1.126016,0.25184 -1.597452,0.29135 -2.475954,0.66483 l 6.5753263,-0.008 c -0.6855683,-0.38007 -1.4331643,-0.52424 -2.6089723,-0.70195 -0.294499,-1.0212 -0.258592,-2.17846 -0.16975,-3.2316096 -0.372291,-0.0308 -0.756173,-0.25949 -0.978883,-0.50284 z"/></svg>
