<svg role="img" focusable="false" aria-hidden="true" xmlns="http://www.w3.org/2000/svg" viewBox="0 0 14 14"><path d="m 3.5275245,1.00003 0.368568,1.8305 c 0.0775,-0.10421 0.15489,-0.20685 0.232058,-0.3058 l 0.472363,-0.60574 -0.02696,0.76769 c -0.0191,0.54361 -0.03452,1.08901 -0.04124,1.63229 0.192089,-0.0982 0.390545,-0.20039 0.594923,-0.30745 0.406599,-0.21285 0.81126,-0.4293 1.141521,-0.6094 C 6.1857175,3.21758 6.0966515,3.03676 5.9942965,2.86238 5.5618465,2.12586 4.9108175,1.47131 3.5274975,1.00006 Z m 8.3044085,0.10308 c -0.03889,3.8e-4 -0.07839,0.002 -0.118464,0.006 0.127045,0.18457 0.257965,0.3565 0.395527,0.51782 L 12.467932,1.26802 C 12.289599,1.16007 12.073291,1.10067 11.831933,1.10305 Z m -0.626781,0.13363 c -0.07816,0.0316 -0.157492,0.0689 -0.237649,0.11265 -0.05065,0.0276 -0.101414,0.0548 -0.152094,0.0823 0.02159,0.0345 0.04323,0.0687 0.06499,0.10241 0.122616,-0.0807 0.244512,-0.15971 0.365219,-0.23618 -0.01356,-0.0201 -0.02699,-0.0408 -0.04047,-0.0612 z m 1.615046,0.38362 -0.371004,0.37095 c 0.162612,0.15929 0.335464,0.30889 0.522018,0.45216 0.0429,-0.31692 -0.01591,-0.5998 -0.15107,-0.82311 z m -2.440699,0.0472 c -0.188048,0.1012 -0.376152,0.20206 -0.5640895,0.30281 0.04207,0.0711 0.08442,0.14052 0.12699,0.20814 C 10.119708,2.05174 10.295771,1.92852 10.470313,1.8092 10.439783,1.7628 10.409583,1.7154 10.379523,1.66756 Z m 1.15929,0.0346 c -0.123308,0.0779 -0.247778,0.15821 -0.373329,0.24081 0.09101,0.12079 0.18434,0.23618 0.281104,0.34653 L 11.762183,1.97386 C 11.685873,1.88606 11.611612,1.79544 11.538817,1.70214 Z M 9.3784755,2.2053 c -0.209195,0.11274 -0.417808,0.22586 -0.62537,0.33962 0.0687,0.12583 0.137562,0.24662 0.207091,0.36248 0.194774,-0.1498 0.388663,-0.29594 0.581417,-0.4381 -0.05508,-0.0856 -0.109331,-0.17374 -0.16311,-0.26397 z M 10.75709,2.2171 c -0.176672,0.12087 -0.355116,0.24586 -0.535027,0.37476 0.132193,0.18108 0.26923,0.34958 0.414072,0.5081 L 11.100194,2.63585 C 10.981536,2.50266 10.867528,2.36338 10.75709,2.21707 Z m 1.34673,0.11965 -0.312491,0.31244 c 0.09477,0.0901 0.19303,0.17719 0.295414,0.26184 0.08863,-0.11482 0.178167,-0.23062 0.26552,-0.34363 -0.08508,-0.075 -0.168009,-0.15168 -0.24847,-0.23068 z M 8.3177765,2.78542 c -0.204213,0.11415 -0.407069,0.2294 -0.608237,0.34607 0.0971,0.1897 0.193888,0.36873 0.291649,0.53735 0.188962,-0.15467 0.377619,-0.30629 0.565834,-0.4549 -0.08442,-0.1369 -0.167262,-0.27969 -0.249219,-0.42846 z m 1.506878,0.0951 c -0.196573,0.14531 -0.394558,0.29478 -0.593568,0.44826 0.16455,0.23859 0.335659,0.45586 0.519306,0.65681 L 10.290319,3.44566 C 10.127015,3.26885 9.9727075,3.08114 9.8246545,2.88052 Z m 2.9137255,0.002 c -0.08381,0.1085 -0.169753,0.21968 -0.254837,0.32993 0.04913,0.0344 0.09937,0.0686 0.15035,0.10246 0.03507,-0.0647 0.06975,-0.12953 0.10504,-0.19416 0.03191,-0.0585 0.06026,-0.11653 0.08567,-0.17402 -0.02898,-0.0213 -0.05777,-0.0426 -0.08622,-0.0642 z m -1.292452,0.11204 -0.457583,0.45753 c 0.130588,0.11935 0.268095,0.23333 0.413684,0.34368 0.13009,-0.16762 0.257965,-0.3325 0.385425,-0.49738 -0.118271,-0.0981 -0.23203,-0.19901 -0.341499,-0.30383 z M 7.2823205,3.3897 c -0.02297,0.0251 -0.02962,0.022 -0.0411,0.0302 -0.01544,0.0111 -0.03045,0.0208 -0.04802,0.0319 -0.0351,0.0221 -0.07927,0.0485 -0.133632,0.08 -0.06679,0.0387 -0.15262,0.087 -0.24645,0.13931 -0.07479,0.047 -0.149381,0.0942 -0.223477,0.14185 0.103933,0.23098 0.243489,0.46049 0.415234,0.69667 0.202967,-0.17637 0.406267,-0.34986 0.609621,-0.52036 -0.112735,-0.18863 -0.223006,-0.38833 -0.332143,-0.5996 z m -3.228709,0.0776 c -1.622519,2.30798 -3.19541101,5.74541 -3.026101,8.40792 0.157658,0.17532 0.342938,0.35836 0.531845,0.49683 0.210634,0.15451 0.419496,0.24247 0.550997,0.24247 h 0.01246 l 3.854742,0.38545 C 4.0835085,10.42669 3.9586785,6.90243 4.0536155,3.4673 Z m 8.1289825,0.13479 c -0.123004,0.15921 -0.246395,0.31844 -0.372001,0.48042 0.09859,0.0641 0.201224,0.12737 0.307399,0.19015 0.09336,-0.17404 0.186719,-0.3482 0.280384,-0.52241 -0.07335,-0.0488 -0.145673,-0.098 -0.215782,-0.14816 z m -3.3397545,0.0306 c -0.191591,0.15168 -0.383764,0.30676 -0.576324,0.465 0.188657,0.28509 0.385009,0.54029 0.598134,0.77356 L 9.4046595,4.3313 C 9.2056505,4.11588 9.0200375,3.88429 8.8428395,3.63269 Z M 10.642584,3.79782 10.10263,4.33783 C 10.269255,4.49006 10.447118,4.6336 10.638875,4.77202 10.79454,4.57448 10.948488,4.37816 11.10072,4.18294 10.939991,4.05955 10.787565,3.93179 10.642556,3.79788 Z M 6.1442595,4.03586 c -0.179468,0.0964 -0.368126,0.19679 -0.561876,0.29898 0.124332,0.30292 0.307039,0.63232 0.532066,0.96892 0.168009,-0.1537 0.336572,-0.30585 0.505688,-0.45615 C 6.4235365,4.58218 6.2642735,4.31812 6.1442865,4.03588 Z m 1.740983,0.37878 c -0.190484,0.1602 -0.38094,0.32323 -0.57123,0.48875 0.210246,0.25115 0.451714,0.51377 0.721664,0.79686 L 8.5189445,5.21704 C 8.2928935,4.97231 8.0840025,4.70692 7.8852705,4.41464 Z m 3.6216055,0.0585 c -0.149049,0.19126 -0.29987,0.38373 -0.452434,0.57751 0.153893,0.096 0.316781,0.19043 0.489136,0.28454 C 11.657254,5.12768 11.770044,4.91874 11.882724,4.7096 11.752634,4.6321 11.627361,4.55343 11.506848,4.47314 Z m -6.3672665,0.0935 c -0.19638,0.10205 -0.386559,0.19984 -0.566387,0.2909 0.100805,0.38385 0.325971,0.83376 0.633425,1.29876 C 5.3822675,5.98697 5.5590225,5.81904 5.7368855,5.65275 5.4870585,5.28814 5.2827905,4.92297 5.1395815,4.56664 Z m 4.617288,0.11694 -0.539954,0.53993 c 0.19948,0.18221 0.414985,0.35207 0.651388,0.51548 C 10.02513,5.54488 10.180352,5.35105 10.33394,5.15791 10.128842,5.00717 9.9371405,4.85004 9.7568415,4.68355 Z m -2.823853,0.55471 c -0.176036,0.1566 -0.351574,0.31526 -0.526447,0.47563 0.223754,0.29533 0.474743,0.59027 0.743391,0.87204 l 0.533173,-0.5332 C 7.4024175,5.76028 7.1518705,5.4944 6.9330435,5.23829 Z M 10.74649,5.44081 c -0.150406,0.18941 -0.302417,0.37948 -0.456144,0.57004 0.205929,0.12381 0.427994,0.24551 0.666833,0.36777 0.116582,-0.20111 0.231615,-0.404 0.345706,-0.60818 C 11.107114,5.66263 10.921889,5.55316 10.746462,5.44078 Z M 8.8711545,5.5693 8.3878865,6.05251 c 0.231393,0.2206 0.471588,0.42893 0.713637,0.62047 C 9.2547525,6.48942 9.4064305,6.30569 9.5567535,6.1219 9.3101375,5.94752 9.0828955,5.76485 8.8711545,5.5693 Z m -4.322456,0.48374 c 0.0086,0.23975 0.01979,0.47834 0.03493,0.7151 0.08448,-0.0847 0.16931,-0.16906 0.254587,-0.25312 C 4.7333695,6.3609 4.6366055,6.2066 4.5486975,6.05306 Z m 1.48504,0.006 c -0.179689,0.16829 -0.358272,0.33846 -0.535636,0.50993 0.229455,0.30557 0.48825,0.61114 0.766143,0.9026 L 6.7974185,6.93839 C 6.5220165,6.65148 6.2646055,6.35659 6.0337665,6.05904 Z m 3.941764,0.33957 c -0.156162,0.1912 -0.313958,0.38257 -0.47347,0.57377 0.02629,0.0186 0.05259,0.0367 0.07883,0.0548 0.308201,-0.13959 0.5834645,-0.25395 0.8169055,-0.32725 0.02231,-0.007 0.04299,-0.0133 0.06449,-0.02 -0.169863,-0.0924 -0.33242,-0.18581 -0.4867555,-0.28132 z m -1.940103,0.006 -0.533201,0.53315 c 0.256359,0.2444 0.523679,0.4738 0.792162,0.6818 C 8.4569715,7.43287 8.6180065,7.24535 8.7775175,7.0573 8.5249225,6.85469 8.2759815,6.63548 8.0353995,6.40456 Z m -2.900939,0.51895 c -0.167898,0.1659 -0.33408,0.33316 -0.498879,0.50109 0.0022,0.0233 0.0044,0.0464 0.0067,0.0696 0.221982,0.29224 0.470425,0.58391 0.73625,0.86269 l 0.533173,-0.5332 C 5.6327595,7.53312 5.3703115,7.23042 5.1344895,6.92363 Z m 5.7343135,0.18799 c 0.02892,0.0151 -0.116527,-0.001 -0.321819,0.0634 -0.210911,0.0662 -0.492735,0.18274 -0.8157435,0.33032 -0.646074,0.29519 -1.460683,0.714 -2.28985,1.11047 -0.829251,0.39655 -1.671787,0.77148 -2.397188,0.98198 -0.01688,0.005 -0.03344,0.009 -0.05024,0.014 0.269175,1.08927 0.682001,2.09793 1.303385,2.98005 0.291456,-0.0154 0.549254,-0.0756 0.781007,-0.16823 0.507764,-0.20294 0.902793,-0.5652 1.235019,-0.97443 0.332282,-0.40925 0.59581,-0.86072 0.848986,-1.22735 0.126574,-0.18332 0.249799,-0.34634 0.392565,-0.47574 0.142822,-0.1294 0.31991,-0.23203 0.5268895,-0.23203 0.448753,0 0.848626,0.30142 1.247308,0.72169 0.25409,0.26793 0.507626,0.59897 0.757564,0.96294 0.07446,-0.80235 0.226964,-1.52916 0.206703,-2.14304 C 12.28002,8.65202 12.19917,8.30363 11.991221,7.98699 11.784019,7.67151 11.442077,7.37717 10.868771,7.1116 Z M 7.1496845,7.29027 6.6164835,7.82344 c 0.150378,0.14338 0.304548,0.28158 0.460489,0.41352 0.04982,-0.0236 0.09964,-0.0469 0.149464,-0.0707 0.197404,-0.0944 0.394254,-0.19029 0.588863,-0.28575 C 7.5889715,7.69562 7.3659375,7.49788 7.1497115,7.29032 Z m -0.885715,0.88572 -0.533201,0.53317 c 0.03,0.0286 0.06023,0.0569 0.09051,0.0851 0.245648,-0.0992 0.500097,-0.20964 0.758117,-0.32647 C 6.4729435,8.37289 6.3677095,8.27554 6.2639705,8.17598 Z M 4.7580875,8.4205 c 0.02455,0.15998 0.05137,0.31872 0.08088,0.47602 L 5.0259915,8.70946 C 4.9347615,8.61436 4.8454715,8.51793 4.7581185,8.4205 Z"/></svg>
