<svg role="img" focusable="false" aria-hidden="true" xmlns="http://www.w3.org/2000/svg" viewBox="0 0 14 14"><path d="m 12.09175,0.99997391 c -0.285384,0 -0.552271,0.0322 -0.909001,0.25393999 -0.446573,0.93199 -0.975062,1.67954 -1.5511156,2.48284 l -0.0185,0.0661 0.8138726,-0.34616 c 0.6474,-0.8358 1.199671,-1.65364 1.664741,-2.45668 z m -2.3861276,0.0854 c -0.02114,0 -0.03964,0.003 -0.05813,0.004 -0.14005,0.0177 -0.282742,0.0724 -0.504707,0.32608 l -0.59455,2.07009 c -0.06078,0.61569 -0.147977,1.23402 -0.253675,1.855 0.14005,-0.0423 0.282742,-0.0846 0.422791,-0.12684 l 1.170604,-4.12221 c -0.04228,-0.003 -0.08456,-0.006 -0.121553,-0.006 h -0.06078 z m -1.688523,0.19475 c -0.105698,0.004 -0.288026,0.0743 -0.509992,0.3274 -0.269529,1.38147 -0.22725,2.42524 -0.858795,4.47842 l -0.01585,0.0529 -3.715279,4.0323701 c 0.314451,0.0608 0.533774,0.19025 0.676466,0.36466 0.116268,0.14269 0.179687,0.29595 0.229893,0.436 l 3.691497,-4.1301401 c 0.399009,-1.81801 0.663253,-3.61751 0.663253,-5.38636 v -0.0219 c 0.0079,-0.0851 -0.02378,-0.13582 -0.121552,-0.15114 -0.01057,-0.003 -0.02378,-0.003 -0.03964,-0.003 z m 4.2358396,1.9097 -2.8089186,1.20231 -0.187614,0.66325 c 0.190256,-0.0528 0.380512,-0.10569 0.573411,-0.15326 l 2.8274166,-1.23666 c -0.03964,-0.0951 -0.07927,-0.18233 -0.121553,-0.25104 -0.06342,-0.10305 -0.134765,-0.1744 -0.282742,-0.2246 z m -0.0026,1.73608 c -1.426921,0.15062 -2.7322886,0.53906 -4.0482266,0.93807 -0.05021,0.25368 -0.100413,0.50999 -0.153261,0.76367 1.522048,-0.43072 3.0388116,-0.86408 4.8171776,-1.34765 -0.03435,-0.037 -0.06606,-0.074 -0.09777,-0.1057 -0.113625,-0.10041 -0.24839,-0.18497 -0.517919,-0.24839 z m -9.7350336,5.6839001 -1.325186,1.43749 c -0.23729203,0.53642 0.320793,1.13361 0.863815,0.90108 l 1.404989,-1.57226 c -0.08984,-0.22725 -0.137408,-0.42015 -0.235178,-0.53906 -0.100413,-0.12419 -0.261602,-0.22725 -0.70844,-0.22725 z"/></svg>
