<svg role="img" focusable="false" aria-hidden="true" xmlns="http://www.w3.org/2000/svg" viewBox="0 0 14 14"><path d="m 7.3365044,1.0000689 c -0.08036,0.003 -0.147762,0 -0.197015,0.005 -0.07258,0.006 -0.121839,0.0117 -0.186646,0.0578 l -0.02592,1.79698 c 0.07777,0.0306 0.165907,0.0596 0.251453,0.0651 0.106285,0.008 0.176277,-0.005 0.238492,-0.0625 z m -2.680443,0.98248 c 0.0026,0.15424 0.0078,0.28541 0.03889,0.36655 0.05962,0.13532 0.181461,0.25612 0.673999,0.36085 l 0.583268,0.12391 -0.505499,0.30641 c -0.42773,0.26183 -0.912491,0.50291 -1.335036,0.68696 0.160722,0.0181 0.318853,0.0363 0.471799,0.0363 0.46143,-0.003 0.896937,-0.1011 1.433544,-0.46921 l 0.412176,-0.28256 0.01037,-0.63123 c -0.661038,-0.14569 -1.205422,-0.30278 -1.783506,-0.49798 z m 4.697255,0.16824 c -0.505499,0.17343 -0.891752,0.28438 -1.462059,0.36707 l 0.02333,0.48761 -0.04407,0.0648 c -0.176276,0.25923 -0.476984,0.34478 -0.723252,0.32922 -0.246269,-0.0156 -0.456246,-0.1011 -0.6066,-0.19701 l -0.08295,-0.0544 -0.05703,0.46661 c -0.04925,0.44329 -0.05444,0.73363 -0.1348,1.09914 0.378477,-0.2696 0.632522,-0.48994 0.946191,-0.96693 l 0.186646,-0.27737 0.209977,0.25923 c 0.282561,0.337 0.746583,0.59363 1.257267,0.75176 -0.147761,-0.1685 -0.282561,-0.37588 -0.311076,-0.64807 l -0.03629,-0.36552 0.360331,0.11925 c 0.534014,0.17109 0.697329,0.15813 0.878791,0.0959 0.07518,-0.0233 0.173684,-0.0674 0.2747836,-0.11665 l -2.0919886,-0.71573 0.707698,-0.21128 c 0.368108,-0.10991 0.541792,-0.2359 0.637707,-0.36136 0.02592,-0.0389 0.04925,-0.0814 0.0674,-0.12625 z m 1.5216826,1.63497 -0.04666,0.0104 c -0.451061,0.10887 -0.62993,0.24627 -0.9073056,0.33959 -0.191831,0.0596 -0.4044,0.0726 -0.692145,0.0233 0.01037,0.0156 0.02592,0.0311 0.03888,0.0467 0.129615,0.14258 0.316261,0.30071 0.487353,0.52365 l 0.3421836,0.44587 -0.5677136,-0.0674 c -0.754361,-0.0907 -1.539829,-0.36033 -2.08162,-0.85287 -0.422546,0.55476 -0.816576,0.78806 -1.482798,1.25986 l -0.668814,0.47699 0.29293,-0.75436 c 0.217753,-0.54698 0.241084,-0.81139 0.277376,-1.20024 -0.448468,0.21775 -0.873606,0.29812 -1.28319,0.30071 -0.484761,0 -0.946191,-0.0959 -1.430952,-0.16591 -0.01037,0 -0.02074,0.003 -0.03111,0.005 -1.551235,1.19765 -1.787135,2.99412 -1.78532,3.89624 0.0044,2.4419501 0.692923,4.8398301 5.767098,4.9253801 3.8599406,0.0674 5.5838226,-2.57676 5.5604916,-5.0342601 -0.02074,-1.57094 -0.318853,-3.22483 -1.788689,-4.17879 z m -6.6985136,0.88916 c 0.342184,-0.005 0.684368,0.11406 0.733622,0.32144 -2.386993,1.08618 -2.374291,2.53528 -2.727363,4.06474 -0.287745,-1.47243 -0.189497,-3.17558 1.431211,-4.24101 0.145169,-0.0985 0.357738,-0.14258 0.56253,-0.14517 z"/></svg>
