<svg role="img" focusable="false" aria-hidden="true" xmlns="http://www.w3.org/2000/svg" viewBox="0 0 14 14"><path d="m 12.037414,1.0001386 c -0.663341,0.36148 -1.291162,1.12719 -1.636288,1.89649 -0.206474,-0.0764 -0.4404145,-0.12197 -0.6738005,-0.12004 -0.38902,0.003 -0.776059,0.13805 -1.030204,0.47982 0.0234,1.3e-4 0.04685,4.8e-4 0.07041,0.001 0.322731,0.0117 0.659142,0.0901 0.985201,0.21397 0.6069035,0.23067 1.1939205,0.61499 1.5394435,1.10474 0.336015,-0.80823 -0.02192,-1.19382 -0.463999,-1.46391 0.30987,-0.67658 0.91878,-1.41268 1.436708,-1.69492 z m -3.3518065,2.73205 a 1.5534139,1.5534139 0 0 0 -0.182071,0.009 c -0.309658,0.0349 -0.524346,0.15067 -0.651959,0.38234 -1.196746,2.17268 -1.066703,3.09624 -1.402164,4.12464 -0.167704,0.51421 -0.458135,1.03243 -1.064907,1.66939 -0.606771,0.6369004 -1.530569,1.4029004 -2.994347,2.4563204 -0.336544,0.2422 -0.548432,0.44369 -0.634634,0.56491 -0.01812,0.0255 -0.0131,0.0219 -0.02041,0.0374 0.05546,0.0123 0.164218,0.0333 0.357434,0.0187 0.262067,-0.0198 0.625919,-0.0862 1.0704,-0.20262 2.257295,-0.59138 4.343902,-1.99536 5.813332,-3.4945004 0.734728,-0.74955 1.3150635,-1.52276 1.6865735,-2.21972 0.371537,-0.69696 0.523976,-1.31712 0.455284,-1.73321 -0.08644,-0.52337 -0.773683,-1.13991 -1.5343205,-1.42905 -0.285229,-0.10841 -0.576109,-0.17211 -0.834347,-0.18244 a 1.8467242,1.8467242 0 0 0 -0.06386,-10e-4 z m 0.05221,0.47044 c 0.04556,0.002 0.0894,0.0147 0.131179,0.0405 -0.605979,1.04689 -1.238896,2.14185 -1.597017,3.65615 -0.606111,-0.31663 0.678369,-3.724 1.465838,-3.69664 z"/></svg>
