<svg role="img" focusable="false" aria-hidden="true" xmlns="http://www.w3.org/2000/svg" viewBox="0 0 14 14"><path d="m 9.9463727,2.8087486 c -0.976045,-8.6e-4 -1.993325,0.0304 -2.955644,0.0835 -1.17323,0.0647 -2.268341,0.16386 -3.103107,0.2725 -0.864814,1.19615 -1.521074,2.32619 -1.717393,3.11123 -0.101645,0.4065 -0.07623,0.69736 0.04008,0.87314 0.116367,0.17579 0.349782,0.30242 0.8273,0.31471 1.009892,0.026 2.909616,-0.6521 4.655197,-1.63338 1.561207,-0.8776 3.0183083,-2.00629 3.7079693,-2.99211 -0.464996,-0.0194 -0.952941,-0.0292 -1.4544033,-0.0296 z m 1.9984353,0.0575 c -0.704358,1.1927 -2.3046243,2.41049 -4.0209183,3.37527 -1.788727,1.00549 -3.677972,1.72512 -4.89841,1.69368 -0.563077,-0.0145 -0.984743,-0.18809 -1.208334,-0.52587 -0.223565,-0.33779 -0.222831,-0.77394 -0.104342,-1.24777 0.205384,-0.82135 0.776818,-1.82587 1.52833,-2.90215 -0.204258,0.0341 -0.380066,0.0684 -0.521136,0.10225 -0.792877,1.02388 -1.280088,1.87877 -1.522934,2.56382 -0.24813703,0.69998 -0.24258303,1.21299 -0.09064,1.57522 0.151837,0.36225 0.453207,0.60421 0.899263,0.74913 0.443907,0.14424 1.024693,0.1774 1.668405,0.0983 3.046705,-0.67719 5.17277,-1.91513 6.5742553,-3.08574 0.701764,-0.58616 1.221668,-1.15573 1.582557,-1.62814 0.224587,-0.29403 0.381114,-0.54673 0.486871,-0.7426 -0.121633,-0.009 -0.246592,-0.0176 -0.372967,-0.0254 z m -3.0622143,0.26784 c 0.06444,-9.7e-4 0.694219,0.40977 0.758271,0.64785 0.01991,0.0739 -0.125012,0.3426 -0.27795,0.28078 -0.36474,-0.14741 -0.545866,-0.86301 -0.484774,-0.92716 8.64e-4,-9.2e-4 0.0024,-10e-4 0.0045,-10e-4 z m -1.175902,0.18867 c 0.05072,-0.0201 0.696996,0.75185 0.656705,1.05398 -0.0121,0.0908 -0.337417,0.32552 -0.50382,0.18951 -0.396936,-0.3244 -0.264851,-1.19914 -0.152885,-1.24352 z m 4.8743613,0.0609 c -0.101828,0.162 -0.22608,0.34135 -0.375455,0.53691 -0.382475,0.50067 -0.925852,1.09477 -1.654966,1.70374 -1.4582003,1.218 -3.6599753,2.49437 -6.7873673,3.18723 l -0.01082,0.002 -0.01105,0.001 c -0.696499,0.0867 -1.342594,0.0582 -1.881413,-0.11697 -0.0476,-0.0155 -0.09413,-0.0327 -0.140075,-0.0507 0.12365,0.17055 0.25322,0.33716 0.391566,0.49845 l 0.168027,0.0183 c 0,0 0.458237,0.0501 1.024353,0.068 0.566116,0.0179 1.246529,-0.005 1.624211,-0.11778 0.284839,-0.0854 0.547411,-0.29393 0.832094,-0.52871 0.284708,-0.2348 0.591265,-0.4958 0.994436,-0.61934 0.339984,-0.10421 0.671113,-0.056 0.965043,-0.0238 0.29393,0.0322 0.547568,0.0487 0.750019,-0.0292 0.710146,-0.27349 1.6731203,-1.07093 2.4297663,-1.79884 0.756699,-0.72785 1.320012,-1.3811 1.320012,-1.3811 l 0.09876,-0.11461 c 0.192128,-0.49628 0.340036,-0.91721 0.360994,-0.97707 -0.03175,-0.0862 -0.06429,-0.17219 -0.09808,-0.2583 z m -7.8336733,0.0227 c 0.04443,8.6e-4 0.07492,0.008 0.08603,0.0198 0.03212,0.0356 -0.539395,0.79487 -0.83783,0.85166 -0.08972,0.017 -0.396544,-0.17984 -0.309255,-0.3567 0.17565,-0.35588 0.821012,-0.51959 1.060976,-0.51482 z m 1.73615,0.2452 c 0.07867,0.0335 0.13329,0.86859 -0.167923,1.21546 -0.126269,0.14545 -0.34986,-0.0544 -0.354392,-0.14128 -0.01504,-0.28882 0.486661,-1.08943 0.522315,-1.07423 z m -1.013298,0.0762 c 0.0085,-3.1e-4 0.01519,7.4e-4 0.0198,0.003 0.03327,0.0183 -0.198128,0.73525 -0.406917,0.8552 -0.06277,0.0361 -0.343495,-0.0317 -0.323926,-0.18684 0.04375,-0.34679 0.583275,-0.66631 0.711064,-0.67155 z m 7.4379953,0.67175 c -0.193072,0.52205 -0.477309,1.24854 -0.724032,1.705 -0.391041,0.72345 -0.811633,1.48916 -1.446202,2.08428 -0.471807,0.44252 -1.0503933,0.7512 -1.6298963,0.98147 -0.459389,0.18254 -0.912544,0.15702 -1.254048,0.27604 -0.187832,0.0655 -0.415929,0.28641 -0.669934,0.5576504 -0.254032,0.27122 -0.538085,0.58498 -0.921242,0.78046 -0.292096,0.14906 -0.648322,0.20119 -1.01356,0.20554 0.353135,0.0823 0.739095,0.14731 1.16359,0.19208 0.0024,-8.9e-4 0.255944,-0.0947 0.566378,-0.2275 0.312006,-0.13334 0.682954,-0.31059 0.87655,-0.44514 0.169704,-0.11788 0.319707,-0.30425 0.486399,-0.50769 0.166691,-0.2034804 0.351982,-0.4258104 0.623094,-0.5756304 0.520848,-0.28785 1.0914433,-0.25437 1.5310543,-0.37181 0.292961,-0.0782 0.529441,-0.0838 0.629094,-0.16719 0.182855,-0.15291 0.273129,-0.45006 0.368591,-0.80173 0.09546,-0.35162 0.20004,-0.7638 0.55996,-1.01977 0.169599,-0.12061 0.335976,-0.11909 0.478513,-0.12504 0.03563,-0.001 0.06974,-0.002 0.100911,-0.002 0.01016,5e-5 0.01852,3.4e-4 0.02803,5.2e-4 0.30226,-0.82067 0.372389,-1.46755 0.325025,-2.02843 -0.01498,-0.17709 -0.04212,-0.34658 -0.07833,-0.51126 z m -8.6394403,0.20087 c 0.02017,2.7e-4 0.03419,0.003 0.04034,0.009 0.02237,0.0216 -0.31473,0.53846 -0.505549,0.58828 -0.05737,0.015 -0.264694,-0.0991 -0.215863,-0.21751 0.101906,-0.24704 0.54005,-0.38229 0.681068,-0.3802 z m 2.84677,0.12025 c 0.08514,0.003 0.495725,0.35759 0.476078,0.65283 -0.0085,0.12778 -0.244889,0.13832 -0.289739,0.0995 -0.149165,-0.12915 -0.223198,-0.7419 -0.193595,-0.75141 0.0021,-6.5e-4 0.0045,-9.6e-4 0.0073,-8.9e-4 z m -1.62979,0.0834 c 0.0016,-3.9e-4 0.0028,-3.1e-4 0.0036,2.1e-4 0.05863,0.0358 0.06602,0.60848 -0.177877,0.79204 -0.102273,0.077 -0.26459,-0.0953 -0.264432,-0.15474 3.93e-4,-0.19124 0.390203,-0.62532 0.43872,-0.63753 z m 6.2421303,1.15225 c -0.153619,0.15726 -0.321908,0.32547 -0.501593,0.49827 -0.774015,0.74457 -1.7329283,1.57009 -2.5872113,1.89909 -0.336368,0.12952 -0.672109,0.0906 -0.970859,0.0579 -0.298723,-0.0328 -0.563574,-0.0591 -0.775508,0.006 -0.284761,0.0872 -0.547516,0.29715 -0.832539,0.53224 -0.285023,0.23509 -0.592444,0.49544 -0.996741,0.6166 -0.498109,0.14927 -1.188608,0.15587 -1.774503,0.13738 -0.257202,-0.008 -0.489804,-0.0226 -0.673419,-0.0364 0.08278,0.0753 0.168709,0.14885 0.25825,0.22027 0.180628,0.1440804 0.376267,0.2803004 0.589876,0.4071004 0.136172,0.0319 0.526559,0.11804 0.998104,0.17326 0.581258,0.0681 1.266099,0.0601 1.586749,-0.10347 0.280832,-0.1433 0.536383,-0.4105904 0.791358,-0.6828304 0.254975,-0.27226 0.505287,-0.55731 0.858998,-0.68059 0.460594,-0.16051 0.905026,-0.1378 1.235029,-0.26897 0.544634,-0.21639 1.0706693,-0.50193 1.4814373,-0.88721 0.542277,-0.50854 0.935886,-1.19406 1.31252,-1.88854 z m 0.737758,1.46493 c -0.07911,0.013 -0.145471,0.0337 -0.13832,0.0286 -0.190713,0.13565 -0.283922,0.41189 -0.378205,0.75913 -0.01108,0.0408 -0.02219,0.0826 -0.03358,0.12483 0.124226,-0.15304 0.233598,-0.29995 0.323637,-0.43607 0.08341,-0.16478 0.158675,-0.32343 0.226446,-0.47647 z m -1.667435,2.05804 c -0.06772,0.009 -0.129335,0.017 -0.180157,0.0306 -0.538714,0.14387 -1.0591953,0.12695 -1.4246953,0.32895 -0.174288,0.0963 -0.324475,0.2640704 -0.486425,0.4617704 -0.161975,0.19769 -0.333749,0.42356 -0.582017,0.59606 -0.147017,0.10217 -0.33257,0.20198 -0.524542,0.29464 0.788738,-0.12779 1.636733,-0.54498 2.4013173,-1.08421 0.278998,-0.1967404 0.546312,-0.4095104 0.796545,-0.6278104 z"/></svg>
