<svg role="img" focusable="false" aria-hidden="true" xmlns="http://www.w3.org/2000/svg" viewBox="0 0 14 14"><path d="m 12.446413,4.6316567 c -0.09375,-0.0615 -0.187453,-0.12598 -0.292875,-0.16992 -0.169875,-0.0762 -0.240188,-0.27832 -0.187453,-0.45996 0.228421,-0.77344 0.06734,-1.33594 -0.289945,-1.67578 l -0.0028,10e-4 0.0014,-0.003 c -0.339796,-0.35742 -0.902132,-0.51855 -1.6753341,-0.29004 -0.1815937,0.0527 -0.3836482,-0.0176 -0.4598201,-0.1875 -0.043945,-0.10547 -0.1083514,-0.19921 -0.1698748,-0.29296 -0.4392654,-0.63282003 -1.2681086,-0.74415003 -1.8246083,-0.22559 -0.1581561,0.14648 -0.2753435,0.34277 -0.3895544,0.53027 -0.1845233,0.2959 -0.3514685,0.60059 -0.5417575,0.93457 -0.1282733,-0.10436 -0.2275545,-0.1897 -0.3245154,-0.26808 -0.6470386,-0.5235 -1.5259443,-0.37169 -1.9166941,0.3631 -0.2752029,0.51764 -0.2399998,1.06713 -0.1692421,1.62761 0.038039,0.29883 0.061477,0.60352 0.1024922,0.99024 -0.1435078,-0.0996 -0.2021015,-0.14649 -0.263578,-0.18164 -0.6120699,-0.35157 -1.2974757,-0.0996 -1.4819053,0.57715 -0.073289,0.27832 -0.082078,0.60058 -0.017625,0.88183 0.090773,0.4043 0.3017108,0.78223 0.4100623,1.18652 0.1359842,0.48603 0.01432,0.70278 -0.029672,0.83632 -0.1506093,0.45769 -0.097734,0.94474 0.1126171,1.3622103 l -1.8709675,1.87151 c -0.2196796,0.21973 -0.2196796,0.57569 0,0.79542 0.1097977,0.11039 0.2533054,0.16533 0.3975631,0.16533 0.1442577,0 0.287742,-0.0549 0.3976169,-0.16479 l 1.8693504,-1.86996 c 0.418406,0.21267 0.9076166,0.26597 1.3670148,0.1147 0.1323515,-0.0436 0.3523123,-0.16514 0.8360151,-0.0296 0.4042028,0.10839 0.7820151,0.31933 1.186218,0.41015 0.281156,0.0645 0.6033277,0.0557 0.8815541,-0.0176 0.676523,-0.18457 0.9283822,-0.87011 0.5770074,-1.4824203 -0.035203,-0.0615 -0.082078,-0.12011 -0.1816405,-0.26367 0.3865779,0.041 0.6911715,0.0644 0.9899056,0.10254 0.5604141,0.0709 1.1097651,0.10601 1.6271701,-0.16929 0.734625,-0.39082 0.886336,-1.2701 0.363047,-1.91719 -0.0784,-0.0971 -0.16364,-0.19647 -0.268054,-0.32465 0.33389,-0.19043 0.638483,-0.35742 0.934288,-0.54199 0.187406,-0.11424 0.383648,-0.23142 0.530086,-0.38963 0.518437,-0.55664 0.407109,-1.38574 -0.225492,-1.82519 z m -3.3087401,0.75879 -2.9990841,2.99997 c -0.073242,0.0732 -0.1691483,0.10988 -0.2650545,0.10988 -0.095953,0 -0.1918592,-0.0366 -0.2651014,-0.10988 -0.1464374,-0.14648 -0.1464374,-0.38379 0,-0.53027 l 2.999084,-2.99998 c 0.1464374,-0.14648 0.3836951,-0.14648 0.530156,0 0.1464608,0.14649 0.1464374,0.38379 0,0.53028 z"/></svg>
