<svg role="img" focusable="false" aria-hidden="true" xmlns="http://www.w3.org/2000/svg" viewBox="0 0 14 14"><path d="m 8.9512723,1.000015 -0.457259,0.0457 c 0.02032,0.19941 0.0254,0.39603 0.02032,0.59062 -0.457259,-0.28553 -1.260003,-0.70875 -1.575004,-0.36708 -0.254032,0.27538 0.419155,1.0423 0.419155,1.0423 0,0 -0.726534,0.18799 -0.746857,0.48368 -0.02032,0.32288 0.741776,0.62771 0.741776,0.62771 0,0 -1.260003,0.33533 -1.097422,0.74686 0.180364,0.44964 1.105043,0.1194 1.658834,-0.12702 -0.223549,0.54363 -0.482662,1.08218 -0.729074,1.62835 0.157501,0.033 0.30484,0.0762 0.444558,0.12702 0.678267,-1.48355 1.498793,-3.01232 1.32097,-4.79817 z m 2.4285527,0.16588 c -1.7299627,1.21199 -2.6190777,3.03442 -3.3405307,4.81519 0.139718,0.0788 0.269275,0.17275 0.38359,0.27436 0.116855,-0.28706 0.23625,-0.57665 0.363267,-0.86371 0.459799,0.18798 2.4107707,0.92976 2.8705697,0.18544 0.30738,-0.49536 -0.899276,-1.50133 -0.899276,-1.50133 0,0 1.679157,0.49282 1.85952,-0.10161 0.177823,-0.58682 -1.47085,-1.11089 -1.47085,-1.11089 0,0 1.661374,0.14531 1.630891,-0.41433 -0.03303,-0.60409 -1.102503,-0.58859 -1.788391,-0.38105 0.203226,-0.18747 0.421694,-0.36403 0.655404,-0.52762 z m -5.3346877,4.8533 c -0.04827,0 -0.09907,0 -0.149879,0.003 -0.210847,0.005 -0.584276,0.17274 -0.983107,0.50044 -0.03556,0.028 -0.07113,0.0584 -0.106694,0.0915 0.30738,0.4979 0.919599,0.9323 1.618189,1.20665 0.69605,0.27436 1.47085,0.39375 2.062746,0.32516 0.114315,-0.23625 0.149879,-0.4725 0.09653,-0.72907 -0.09907,-0.48266 -0.358186,-0.81799 -0.802743,-1.05678 -0.38613,-0.20576 -0.922139,-0.32516 -1.590245,-0.33786 -0.04827,0 -0.09653,-0.003 -0.144799,-0.003 z m -1.577543,0.91706 c -0.200686,0.2083 -0.406453,0.44964 -0.602058,0.71637 0,0.39121 0.223549,0.70621 0.426775,0.9577 -0.345485,-0.094 -0.54617,-0.19814 -0.683348,-0.58935 -0.676743,1.03645 -1.201067,2.35996 -1.214531,3.69363 0.955417,-0.46996 2.002032,-0.91705 2.957196,-1.36669 -0.607139,-0.0813 -1.125366,-0.3277 -1.569923,-0.69097 0.899276,0.25403 1.590245,0.36581 2.512384,0.22609 0.114315,-0.061 0.22863,-0.1194 0.337864,-0.18037 0.170202,-0.094 0.332783,-0.19052 0.487743,-0.28705 -0.589356,-0.0178 -1.280325,-0.12194 -1.762988,-0.37597 0.650324,0.033 1.945891,-0.0432 2.436175,-0.0965 0.129556,-0.1067 0.243871,-0.21339 0.345484,-0.32008 -0.599517,0.003 -1.262543,-0.1321 -1.882383,-0.37851 -0.726533,-0.28706 -1.39718,-0.724 -1.78839,-1.30827 z m -2.531183,4.75295 c -0.269021,0.35311 -0.491045,0.71891 -0.713832,1.06186 l 0.383589,0.24895 c 0.121428,-0.18798 0.239807,-0.37597 0.361489,-0.55887 h -0.0018 l -0.02058,-0.35057 c -0.0079,-0.13463 -0.01067,-0.26927 -0.0089,-0.40137 z"/></svg>
