<svg role="img" focusable="false" aria-hidden="true" xmlns="http://www.w3.org/2000/svg" viewBox="0 0 14 14"><path d="m 6.5784437,1.0004359 a 0.23215654,0.23215654 0 0 0 -0.06371,0.0129 c -0.414684,0.14509 -0.710657,0.27781 -0.932625,0.56259 -0.167075,0.21443 -0.283334,0.48634 -0.414348,0.88753 -0.29182,-0.31707 -0.689556,-0.58003 -1.131763,-0.7948 -0.614363,-0.2984 -1.317694,-0.50197 -1.964457,-0.58761 a 0.23215654,0.23215654 0 0 0 -0.162045,0.42157 c 0.559368,0.38522 1.045349,0.75497 1.377643,1.12691 0.257023,0.28775 0.418139,0.56775 0.475559,0.86491 -0.848403,-0.0956 -1.618647,0.0895 -2.564194,0.59974 a 0.23215654,0.23215654 0 0 0 0.1322,0.43612 c 0.886116,-0.0842 1.792352,-0.0982 2.490859,0.0161 0.349267,0.0572 0.64506,0.14763 0.856864,0.2644 0.08172,0.0451 0.150128,0.0921 0.206361,0.1427 0.138391,-0.20971 0.310394,-0.40338 0.501407,-0.57317 0.337659,-0.30017 0.742694,-0.53236 1.161556,-0.6215 -0.292156,-0.47051 -0.364692,-0.77979 -0.331287,-1.0705 0.04096,-0.35631 0.272578,-0.7453 0.582042,-1.35023 a 0.23215654,0.23215654 0 0 0 -0.220033,-0.33773 z m 0.358707,3.18405 c -0.01359,-8e-5 -0.02739,4.1e-4 -0.04114,7.8e-4 -0.384993,0.011 -0.83873,0.21972 -1.2019,0.54255 -0.414993,0.36887 -0.695876,0.87231 -0.690795,1.28975 0.01006,0.82996 0.48206,1.74814 1.221247,2.63431 0.73916,0.88617 1.736015,1.7362701 2.743961,2.4433201 1.007895,0.70694 2.0290483,1.27211 2.8059993,1.59765 0.388475,0.16277 0.718576,0.26504 0.9367,0.29664 0.102097,0.0148 0.17533,0.0116 0.211185,0.005 0.0017,-0.0206 0.0039,-0.0474 0.0016,-0.0831 -0.0053,-0.0803 -0.021,-0.19357 -0.04757,-0.32889 -0.05314,-0.27059 -0.14889,-0.63337 -0.282973,-1.05275 -0.268193,-0.83876 -0.690021,-1.9062601 -1.230121,-2.9648201 -0.349782,-0.68563 -0.750252,-1.36756 -1.188976,-1.98143 -0.3661113,0.4467 -0.3104193,0.46393 -1.2825363,0.9472 l -0.183791,-0.36921 c 1.017104,-0.50558 0.779582,-0.3933 1.213998,-0.91815 -0.160833,-0.20806 -0.326309,-0.40602 -0.495783,-0.59089 -0.08456,-0.0923 -0.16999,-0.1816 -0.256326,-0.26683 -0.622077,0.8611 -1.147705,1.06725 -1.97168,1.42194 l -0.183791,-0.4264 c 0.850286,-0.36603 1.227463,-0.47262 1.811286,-1.31075 -0.565946,-0.48134 -1.162253,-0.79872 -1.769394,-0.87781 -0.03882,-0.005 -0.0786,-0.008 -0.119303,-0.008 z"/></svg>
