<svg role="img" focusable="false" aria-hidden="true" xmlns="http://www.w3.org/2000/svg" viewBox="0 0 14 14"><path d="m 7.638833,1.6886909 c 0.199264,-0.27122 0.440042,-0.45665 0.700193,-0.54798 0.467719,-0.16327998 1.010161,-0.0415 1.508323,0.44558 0.296129,-0.3238 0.633772,-0.49816 0.974182,-0.55905 0.957577,-0.17988998 1.934527,0.55628 2.083976,1.46681 0.08026,0.50121 -0.07472,1.06302 -0.633772,1.54735 0.54521,0.63377 0.664215,1.14577 0.56735,1.54983 -0.06642,0.27953 -0.243545,0.5203 -0.487091,0.71957 0.249081,0.57288 0.105167,1.02953 -0.31827,1.38378 -0.337643,0.28229 -0.88562,0.49539 -1.577511,0.63931 -0.02214,0.39022 -0.127308,0.68359 -0.282292,0.90776 -0.268453,0.39576 -0.694658,0.58119 -1.143004,0.67528 -0.404064,0.0969 -0.78322,0.0747 -1.176214,0.1660601 -1.220496,0.30166 -1.707587,0.95204 -2.139327,1.53323 -0.368086,0.49816 -0.705729,0.94097 -1.320128,1.19005 -0.251848,0.1107 -0.55628,0.16605 -0.929901,0.19373 0.503696,-0.19373 0.918831,-0.55351 1.309057,-1.07935 0.179892,-0.2214 0.357016,-0.49816 0.54521,-0.83027 0.412367,-0.67805 1.082118,-1.1734501 1.859803,-1.3699401 0.622702,-0.16882 1.165145,-0.13008 1.757403,-0.25462 0.332108,-0.0692 0.65868,-0.19096 0.857945,-0.48432 0.08856,-0.13008 0.152216,-0.2906 0.182659,-0.49263 -0.174356,0.083 -0.387459,0.14668 -0.633772,0.20757 -1.151306,0.27675 -3.047088,0.38469 -4.198394,2.0286201 -0.487091,0.7168 -1.109793,1.6467 -1.834895,1.94283 -0.166054,0.0553 -0.343178,0.1107 -0.539675,0.1107 0.622702,-0.27675 0.841339,-0.69189 0.841339,-0.69189 0,0 -0.606096,0.77492 -2.176688,0.52584 -0.187641,-0.70019 -0.107105,-1.70205 0.487368,-2.21405 0,0 -0.458309,0.24908 -0.76108,0.96865 -0.0321,-0.44281 0.04566,-0.82197 0.211995,-1.14024 0.633218,-0.8966901 1.363855,-1.2343301 2.241173,-1.6909801 0.794291,-0.51477 1.17068,-1.24817 1.392085,-1.97051 0.193729,-0.62823 0.276756,-1.2537 0.404064,-1.74356 0.05812,-0.22694 0.130075,-0.42621 0.221405,-0.59226 -0.3072,0.0138 -0.539675,0.0886 -0.714031,0.2131 -0.293362,0.21311 -0.417903,0.55628 -0.484324,0.905 -0.08856,0.41513 -0.06919,0.85794 -0.119005,1.26201 -0.09687,0.77768 -0.567351,1.4585 -1.256474,1.82659 -0.733958,0.4262 -1.615981,0.95481 -1.98379,1.6162501 0.03764,-0.1937201 0.09105,-0.3680801 0.156644,-0.5203001 0.272605,-0.64207 0.759973,-0.99909 1.263116,-1.34227 0.431187,-0.29336 0.879532,-0.57288 1.147986,-1.09318 0.265686,-0.64761 0.218637,-1.20113 0.337642,-1.83767 0.09133,-0.46495 0.276757,-0.90776 0.669751,-1.19005 0.22694,-0.16328 0.523069,-0.27399 0.916064,-0.2989 0.149448,-0.69465 0.409599,-1.27612 0.741707,-1.64697 0.370853,-0.41514 0.824734,-0.58949 1.331198,-0.43451 z m -1.533231,7.53635 c 1.073815,-0.63654 2.283241,-0.77491 3.130115,-0.97695 0.285059,-0.0886 0.73894,-0.16052 0.84134,-0.45388 0.05812,-0.17435 0,-0.4096 -0.166054,-0.74447 l -0.127308,-0.25185 0.273989,-0.072 c 0.381923,-0.0996 1.104258,-0.25461 1.666073,-0.55351 0.321037,-0.17159 0.595026,-0.38469 0.666983,-0.68912 0.08303,-0.34041 -0.09133,-0.75555 -0.622702,-1.30906 l -0.185427,-0.19096 0.218638,-0.15499 c 0.536907,-0.38746 0.716799,-0.8441 0.64761,-1.25951 -0.110703,-0.67529 -0.835805,-1.2205 -1.544301,-1.09042 -0.307199,0.0581 -0.608864,0.24354 -0.857945,0.59502 l -0.174356,0.24355 -0.190962,-0.22971 c -0.390227,-0.46772 -0.813664,-0.64208 -1.190053,-0.512 -0.224172,0.0803 -0.420669,0.26292 -0.575653,0.53137 -0.260151,0.45388 -0.395761,1.13775 -0.326572,2.0123 l 0.03044,0.38746 -0.354248,-0.15775 c -0.489859,-0.21864 -0.799826,-0.26846 -1.012929,-0.14392 -0.213102,0.12178 -0.307199,0.39576 -0.395761,0.73341 -0.130076,0.49539 -0.213103,1.1264 -0.4096,1.76293 -0.116237,0.38193 -0.273989,0.76385 -0.498161,1.12364 0.619934,-0.35148 1.461273,-0.78876 1.713122,-1.50279 0.171589,-0.50647 0,-0.91883 0,-0.91883 l 0.423437,-0.18266 c 0,0 0.229708,0.52307 0.03598,1.17621 0.6144,-0.48986 1.06828,-0.87178 1.588582,-1.38101 0.141146,-0.16329 0.243546,-0.34041 0.3072,-0.54244 0.116237,-0.38193 0.07749,-0.83581 -0.141146,-1.41423 l 0.43174,-0.16329 c 0.218637,0.58119 0.273989,1.06275 0.2048,1.47512 0.589491,-0.54798 1.242636,-1.23157 1.497252,-1.75768 l 0.415134,0.19954 c -0.34041,0.70849 -1.356106,1.67991 -2.04523,2.29154 0.631005,-0.13284 1.134702,-0.0553 1.134702,-0.0553 l -0.07196,0.45665 c -1.86257,0.19096 -2.330289,0.7168 -3.456687,2.2694 0.954809,-0.55905 1.740797,-0.38469 1.740797,-0.38469 l -0.09133,0.45111 c 0,0 -1.336734,-0.24908 -2.529554,1.38378 z m 5.834025,-2.64579 c -0.484324,0.26015 -1.07935,0.4179 -1.502787,0.52584 0.116237,0.30166 0.141146,0.54521 0.1024,0.73894 0.398529,-0.0941 0.736172,-0.2131 0.996323,-0.36255 0.210334,-0.12454 0.362551,-0.26569 0.43174,-0.43728 0.02214,-0.0692 0.08303,-0.27122 -0.02768,-0.46495 z m -4.538805,-4.46989 c -0.282291,-0.0443 -0.536907,0.083 -0.750009,0.32104 -0.276757,0.31024 -0.487092,0.7918 -0.617167,1.36745 0.246313,-0.13838 0.589491,-0.16605 1.076582,-0.006 -0.01107,-0.68636 0.09963,-1.25399 0.290594,-1.68296 z"/></svg>
