<svg role="img" focusable="false" aria-hidden="true" xmlns="http://www.w3.org/2000/svg" viewBox="0 0 14 14"><path d="m 7.7414719,0.999965 c -1.093828,1.30617 -0.779974,4.27466 -0.266154,5.9407 -0.228477,-0.21506 -0.451774,-0.41739 -0.668416,-0.60562 -0.144523,-1.44083 -3.03918,-4.87686 -5.23344,-4.92508 0.07176,2.0376 3.214596,4.46603 4.679094,5.06655 0.373621,0.31372 0.776064,0.68126 1.195054,1.08831 -1.528615,-0.87146 -4.634528,-1.54899 -6.081416,-0.61673 1.547674,1.16199 6.034933,1.64965 6.874855,1.41444 a 43.860259,43.860259 0 0 1 0.938714,1.00467 c -1.446344,-0.61851 -4.077825,-0.93478 -5.231187,-0.0303 1.410376,1.0502 4.889599,1.15774 5.944066,0.8341 0.101873,0.11743 0.2033581,0.23549 0.3043501,0.35412 0.07758,0.008 0.157808,0.0254 0.2407,0.055 0.326957,0.11671 0.528839,0.39288 0.593526,0.68745 0.02157,0.0983 0.03071,0.199 0.02983,0.30051 0.388071,0.48179 0.760631,0.96301 1.107087,1.43195 l 0.374864,-0.277 c -0.436055,-0.59022 -0.910177,-1.19786 -1.404264,-1.80143 0.825369,-1.07593 1.756081,-4.477 1.427285,-5.68519 -1.347449,0.82242 -1.914769,3.61546 -1.901691,5.11425 A 50.264126,50.264126 0 0 0 9.9556189,9.529075 c 0.8107901,-1.07796 1.1157101,-5.3198 0.1716881,-6.87209 -1.3011231,1.29211 -1.1548651,4.65105 -0.7218651,6.25803 -0.386931,-0.42412 -0.773733,-0.83242 -1.153,-1.21536 0.573406,-1.346 0.690816,-5.3363 -0.510971,-6.69962 z m 1.594908,9.76252 c -0.331023,0.0418 -0.678412,0.0842 -1.027847,0.11278 -0.313569,0.47373 -0.430332,1.20173 -0.08131,1.3173 0.101122,0.0335 0.254735,0.005 0.43142,-0.10803 0.101873,-0.0653 0.205533,-0.15665 0.300518,-0.2622 0.0606,-0.33801 0.199655,-0.66888 0.401485,-0.91263 -0.002,-0.0541 -0.0094,-0.10291 -0.02429,-0.14722 z m -2.004239,0.14294 c -0.768968,0.18391 -1.457712,0.51693 -1.834182,1.02935 0.549452,0.0473 1.28341,0.0539 2.03754,0.0233 -0.0483,-0.32447 0.03605,-0.70905 0.207035,-1.05147 -0.138645,0.003 -0.275917,0.004 -0.410393,-0.001 z m 2.7936131,0.0825 c -0.7415711,-0.0273 -0.9587571,1.7892 -0.3786971,1.84459 0.106042,0.0101 0.249504,-0.0516 0.3965131,-0.20139 0.147035,-0.14978 0.283038,-0.37556 0.364506,-0.61025 0.08147,-0.23469 0.106534,-0.47713 0.06785,-0.65342 -0.03871,-0.17627 -0.113371,-0.28364 -0.29495,-0.34843 -0.05399,-0.0193 -0.105758,-0.0293 -0.155192,-0.0311 z"/></svg>
