<svg role="img" focusable="false" aria-hidden="true" xmlns="http://www.w3.org/2000/svg" viewBox="0 0 14 14"><path d="m 5.0647112,1.0381355 c -0.09009,1.03367 -0.144137,2.09077 0.393805,3.07657 l 0.146711,0.27026 -0.301144,0.0746 c -1.299813,0.30629 -2.254724,0.38093 -3.33344,1.01926 0.944873,0.97035 2.587013,1.68332 3.928007,2.03079 l 0.154433,0.0412 0.02059,0.157 c 0.226502,1.64472 0.738706,2.8003895 1.588088,4.2932395 0.844235,-0.74385 1.284369,-1.52116 1.6164,-2.7386095 l 0.08751,-0.32688 0.27798,0.19819 c 1.0527188,0.74642 2.1800808,0.83393 3.3563468,0.9806495 -0.697523,-1.2380395 -1.08618,-2.6176495 -2.280463,-3.6549195 l -0.164728,-0.14157 0.12612,-0.17502 c 0.573977,-0.7979 1.11964,-1.93041 1.147953,-3.02946 -1.052719,-0.13359 -2.3319398,0.15443 -3.3666428,0.56368 l -0.177598,0.0669 -0.105529,-0.15444 c -0.723262,-1.05889 -1.853198,-1.73428 -3.114402,-2.55149 z m -0.522499,0.57527 c -0.733557,1.0051 -1.528888,2.02513 -1.978803,3.04696 0.763929,-0.30372 1.505208,-0.41697 2.341721,-0.59971 -0.368065,-0.8185 -0.4041,-1.6563 -0.362918,-2.44725 z m 2.329367,2.28252 0.27798,0.18532 c 0.352622,0.23422 0.79533,0.50963 1.07331,0.92145 0.419544,-0.16988 0.898286,-0.15958 1.325551,-0.13899 l 0.32431,0.0154 -0.113251,0.30372 c -0.100382,0.27798 -0.154433,0.70267 -0.45043,1.05272 0.301145,0.43241 0.388657,0.88799 0.561107,1.25863 l 0.2548148,0.53537 -0.5559598,-0.21363 c -0.280553,-0.11326 -0.658914,-0.16216 -1.044997,-0.31659 -0.118399,0.35262 -0.321736,0.71296 -0.563681,0.96778 l -0.193042,0.20334 -0.169876,-0.22393 c -0.375787,-0.49934 -0.460726,-1.08876 -0.58942,-1.53919 -0.615159,-0.0798 -1.096475,-0.34232 -1.644713,-0.54309 l -0.597142,-0.21878 0.594568,-0.22392 c 0.337179,-0.1287 0.738705,-0.39381 1.22517,-0.51993 0,-0.15958 0.02059,-0.32688 0.05148,-0.49676 0.04118,-0.25739 0.102956,-0.50705 0.149286,-0.68723 z m 0.295997,0.77216 c -0.02316,0.10038 -0.04633,0.20591 -0.06435,0.31402 -0.03604,0.23165 -0.0489,0.46072 -0.03089,0.56368 l 0.04633,0.23937 -0.239371,0.0386 c -0.27798,0.0437 -0.545664,0.16987 -0.823644,0.30372 0.391231,0.15958 0.754149,0.30114 1.155675,0.32431 l 0.159581,0.0103 0.0489,0.15186 c 0.144137,0.42727 0.216206,0.88284 0.39123,1.2612 0.15186,-0.23679 0.283128,-0.53022 0.329458,-0.75414 l 0.06692,-0.31402 0.283127,0.15444 c 0.223928,0.12612 0.486465,0.18789 0.756723,0.25996 -0.115825,-0.31402 -0.221355,-0.60744 -0.432413,-0.85196 l -0.159581,-0.18274 0.18532,-0.15186 c 0.205911,-0.16988 0.288275,-0.42727 0.373213,-0.70525 -0.375787,0 -0.725836,0.0412 -0.960059,0.18532 l -0.229076,0.13642 -0.113251,-0.2368 c -0.12612,-0.27541 -0.424691,-0.5225 -0.743853,-0.74643 z m -5.345961,1.3307 c -0.337179,0.74643 -0.586074,1.60868 -0.718114,2.39629 -0.15880899,0.94976 -0.12380399,1.8094395 0.02986,2.1234595 0.260477,0.53536 0.943586,0.85967 1.2715,0.98837 0.562136,-0.8082 1.01514,-1.6189795 3.00218,-3.6446195 -1.235465,-0.36292 -2.625621,-0.97551 -3.585423,-1.8635 z m 3.863403,2.2573 c -1.917545,1.9638695 -2.321645,2.7077295 -2.895622,3.5313695 0.05663,0.0875 0.144138,0.2265 0.26511,0.38094 0.19819,0.25481 0.473595,0.51992 0.679506,0.59714 1.207153,0.453 2.494096,0.0644 3.485042,-0.57655 -0.761871,-1.34872 -1.2715,-2.4812295 -1.534036,-3.9328995 z m 3.956062,1.44395 c -0.252241,0.8236395 -0.591994,1.4877095 -1.088754,2.0745495 1.392473,-0.26253 2.8209788,-0.62545 3.9715058,-1.24318 -0.952337,-0.11068 -1.932988,-0.25482 -2.8827518,-0.8313695 z"/></svg>
