<svg role="img" focusable="false" aria-hidden="true" xmlns="http://www.w3.org/2000/svg" viewBox="0 0 14 14"><path d="M 11.446829,11.500831 H 7.7500273 v 0.74963 c 0,0.41396 -0.3355831,0.74954 -0.74954,0.74954 v 0 c -0.4139334,0 -0.7494931,-0.33556 -0.7494931,-0.74949 v -0.74968 H 2.5290599 c -0.6675356,0 -1.0232626,-0.80815 -0.5782467,-1.3213 L 3.5664935,8.3150906 H 3.2105088 c -0.5951113,0 -0.9170387,-0.69719 -0.5310959,-1.15019 l 1.4149206,-1.66077 H 3.8429097 c -0.4984675,0 -0.7700117,-0.52704 -0.4516212,-0.87401 l 3.1567344,-3.43156 c 0.2435067,-0.26467997 0.6612347,-0.26476997 0.9048352,-1.4e-4 l 3.1590769,3.4317 c 0.319116,0.34697 0.04685,0.87401 -0.451621,0.87401 H 9.9081636 l 1.4137024,1.66103 c 0.385592,0.45307 0.06362,1.14993 -0.53133,1.14993 h -0.356008 l 1.61568,1.8644404 c 0.448038,0.51704 0.08079,1.3213 -0.603379,1.3213 z"/></svg>
