<svg role="img" focusable="false" aria-hidden="true" xmlns="http://www.w3.org/2000/svg" viewBox="0 0 14 14"><path d="m 12.994517,5.268215 c 0.03906,0.20573 -0.135417,0.39844 -0.369771,0.39844 h -1.124957 l -0.499979,-1 -0.499979,1 H 7.6926665 c 0.3098957,1.17968 0.8567495,3.73958 0.549458,6.10416 -0.041667,0.32552 -0.3333123,0.5625 -0.6614162,0.5625 H 6.4323131 c -0.4322705,0 -0.752562,-0.40625 -0.6457912,-0.82552 0.2994581,-1.1901 0.7603745,-3.48698 0.5390205,-5.66927 L 3.2814193,8.882795 C 3.1147736,9.049465 2.8569613,9.036445 2.7371697,8.861995 2.0002326,7.783865 2.28667,6.104185 3.4741275,4.916685 c 0.070312,-0.0703 0.1484166,-0.125 0.2239374,-0.19011 l -0.6978746,-1.39322 -0.4999788,1 H 1.3752539 c -0.234354,0 -0.4088331,-0.19271 -0.3697706,-0.39844 0.2421873,-1.28386 1.6327489,-2.26823 3.312352,-2.26823 1.5442074,0 2.8306024,0.83594 3.2186021,1.96875 0.5833122,-0.39063 1.3254575,-0.63542 2.1457279,-0.63542 1.6796027,0 3.0701647,0.98438 3.3123517,2.26823 z"/></svg>
