<svg role="img" focusable="false" aria-hidden="true" xmlns="http://www.w3.org/2000/svg" viewBox="0 0 14 14"><path d="m 10.05974,1.091515 v 10e-4 h -0.05305 c -0.399108,0.0136 -0.762851,0.10432 -1.088705,0.24527 0.30312,0.44938 0.373848,0.88031 0.34101,1.26982 0.116196,-0.006 0.21471,-0.008 0.323327,-0.007 0.141456,-0.49181 0.318276,-1.0205 0.639078,-1.50574 -0.05557,-0.003 -0.108618,-0.004 -0.161664,-0.004 z m -1.54591,0.4567 c -0.242496,0.14625 -0.457206,0.31853 -0.651707,0.50318 0.121248,0.29655 0.237443,0.59891 0.335957,0.89849 0.197028,-0.14272 0.389004,-0.23264 0.598661,-0.28089 0.06062,-0.35869 0.03536,-0.69515 -0.282911,-1.12078 z m -0.995243,0.86945 c -0.123774,0.15004 -0.237444,0.30261 -0.335957,0.45089 -0.300594,0.4519 -0.401634,0.80554 -0.381426,1.07834 0.02021,0.27534 0.15156,0.4951 0.411738,0.71233 0.176819,0.14651 0.467309,0.16419 0.785585,0.0884 0.06062,-0.29049 0.03031,-0.67949 -0.07578,-1.11143 -0.09346,-0.38396 -0.23997,-0.80176 -0.40416,-1.21854 z m 4.071907,0.4471 c -0.186924,0.001 -0.371322,0.0268 -0.548141,0.0818 0.141455,0.34353 0.123773,0.72496 0.03536,1.06092 -0.06062,0.22229 -0.149033,0.43194 -0.255125,0.61129 0.131352,0.0101 0.272807,0.0278 0.421841,0.048 0.343536,-0.6315 0.666863,-1.25542 1.073549,-1.69267 -0.242496,-0.0707 -0.487517,-0.11064 -0.727487,-0.10937 z m -2.131941,0.19298 c -0.41679,0.008 -0.876521,0.0733 -1.113965,0.38648 0.0051,0.0278 0.01263,0.0581 0.02021,0.0859 0.08841,0.36627 0.141456,0.71991 0.118722,1.04577 0.0051,-0.005 0.01263,-0.008 0.02021,-0.0101 0.09346,-0.13135 0.20208,-0.26523 0.330905,-0.40416 0.131352,-0.14145 0.270282,-0.30312 0.424368,-0.46983 0.07073,-0.18945 0.136404,-0.40416 0.199554,-0.63403 z m 1.16701,0.0707 c -0.313224,0.18692 -0.613817,0.4471 -0.838631,0.67192 0.06315,0.31575 0.143982,0.63402 0.204606,0.93967 0.08083,-0.0404 0.166716,-0.0733 0.250074,-0.0935 0.143981,-0.15661 0.315749,-0.4471 0.396581,-0.75527 0.07073,-0.26775 0.07831,-0.53804 -0.01263,-0.76285 z m -1.21753,1.0786 c -0.08083,0.0884 -0.161664,0.17935 -0.23997,0.2627 -0.368796,0.40164 -0.538037,0.73002 -0.575927,0.98514 -0.03789,0.25513 0.03536,0.45216 0.222287,0.66434 0.09851,0.11114 0.29049,0.15914 0.53046,0.14651 0.457205,-0.74012 0.229865,-1.29079 0.06315,-2.05869 z m -2.710395,0.58098 -2.013219,2.50832 c 0.04294,0.0733 0.116196,0.20713 0.15156,0.26017 l -0.411738,0.1844 C 4.022608,7.503475 3.90136,6.702735 3.797794,6.894705 3.40879,7.745965 3.48457,8.352205 3.633604,9.170625 l -0.383951,0.29302 c -0.0051,-0.0253 -0.07073,-0.26018 -0.07325,-0.28544 L 1,11.888635 v 0.48751 L 4.277733,9.350005 7.349345,5.214945 C 7.197786,5.179545 7.053804,5.113905 6.924978,5.007815 6.841618,4.939615 6.76584,4.866365 6.697638,4.788055 Z m 3.874879,0.27786 c -0.04294,0 -0.08336,0.003 -0.121248,0.005 -0.149033,0.0177 -0.262703,0.053 -0.383951,0.15409 0.02526,0.30312 0.0025,0.65928 -0.09851,0.89925 0.143982,-0.0505 0.270282,-0.11114 0.351113,-0.15913 0.272808,-0.15914 0.487518,-0.47237 0.702228,-0.86642 -0.154086,-0.0177 -0.287964,-0.0328 -0.40416,-0.0328 z M 13,5.262945 c -0.436997,0.27028 -0.906833,0.43194 -1.346356,0.5633 -0.0051,0.053 -0.01263,0.10861 -0.02021,0.16166 0.409211,-0.048 0.896729,0.0733 1.187218,0.22986 0.08336,-0.27785 0.146508,-0.5936 0.179346,-0.95482 z m -1.826296,0.70223 c -0.07578,0.0202 -0.154085,0.0455 -0.227339,0.0682 -0.11367,0.1263 -0.245022,0.23744 -0.394056,0.32585 -0.16419,0.096 -0.391529,0.1945 -0.649181,0.26776 -0.06062,0.0935 -0.131352,0.23239 -0.186924,0.389 0.111144,-0.0202 0.22734,-0.0328 0.346062,-0.0328 0.22734,-0.003 0.464783,0.0278 0.702227,0.0834 0.184398,-0.34606 0.341009,-0.71738 0.409211,-1.10133 z m -2.846798,0.26017 -0.762851,0.70728 c 0.04294,0.0682 0.08841,0.1162 0.111144,0.12883 L 7.457963,7.460565 C 7.149792,7.266055 7.003284,6.700235 6.674904,6.642135 6.447565,7.230695 6.505662,7.799045 6.485454,8.354765 l -0.444575,-0.0152 -4.950196,4.56953 h 1.349893 l 6.348587,-6.267 C 8.672968,6.594095 8.566876,6.523375 8.47594,6.422335 8.42037,6.361735 8.372374,6.296035 8.326906,6.225305 Z m 3.597019,0.19198 c -0.133877,0 -0.267755,0.0202 -0.406685,0.0505 -0.08083,0.25765 -0.18945,0.50015 -0.305646,0.72749 0.27786,0.0935 0.553194,0.21471 0.820949,0.34353 0.234918,-0.22229 0.45468,-0.51025 0.626447,-0.8942 -0.272807,-0.16924 -0.505199,-0.22734 -0.735065,-0.22734 z m -1.851555,1.03061 c -0.174294,0 -0.333432,0.0202 -0.472362,0.0682 -0.01263,0.20713 0.02273,0.38395 0.108618,0.48246 0.186924,0.21471 0.3789,0.3107 0.649181,0.31575 0.270282,0.003 0.6315,-0.10104 1.088705,-0.35111 0.06062,-0.0328 0.121248,-0.0682 0.181872,-0.10862 -0.545616,-0.23997 -1.101335,-0.40163 -1.556014,-0.40668 z m -0.914411,0.40163 -3.733423,2.75081 -2.339073,2.30876 h 0.732539 l 0.06315,-0.45468 c 0.972509,0.12883 2.644718,0.33343 1.06597,-0.53551 l 0.232392,-0.39406 c 0.08083,0.048 0.169242,0.10357 0.260178,0.15914 l 4.074433,-3.23833 c -0.05305,-0.0455 -0.10104,-0.096 -0.149034,-0.14903 -0.11367,-0.13135 -0.17682,-0.28544 -0.207132,-0.4471 z"/></svg>
