<svg role="img" focusable="false" aria-hidden="true" xmlns="http://www.w3.org/2000/svg" viewBox="0 0 14 14"><path d="m 10.865423,1.0002991 c -0.132277,0 -0.251326,0.008 -0.351856,0.023 -0.502652,0.0751 -0.7804333,0.26905 -1.0291133,0.52011 -0.145504,0.14736 -0.277781,0.31879 -0.428576,0.49181 0.526461,0.0563 0.939164,0.0637 1.5582193,-0.13493 l 0.32011,-0.10185 -0.0079,0.3336 c -0.0026,0.0767 -0.0079,0.22487 0,0.3553 0.0026,0.0492 0.0079,0.0825 0.01587,0.1127 0.589954,0.14048 1.304248,0.0817 1.880975,-0.2418 0.05556,-0.27964 0.01323,-0.48467 -0.09259,-0.65477 -0.116403,-0.18916 -0.32011,-0.34498 -0.579372,-0.46033 -0.388893,-0.17275 -0.891545,-0.24286 -1.285729,-0.24286 z m -0.415349,1.44129 c -0.301591,0.0725 -0.5714353,0.0997 -0.8333433,0.10132 -0.298945,0.47303 -0.603182,0.93335 -0.923291,1.38309 0.187833,-0.12434 0.415348,-0.19842 0.656092,-0.19842 0.27249,0 0.523816,0.0926 0.7248763,0.24868 0.17196,-0.3545 0.328046,-0.71429 0.465614,-1.08466 -0.02381,-0.0402 -0.03704,-0.0826 -0.04762,-0.11614 -0.02646,-0.0873 -0.03704,-0.17249 -0.04233,-0.25768 -0.0026,-0.0267 0,-0.0497 0,-0.0762 z m 0.515879,0.65371 c -1.1058333,2.93919 -3.2698803,5.31488 -6.5900243,7.7619999 l -0.0053,0.005 -0.0079,0.005 c -0.947101,0.60054 -1.378323,1.01588 -1.574357,1.34658 -0.157674,0.2619 -0.185716,0.48677 -0.206616,0.77514 0.609002,0.0476 1.418535,-0.0661 2.193676,-0.29101 0.867735,-0.25397 1.703724,-0.64287 2.193148,-1.04234 2.986807,-2.5344199 4.0979313,-5.2143499 5.1561453,-8.5503699 -0.391539,0.0688 -0.788369,0.0609 -1.158744,-0.0106 z m -1.6164213,1.10848 c -0.39683,0 -0.711649,0.31482 -0.711649,0.71165 0,0.31746 0.201061,0.58202 0.486779,0.67726 0.267199,-0.38625 0.507942,-0.78044 0.727521,-1.1852 -0.129631,-0.12699 -0.306881,-0.20371 -0.502651,-0.20371 z m -1.140225,0.38096 c -0.283072,0.37037 -0.582017,0.73546 -0.896836,1.0926 0.187833,-0.1164 0.407412,-0.18254 0.640219,-0.18254 0.140214,0 0.277781,0.0238 0.402121,0.0688 -0.121694,-0.18783 -0.193124,-0.41005 -0.193124,-0.64815 0,-0.11376 0.01587,-0.22487 0.04762,-0.33069 z m -0.256617,1.38626 c -0.417994,0 -0.751331,0.33333 -0.751331,0.75133 0,0.30688 0.179896,0.56879 0.441804,0.68519 0.338628,-0.35979 0.653447,-0.72223 0.944455,-1.08996 -0.132276,-0.209 -0.367729,-0.34656 -0.634928,-0.34656 z m -1.097896,0.2037 c -0.362438,0.38096 -0.751332,0.75398 -1.171972,1.12171 0.166669,-0.0767 0.351856,-0.1217 0.547626,-0.1217 0.24868,0 0.481487,0.0714 0.679902,0.19313 -0.116403,-0.18783 -0.185187,-0.41006 -0.185187,-0.64551 0,-0.19577 0.04762,-0.38096 0.129631,-0.54763 z m -0.624346,1.47621 c -0.455032,0 -0.820116,0.36508 -0.820116,0.82012 0,0.28571 0.145505,0.53704 0.365084,0.68254 0.42064,-0.35185 0.814824,-0.70371 1.185199,-1.05821 -0.137568,-0.26455 -0.410058,-0.44445 -0.730167,-0.44445 z m -1.063505,0.082 c -0.415348,0.33598 -0.859798,0.66932 -1.33864,0.99737 0.161378,-0.0741 0.338629,-0.11376 0.526461,-0.11376 0.222225,0 0.431222,0.0556 0.61641,0.15609 -0.02381,-0.0979 -0.03704,-0.19842 -0.03704,-0.30159 0,-0.27514 0.08466,-0.52911 0.232807,-0.73811 z m -1.701078,1.23811 c -0.243389,0.15873 -0.494715,0.31747 -0.756622,0.4762 l -0.0026,0.003 h -0.0026 c -0.311908,0.17725 -0.578313,0.4762 -0.798422,0.8280599 0.197622,-0.16403 0.450535,-0.26191 0.725406,-0.26191 0.156615,0 0.305823,0.0317 0.440746,0.0899 -0.0079,-0.0635 -0.01323,-0.1269899 -0.01323,-0.1931299 0,-0.37037 0.156086,-0.70371 0.407412,-0.94181 z m 0.888899,0.1217 c -0.455031,0 -0.820115,0.36508 -0.820115,0.82011 0,0.2883599 0.145504,0.5396899 0.367729,0.6851999 0.06349,-0.0397 0.126986,-0.082 0.193124,-0.12435 0.362438,-0.26719 0.711649,-0.5343899 1.044986,-0.7989499 -0.103176,-0.33862 -0.412703,-0.58201 -0.785724,-0.58201 z m -1.723829,1.4021299 c -0.370375,0 -0.665352,0.29365 -0.665352,0.66403 0,0.32011 0.221696,0.58466 0.521699,0.64815 0.17487,-0.23809 0.428312,-0.48942 0.798687,-0.77249 -0.0582,-0.30953 -0.328046,-0.53969 -0.655034,-0.53969 z m -1.141019,0.63757 c -0.164288,0.43122 -0.271432,0.85716 -0.33757,1.1852 0.309263,0.045 0.676992,0.037 1.069589,-0.0106 0.0085,-0.0238 0.01746,-0.0476 0.02698,-0.0714 -0.44154,-0.15873 -0.759533,-0.58466 -0.759533,-1.07673 v -0.0265 z"/></svg>
