<svg role="img" focusable="false" aria-hidden="true" xmlns="http://www.w3.org/2000/svg" viewBox="0 0 14 14"><path d="m 7.0806763,1.42922 -0.01335,0.98568 0.293755,0.016 0.122842,-0.91945 z m -1.025469,1.09517 -0.742397,0.49671 1.009446,0.11216 0.157559,1.00945 0.739727,-0.83587 1.220415,0.47001 -0.125514,-0.50205 0.579497,-0.27239 -1.100243,-0.18427 -0.01602,0.11483 -1.19638,-0.0641 0.0027,-0.25637 z M 9.4974713,3.25343 8.8752473,3.54185 9.1289443,4.55663 7.3584073,3.87299 6.1593563,5.22693 5.9056593,3.57122 4.3888203,3.40031 c -1.843975,0.92666 -3.41075297,2.62242 -3.388588,4.40898 0.03231,2.59305 2.825114,4.76149 6.149877,4.76149 3.6585737,-0.003 5.7682627,-2.1898 5.8483777,-4.68671 0.05875,-1.86134 -1.602295,-3.71733 -3.5010157,-4.63064 z m 0.8545577,1.49281 0.37921,0.29909 -0.251026,0.31779 -0.37921,-0.29909 z m -7.0874867,0.7958 0.37921,0.2991 -0.251026,0.31779 -0.37921,-0.2991 z m 7.9580677,0.12552 0.480688,0.0107 -0.01335,0.49137 -0.480689,-0.0107 z m -0.635578,0.55279 0.4887,0.31779 -0.261708,0.40057 -0.4887,-0.31779 z m -7.9666117,0.48336 0.478552,0.0374 -0.03472,0.47534 -0.478286,-0.0374 z M 3.9535293,7.0028 4.4128543,7.14167 4.3087053,7.48616 3.8493803,7.3473 Z m -1.729677,1.03883 0.05314,0.50472 -0.478018,0.0481 -0.05314,-0.50473 z m 0.883131,0.91597 0.405915,0.25637 -0.226992,0.35785 -0.405914,-0.25637 z"/></svg>
