<svg role="img" focusable="false" aria-hidden="true" xmlns="http://www.w3.org/2000/svg" viewBox="0 0 14 14"><path d="M 13,7.75 C 13,8.40252 12.759742,8.95574 12.282578,9.40295 11.858734,9.8002 11.282523,10 10.701625,10 H 7.75 v 2.25002 C 7.75,12.66423 7.4142344,13 7.0000234,13 h -4.68e-5 C 6.5857656,13 6.25,12.66423 6.25,12.25002 V 10 H 3.298375 C 2.7174766,10 2.1412656,9.8002 1.7174219,9.40295 1.2402578,8.95574 1,8.40252 1,7.75 1,7.2959 1.1259766,6.88281 1.375,6.50781 1.6240234,6.13281 1.9609375,5.86035 2.3828125,5.6875 2.1630859,5.3125 2.0810547,4.92578 2.1367187,4.52734 2.1923827,4.12891 2.3505859,3.78613 2.6171875,3.49609 2.8837891,3.20605 3.2060547,3.01562 3.5898438,2.92187 3.9736328,2.82817 4.3603516,2.86617 4.75,3.03906 4.811523,2.46191 5.0576172,1.97559 5.4882812,1.58594 5.9189453,1.19629 6.4228516,1 7,1 7.5771484,1 8.0810547,1.19629 8.5117187,1.58594 8.9423828,1.97559 9.1884766,2.46191 9.25,3.03906 9.6396484,2.86621 10.026367,2.82812 10.410156,2.92187 c 0.383789,0.0937 0.706055,0.28418 0.972657,0.57422 0.266601,0.29004 0.424804,0.63282 0.480468,1.03125 0.05566,0.39844 -0.02051,0.78516 -0.222656,1.16016 h -0.02344 c 0.421875,0.17285 0.758789,0.44531 1.007812,0.82031 0.249023,0.375 0.375,0.78809 0.375,1.24219 z"/></svg>
