<svg role="img" focusable="false" aria-hidden="true" xmlns="http://www.w3.org/2000/svg" viewBox="0 0 14 14"><path d="m 7.2285785,1.041975 c -1.540155,1.13016 -2.728166,3.13145 -2.609239,4.99832 0.160317,-0.18275 0.33833,-0.34995 0.532853,-0.49691 0.280959,-1.65417 1.235704,-3.31105 2.076386,-4.50141 z m -5.216789,0.0374 c 0.609356,0.86297 1.278303,1.97095 1.707227,3.14517 0.201103,0.15676 0.38577,0.33311 0.548507,0.52784 a 5.9734569,5.9734569 0 0 1 0.09959,-0.38534 c -0.411128,-1.23092 -1.302351,-2.63536 -2.355353,-3.28767 z m 10.2102175,0.27083 c -1.193834,1.03004 -1.748441,2.53467 -1.890458,3.98799 a 5.1006604,5.1006604 0 0 1 0.20569,0.28555 5.0694792,5.0694792 0 0 1 0.421892,-0.75286 c 0.237022,-1.29578 0.693952,-2.55964 1.262876,-3.52068 z m -2.3207935,0.0934 c -1.634228,0.36757 -2.716067,1.98632 -2.938192,3.44765 0.07494,0.0421 0.169644,0.12856 0.233544,0.21313 0.569857,-1.67703 1.544566,-2.79131 2.704648,-3.66078 z m -8.901213,2.30319 c 1.305174,0.61413 2.667543,1.42406 3.202186,2.62001 -0.05727,-0.31106 -0.06627,-0.64157 -0.03519,-0.98167 -0.720848,-1.07211 -1.990253,-1.59942 -3.166997,-1.63836 z M 13,4.439745 c -0.867276,-0.0202 -1.939284,0.5905 -2.171039,1.68197 0.02871,0.11545 0.328247,0.34902 0.529677,0.42774 C 11.378128,5.444525 12.295764,4.981115 13,4.439745 Z m -4.3933485,0.055 c 0.530358,0.54097 1.233057,1.14721 1.5616565,2.17109 0.106878,-0.0627 0.217537,-0.1192 0.33223,-0.16871 -0.398021,-0.79309 -1.1103485,-1.7102 -1.8938865,-2.00238 z m -1.846799,0.76013 c -0.941789,0.0915 -1.613886,0.7341 -2.097863,1.47907 -0.36878,0.56764 -0.582662,1.25237 -0.61896,1.92245 0.655032,-1.35667 1.574436,-2.74145 2.839632,-3.21477 z m 0.804787,0.33689 c -0.05603,0.0694 -0.128153,0.1188 -0.198758,0.17186 0.783236,0.66436 1.207497,1.48097 1.413313,2.34706 a 5.1888853,5.1888853 0 0 1 0.239568,-0.36467 c -0.229132,-0.85266 -0.809703,-1.76924 -1.454123,-2.15425 z m -0.73761,0.35365 a 3.2295612,3.2295612 0 0 0 -0.245719,0.11671 l -0.03731,0.6838 c 0.365503,0.28776 0.640765,0.58069 0.85742,0.94103 l 0.06834,-1.25184 c -0.175038,-0.1764 -0.386148,-0.33984 -0.642731,-0.48967 z m -3.032719,0.60724 c -1.426673,0.42399 -2.278421,1.73148 -2.507957,3.054 0.749307,-1.09054 1.498286,-2.20401 2.643218,-2.67649 -0.04041,-0.13395 -0.08558,-0.25956 -0.135261,-0.37746 z m 1.88393,0.23962 c -0.09821,0.12616 -0.184592,0.22939 -0.272565,0.35676 1.103618,0.52136 1.516889,1.44757 2.038248,2.36869 -0.05478,-1.21398 -0.702825,-2.32851 -1.765683,-2.72542 z m 5.1682905,0.0587 c -0.734284,0.25648 -1.3207265,0.85371 -1.7491725,1.61489 -0.280404,0.49809 -0.489774,1.06283 -0.628665,1.63019 0.50263,-0.69271 0.857546,-1.21382 1.205228,-1.65152 0.4223445,-0.53169 0.8425735,-0.93979 1.4780435,-1.35117 -0.07305,-0.12763 -0.189406,-0.23277 -0.305434,-0.24237 z m 0.568975,0.61109 c -0.12974,0.0831 -0.248743,0.16506 -0.359453,0.24733 0.589645,1.06074 0.980053,2.2326 1.39713,3.36752 -0.03786,-1.24611 -0.35053,-2.50858 -1.037677,-3.61485 z m -6.4612395,0.44518 c -0.256709,0.48106 -0.501067,0.99518 -0.818223,1.48801 l 0.04252,0.69566 c 0.303771,0.0293 0.58899,-0.0469 0.900398,-0.14322 z m 5.7448285,0.0933 c -0.310274,0.29414 -0.543591,0.56023 -0.7710865,0.85598 0.2169585,0.15334 0.4947415,0.20242 0.8199635,0.20756 l 0.15341,-0.66935 a 10.232679,10.232679 0 0 0 -0.202287,-0.39421 z m -4.2603055,0.67308 -0.06007,1.10012 0.01364,-0.0204 c 0.235359,0.15798 0.463862,0.15702 0.729293,0.11674 -0.2555,-0.43399 -0.459249,-0.84227 -0.682861,-1.19651 z m 3.326104,0.61778 -0.325172,1.41903 c 0.29878,0.12755 0.5723285,0.23662 0.8760235,0.23957 l 0.328827,-1.43484 c -0.306468,-0.0127 -0.611373,-0.067 -0.8796785,-0.22376 z m -3.411909,0.95409 -0.06491,1.18846 c 0.305712,0.1148 0.602854,0.15261 0.902491,0.11525 l 0.06776,-1.24125 c -0.279623,0.0457 -0.591838,0.0694 -0.905339,-0.0625 z m -1.24556,0.16778 c -0.27569,0.0825 -0.573588,0.15376 -0.900902,0.13513 l 0.09823,1.60726 c 0.352622,0.003 0.673786,-0.0107 0.902516,-0.10807 z m 4.229049,0.74754 -0.310552,1.35523 c 0.287437,0.10204 0.580495,0.17628 0.879325,0.22528 l 0.3073265,-1.34094 c -0.3267355,-0.0207 -0.6128865,-0.1277 -0.8760995,-0.23957 z m -3.074084,0.74381 -0.0575,1.0534 h 0.908767 l 0.0519,-0.95038 c -0.30188,0.0259 -0.604895,-0.01 -0.903171,-0.10305 z m -1.026055,0.61793 c -0.289681,0.0919 -0.601241,0.0968 -0.903676,0.0904 l 0.02107,0.34506 h 0.909221 z"/></svg>
