<svg role="img" focusable="false" aria-hidden="true" xmlns="http://www.w3.org/2000/svg" viewBox="0 0 14 14"><path d="m 5.364834,1.4583448 c -0.01547,0 -0.03055,7.6e-4 -0.04597,0.002 -0.492577,0.027 -0.98305,0.50616 -1.332655,1.2677 -0.160162,0.34887 -0.287058,0.74936 -0.373211,1.17023 0.443289,0.19351 0.821976,0.60064 1.123536,1.10605 0.01661,-0.046 0.03377,-0.0914 0.05147,-0.13628 0.340757,-0.86343 0.891192,-1.55276 1.650391,-1.63614 0.04741,-0.005 0.09495,-0.008 0.14183,-0.008 0.196849,-0.001 0.388423,0.039 0.572823,0.11409 -0.107958,-0.2745 -0.233079,-0.53284 -0.371563,-0.76379 -0.417478,-0.69617 -0.936778,-1.11473 -1.416653,-1.11557 z m 3.407726,0.21627 c -0.03119,-1.8e-4 -0.06204,0.002 -0.09269,0.005 -0.460631,0.0489 -0.898798,0.49605 -1.207483,1.19478 0.12677,0.27823 0.235234,0.57492 0.323263,0.88105 0.221087,0.19908 0.425643,0.44319 0.609256,0.71465 0.25387,0.37532 0.472801,0.81019 0.643383,1.27404 0.0641,-0.11901 0.13108,-0.23435 0.20131,-0.34464 0.427975,-0.67239 0.97841,-1.19257 1.602017,-1.31126 -0.16541,-0.505 -0.391466,-0.97942 -0.653626,-1.36992 -0.437863,-0.65226 -0.957873,-1.04053 -1.4254,-1.0435 z m -2.189163,2.0236 c -0.03119,-1e-4 -0.06204,10e-4 -0.09269,0.005 -0.490345,0.0539 -0.953765,0.5588 -1.26136,1.33824 -0.09863,0.24999 -0.180114,0.52424 -0.241623,0.81213 0.752506,0.0133 1.365464,0.63299 1.793794,1.44518 0.11498,0.2181 0.217537,0.45295 0.306605,0.69881 0.09946,-0.18351 0.206382,-0.3583 0.320069,-0.52133 0.374934,-0.53761 0.831458,-0.96682 1.334253,-1.13936 -0.170582,-0.5909 -0.426657,-1.15198 -0.73055,-1.60125 -0.440145,-0.65069 -0.961068,-1.03589 -1.428544,-1.03713 z m -3.543979,0.55145 c -0.34669,0 -0.704384,0.22332 -1.022095,0.61324 l 0.650456,0.37638 0.145025,0.0832 -0.03017,0.16404 -0.105346,0.57997 0.281277,0.2686 -0.326432,0.34304 -0.374783,-0.35648 -0.09193,-0.0887 0.023,-0.12524 0.09827,-0.54195 -0.540369,-0.31218 c -0.03641,0.0609 -0.07236,0.1238 -0.106943,0.18939 -0.390857,0.74118 -0.639377,1.73564 -0.639377,2.6661 0,0.92086 0.607633,1.65858 1.453087,1.8944502 0.02923,-0.9559702 0.283965,-1.9333402 0.690896,-2.7049602 0.339084,-0.64298 0.794593,-1.16553 1.343,-1.36202 0.01737,-0.0943 0.03646,-0.18752 0.05781,-0.27965 -0.03392,-0.0734 -0.06889,-0.14478 -0.105371,-0.21394 -0.390857,-0.74117 -0.906658,-1.19321 -1.400047,-1.19321 z m 8.062564,0.28762 c -0.486847,0.0147 -1.016517,0.43038 -1.453112,1.11633 -0.118201,0.18569 -0.228262,0.38888 -0.328081,0.60457 0.02371,0.002 0.04767,0.004 0.07135,0.007 0.757957,0.0943 1.298251,0.79094 1.62661,1.65911 0.289035,0.76417 0.423918,1.69101 0.366872,2.5877302 0.860057,-0.20486 1.52276,-0.9257502 1.595678,-1.8183902 0.07842,-0.95952 -0.09422,-2.00557 -0.434973,-2.80319 -0.340758,-0.79758 -0.83516,-1.30902 -1.347716,-1.35086 -0.03205,-0.003 -0.06422,-0.003 -0.09668,-0.002 z M 4.9631,6.3270648 c -0.493337,0 -1.009139,0.4513 -1.400046,1.19245 -0.390832,0.7412 -0.639352,1.7365 -0.639352,2.6669402 0,1.12267 0.902906,1.97444 2.039373,1.97444 0.625989,0 1.183092,-0.27383 1.5561,-0.70119 -0.149031,-0.36764 -0.209069,-0.77791 -0.156054,-1.20432 0.06884,-0.5537302 0.21769,-1.1094402 0.426277,-1.6242702 -0.108211,-0.40212 -0.253236,-0.78197 -0.427063,-1.11162 -0.390882,-0.74118 -0.905897,-1.1924 -1.399235,-1.1924 z m 4.277723,0.40252 c -0.03119,-3.8e-4 -0.06263,9.7e-4 -0.09432,0.004 -0.443187,0.0422 -0.929882,0.412 -1.349339,1.0134 -0.479291,0.68727 -0.848597,1.64375 -0.9634,2.5670902 -0.138534,1.11415 0.651699,2.07109 1.77952,2.21132 1.123003,0.13965 2.134348,-0.63633 2.267608,-1.70822 0.114778,-0.9233502 -0.0086,-1.9410002 -0.305059,-2.7248002 -0.0161,-0.0426 -0.03281,-0.0841 -0.04987,-0.12514 l -0.763002,0.61716 0.17981,0.19254 -0.346234,0.32326 -0.353308,-0.3779 -0.173548,-0.1862 0.198091,-0.16003 1.041871,-0.84378 c -0.273772,-0.46203 -0.615772,-0.75149 -0.976128,-0.79632 -0.03058,-0.004 -0.06148,-0.006 -0.09267,-0.006 z"/></svg>
