<svg role="img" focusable="false" aria-hidden="true" xmlns="http://www.w3.org/2000/svg" viewBox="0 0 14 14"><path d="m 6.511791,1.0001634 c -2.287999,-0.004 -4.412497,0.063 -4.385714,0.21094 l 0.563199,0.92183 c 1.51411,-0.13008 2.95782,-0.17727 4.40408,-0.16758 1.356985,0.009 2.716521,0.0681 4.134724,0.15534 l 0.795826,-0.84888 c -0.114783,-0.17192 -2.918029,-0.26732 -5.512115,-0.27165 z m 0.09693,1.42356 c -1.252406,0.003 -2.507362,0.0508 -3.818179,0.1612 -0.555803,3.15423 -0.863675,7.00327 -0.14029,9.3779896 l -0.674158,0.79073 c 3.267987,0.24487 6.594131,0.32394 9.75958,0.16069 l -0.762667,-0.90805 c 0.49229,-2.7088696 0.339247,-6.4074196 0.0051,-9.4407396 -1.305971,-0.0781 -2.558376,-0.13009 -3.808231,-0.14004 l 3.423071,3.14275 H 8.774281 c 0.09693,0.58922 0.520348,1.38504 0.966725,2.1222 0.252521,0.41832 0.510144,0.82388 0.70655,1.18099 0.196406,0.3571 0.346899,0.65553 0.346899,0.95652 0,0.7141996 -0.482087,1.3008696 -1.191188,1.6809196 -0.709102,0.38261 -1.660522,0.58922 -2.71142,0.58922 -1.050898,0 -2.002318,-0.20661 -2.711419,-0.58922 -0.709102,-0.38005 -1.191188,-0.96672 -1.191188,-1.6809196 0,-0.30609 0.158144,-0.60452 0.364753,-0.96673 0.206609,-0.3622 0.474435,-0.77032 0.734609,-1.19374 0.45913,-0.74226 0.877449,-1.54318 0.936115,-2.09924 h -2.00997 z m 0.280579,0.36653 -2.650202,2.31887 h 1.232 l 0.01785,0.20916 c 0.06887,0.81368 -0.482087,1.73449 -1.010087,2.59153 -0.265275,0.42852 -0.53055,0.83409 -0.724405,1.17844 -0.196406,0.34179 -0.306087,0.63768 -0.306087,0.73971 0,0.3723996 0.17855,0.7014496 0.512695,0.9845796 1.382493,-0.17345 2.091594,-0.27038 2.713971,-0.29079 0.0153,-0.21681 0.04336,-0.43362 0.07907,-0.6427796 -0.933565,0.0587 -1.793159,-0.1913 -2.639999,-0.49229 0.380058,-0.73461 1.078956,-1.2473 1.708985,-1.24475 0.117333,0 0.232116,0.0153 0.341797,0.0536 0.285681,0.0918 0.543304,0.60453 0.714202,1.0356 0.05612,-0.26783 0.109682,-0.49739 0.132638,-0.66574 v -0.003 c 0.02296,-0.15815 -0.04081,-0.61218 -0.122435,-0.98713 -0.05867,-0.27038 -0.119884,-0.5076 -0.150492,-0.61983 -0.160696,0 -0.303537,-0.0306 -0.397913,-0.12753 -0.647884,-0.6734 -0.227015,-1.91815 0.329043,-2.61195 0.395362,0.65809 0.910609,1.36719 1.428405,1.85693 -0.112231,0.37751 -0.316289,0.68104 -0.711652,0.81623 -0.05357,0.005 -0.119884,0.0128 -0.186202,0.023 0.03571,0.13264 0.08672,0.33159 0.137739,0.56371 0.03316,0.14539 0.06377,0.29588 0.08928,0.44638 0.135188,-0.12499 0.290783,-0.23977 0.418319,-0.24487 h 0.02806 c 0.714202,0.0663 1.522782,0.75501 1.72684,1.76 -0.701449,-0.3214 -1.504927,-0.13519 -2.140058,-0.77032 -0.07142,0.47443 -0.270376,1.18863 -0.323941,1.8569196 0.614724,0.0204 1.323825,0.11734 2.685912,0.28824 0.334145,-0.28313 0.512695,-0.61218 0.512695,-0.9845796 0,-0.10713 -0.104579,-0.39792 -0.290782,-0.73461 -0.186203,-0.33925 -0.438725,-0.73971 -0.696348,-1.16568 -0.512695,-0.84684 -1.053449,-1.76765 -1.053449,-2.58899 v -0.22956 h 1.119768 z m 0.0026,8.1829796 c -0.568811,0 -1.170782,0.0765 -2.313506,0.22191 0.604521,0.27803 1.415651,0.44383 2.313506,0.44383 0.897855,0 1.708985,-0.1658 2.313507,-0.44383 -1.142725,-0.14539 -1.744696,-0.22191 -2.313507,-0.22191 z"/></svg>
