<svg role="img" focusable="false" aria-hidden="true" xmlns="http://www.w3.org/2000/svg" viewBox="0 0 14 14"><path d="M 5.2857143,1 H 1.8571429 C 1.3837857,1 1,1.38373 1,1.85714 v 3.42857 c 0,0.47342 0.3837857,0.85715 0.8571429,0.85715 h 3.4285714 c 0.4734107,0 0.8571428,-0.38373 0.8571428,-0.85715 V 1.85714 C 6.1428571,1.38373 5.759125,1 5.2857143,1 Z M 4.4285714,4.42857 H 2.7142857 V 2.71429 H 4.4285714 Z M 5.2857143,7.85714 H 1.8571429 C 1.3837857,7.85714 1,8.24088 1,8.71429 v 3.42857 C 1,12.61627 1.3837857,13 1.8571429,13 H 5.2857143 C 5.759125,13 6.1428571,12.61627 6.1428571,12.14286 V 8.71429 c 0,-0.47341 -0.3837321,-0.85715 -0.8571428,-0.85715 z M 4.4285714,11.28571 H 2.7142857 V 9.57143 H 4.4285714 Z M 12.142857,1 H 8.7142857 C 8.2409286,1 7.8571429,1.38373 7.8571429,1.85714 v 3.42857 c 0,0.47342 0.3837857,0.85715 0.8571428,0.85715 H 12.142857 C 12.616268,6.14286 13,5.75913 13,5.28571 V 1.85714 C 13,1.38373 12.616268,1 12.142857,1 Z M 11.285714,4.42857 H 9.5714286 V 2.71429 H 11.285714 Z M 10.428571,13 h 0.857143 V 12.14286 H 10.428571 Z M 12.142857,8.71429 H 10.428571 V 7.85714 H 7.8571429 V 13 h 1.7142857 v -2.57143 h 0.8571424 v 0.85714 H 13 V 7.85714 h -0.857143 z m 0,4.28571 H 13 v -0.85714 h -0.857143 z"/></svg>
