<svg role="img" focusable="false" aria-hidden="true" xmlns="http://www.w3.org/2000/svg" viewBox="0 0 14 14"><path d="m 6.9999955,11.50293 c -0.1816406,0 -0.3603516,-0.0439 -0.5214844,-0.12891 L 6.2499955,11.25098 V 12.625 c 0,0.20508 0.1699219,0.375 0.375,0.375 h 0.75 c 0.2050781,0 0.375,-0.16992 0.375,-0.375 V 11.24805 L 7.5214799,11.37109 C 7.3603471,11.45898 7.1816361,11.50293 6.9999955,11.50293 Z M 12.197637,5.36523 11.576542,4.75 12.007207,4.32227 C 12.124394,4.20508 12.042363,4 11.872441,4 H 9.1125814 C 9.1975424,3.76562 9.2502768,3.51367 9.2502768,3.25 9.2502768,2.00781 8.2424174,1 7.000183,1 5.7579486,1 4.7500892,2.00781 4.7500892,3.25 c 0,0.26367 0.052781,0.51562 0.1377422,0.75 h -2.762789 c -0.1670391,0 -0.252,0.20215 -0.1348125,0.32227 L 2.4238705,4.75 1.8027299,5.36523 c -0.070312,0.0733 -0.070312,0.19336 0,0.26661 L 2.4238705,6.25 1.9931596,6.67773 C 1.8759721,6.79492 1.9580033,7 2.1279721,7 h 2.4873515 l -0.609375,3.31055 c -0.049805,0.30468 0.2607422,0.53613 0.5361328,0.39843 l 0.7646954,-0.56836 c 0.1171875,-0.0879 0.2724609,-0.0996 0.4013671,-0.0293 l 1.1221172,0.59765 c 0.1054688,0.0557 0.2314453,0.0557 0.3369141,0 l 1.1221172,-0.59765 c 0.1289062,-0.0703 0.2841797,-0.0586 0.4013672,0.0293 l 0.7646953,0.56836 c 0.2753906,0.1377 0.5888671,-0.0937 0.5390625,-0.39843 L 9.3879721,7 h 2.4873989 c 0.166992,0 0.251953,-0.20215 0.134766,-0.32227 L 11.576542,6.25 12.194707,5.63477 c 0.07324,-0.0762 0.07324,-0.19336 0.0029,-0.26954 z M 6.250183,3.25 C 6.045058,3.25 5.8751361,3.08008 5.8751361,2.875 5.8751361,2.66992 6.045058,2.5 6.250183,2.5 c 0.2050781,0 0.375,0.16992 0.375,0.375 0,0.20508 -0.1699219,0.375 -0.375,0.375 z M 7.7502299,3.625 C 7.5451517,3.625 7.375183,3.45508 7.375183,3.25 c 0,-0.20508 0.1699687,-0.375 0.3750469,-0.375 0.2050781,0 0.375,0.16992 0.375,0.375 0,0.20508 -0.1699219,0.375 -0.375,0.375 z"/></svg>
