<svg role="img" focusable="false" aria-hidden="true" xmlns="http://www.w3.org/2000/svg" viewBox="0 0 14 14"><path d="M 3.25,1.75 H 1.75 C 1.3357656,1.75 1,2.08577 1,2.5 V 7.75 C 1,8.16419 1.3357656,8.5 1.75,8.5 h 1.5 C 3.6642344,8.5 4,8.16419 4,7.75 V 2.5 C 4,2.08577 3.6642344,1.75 3.25,1.75 Z m 8.701758,4.8806 C 12.13532,6.43052 12.25,6.16616 12.25,5.8732 12.25,5.32312 11.854633,4.86714 11.33268,4.76959 11.436789,4.59911 11.5,4.40085 11.5,4.18645 11.5,3.68664 11.171875,3.26809 10.720797,3.12168 10.738747,3.04192 10.749997,2.9597 10.749997,2.87451 10.75,2.25332 10.246469,1.75 9.625,1.75 H 8.2494297 C 7.4383281,1.75 6.6490703,2.01299 6.0000625,2.49953 L 5.1999531,3.09937 C 4.9167109,3.31169 4.75,3.64502 4.75,3.99902 v 3.74835 c 0,0 0.00448,0.004 0.00504,0.005 0.00164,0.32799 0.1409765,0.65243 0.4172109,0.87312 l 0.3819375,0.3053 C 7.472875,10.46528 6.6111953,12.25 8.0907813,12.25 c 0.7255078,0 1.1593359,-0.57476 1.1593359,-1.12758 0,-0.35501 -0.2755078,-1.36209 -0.8091328,-2.25054 H 11.875 C 12.496469,8.87188 13,8.36856 13,7.74737 13,7.15246 12.536734,6.67068 11.951758,6.6306 Z"/></svg>
