<svg role="img" focusable="false" aria-hidden="true" xmlns="http://www.w3.org/2000/svg" viewBox="0 0 14 14"><path d="M 4,11.5 V 6.25 C 4,5.83581 3.6642344,5.5 3.25,5.5 H 1.75 C 1.3357656,5.5 1,5.83581 1,6.25 v 5.25 c 0,0.41423 0.3357656,0.75 0.75,0.75 h 1.5 C 3.6642344,12.25 4,11.91423 4,11.5 Z M 13,6.25263 C 13,5.63144 12.496469,5.12812 11.875,5.12812 H 8.4409844 C 8.9746094,4.23967 9.2501172,3.23259 9.2501172,2.87758 9.2501172,2.32476 8.8162891,1.75 8.0907813,1.75 6.6111953,1.75 7.472875,3.53472 5.5541875,5.06917 L 5.17225,5.37447 C 4.8960156,5.59516 4.7566797,5.9196 4.7550391,6.24759 c -5.625e-4,5.6e-4 -0.00504,0.005 -0.00504,0.005 v 3.74835 c 0,0.354 0.1667109,0.68733 0.4499531,0.89965 l 0.8001094,0.59984 C 6.6490703,11.98701 7.4383281,12.25 8.2494297,12.25 H 9.625 c 0.621469,0 1.125,-0.50332 1.125,-1.12451 0,-0.0852 -0.01125,-0.16741 -0.0292,-0.24717 0.451078,-0.14641 0.779203,-0.56496 0.779203,-1.06477 0,-0.2144 -0.06321,-0.41266 -0.16732,-0.58314 0.521953,-0.0976 0.91732,-0.55353 0.91732,-1.10361 0,-0.29296 -0.11468,-0.55732 -0.298242,-0.7574 C 12.536734,7.32932 13,6.84754 13,6.25263 Z"/></svg>
