<svg role="img" focusable="false" aria-hidden="true" xmlns="http://www.w3.org/2000/svg" viewBox="0 0 14 14"><path d="m 12.4375,1.75 v 0 c -0.310664,0 -0.5625,0.25184 -0.5625,0.5625 V 2.5 h -0.75 V 2.3125 C 11.125,2.00184 10.873164,1.75 10.5625,1.75 v 0 C 10.251836,1.75 10,2.00184 10,2.3125 V 2.5 H 7.75 V 1.375 C 7.75,1.16788 7.5821172,1 7.375,1 H 6.625 C 6.4178828,1 6.25,1.16788 6.25,1.375 V 2.5 H 4 V 2.3125 C 4,2.00184 3.7481641,1.75 3.4375,1.75 v 0 C 3.1268359,1.75 2.875,2.00184 2.875,2.3125 V 2.5 H 2.125 V 2.3125 C 2.125,2.00184 1.8731641,1.75 1.5625,1.75 v 0 C 1.2518359,1.75 1,2.00184 1,2.3125 V 3.25 C 1,3.66421 1.3357891,4 1.75,4 H 2.9489688 L 6.25,6.20069 V 13 h 1.5 V 6.20069 L 11.051031,4 H 12.25 C 12.664211,4 13,3.66421 13,3.25 V 2.3125 C 13,2.00184 12.748164,1.75 12.4375,1.75 Z M 4.3010313,4 H 6.25 V 5.29933 Z M 7.75,4 H 9.6989688 L 7.75,5.29933 Z"/></svg>
