<svg role="img" focusable="false" aria-hidden="true" xmlns="http://www.w3.org/2000/svg" viewBox="0 0 14 14"><path d="m 4.9335663,0.999995 c -0.368254,0 -0.965079,0.0988 -1.44,0.28851 -0.235936,0.0947 -0.442158,0.21257 -0.576254,0.33651 a 0.7592381,0.7592381 0 0 0 -0.117333,0.13688 h 4.266921 c -0.03048,-0.045 -0.06603,-0.0902 -0.116826,-0.13688 -0.134603,-0.12394 -0.340317,-0.24178 -0.576508,-0.33651 -0.47492,-0.18972 -1.071746,-0.28851 -1.44,-0.28851 z m -1.803174,1.21905 v 3.29905 l 1.803174,1.0819 1.803175,-1.0819 v -3.29905 z m 4.241269,1.98095 v 0.45714 h 0.584127 v 0.35556 h -0.761904 v 0.45714 h 1.302857 l 0.744127,0.74667 0.325079,-0.32508 -0.88127,-0.87873 h -0.271746 v -0.35556 h 0.584127 v -0.45714 z m -4.351746,1.7854 -1.156317,6.93841 0.451048,0.0762 0.442412,-2.65397 h 4.353016 l 0.441905,2.65397 0.452063,-0.0762 -1.155555,-6.93841 -0.424127,0.25397 0.347936,2.07746 -1.83873,0.67047 -1.838222,-0.66793 0.347429,-2.08 z m 6.683175,0.56889 c 0,0 -0.259048,1.25968 0.132064,1.51619 0.2488877,0.16254 0.7314277,-0.0736 0.7873007,-0.39111 0.09651,-0.49778 -0.9193647,-1.12508 -0.9193647,-1.12508 z m 0.7415867,2.16634 c 0,0 -0.340317,0.73905 -0.147301,0.97778 0.124444,0.14984 0.441905,0.094 0.523174,-0.0914 0.132064,-0.2946 -0.375873,-0.88635 -0.375873,-0.88635 z m -7.4262847,0.0584 1.242158,0.45206 -1.402412,0.51048 z m 3.830095,0 0.16,0.96254 -1.401905,-0.51048 z m 4.5460317,0.19047 c 0,0 0.03556,0.81524 0.31492,0.93715 0.182857,0.0762 0.436826,-0.11937 0.426667,-0.32254 -0.02032,-0.32 -0.741587,-0.61461 -0.741587,-0.61461 z m -6.4609527,0.5054 1.137778,0.41397 h -2.275556 z m 6.3923807,1.02857 c 0,0 -0.08635,0.54603 0.08635,0.6654 0.109207,0.0737 0.307302,-0.0254 0.32508,-0.16 0.03302,-0.21841 -0.411429,-0.5054 -0.41143,-0.5054 z"/></svg>
