<svg role="img" focusable="false" aria-hidden="true" xmlns="http://www.w3.org/2000/svg" viewBox="0 0 14 14"><path d="M 11.656751,10.979535 9.5860696,6.7065552 c -0.1389376,-0.31871 -0.1451251,-0.67964 -0.017133,-1.00287 l 1.7174784,-4.19682 c 0.0754,-0.19012 -0.01758,-0.40535 -0.207704,-0.48075 -0.157593,-0.0625 -0.337594,-0.01 -0.436805,0.12757 l -2.6746663,3.67182 c -0.2036955,0.28174 -0.5113364,0.47072 -0.854743,0.52495 l -4.4877699,0.71086 c -0.1828361,0.0291 -0.3160784,0.18874 -0.3121409,0.37381 v 0.005 c 0.0042,0.18586 0.1456173,0.3398 0.3304456,0.35977 l 4.4467074,0.48115 c 0.3457972,0.0374 0.6623912,0.21093 0.8798446,0.48229 l 3.0541205,3.5975698 c 0.11632,0.14505 0.322125,0.18145 0.481149,0.0851 l 0.0044,-0.003 c 0.158297,-0.096 0.221273,-0.29423 0.147445,-0.46402 z M 8.3124981,6.8127052 c -0.3106878,0 -0.5625006,-0.25182 -0.5625006,-0.56246 0,-0.31069 0.2518128,-0.5625 0.5625006,-0.5625 0.3106409,0 0.5624536,0.25181 0.5624536,0.5625 0,0.31064 -0.2518127,0.56246 -0.5624536,0.56246 z M 10.517899,12.249995 H 9.385421 L 9.2682334,10.453365 7.4921613,8.3595252 7.2395283,12.249995 H 6.1070507 c -0.3275863,3.7e-4 -0.6269303,0.18558 -0.7734148,0.47859 -0.046359,0.0926 -0.00888,0.20522 0.083742,0.25161 0.025664,0.0128 0.053953,0.0196 0.082664,0.0198 h 5.6249121 c 0.103546,-5e-5 0.187453,-0.0841 0.187359,-0.18757 0,-0.0291 -0.0068,-0.0578 -0.0198,-0.0838 -0.146625,-0.29341 -0.446578,-0.47871 -0.77461,-0.47859 z"/></svg>
