<svg role="img" focusable="false" aria-hidden="true" xmlns="http://www.w3.org/2000/svg" viewBox="0 0 14 14"><path d="M 9.957538,0.99996 9.13102,1.41322 v 1.54972 h 0.413259 z m -1.471925,0.0494 -0.50916,0.77115 0.77486,1.3421 0.357856,-0.20662 z m 1.84892,0.58846 -0.77486,1.34206 0.357856,0.20663 1.339397,-1.49334 z M 7.235557,1.82812 7.180207,2.75052 8.522264,3.52538 8.728894,3.16747 7.235532,1.8281 Z M 11.264494,2.43407 9.922437,3.20893 10.129066,3.56681 12.035687,2.9432 11.264494,2.43404 Z M 1.914929,2.65116 2.303521,3.89062 1.914929,5.13009 5.441111,4.75518 5.737366,4.12522 H 6.42087 V 3.66031 H 5.73938 L 5.441111,3.02603 5.310986,3.01223 1.914929,2.65115 Z M 6.542316,3.12749 6.955575,3.954 h 1.54972 V 3.54075 Z m 3.579776,0.46117 V 4.00192 L 12.085071,4.41518 11.671812,3.58866 Z M 8.498373,3.97583 6.5917,4.59944 7.362867,5.10857 8.704976,4.33371 8.498347,3.9758 Z m 1.606724,0.0415 -0.206629,0.35793 1.493336,1.33934 0.0554,-0.92241 -1.342135,-0.77486 z M 8.709832,4.3562 7.370409,5.84951 8.292828,5.90491 9.067688,4.56286 8.709806,4.35623 Z M 9.8761,4.3801 9.518166,4.58673 10.141799,6.4934 10.650986,5.72216 9.876126,4.3801 Z M 9.083108,4.57975 8.669849,6.54273 9.496367,6.12947 V 4.57975 Z M 8.255222,6.77015 8.214542,7.37971 H 7.660646 v 0.46492 h 0.522927 l -0.34161,5.12441 0.463883,0.031 0.06819,-1.02282 h 0.707189 v 1.00732 h 0.464916 v -1.00732 h 0.707189 l 0.06819,1.02282 0.463883,-0.031 -0.341584,-5.12441 h 0.522927 V 7.37971 H 10.41285 L 10.3722,6.77015 9.908266,6.80115 9.946856,7.37971 H 9.546139 V 6.78565 H 9.081223 V 7.37971 H 8.680517 L 8.719127,6.80115 8.255193,6.77015 Z M 8.649548,7.84463 H 9.081223 V 9.85926 H 8.515265 L 8.649574,7.84463 Z m 0.896591,0 h 0.431674 l 0.134309,2.01463 H 9.546164 V 7.84463 Z m -1.058976,2.43582 v 0.0437 h 0.59406 v 1.18812 H 8.405028 Z m 1.653035,0 0.08213,1.23185 H 9.546139 v -1.18812 h 0.594059 z"/></svg>
